<?xml version="1.0" encoding="UTF-8"?>
<svg width="16px" height="16px" viewBox="0 0 16 16" version="1.1" xmlns="http://www.w3.org/2000/svg" xmlns:xlink="http://www.w3.org/1999/xlink">
    <!-- Generator: Sketch 52.5 (67469) - http://www.bohemiancoding.com/sketch -->
    <title>close@2x</title>
    <desc>Created with Sketch.</desc>
    <g id="摩尔支付开放平台" stroke="none" stroke-width="1" fill="none" fill-rule="evenodd">
        <g id="登录" transform="translate(-839.000000, -624.000000)" fill="#979797" fill-rule="nonzero">
            <g id="弹窗" transform="translate(561.000000, 600.000000)">
                <path d="M286,30.093232 L291.698327,24.3949046 C292.224867,23.8683651 293.078556,23.8683651 293.605095,24.3949046 C294.131635,24.921444 294.131635,25.7751331 293.605095,26.3016725 L287.906768,32 L293.605095,37.6983275 C294.131635,38.2248669 294.131635,39.078556 293.605095,39.6050954 C293.078556,40.1316349 292.224867,40.1316349 291.698327,39.6050954 L286,33.906768 L280.301673,39.6050954 C279.775133,40.1316349 278.921444,40.1316349 278.394905,39.6050954 C277.868365,39.078556 277.868365,38.2248669 278.394905,37.6983275 L284.093232,32 L278.394905,26.3016725 C277.868365,25.7751331 277.868365,24.921444 278.394905,24.3949046 C278.921444,23.8683651 279.775133,23.8683651 280.301673,24.3949046 L286,30.093232 Z" id="close"></path>
            </g>
        </g>
    </g>
</svg>