<?xml version="1.0" encoding="UTF-8"?>
<svg width="97px" height="68px" viewBox="0 0 97 68" version="1.1" xmlns="http://www.w3.org/2000/svg" xmlns:xlink="http://www.w3.org/1999/xlink">
    <!-- Generator: Sketch 52.5 (67469) - http://www.bohemiancoding.com/sketch -->
    <title>mdpi/game</title>
    <desc>Created with Sketch.</desc>
    <g id="摩尔支付开放平台" stroke="none" stroke-width="1" fill="none" fill-rule="evenodd">
        <g id="首页" transform="translate(-360.000000, -1029.000000)" fill-rule="nonzero">
            <g id="game" transform="translate(359.000000, 1029.000000)">
                <path d="M2.19711512,14.9760366 L66.7027271,15.1629609 C68.3527681,15.1677424 69.6892107,16.5041616 69.694021,18.1542025 L69.6992303,19.9410763 C69.7040605,21.5979235 68.3648361,22.9449792 66.7079889,22.9498094 C66.7021758,22.9498263 66.6963627,22.9498264 66.6905497,22.9498095 L2.18493767,22.7628852 C0.534896699,22.7581038 -0.801545867,21.4216846 -0.806356223,19.7716437 L-0.811565487,17.9847699 C-0.816395685,16.3279227 0.522828709,14.980867 2.17967592,14.9760368 C2.18548897,14.9760198 2.19130207,14.9760198 2.19711512,14.9760366 Z" id="矩形-copy-23" fill="#EFEFEF" transform="translate(34.443832, 18.962923) rotate(-22.000000) translate(-34.443832, -18.962923) "></path>
                <path d="M20.2257001,28.9161153 L67.10489,29.0519618 C68.754931,29.0567433 70.0913736,30.3931624 70.0961839,32.0432033 L70.1013932,33.8300771 C70.1062234,35.4869243 68.766999,36.83398 67.1101518,36.8388102 C67.1043387,36.8388272 67.0985256,36.8388272 67.0927126,36.8388104 L20.2135226,36.7029639 C18.5634816,36.6981824 17.2270391,35.3617633 17.2222287,33.7117224 L17.2170195,31.9248486 C17.2121893,30.2680014 18.5514137,28.9209457 20.2082609,28.9161155 C20.2140739,28.9160985 20.219887,28.9160985 20.2257001,28.9161153 Z" id="矩形-copy-24" fill="#EFEFEF" transform="translate(43.659206, 32.877463) rotate(-22.000000) translate(-43.659206, -32.877463) "></path>
                <path d="M17.0708036,38.9542982 L97.2443463,39.186625 C98.8943873,39.1914065 100.23083,40.5278257 100.23564,42.1778666 L100.240849,43.9647404 C100.24568,45.6215876 98.9064553,46.9686433 97.2496081,46.9734735 C97.243795,46.9734904 97.2379819,46.9734905 97.2321689,46.9734736 L17.0586262,46.7411468 C15.4085852,46.7363654 14.0721426,45.3999462 14.0673323,43.7499053 L14.062123,41.9630315 C14.0572928,40.3061843 15.3965172,38.9591286 17.0533644,38.9542984 C17.0591775,38.9542814 17.0649906,38.9542814 17.0708036,38.9542982 Z" id="矩形-copy-25" fill="#EFEFEF" transform="translate(57.151486, 42.963886) rotate(-22.000000) translate(-57.151486, -42.963886) "></path>
                <path d="M35.3316957,53.969714 L66.5429549,54.060158 C68.1929959,54.0649394 69.5294384,55.4013586 69.5342488,57.0513995 L69.5394581,58.8382733 C69.5442883,60.4951205 68.2050639,61.8421762 66.5482167,61.8470064 C66.5424036,61.8470234 66.5365905,61.8470234 66.5307774,61.8470066 L35.3195182,61.7565626 C33.6694772,61.7517811 32.3330347,60.415362 32.3282243,58.7653211 L32.323015,56.9784473 C32.3181849,55.3216001 33.6574092,53.9745444 35.3142565,53.9697142 C35.3200695,53.9696972 35.3258826,53.9696972 35.3316957,53.969714 Z" id="矩形-copy-26" fill="#EFEFEF" transform="translate(50.931237, 57.908360) rotate(-22.000000) translate(-50.931237, -57.908360) "></path>
                <path d="M19.4346405,21.7156863 L19.4346405,23.5092593 L21.2445534,23.5092593 C21.1473922,23.5092593 21.0686275,23.4304945 21.0686275,23.3333333 C21.0686275,23.2361721 21.1473922,23.1574074 21.2445534,23.1574074 L17.9711329,23.1574074 C18.0682941,23.1574074 18.1470588,23.2361721 18.1470588,23.3333333 C18.1470588,23.4304945 18.0682941,23.5092593 17.9711329,23.5092593 L19.2810458,23.5092593 L19.4346405,23.5092593 L19.4346405,24.9509804 C19.4346405,24.8553232 19.512186,24.7777778 19.6078431,24.7777778 C19.7035003,24.7777778 19.7810458,24.8553232 19.7810458,24.9509804 L19.7810458,21.7156863 C19.7810458,21.8113434 19.7035003,21.8888889 19.6078431,21.8888889 C19.512186,21.8888889 19.4346405,21.8113434 19.4346405,21.7156863 Z" id="合并形状-copy-2" stroke="#EE4A63"></path>
                <path d="M70.4150327,10.0490196 L70.4150327,13.2843137 C70.4150327,13.1886566 70.4925781,13.1111111 70.5882353,13.1111111 C70.6838925,13.1111111 70.7614379,13.1886566 70.7614379,13.2843137 L70.7614379,10.0490196 C70.7614379,10.1446768 70.6838925,10.2222222 70.5882353,10.2222222 C70.4925781,10.2222222 70.4150327,10.1446768 70.4150327,10.0490196 Z M72.2249455,11.4907407 L68.9515251,11.4907407 C69.0486863,11.4907407 69.127451,11.5695055 69.127451,11.6666667 C69.127451,11.7638279 69.0486863,11.8425926 68.9515251,11.8425926 L72.2249455,11.8425926 C72.1277843,11.8425926 72.0490196,11.7638279 72.0490196,11.6666667 C72.0490196,11.5695055 72.1277843,11.4907407 72.2249455,11.4907407 Z" id="合并形状-copy-3" stroke="#D0D3D5"></path>
                <ellipse id="椭圆形-copy-4" stroke="#F8CC61" stroke-width="0.5" cx="15.6862745" cy="48.6111111" rx="1.96078431" ry="1.94444444"></ellipse>
                <ellipse id="椭圆形-copy-5" stroke="#F8CC61" stroke-width="0.5" cx="75.4901961" cy="30.1388889" rx="1" ry="1"></ellipse>
                <ellipse id="椭圆形" stroke="#5C2849" fill="#FDFDFD" cx="46.0784314" cy="61.25" rx="4.90196078" ry="4.86111111"></ellipse>
                <g id="分组-2" transform="translate(24.490196, 0.000000)">
                    <path d="M10.7780367,38.2936016 C4.89553887,34.6995326 0.974121094,28.2531983 0.974121094,20.8986003 C0.974121094,9.62278662 10.191788,0.481933594 21.5623564,0.481933594 C32.9329248,0.481933594 42.1505917,9.62278662 42.1505917,20.8986003 C42.1505917,28.2531983 38.2291739,34.6995326 32.3466761,38.2936016 L32.3466701,47.1486003 L10.7780427,47.1486003 L10.7780427,38.2936052 Z" id="合并形状" stroke="#5C2849" fill="#F7C548"></path>
                    <path d="M19.2370605,0.984935528 C19.8951198,0.922386414 20.5622829,0.890380859 21.2370605,0.890380859 C32.5588979,0.890380859 41.7370605,9.90065027 41.7370605,21.0153809 C41.7370605,28.2649132 37.8324488,34.619157 31.9751617,38.1618821 L31.9751558,46.8903809 L27.9751558,46.8903809 L27.9751617,38.1618821 C33.8324488,34.619157 37.7370605,28.2649132 37.7370605,21.0153809 C37.7370605,10.5630844 29.6203267,1.97187416 19.2370605,0.984935528 Z" id="合并形状" fill="#EE4A63"></path>
                    <rect id="矩形" stroke="#5C2849" x="12.8736022" y="20.5800917" width="16.6470588" height="1" rx="0.5"></rect>
                    <path d="M12.3717903,23.5254712 C12.1057816,23.5265842 11.8904147,23.7419511 11.8893017,24.0079598 C11.8892962,24.0099187 11.8892962,24.0099187 11.8893017,24.0118776 C11.8903836,24.2704438 12.10087,24.4791762 12.3594363,24.4780943 L20.1698938,24.4454146 C20.4359025,24.4443016 20.6512693,24.2289347 20.6523823,23.962926 C20.6523878,23.9609671 20.6523878,23.9609671 20.6523823,23.9590082 C20.6513005,23.700442 20.4408141,23.4917096 20.1822478,23.4927915 L12.3717903,23.5254712 Z" id="矩形-copy-11" stroke="#5C2849" transform="translate(16.270842, 23.985443) rotate(-314.000000) translate(-16.270842, -23.985443) "></path>
                    <path d="M18.6762937,26.6387554 C18.674586,26.6387513 18.674586,26.6387513 18.6728782,26.6387554 C18.4125929,26.6396966 18.2023529,26.8514625 18.2032941,27.1117479 C18.2042586,27.378492 18.4202561,27.5944928 18.6870002,27.5954613 L32.3185363,27.6449593 C32.320244,27.6449634 32.320244,27.6449634 32.3219517,27.6449593 C32.5822371,27.6440181 32.7924771,27.4322522 32.7915359,27.1719668 C32.7905714,26.9052226 32.5745739,26.6892219 32.3078298,26.6882533 L18.6762937,26.6387554 Z" id="矩形-copy-12" stroke="#5C2849" transform="translate(25.497415, 27.141857) rotate(-240.000000) translate(-25.497415, -27.141857) "></path>
                    <path d="M15.2774435,39.4509583 C15.0121302,39.4509583 14.7970513,39.6660372 14.7970513,39.9313505 C14.7970513,40.1966637 15.0121302,40.4117426 15.2774435,40.4117426 L28.8722147,40.4117426 C29.137528,40.4117426 29.3526069,40.1966637 29.3526069,39.9313505 C29.3526069,39.6660372 29.137528,39.4509583 28.8722147,39.4509583 L15.2774435,39.4509583 Z" id="矩形-copy-13" stroke="#5C2849" transform="translate(22.074829, 39.931350) rotate(-270.000000) translate(-22.074829, -39.931350) "></path>
                    <rect id="矩形" stroke="#632F4F" fill="#FFFFFF" x="5.42156863" y="47.1666667" width="30.372549" height="5.77777778" rx="2"></rect>
                    <rect id="矩形-copy-10" stroke="#632F4F" fill="#FFFFFF" x="5.42156863" y="53" width="30.372549" height="6.77777778" rx="2"></rect>
                </g>
            </g>
        </g>
    </g>
</svg>