<?xml version="1.0" encoding="UTF-8"?>
<svg width="18px" height="18px" viewBox="0 0 18 18" version="1.1" xmlns="http://www.w3.org/2000/svg" xmlns:xlink="http://www.w3.org/1999/xlink">
    <!-- Generator: Sketch 52.5 (67469) - http://www.bohemiancoding.com/sketch -->
    <title>guangbi@1x</title>
    <desc>Created with Sketch.</desc>
    <g id="摩尔支付开放平台" stroke="none" stroke-width="1" fill="none" fill-rule="evenodd">
        <g id="应用详情弹窗" transform="translate(-990.000000, -293.000000)" fill="#9B9B9B" fill-rule="nonzero">
            <g id="分组-2" transform="translate(561.000000, 274.000000)">
                <path d="M438,25.6859263 L443.656596,20.0293303 C444.04712,19.638806 444.680285,19.638806 445.07081,20.0293303 L445.97067,20.9291904 C446.361194,21.3197147 446.361194,21.9528797 445.97067,22.343404 L440.314074,28 L445.97067,33.656596 C446.361194,34.0471203 446.361194,34.6802853 445.97067,35.0708096 L445.07081,35.9706697 C444.680285,36.361194 444.04712,36.361194 443.656596,35.9706697 L438,30.3140737 L432.343404,35.9706697 C431.95288,36.361194 431.319715,36.361194 430.92919,35.9706697 L430.02933,35.0708096 C429.638806,34.6802853 429.638806,34.0471203 430.02933,33.656596 L435.685926,28 L430.02933,22.343404 C429.638806,21.9528797 429.638806,21.3197147 430.02933,20.9291904 L430.92919,20.0293303 C431.319715,19.638806 431.95288,19.638806 432.343404,20.0293303 L438,25.6859263 Z" id="guangbi"></path>
            </g>
        </g>
    </g>
</svg>