<?xml version="1.0" encoding="UTF-8"?>
<svg width="18px" height="18px" viewBox="0 0 18 18" version="1.1" xmlns="http://www.w3.org/2000/svg" xmlns:xlink="http://www.w3.org/1999/xlink">
    <!-- Generator: Sketch 52.5 (67469) - http://www.bohemiancoding.com/sketch -->
    <title>guangbi@1x</title>
    <desc>Created with Sketch.</desc>
    <g id="摩尔支付开放平台" stroke="none" stroke-width="1" fill="none" fill-rule="evenodd">
        <g id="应用详情弹窗" transform="translate(-920.000000, -293.000000)" fill="#9B9B9B" fill-rule="nonzero">
            <g id="分组-2" transform="translate(561.000000, 274.000000)">
                <path d="M368,25.6859263 L373.656596,20.0293303 C374.04712,19.638806 374.680285,19.638806 375.07081,20.0293303 L375.97067,20.9291904 C376.361194,21.3197147 376.361194,21.9528797 375.97067,22.343404 L370.314074,28 L375.97067,33.656596 C376.361194,34.0471203 376.361194,34.6802853 375.97067,35.0708096 L375.07081,35.9706697 C374.680285,36.361194 374.04712,36.361194 373.656596,35.9706697 L368,30.3140737 L362.343404,35.9706697 C361.95288,36.361194 361.319715,36.361194 360.92919,35.9706697 L360.02933,35.0708096 C359.638806,34.6802853 359.638806,34.0471203 360.02933,33.656596 L365.685926,28 L360.02933,22.343404 C359.638806,21.9528797 359.638806,21.3197147 360.02933,20.9291904 L360.92919,20.0293303 C361.319715,19.638806 361.95288,19.638806 362.343404,20.0293303 L368,25.6859263 Z" id="guangbi"></path>
            </g>
        </g>
    </g>
</svg>