<?xml version="1.0" encoding="UTF-8"?>
<svg width="18px" height="18px" viewBox="0 0 18 18" version="1.1" xmlns="http://www.w3.org/2000/svg" xmlns:xlink="http://www.w3.org/1999/xlink">
    <!-- Generator: Sketch 52.5 (67469) - http://www.bohemiancoding.com/sketch -->
    <title>guangbi@1x</title>
    <desc>Created with Sketch.</desc>
    <g id="摩尔支付开放平台" stroke="none" stroke-width="1" fill="none" fill-rule="evenodd">
        <g id="申请弹窗" transform="translate(-838.000000, -466.000000)" fill="#9B9B9B" fill-rule="nonzero">
            <g id="分组-2" transform="translate(561.000000, 447.000000)">
                <path d="M286,25.6859263 L291.656596,20.0293303 C292.04712,19.638806 292.680285,19.638806 293.07081,20.0293303 L293.97067,20.9291904 C294.361194,21.3197147 294.361194,21.9528797 293.97067,22.343404 L288.314074,28 L293.97067,33.656596 C294.361194,34.0471203 294.361194,34.6802853 293.97067,35.0708096 L293.07081,35.9706697 C292.680285,36.361194 292.04712,36.361194 291.656596,35.9706697 L286,30.3140737 L280.343404,35.9706697 C279.95288,36.361194 279.319715,36.361194 278.92919,35.9706697 L278.02933,35.0708096 C277.638806,34.6802853 277.638806,34.0471203 278.02933,33.656596 L283.685926,28 L278.02933,22.343404 C277.638806,21.9528797 277.638806,21.3197147 278.02933,20.9291904 L278.92919,20.0293303 C279.319715,19.638806 279.95288,19.638806 280.343404,20.0293303 L286,25.6859263 Z" id="guangbi"></path>
            </g>
        </g>
    </g>
</svg>