<?xml version="1.0" encoding="UTF-8"?>
<svg width="18px" height="18px" viewBox="0 0 18 18" version="1.1" xmlns="http://www.w3.org/2000/svg" xmlns:xlink="http://www.w3.org/1999/xlink">
    <!-- Generator: Sketch 52.5 (67469) - http://www.bohemiancoding.com/sketch -->
    <title>guangbi@1x</title>
    <desc>Created with Sketch.</desc>
    <g id="摩尔支付开放平台" stroke="none" stroke-width="1" fill="none" fill-rule="evenodd">
        <g id="免费入驻" transform="translate(-883.000000, -227.000000)" fill="#9B9B9B" fill-rule="nonzero">
            <path d="M892,233.685926 L897.656596,228.02933 C898.04712,227.638806 898.680285,227.638806 899.07081,228.02933 L899.97067,228.92919 C900.361194,229.319715 900.361194,229.95288 899.97067,230.343404 L894.314074,236 L899.97067,241.656596 C900.361194,242.04712 900.361194,242.680285 899.97067,243.07081 L899.07081,243.97067 C898.680285,244.361194 898.04712,244.361194 897.656596,243.97067 L892,238.314074 L886.343404,243.97067 C885.95288,244.361194 885.319715,244.361194 884.92919,243.97067 L884.02933,243.07081 C883.638806,242.680285 883.638806,242.04712 884.02933,241.656596 L889.685926,236 L884.02933,230.343404 C883.638806,229.95288 883.638806,229.319715 884.02933,228.92919 L884.92919,228.02933 C885.319715,227.638806 885.95288,227.638806 886.343404,228.02933 L892,233.685926 Z" id="guangbi"></path>
        </g>
    </g>
</svg>