<?xml version="1.0" encoding="UTF-8"?>
<svg width="98px" height="76px" viewBox="0 0 98 76" version="1.1" xmlns="http://www.w3.org/2000/svg" xmlns:xlink="http://www.w3.org/1999/xlink">
    <!-- Generator: Sketch 52.5 (67469) - http://www.bohemiancoding.com/sketch -->
    <title>mdpi/jifen</title>
    <desc>Created with Sketch.</desc>
    <g id="摩尔支付开放平台" stroke="none" stroke-width="1" fill="none" fill-rule="evenodd">
        <g id="首页" transform="translate(-671.000000, -1026.000000)">
            <g id="jifen" transform="translate(670.000000, 1024.000000)">
                <path d="M-0.300771194,20.3333649 L76.8526445,22.0249299 C78.4573178,22.0601119 79.7500322,23.3520906 79.7861275,24.9567437 L79.8029978,25.7067265 C79.8402579,27.3631617 78.5276571,28.7361731 76.8712219,28.7734332 C76.8268197,28.774432 76.7824009,28.7744447 76.7379982,28.7734712 L-0.415417512,27.0819061 C-2.02009083,27.0467242 -3.31280521,25.7547454 -3.34890054,24.1500924 L-3.36577078,23.4001095 C-3.40303091,21.7436743 -2.09043014,20.3706629 -0.433994905,20.3334028 C-0.389592757,20.332404 -0.345173903,20.3323914 -0.300771194,20.3333649 Z" id="矩形" fill="#EFEFEF" fill-rule="nonzero" transform="translate(38.218613, 24.553418) rotate(-30.000000) translate(-38.218613, -24.553418) "></path>
                <path d="M22.8869762,27.1881568 L100.040392,28.8797218 C101.645065,28.9149038 102.93778,30.2068825 102.973875,31.8115356 L102.990745,32.5615184 C103.028005,34.2179536 101.715405,35.590965 100.058969,35.6282251 C100.014567,35.6292239 99.9701483,35.6292366 99.9257456,35.6282631 L22.7723299,33.936698 C21.1676565,33.9015161 19.8749422,32.6095373 19.8388468,31.0048843 L19.8219766,30.2549014 C19.7847165,28.5984662 21.0973172,27.2254548 22.7537525,27.1881947 C22.7981546,27.1871959 22.8425735,27.1871833 22.8869762,27.1881568 Z" id="矩形-copy-8" fill="#EFEFEF" fill-rule="nonzero" transform="translate(61.406361, 31.408210) rotate(-30.000000) translate(-61.406361, -31.408210) "></path>
                <path d="M22.7193597,42.8713484 L96.4078631,44.4869463 C98.0125364,44.5221283 99.3052508,45.8141071 99.3413461,47.4187601 L99.3582164,48.1687429 C99.3954765,49.8251782 98.0828757,51.1981895 96.4264405,51.2354497 C96.3820383,51.2364485 96.3376195,51.2364611 96.2932168,51.2354876 L22.6047134,49.6198897 C21.00004,49.5847077 19.7073257,48.292729 19.6712303,46.6880759 L19.6543601,45.9380931 C19.6171,44.2816579 20.9297007,42.9086465 22.586136,42.8713864 C22.6305381,42.8703876 22.674957,42.8703749 22.7193597,42.8713484 Z" id="矩形-copy-15" fill="#EFEFEF" fill-rule="nonzero" transform="translate(59.506288, 47.053418) rotate(-30.000000) translate(-59.506288, -47.053418) "></path>
                <path d="M34.1011077,56.7101452 L88.7325935,57.9079238 C90.3372669,57.9431058 91.6299812,59.2350846 91.6660766,60.8397376 L91.6829468,61.5897204 C91.7202069,63.2461557 90.4076062,64.619167 88.7511709,64.6564272 C88.7067688,64.657426 88.6623499,64.6574386 88.6179472,64.6564651 L33.9864613,63.4586865 C32.381788,63.4235045 31.0890737,62.1315257 31.0529783,60.5268727 L31.0361081,59.7768899 C30.998848,58.1204546 32.3114487,56.7474433 33.967884,56.7101831 C34.0122861,56.7091843 34.056705,56.7091717 34.1011077,56.7101452 Z" id="矩形-copy-18" fill="#EFEFEF" fill-rule="nonzero" transform="translate(61.359527, 60.683305) rotate(-30.000000) translate(-61.359527, -60.683305) "></path>
                <path d="M6.80994152,48.625731 L6.80994152,51.374269 C6.80994152,51.2596134 6.90288825,51.1666667 7.01754386,51.1666667 C7.13219947,51.1666667 7.2251462,51.2596134 7.2251462,51.374269 L7.2251462,48.625731 C7.2251462,48.7403866 7.13219947,48.8333333 7.01754386,48.8333333 C6.90288825,48.8333333 6.80994152,48.7403866 6.80994152,48.625731 Z M8.49415205,49.7777778 L5.54093567,49.7777778 C5.66366562,49.7777778 5.76315789,49.8772701 5.76315789,50 C5.76315789,50.1227299 5.66366562,50.2222222 5.54093567,50.2222222 L8.49415205,50.2222222 C8.3714221,50.2222222 8.27192982,50.1227299 8.27192982,50 C8.27192982,49.8772701 8.3714221,49.7777778 8.49415205,49.7777778 Z" id="合并形状" stroke="#EE4A63" fill-rule="nonzero"></path>
                <path d="M78.7397661,30.2923977 L78.7397661,33.0409357 C78.7397661,32.9262801 78.8327128,32.8333333 78.9473684,32.8333333 C79.062024,32.8333333 79.1549708,32.9262801 79.1549708,33.0409357 L79.1549708,30.2923977 C79.1549708,30.4070533 79.062024,30.5 78.9473684,30.5 C78.8327128,30.5 78.7397661,30.4070533 78.7397661,30.2923977 Z M80.4239766,31.4444444 L77.4707602,31.4444444 C77.5934902,31.4444444 77.6929825,31.5439367 77.6929825,31.6666667 C77.6929825,31.7893966 77.5934902,31.8888889 77.4707602,31.8888889 L80.4239766,31.8888889 C80.3012467,31.8888889 80.2017544,31.7893966 80.2017544,31.6666667 C80.2017544,31.5439367 80.3012467,31.4444444 80.4239766,31.4444444 Z" id="合并形状-copy" stroke="#D0D3D5" fill-rule="nonzero"></path>
                <ellipse id="椭圆形" stroke="#F8CC61" stroke-width="0.5" fill-rule="nonzero" cx="10.5263158" cy="63.3333333" rx="1.75438596" ry="1.66666667"></ellipse>
                <ellipse id="椭圆形-copy-2" stroke="#F8CC61" stroke-width="0.5" fill-rule="nonzero" cx="72.8070175" cy="19.1666667" rx="1" ry="1"></ellipse>
                <rect id="矩形" stroke="#5C2849" fill="#F7C548" fill-rule="nonzero" x="35" y="27" width="31.5789474" height="8.33333333" rx="1"></rect>
                <rect id="矩形-copy-5" stroke="#5C2849" fill="#F7C548" fill-rule="nonzero" x="26.3157895" y="18.3333333" width="31.5789474" height="8.33333333" rx="1"></rect>
                <rect id="矩形-copy" stroke="#5C2849" fill="#F7C548" fill-rule="nonzero" x="19.2982456" y="35" width="31.5789474" height="8.33333333" rx="1"></rect>
                <rect id="矩形-copy-2" stroke="#5C2849" fill="#F7C548" fill-rule="nonzero" x="19.2982456" y="43.3333333" width="31.5789474" height="8.33333333" rx="1"></rect>
                <rect id="矩形-copy-3" stroke="#5C2849" fill="#F7C548" fill-rule="nonzero" x="19.2982456" y="51.6666667" width="31.5789474" height="8.33333333" rx="1"></rect>
                <rect id="矩形-copy-4" stroke="#5C2849" fill="#F7C548" fill-rule="nonzero" x="19.2982456" y="60" width="31.5789474" height="8.33333333" rx="1"></rect>
                <g id="分组" transform="translate(38.596491, 35.000000)" fill-rule="nonzero">
                    <circle id="椭圆形" stroke="#5C2849" fill="#F7C548" cx="18" cy="18" r="18"></circle>
                    <path d="M17.0067512,35.4390443 C23.7507944,33.0083266 28.5722232,26.5526894 28.5722232,18.9709473 C28.5722232,9.66373053 21.3065244,2.05350867 12.1376953,1.50285025 C13.9907611,0.83496014 15.9889823,0.470947266 18.0722232,0.470947266 C27.7372064,0.470947266 35.5722232,8.30596414 35.5722232,17.9709473 C35.5722232,27.6359304 27.7372064,35.4709473 18.0722232,35.4709473 C17.7144569,35.4709473 17.359198,35.4602114 17.0067512,35.4390443 Z" id="合并形状" fill="#EE4A63"></path>
                </g>
                <text id="$" font-family="PingFangSC-Regular, PingFang SC" font-size="12" font-weight="normal" letter-spacing="-0.1255385" fill="#5C2849">
                    <tspan x="50.4803131" y="58">$</tspan>
                </text>
            </g>
        </g>
    </g>
</svg>