<?xml version="1.0" encoding="UTF-8"?>
<svg width="128px" height="128px" viewBox="0 0 128 128" version="1.1" xmlns="http://www.w3.org/2000/svg" xmlns:xlink="http://www.w3.org/1999/xlink">
    <!-- Generator: Sketch 52.5 (67469) - http://www.bohemiancoding.com/sketch -->
    <title>liandao@1x</title>
    <desc>Created with Sketch.</desc>
    <defs>
        <linearGradient x1="50%" y1="0%" x2="50%" y2="100%" id="linearGradient-1">
            <stop stop-color="#FF642D" offset="0%"></stop>
            <stop stop-color="#E24E19" offset="100%"></stop>
        </linearGradient>
    </defs>
    <g id="摩尔支付开放平台" stroke="none" stroke-width="1" fill="none" fill-rule="evenodd">
        <g id="首页" transform="translate(-300.000000, -1347.000000)">
            <g id="liandao" transform="translate(300.000000, 1347.000000)">
                <rect id="Rectangle" fill="url(#linearGradient-1)" x="0" y="0" width="128" height="128" rx="3"></rect>
                <g id="Group-10" transform="translate(28.800000, 24.533333)">
                    <path d="M26.6666667,32.3278825 C29.3458549,31.4235617 32.215678,30.9333333 35.2,30.9333333 C49.9275933,30.9333333 61.8666667,42.8724067 61.8666667,57.6 C61.8666667,59.3233974 61.7031817,61.0086107 61.3908742,62.6409776 C59.4571486,64.0626319 57.7027663,65.0502451 56.1277274,65.6038173 C57.0788953,63.1182831 57.6,60.4199968 57.6,57.6 C57.6,45.2288216 47.5711784,35.2 35.2,35.2 C32.1785017,35.2 29.2967288,35.7982359 26.6666667,36.8827226 L26.6666667,32.3278825 Z M34.1333333,50.1333333 C31.7769184,50.1333333 29.8666667,48.2230816 29.8666667,45.8666667 C29.8666667,43.5102517 31.7769184,41.6 34.1333333,41.6 C36.4897483,41.6 38.4,43.5102517 38.4,45.8666667 C38.4,48.2230816 36.4897483,50.1333333 34.1333333,50.1333333 Z M46.9333333,64 C44.5769184,64 42.6666667,62.0897483 42.6666667,59.7333333 C42.6666667,57.3769184 44.5769184,55.4666667 46.9333333,55.4666667 C49.2897483,55.4666667 51.2,57.3769184 51.2,59.7333333 C51.2,62.0897483 49.2897483,64 46.9333333,64 Z" id="Combined-Shape" fill="#FFFFFF"></path>
                    <path d="M53.3598958,38.4643229 C57.378342,35.5770833 61.280599,35.5556424 65.0666667,38.4" id="Path-6" stroke="#FFFFFF" stroke-width="2"></path>
                    <path d="M66.1333333,44.8 C63.7769184,44.8 61.8666667,42.8897483 61.8666667,40.5333333 C61.8666667,38.1769184 63.7769184,36.2666667 66.1333333,36.2666667 C68.4897483,36.2666667 70.4,38.1769184 70.4,40.5333333 C70.4,42.8897483 68.4897483,44.8 66.1333333,44.8 Z M66.1333333,42.6666667 C67.3115408,42.6666667 68.2666667,41.7115408 68.2666667,40.5333333 C68.2666667,39.3551259 67.3115408,38.4 66.1333333,38.4 C64.9551259,38.4 64,39.3551259 64,40.5333333 C64,41.7115408 64.9551259,42.6666667 66.1333333,42.6666667 Z" id="Combined-Shape" fill="#FFFFFF"></path>
                    <g id="Group-9" fill="#FFFFFF">
                        <path d="M24.5333333,77.4631512 C21.3638402,76.3428961 17.9531056,75.7333333 14.4,75.7333333 C11.6312905,75.7333333 8.94902994,76.1034656 6.4,76.7969487 L6.4,8.53333333 L24.5333333,8.53333333 L24.5333333,77.4631512 Z" id="Combined-Shape"></path>
                        <path d="M24.5333333,0.0238108574 L24.5333333,46.9095225 C24.1797574,46.9253401 23.8241455,46.9333333 23.4666667,46.9333333 C16.7422793,46.9333333 10.6784833,44.1050049 6.4,39.5730692 L6.4,7.36026409 C10.6784833,2.8283284 16.7422793,0 23.4666667,0 C23.8241455,0 24.1797574,0.00799327942 24.5333333,0.0238108574 Z" id="Combined-Shape"></path>
                        <path d="M31.3353704,1.35178224 C27.5895592,2.31495401 24.780114,5.61160145 24.5487592,9.6 L24.5333333,9.6 L24.5333333,46.9095225 C24.1797574,46.9253401 23.8241455,46.9333333 23.4666667,46.9333333 C16.7422793,46.9333333 10.6784833,44.1050049 6.4,39.5730692 L6.4,23.4666667 C6.4,21.6993555 4.9673112,20.2666667 3.2,20.2666667 C1.4326888,20.2666667 0,21.6993555 0,23.4666667 C0,10.5063845 10.5063845,0 23.4666667,0 C26.2267924,0 28.8756206,0.476521063 31.3353704,1.35178224 Z" id="Combined-Shape"></path>
                        <path d="M6.4,12.4817074 C6.62943524,12.236939 6.86195494,11.9950968 7.09749708,11.7562429 C6.85706839,12.1878863 6.62450478,12.6245106 6.4,13.0659221 L6.4,12.4817074 Z M6.4,66.4516259 L6.4,48.8007446 C12.919309,61.6187244 26.2341661,70.4 41.6,70.4 C52.5981352,70.4 62.5455513,65.9013372 69.7025029,58.6437571 C62.9612096,70.7464466 50.0366797,78.9333333 35.2,78.9333333 C23.8399057,78.9333333 13.6008288,74.1336873 6.4,66.4516259 Z" id="Combined-Shape"></path>
                    </g>
                </g>
            </g>
        </g>
    </g>
</svg>