<?xml version="1.0" encoding="UTF-8"?>
<svg width="44px" height="44px" viewBox="0 0 44 44" version="1.1" xmlns="http://www.w3.org/2000/svg" xmlns:xlink="http://www.w3.org/1999/xlink">
    <!-- Generator: Sketch 52.5 (67469) - http://www.bohemiancoding.com/sketch -->
    <title>logo@1x</title>
    <desc>Created with Sketch.</desc>
    <g id="摩尔支付开放平台" stroke="none" stroke-width="1" fill="none" fill-rule="evenodd">
        <g id="首页" transform="translate(-123.000000, -26.000000)" fill="#FFFFFF">
            <path d="M158.587895,58.0736842 L151.478421,53.9689474 C151.777158,53.1931579 151.947368,52.3548421 151.947368,51.4736842 C151.947368,49.4601053 151.085895,47.6526316 149.717263,46.3835789 L152.058526,43.7181053 C152.373474,43.8790526 152.726632,43.9786316 153.105263,43.9786316 C154.383579,43.9786316 155.421053,42.9423158 155.421053,41.6628421 C155.421053,40.3845263 154.383579,39.3470526 153.105263,39.3470526 C151.826947,39.3470526 150.789474,40.3845263 150.789474,41.6628421 C150.789474,42.1433684 150.935368,42.5891579 151.185474,42.9585263 L148.807158,45.6656842 C147.865789,45.0473684 146.764632,44.6536842 145.578947,44.5552632 L145.578947,35.2052632 C147.861158,34.9169474 149.631579,32.9913684 149.631579,30.6315789 C149.631579,28.0737895 147.557789,26 145,26 C142.442211,26 140.368421,28.0737895 140.368421,30.6315789 C140.368421,32.9913684 142.138842,34.9169474 144.421053,35.2052632 L144.421053,44.5552632 C142.033474,44.7532632 139.986316,46.1531579 138.896737,48.154 L131.045053,45.4537895 C131.082105,45.2893684 131.105263,45.1214737 131.105263,44.9454737 C131.105263,43.6671579 130.067789,42.6296842 128.789474,42.6296842 C127.511158,42.6296842 126.473684,43.6671579 126.473684,44.9454737 C126.473684,46.2249474 127.511158,47.2612632 128.789474,47.2612632 C129.471474,47.2612632 130.078211,46.9613684 130.502,46.4912632 L138.433579,49.2192632 C138.190421,49.9267368 138.052632,50.6828421 138.052632,51.4736842 C138.052632,52.3189474 138.211263,53.126 138.488,53.8751579 L131.348421,57.9972632 C130.504316,56.8544211 129.16,56.1052632 127.631579,56.1052632 C125.073789,56.1052632 123,58.1790526 123,60.7368421 C123,63.2946316 125.073789,65.3684211 127.631579,65.3684211 C130.189368,65.3684211 132.263158,63.2946316 132.263158,60.7368421 C132.263158,60.1231579 132.138105,59.5395789 131.920421,59.0034737 L138.978947,54.9288421 C140.177368,57.0130526 142.421368,58.4210526 145,58.4210526 C145.654211,58.4210526 146.286421,58.3237895 146.887368,58.1547368 L149.110526,65.6578947 C148.390316,66.0504211 147.894737,66.8053684 147.894737,67.6842105 C147.894737,68.9625263 148.932211,70 150.210526,70 C151.488842,70 152.526316,68.9625263 152.526316,67.6842105 C152.526316,66.4197895 151.512,65.3950526 150.252211,65.3730526 L147.990842,57.7367368 C149.233263,57.1427368 150.270737,56.1909474 150.970105,55.0133684 L158.049474,59.0995789 C157.856105,59.6102105 157.736842,60.1578947 157.736842,60.7368421 C157.736842,63.2946316 159.810632,65.3684211 162.368421,65.3684211 C164.926211,65.3684211 167,63.2946316 167,60.7368421 C167,58.1790526 164.926211,56.1052632 162.368421,56.1052632 C160.802947,56.1052632 159.427368,56.8868421 158.587895,58.0736842 Z" id="logo"></path>
        </g>
    </g>
</svg>