<?xml version="1.0" encoding="UTF-8"?>
<svg width="99px" height="85px" viewBox="0 0 99 85" version="1.1" xmlns="http://www.w3.org/2000/svg" xmlns:xlink="http://www.w3.org/1999/xlink">
    <!-- Generator: Sketch 52.5 (67469) - http://www.bohemiancoding.com/sketch -->
    <title>mdpi/shop</title>
    <desc>Created with Sketch.</desc>
    <g id="摩尔支付开放平台" stroke="none" stroke-width="1" fill="none" fill-rule="evenodd">
        <g id="首页" transform="translate(-983.000000, -1021.000000)" fill-rule="nonzero">
            <g id="shop" transform="translate(983.000000, 1021.000000)">
                <path d="M1.40971497,16.8497264 L95.409715,16.8497264 C97.0665692,16.8497264 98.409715,18.1928722 98.409715,19.8497264 L98.409715,22.1830598 C98.409715,23.839914 97.0665692,25.1830598 95.409715,25.1830598 L1.40971497,25.1830598 C-0.24713928,25.1830598 -1.59028503,23.839914 -1.59028503,22.1830598 L-1.59028503,19.8497264 C-1.59028503,18.1928722 -0.24713928,16.8497264 1.40971497,16.8497264 Z" id="矩形-copy-27" fill="#EFEFEF" transform="translate(48.409715, 21.016393) rotate(-20.000000) translate(-48.409715, -21.016393) "></path>
                <path d="M16.9353511,35.1891629 L79.6853511,35.1891629 C81.3422054,35.1891629 82.6853511,36.5323086 82.6853511,38.1891629 L82.6853511,40.5224962 C82.6853511,42.1793505 81.3422054,43.5224962 79.6853511,43.5224962 L16.9353511,43.5224962 C15.2784969,43.5224962 13.9353511,42.1793505 13.9353511,40.5224962 L13.9353511,38.1891629 C13.9353511,36.5323086 15.2784969,35.1891629 16.9353511,35.1891629 Z" id="矩形-copy-28" fill="#EFEFEF" transform="translate(48.310351, 39.355830) rotate(-20.000000) translate(-48.310351, -39.355830) "></path>
                <path d="M3.4930483,56.4330598 L97.4930483,56.4330598 C99.1499026,56.4330598 100.493048,57.7762055 100.493048,59.4330598 L100.493048,61.7663931 C100.493048,63.4232473 99.1499026,64.7663931 97.4930483,64.7663931 L3.4930483,64.7663931 C1.83619405,64.7663931 0.493048303,63.4232473 0.493048303,61.7663931 L0.493048303,59.4330598 C0.493048303,57.7762055 1.83619405,56.4330598 3.4930483,56.4330598 Z" id="矩形-copy-29" fill="#EFEFEF" transform="translate(50.493048, 60.599726) rotate(-20.000000) translate(-50.493048, -60.599726) "></path>
                <path d="M32.2097065,66.835798 L84.5430398,66.835798 C86.1998941,66.835798 87.5430398,68.1789437 87.5430398,69.835798 L87.5430398,72.1691313 C87.5430398,73.8259856 86.1998941,75.1691313 84.5430398,75.1691313 L32.2097065,75.1691313 C30.5528522,75.1691313 29.2097065,73.8259856 29.2097065,72.1691313 L29.2097065,69.835798 C29.2097065,68.1789437 30.5528522,66.835798 32.2097065,66.835798 Z" id="矩形-copy-30" fill="#EFEFEF" transform="translate(58.376373, 71.002465) rotate(-20.000000) translate(-58.376373, -71.002465) "></path>
                <polygon id="路径-5" fill="#F7C548" points="43.695577 64.80569 43.695577 78.2338867 72.1095174 78.2338867 72.1095174 41.4870809 69.2946405 42.3100716"></polygon>
                <path d="M21.3333333,40.0833333 L21.3333333,78.6666667 L72.4166667,78.6666667 L72.4166667,40.0833333 L21.3333333,40.0833333 Z" id="矩形" stroke="#5C2849"></path>
                <polygon id="矩形" fill="#FD8A61" points="21.8434245 39.6560872 72.8434245 39.6560872 28.1636393 78.1560872 21.8434245 78.1560872"></polygon>
                <rect id="矩形" stroke="#5C2849" fill="#FFFFFF" x="27.5833333" y="48.4166667" width="15.6666667" height="30.25" rx="0.5"></rect>
                <path d="M42.9207326,65.2436949 L42.6654053,65.509314 C36.4060389,70.4725709 31.5713221,74.4501384 28.1612549,77.4420166 C28.1034652,77.4927193 28.0483796,77.5417314 27.9958982,77.5891086 L27.9122986,48.8333333 L42.8261719,48.8333333 L42.9207326,65.2436949 Z" id="合并形状" fill="#D8D8D8"></path>
                <rect id="矩形-copy-22" stroke="#5C2849" fill="#FFFFFF" x="48.4166667" y="48.7585798" width="17.75" height="15.6666667" rx="0.5"></rect>
                <path d="M57.100074,53.1243761 L58.1834073,53.1243761 C58.4595497,53.1243761 58.6834073,53.3482338 58.6834073,53.6243761 L58.6834073,60.9577095 C58.6834073,61.2338518 58.4595497,61.4577095 58.1834073,61.4577095 L57.100074,61.4577095 C56.8239316,61.4577095 56.600074,61.2338518 56.600074,60.9577095 L56.600074,53.6243761 C56.600074,53.3482338 56.8239316,53.1243761 57.100074,53.1243761 Z" id="矩形" fill="#5C2849" transform="translate(57.641741, 57.291043) rotate(-312.000000) translate(-57.641741, -57.291043) "></path>
                <path d="M59.9948419,56.5186151 L61.0781752,56.5186151 C61.3543176,56.5186151 61.5781752,56.7424727 61.5781752,57.0186151 L61.5781752,62.2686151 C61.5781752,62.5447575 61.3543176,62.7686151 61.0781752,62.7686151 L59.9948419,62.7686151 C59.7186995,62.7686151 59.4948419,62.5447575 59.4948419,62.2686151 L59.4948419,57.0186151 C59.4948419,56.7424727 59.7186995,56.5186151 59.9948419,56.5186151 Z" id="矩形-copy-19" fill="#5C2849" transform="translate(60.536509, 59.643615) rotate(-312.000000) translate(-60.536509, -59.643615) "></path>
                <path d="M38,13 L38,41.25 C38,42.3545695 38.8954305,43.25 40,43.25 L44.4166667,43.25 C45.5212362,43.25 46.4166667,42.3545695 46.4166667,41.25 L46.4166667,13 L38,13 Z" id="矩形" stroke="#5C2849" fill="#EE4963"></path>
                <path d="M54.6666667,13 L54.6666667,41.25 C54.6666667,42.3545695 55.5620972,43.25 56.6666667,43.25 L61.0833333,43.25 C62.1879028,43.25 63.0833333,42.3545695 63.0833333,41.25 L63.0833333,13 L54.6666667,13 Z" id="矩形-copy-17" stroke="#5C2849" fill="#EE4963"></path>
                <path d="M46.3333333,13 L46.3333333,41.25 C46.3333333,42.3545695 47.2287638,43.25 48.3333333,43.25 L52.75,43.25 C53.8545695,43.25 54.75,42.3545695 54.75,41.25 L54.75,13 L46.3333333,13 Z" id="矩形-copy-14" stroke="#5C2849" fill="#FFFFFF"></path>
                <path d="M30.6666667,13 L30.6666667,41.25 C30.6666667,42.3545695 31.5620972,43.25 32.6666667,43.25 L36.0833333,43.25 C37.1879028,43.25 38.0833333,42.3545695 38.0833333,41.25 L38.0833333,13 L30.6666667,13 Z" id="矩形-copy-16" stroke="#5C2849" fill="#FFFFFF"></path>
                <path d="M22.9820477,13 L19.9501905,41.0349627 C19.9424668,41.1063816 19.9385966,41.1781647 19.9385966,41.25 C19.9385966,42.3545695 20.8340271,43.25 21.9385966,43.25 L28.3511983,43.25 C29.4557678,43.25 30.3511983,42.3545695 30.3511983,41.25 L30.3511983,13 L22.9820477,13 Z" id="矩形-copy-20" stroke="#5C2849" fill="#EE4963"></path>
                <path d="M65.7320477,13 L62.7001905,41.0349627 C62.6924668,41.1063816 62.6885966,41.1781647 62.6885966,41.25 C62.6885966,42.3545695 63.5840271,43.25 64.6885966,43.25 L71.1011983,43.25 C72.2057678,43.25 73.1011983,42.3545695 73.1011983,41.25 L73.1011983,13 L65.7320477,13 Z" id="矩形-copy-21" stroke="#5C2849" fill="#FFFFFF" transform="translate(68.050599, 28.125000) scale(-1, 1) translate(-68.050599, -28.125000) "></path>
                <polygon id="路径-2" stroke="#5C2849" points="22.8806685 13.0606078 20.7213047 34.6746081 72.7430858 35.0722444 70.5014571 13.0606078"></polygon>
                <path d="" id="路径-3" stroke="#979797"></path>
                <polygon id="路径-6" fill="#D8D8D8" points="48.9451955 49.1559168 48.9451955 60.2312088 62.3682836 49.1559168"></polygon>
                <path d="M8.18055556,54.0138889 L8.18055556,54.3194444 L10.0694444,54.3194444 C9.98506761,54.3194444 9.91666667,54.2510435 9.91666667,54.1666667 C9.91666667,54.0822898 9.98506761,54.0138889 10.0694444,54.0138889 L8.18055556,54.0138889 Z M8.18055556,54.3194444 L8.18055556,55.9027778 C8.18055556,55.8184009 8.2489565,55.75 8.33333333,55.75 C8.41771017,55.75 8.48611111,55.8184009 8.48611111,55.9027778 L8.48611111,52.4305556 C8.48611111,52.5149324 8.41771017,52.5833333 8.33333333,52.5833333 C8.2489565,52.5833333 8.18055556,52.5149324 8.18055556,52.4305556 L8.18055556,54.0138889 L6.59722222,54.0138889 C6.68159906,54.0138889 6.75,54.0822898 6.75,54.1666667 C6.75,54.2510435 6.68159906,54.3194444 6.59722222,54.3194444 L8.18055556,54.3194444 Z" id="合并形状-copy-4" stroke="#EE4A63"></path>
                <path d="M87.3472222,37.8472222 L87.3472222,41.3194444 C87.3472222,41.2350676 87.4156232,41.1666667 87.5,41.1666667 C87.5843768,41.1666667 87.6527778,41.2350676 87.6527778,41.3194444 L87.6527778,37.8472222 C87.6527778,37.9315991 87.5843768,38 87.5,38 C87.4156232,38 87.3472222,37.9315991 87.3472222,37.8472222 Z M89.2361111,39.4305556 L85.7638889,39.4305556 C85.8482657,39.4305556 85.9166667,39.4989565 85.9166667,39.5833333 C85.9166667,39.6677102 85.8482657,39.7361111 85.7638889,39.7361111 L89.2361111,39.7361111 C89.1517343,39.7361111 89.0833333,39.6677102 89.0833333,39.5833333 C89.0833333,39.4989565 89.1517343,39.4305556 89.2361111,39.4305556 Z" id="合并形状-copy-5" stroke="#D0D3D5"></path>
                <circle id="椭圆形-copy-6" stroke="#F8CC61" stroke-width="0.5" cx="12.5" cy="70.8333333" r="2.08333333"></circle>
                <circle id="椭圆形-copy-7" stroke="#F8CC61" stroke-width="0.5" cx="84.375" cy="19.7916667" r="1.04166667"></circle>
            </g>
        </g>
    </g>
</svg>