<?xml version="1.0" encoding="UTF-8"?>
<svg width="20px" height="14px" viewBox="0 0 20 14" version="1.1" xmlns="http://www.w3.org/2000/svg" xmlns:xlink="http://www.w3.org/1999/xlink">
    <!-- Generator: Sketch 52.5 (67469) - http://www.bohemiancoding.com/sketch -->
    <title>浏览@1x</title>
    <desc>Created with Sketch.</desc>
    <g id="摩尔支付开放平台" stroke="none" stroke-width="1" fill="none" fill-rule="evenodd">
        <g id="开发者资料" transform="translate(-545.000000, -217.000000)">
            <g id="浏览" transform="translate(543.000000, 212.000000)">
                <rect id="矩形" fill="#000000" opacity="0" x="0" y="0" width="24" height="24"></rect>
                <path d="M21.6426797,11.7639141 C20.9116641,9.81264844 19.6202813,8.14579687 17.9136094,6.94258594 C16.1642812,5.71094531 14.1077344,5.05671094 11.9601797,5.05671094 C9.812625,5.05671094 7.75610156,5.70808594 6.00675,6.94258594 C4.29721875,8.14863281 3.00869531,9.81546094 2.27767969,11.7639141 L2.18664844,12.0028359 L2.27767969,12.2417578 C3.00869531,14.1930234 4.30007813,15.859875 6.00675,17.0630859 C7.75607813,18.2947266 9.812625,18.9489609 11.9601797,18.9489609 C14.1077344,18.9489609 16.1642578,18.2975859 17.9136094,17.0630859 C19.6231406,15.8570391 20.9116641,14.1902109 21.6426797,12.2417578 L21.7337109,12.0028359 L21.6426797,11.7639141 Z M11.9601797,17.5864687 C8.32497656,17.5864687 5.01972656,15.3536016 3.64870313,12.0056719 C5.01686719,8.65492969 8.32497656,6.424875 11.9601797,6.424875 C15.5953828,6.424875 18.9006328,8.65774219 20.2716562,12.0056719 C18.9006328,15.3536016 15.5925234,17.5864687 11.9601797,17.5864687 Z M11.9601797,8.39039063 C9.96904687,8.39039063 8.34773437,10.0117266 8.34773437,12.0028359 C8.34773437,13.9939453 9.96907031,15.6152812 11.9601797,15.6152812 C13.9512891,15.6152812 15.572625,13.9939453 15.572625,12.0028359 C15.572625,10.0117266 13.9512891,8.39039063 11.9601797,8.39039063 Z M11.9601797,14.2499531 C10.7200078,14.2499531 9.7130625,13.2430312 9.7130625,12.0028359 C9.7130625,10.7626406 10.7199844,9.75571875 11.9601797,9.75571875 C13.200375,9.75571875 14.2072969,10.7626406 14.2072969,12.0028359 C14.2072969,13.2430312 13.1975156,14.2499531 11.9601797,14.2499531 Z" id="形状" fill="#979797" fill-rule="nonzero"></path>
            </g>
        </g>
    </g>
</svg>