<?xml version="1.0" encoding="UTF-8"?>
<svg width="19px" height="11px" viewBox="0 0 19 11" version="1.1" xmlns="http://www.w3.org/2000/svg" xmlns:xlink="http://www.w3.org/1999/xlink">
    <!-- Generator: Sketch 52.5 (67469) - http://www.bohemiancoding.com/sketch -->
    <title>隐藏 copy 2@1x</title>
    <desc>Created with Sketch.</desc>
    <g id="摩尔支付开放平台" stroke="none" stroke-width="1" fill="none" fill-rule="evenodd">
        <g id="开发者资料" transform="translate(-654.000000, -339.000000)" fill-rule="nonzero">
            <g id="隐藏-copy-2" transform="translate(654.000000, 340.000000)">
                <path d="M0.8,0.471998084 C2.52902084,3.25400897 5.61296111,5.10617575 9.12949811,5.10617575 C12.8413487,5.10617575 16.071214,3.04255122 17.734396,5.68434189e-14" id="路径" stroke="#979797" stroke-width="1.5" stroke-linecap="round"></path>
                <path d="M5.81961524,4.35166605 L5.81961524,4.35166605 C6.15098609,4.35166605 6.41961524,4.6202952 6.41961524,4.95166605 L6.41961524,8.95166605 C6.41961524,9.2830369 6.15098609,9.55166605 5.81961524,9.55166605 L5.81961524,9.55166605 C5.48824439,9.55166605 5.21961524,9.2830369 5.21961524,8.95166605 L5.21961524,4.95166605 C5.21961524,4.6202952 5.48824439,4.35166605 5.81961524,4.35166605 Z" id="矩形" fill="#979797" transform="translate(5.819615, 6.951666) rotate(-330.000000) translate(-5.819615, -6.951666) "></path>
                <path d="M12.2196152,4.35166605 L12.2196152,4.35166605 C12.5509861,4.35166605 12.8196152,4.6202952 12.8196152,4.95166605 L12.8196152,8.95166605 C12.8196152,9.2830369 12.5509861,9.55166605 12.2196152,9.55166605 L12.2196152,9.55166605 C11.8882444,9.55166605 11.6196152,9.2830369 11.6196152,8.95166605 L11.6196152,4.95166605 C11.6196152,4.6202952 11.8882444,4.35166605 12.2196152,4.35166605 Z" id="矩形-copy-3" fill="#979797" transform="translate(12.219615, 6.951666) rotate(-30.000000) translate(-12.219615, -6.951666) "></path>
                <path d="M16.2196152,2.45884573 L16.2196152,2.45884573 C16.5509861,2.45884573 16.8196152,2.72747488 16.8196152,3.05884573 L16.8196152,5.45884573 C16.8196152,5.79021658 16.5509861,6.05884573 16.2196152,6.05884573 L16.2196152,6.05884573 C15.8882444,6.05884573 15.6196152,5.79021658 15.6196152,5.45884573 L15.6196152,3.05884573 C15.6196152,2.72747488 15.8882444,2.45884573 16.2196152,2.45884573 Z" id="矩形-copy-4" fill="#979797" transform="translate(16.219615, 4.258846) rotate(-30.000000) translate(-16.219615, -4.258846) "></path>
                <path d="M2.02586524,2.52837698 L2.02586524,2.52837698 C2.35723609,2.52837698 2.62586524,2.79700613 2.62586524,3.12837698 L2.62586524,5.52837698 C2.62586524,5.85974783 2.35723609,6.12837698 2.02586524,6.12837698 L2.02586524,6.12837698 C1.69449439,6.12837698 1.42586524,5.85974783 1.42586524,5.52837698 L1.42586524,3.12837698 C1.42586524,2.79700613 1.69449439,2.52837698 2.02586524,2.52837698 Z" id="矩形-copy-5" fill="#979797" transform="translate(2.025865, 4.328377) rotate(-315.000000) translate(-2.025865, -4.328377) "></path>
            </g>
        </g>
    </g>
</svg>