<?xml version="1.0" encoding="UTF-8"?>
<svg width="12px" height="14px" viewBox="0 0 12 14" version="1.1" xmlns="http://www.w3.org/2000/svg" xmlns:xlink="http://www.w3.org/1999/xlink">
    <!-- Generator: Sketch 52.6 (67491) - http://www.bohemiancoding.com/sketch -->
    <title>IM_icon_Positioning@2x</title>
    <desc>Created with Sketch.</desc>
    <g id="聊天" stroke="none" stroke-width="1" fill="none" fill-rule="evenodd">
        <g id="聊天-更新" transform="translate(-281.000000, -552.000000)" fill="#000000">
            <g id="分组-4" transform="translate(137.000000, 539.000000)">
                <g id="IM_icon_Positioning" transform="translate(142.000000, 12.000000)">
                    <rect id="矩形" opacity="0" x="0" y="0" width="16" height="16"></rect>
                    <path d="M7.67767055,1 C4.54192458,1 2,3.35282078 2,6.25554075 C2,10.6351634 6.73135214,15.0152017 7.67767055,15.0152017 C8.62403691,15.0152017 13.3553731,10.6351634 13.3553731,6.25554075 C13.3553731,3.35282078 10.8134325,1 7.67767055,1 Z M7.67767055,9.40909863 C6.10980556,9.40909863 4.83865141,8.15415747 4.83865141,6.60607108 C4.83865141,5.05798469 6.10980556,3.80304353 7.67767055,3.80304353 C9.24556752,3.80304353 10.5163219,5.05798469 10.5163219,6.60607108 C10.5163219,8.15415747 9.24555153,9.40909863 7.67767055,9.40909863 Z" id="形状" fill-rule="nonzero"></path>
                </g>
            </g>
        </g>
    </g>
</svg>