<?xml version="1.0" encoding="UTF-8"?>
<svg width="32px" height="32px" viewBox="0 0 32 32" version="1.1" xmlns="http://www.w3.org/2000/svg" xmlns:xlink="http://www.w3.org/1999/xlink">
    <!-- Generator: Sketch 52.5 (67469) - http://www.bohemiancoding.com/sketch -->
    <title>icon_transfer@2x</title>
    <desc>Created with Sketch.</desc>
    <g id="彧讯" stroke="none" stroke-width="1" fill="none" fill-rule="evenodd">
        <g id="聊天-转账" transform="translate(-99.000000, -335.000000)">
            <g id="转账" transform="translate(91.000000, 323.000000)">
                <g id="icon_transfer" transform="translate(8.000000, 12.000000)">
                    <circle id="椭圆形" stroke="#FFFFFF" stroke-width="1.5" fill-rule="nonzero" cx="16" cy="16" r="15.25"></circle>
                    <path d="M6,16.6464301 C6.38581517,21.8168665 10.7327009,26 16.0036876,26 C20.6298469,26 24.5225739,22.8609611 25.6666094,18.5973999 M26,15.6124275 C25.7963,10.2692049 21.3987408,6 16.0036876,6 C11.1167859,6 7.04832258,9.5028598 6.17387984,14.133873" id="形状" stroke="#FFFFFF" stroke-width="1.5" stroke-linecap="round" fill-rule="nonzero"></path>
                    <path d="M7.48508982,16.0585638 L8.26719531,18.7782286 C8.34351369,19.0436153 8.19024351,19.320622 7.92485678,19.3969404 C7.83542795,19.4226578 7.7405968,19.4229092 7.65103289,19.3976662 L6.04758778,18.9457464 C5.78180019,18.870836 5.62706363,18.5946458 5.70197401,18.3288582 C5.70526449,18.3171833 5.70897872,18.305632 5.71310932,18.2942273 L6.53444895,16.0264823 C6.62848543,15.7668446 6.91519502,15.6325982 7.17483275,15.7266347 C7.3254539,15.7811872 7.44081597,15.9046075 7.48508982,16.0585638 Z" id="三角形" fill="#FFFFFF" fill-rule="nonzero" transform="translate(6.984948, 17.556515) rotate(-37.000000) translate(-6.984948, -17.556515) "></path>
                    <path d="M25.6007396,13.0718981 L26.3834571,15.8132065 C26.4592733,16.0787372 26.3054793,16.3554534 26.0399487,16.4312696 C25.9490754,16.4572164 25.8527094,16.4568779 25.7620206,16.4302935 L24.1806954,15.966746 C23.9157038,15.8890667 23.7638571,15.6112771 23.8415364,15.3462855 C23.8439777,15.3379573 23.8466355,15.3296941 23.8495069,15.3215043 L24.6481147,13.0437434 C24.7394802,12.7831538 25.0247963,12.6459706 25.2853859,12.7373362 C25.4385837,12.791049 25.5561682,12.9157955 25.6007396,13.0718981 Z" id="三角形-copy" fill="#FFFFFF" fill-rule="nonzero" transform="translate(25.112008, 14.579761) rotate(-210.000000) translate(-25.112008, -14.579761) "></path>
                    <text id="$-copy-3" font-family="Chalkboard" font-size="14" font-weight="normal" letter-spacing="-0.3376471" fill="#FFFFFF">
                        <tspan x="12.1157849" y="21">$</tspan>
                    </text>
                </g>
            </g>
        </g>
    </g>
</svg>