<?xml version="1.0" encoding="UTF-8"?>
<svg width="18px" height="18px" viewBox="0 0 18 18" version="1.1" xmlns="http://www.w3.org/2000/svg" xmlns:xlink="http://www.w3.org/1999/xlink">
    <!-- Generator: Sketch 52.5 (67469) - http://www.bohemiancoding.com/sketch -->
    <title>pengyouquan_delete copy@2x</title>
    <desc>Created with Sketch.</desc>
    <g id="朋友圈" stroke="none" stroke-width="1" fill="none" fill-rule="evenodd">
        <g id="发朋友圈-3张图-删除样式" transform="translate(-226.000000, -229.000000)" fill-rule="nonzero">
            <g id="pengyouquan_delete-copy" transform="translate(226.000000, 229.000000)">
                <path d="M0,0 L18,0 L18,18 L3,18 C1.34314575,18 2.02906125e-16,16.6568542 0,15 L0,0 Z" id="矩形-copy-4" fill-opacity="0.6" fill="#000000"></path>
                <path d="M9.64442262,9 L12.8665357,12.2221131 C13.0444881,12.4000655 13.0444881,12.6885833 12.8665357,12.8665357 C12.6885833,13.0444881 12.4000655,13.0444881 12.2221131,12.8665357 L9,9.64442262 L5.77788691,12.8665357 C5.59993452,13.0444881 5.31141669,13.0444881 5.13346429,12.8665357 C4.9555119,12.6885833 4.9555119,12.4000655 5.13346429,12.2221131 L8.35557738,9 L5.13346429,5.77788691 C4.9555119,5.59993452 4.9555119,5.31141669 5.13346429,5.13346429 C5.31141669,4.9555119 5.59993452,4.9555119 5.77788691,5.13346429 L9,8.35557738 L12.2221131,5.13346429 C12.4000655,4.9555119 12.6885833,4.9555119 12.8665357,5.13346429 C13.0444881,5.31141669 13.0444881,5.59993452 12.8665357,5.77788691 L9.64442262,9 Z" id="合并形状" fill="#F6F6F6"></path>
            </g>
        </g>
    </g>
</svg>