<?xml version="1.0" encoding="UTF-8"?>
<svg width="24px" height="24px" viewBox="0 0 24 24" version="1.1" xmlns="http://www.w3.org/2000/svg" xmlns:xlink="http://www.w3.org/1999/xlink">
    <!-- Generator: Sketch 52.5 (67469) - http://www.bohemiancoding.com/sketch -->
    <title>tianjia2@2x</title>
    <desc>Created with Sketch.</desc>
    <g id="朋友圈" stroke="none" stroke-width="1" fill="none" fill-rule="evenodd">
        <g id="发朋友圈-3张图-删除样式" transform="translate(-291.000000, -269.000000)" fill="#ADAEB0" fill-rule="nonzero">
            <path d="M303.8,280.2 L314.2,280.2 C314.641828,280.2 315,280.558172 315,281 C315,281.441828 314.641828,281.8 314.2,281.8 L303.8,281.8 L303.8,292.2 C303.8,292.641828 303.441828,293 303,293 C302.558172,293 302.2,292.641828 302.2,292.2 L302.2,281.8 L291.8,281.8 C291.358172,281.8 291,281.441828 291,281 C291,280.558172 291.358172,280.2 291.8,280.2 L302.2,280.2 L302.2,269.8 C302.2,269.358172 302.558172,269 303,269 C303.441828,269 303.8,269.358172 303.8,269.8 L303.8,280.2 Z" id="tianjia2"></path>
        </g>
    </g>
</svg>