<?xml version="1.0" encoding="UTF-8"?>
<svg width="50px" height="50px" viewBox="0 0 50 50" version="1.1" xmlns="http://www.w3.org/2000/svg" xmlns:xlink="http://www.w3.org/1999/xlink">
    <!-- Generator: Sketch 52.5 (67469) - http://www.bohemiancoding.com/sketch -->
    <title>mdpi/ xinzeng2</title>
    <desc>Created with Sketch.</desc>
    <g id="首页" stroke="none" stroke-width="1" fill="none" fill-rule="evenodd">
        <g id="群组信息" transform="translate(-237.000000, -405.000000)" fill-rule="nonzero">
            <g id="-xinzeng2" transform="translate(238.000000, 406.000000)">
                <circle id="椭圆形-copy-14" stroke="#979797" cx="24" cy="24" r="24"></circle>
                <path d="M23,23 L23,17 C23,16.4477153 23.4477153,16 24,16 C24.5522847,16 25,16.4477153 25,17 L25,23 L31,23 C31.5522847,23 32,23.4477153 32,24 C32,24.5522847 31.5522847,25 31,25 L25,25 L25,31 C25,31.5522847 24.5522847,32 24,32 C23.4477153,32 23,31.5522847 23,31 L23,25 L17,25 C16.4477153,25 16,24.5522847 16,24 C16,23.4477153 16.4477153,23 17,23 L23,23 Z" id="合并形状" fill="#979797"></path>
            </g>
        </g>
    </g>
</svg>