<?xml version="1.0" encoding="UTF-8"?>
<svg width="108px" height="71px" viewBox="0 0 108 71" version="1.1" xmlns="http://www.w3.org/2000/svg" xmlns:xlink="http://www.w3.org/1999/xlink">
    <!-- Generator: Sketch 52.6 (67491) - http://www.bohemiancoding.com/sketch -->
    <title>no data@2x</title>
    <desc>Created with Sketch.</desc>
    <g id="首页" stroke="none" stroke-width="1" fill="none" fill-rule="evenodd">
        <g id="暂无数据缺省页" transform="translate(-134.000000, -273.000000)" fill-rule="nonzero">
            <g id="no-data" transform="translate(134.000000, 273.000000)">
                <rect id="矩形-copy-2" stroke="#979797" fill="#FFFFFF" x="28.3928571" y="16.9821429" width="52.25" height="37.0357143" rx="4"></rect>
                <rect id="矩形" stroke="#979797" fill="#FFFFFF" x="19.5178571" y="23.3214286" width="52.25" height="37.0357143" rx="4"></rect>
                <rect id="矩形" stroke="#979797" fill="#D8D8D8" transform="translate(102.696429, 60.223214) scale(1, -1) translate(-102.696429, -60.223214) " x="98.125" y="60.0892857" width="9.14285714" height="1" rx="0.5"></rect>
                <rect id="矩形-copy-14" stroke="#979797" fill="#D8D8D8" transform="translate(78.309326, 60.350952) scale(1, -1) translate(-78.309326, -60.350952) " x="65.4968262" y="60.3509521" width="25.625" height="1" rx="0.5"></rect>
                <path d="M44.1793163,52.2803556 C44.1053495,52.2803556 44.0453877,52.3403175 44.0453877,52.4142842 C44.0453877,52.4882509 44.1053495,52.5482127 44.1793163,52.5482127 L53.0543163,52.5482127 C53.128283,52.5482127 53.1882448,52.4882509 53.1882448,52.4142842 C53.1882448,52.3403175 53.128283,52.2803556 53.0543163,52.2803556 L44.1793163,52.2803556 Z" id="矩形-copy-12" stroke="#979797" fill="#D8D8D8" transform="translate(48.616816, 52.414284) scale(1, -1) rotate(-45.000000) translate(-48.616816, -52.414284) "></path>
                <path d="M49.5470177,56.6354882 L61.4934463,56.6354882 C62.0457311,56.6354882 62.4934463,57.0832035 62.4934463,57.6354882 L62.4934463,60.7069168 C62.4934463,61.2592015 62.0457311,61.7069168 61.4934463,61.7069168 L49.5470177,61.7069168 C48.994733,61.7069168 48.5470177,61.2592015 48.5470177,60.7069168 L48.5470177,57.6354882 C48.5470177,57.0832035 48.994733,56.6354882 49.5470177,56.6354882 Z" id="矩形-copy-13" fill="#979797" transform="translate(55.520232, 59.171202) scale(1, -1) rotate(-45.000000) translate(-55.520232, -59.171202) "></path>
                <rect id="矩形-copy-3" stroke="#979797" fill="#D8D8D8" x="3.99009487" y="38.5479213" width="15.4821429" height="1" rx="0.5"></rect>
                <rect id="矩形-copy-9" stroke="#979797" stroke-width="0.5" fill="#D8D8D8" x="38.5109013" y="36.0977631" width="4.57142857" height="1" rx="0.5"></rect>
                <rect id="矩形-copy-11" stroke="#979797" fill="#D8D8D8" x="38.4993439" y="40.4867161" width="5.33928571" height="1" rx="0.5"></rect>
                <rect id="矩形-copy-10" stroke="#979797" fill="#D8D8D8" x="38.5357143" y="38.5357143" width="15.4821429" height="1" rx="0.5"></rect>
                <circle id="椭圆形" stroke="#979797" cx="39.3035714" cy="39.3035714" r="11.4107143"></circle>
                <circle id="椭圆形-copy-3" stroke="#979797" cx="39.3035714" cy="39.3035714" r="8.875"></circle>
                <path d="M35.3279343,34.2435925 C33.9459742,35.5415543 33.1073516,37.2469246 33.1073516,39.1147677" id="路径" stroke="#979797" stroke-width="0.5" stroke-linecap="round" transform="translate(34.217643, 36.679180) rotate(5.000000) translate(-34.217643, -36.679180) "></path>
                <path d="M9.375,14.5803571 L9.375,18.25 L5.70535714,18.25 C5.63139044,18.25 5.57142857,18.3099619 5.57142857,18.3839286 C5.57142857,18.4578953 5.63139044,18.5178571 5.70535714,18.5178571 L9.375,18.5178571 L9.375,22.1875 C9.375,22.2614667 9.43496186,22.3214286 9.50892857,22.3214286 C9.58289528,22.3214286 9.64285714,22.2614667 9.64285714,22.1875 L9.64285714,18.5178571 L13.3125,18.5178571 C13.3864667,18.5178571 13.4464286,18.4578953 13.4464286,18.3839286 C13.4464286,18.3099619 13.3864667,18.25 13.3125,18.25 L9.64285714,18.25 L9.64285714,14.5803571 C9.64285714,14.5063904 9.58289528,14.4464286 9.50892857,14.4464286 C9.43496186,14.4464286 9.375,14.5063904 9.375,14.5803571 Z" id="合并形状" stroke="#979797" fill="#D8D8D8"></path>
                <path d="M51.1670918,3.21683673 L56.6007653,3.21683673 C56.5747008,3.21683673 56.5535714,3.19570732 56.5535714,3.16964286 C56.5535714,3.1435784 56.5747008,3.12244898 56.6007653,3.12244898 L51.1670918,3.12244898 C51.1931563,3.12244898 51.2142857,3.1435784 51.2142857,3.16964286 C51.2142857,3.19570732 51.1931563,3.21683673 51.1670918,3.21683673 Z M53.8367347,0.452806122 L53.8367347,5.88647959 C53.8367347,5.86041513 53.8578641,5.83928571 53.8839286,5.83928571 C53.909993,5.83928571 53.9311224,5.86041513 53.9311224,5.88647959 L53.9311224,0.452806122 C53.9311224,0.478870581 53.909993,0.5 53.8839286,0.5 C53.8578641,0.5 53.8367347,0.478870581 53.8367347,0.452806122 Z" id="合并形状-copy-4" stroke="#979797" fill="#D8D8D8"></path>
                <path d="M15.6670918,67.877551 L21.1007653,67.877551 C21.0747008,67.877551 21.0535714,67.8564216 21.0535714,67.8303571 C21.0535714,67.8042927 21.0747008,67.7831633 21.1007653,67.7831633 L15.6670918,67.7831633 C15.6931563,67.7831633 15.7142857,67.8042927 15.7142857,67.8303571 C15.7142857,67.8564216 15.6931563,67.877551 15.6670918,67.877551 Z M18.3367347,65.1135204 L18.3367347,70.5471939 C18.3367347,70.5211294 18.3578641,70.5 18.3839286,70.5 C18.409993,70.5 18.4311224,70.5211294 18.4311224,70.5471939 L18.4311224,65.1135204 C18.4311224,65.1395849 18.409993,65.1607143 18.3839286,65.1607143 C18.3578641,65.1607143 18.3367347,65.1395849 18.3367347,65.1135204 Z" id="合并形状-copy-6" stroke="#979797" fill="#D8D8D8"></path>
                <path d="M86.6670918,7.02040816 L92.1007653,7.02040816 C92.0747008,7.02040816 92.0535714,6.99927874 92.0535714,6.97321429 C92.0535714,6.94714983 92.0747008,6.92602041 92.1007653,6.92602041 L86.6670918,6.92602041 C86.6931563,6.92602041 86.7142857,6.94714983 86.7142857,6.97321429 C86.7142857,6.99927874 86.6931563,7.02040816 86.6670918,7.02040816 Z M89.3367347,4.25637755 L89.3367347,9.69005102 C89.3367347,9.66398656 89.3578641,9.64285714 89.3839286,9.64285714 C89.409993,9.64285714 89.4311224,9.66398656 89.4311224,9.69005102 L89.4311224,4.25637755 C89.4311224,4.28244201 89.409993,4.30357143 89.3839286,4.30357143 C89.3578641,4.30357143 89.3367347,4.28244201 89.3367347,4.25637755 Z" id="合并形状-copy-5" stroke="#979797" fill="#D8D8D8"></path>
                <circle id="椭圆形" stroke="#979797" stroke-width="0.5" cx="29.7946429" cy="4.4375" r="3.16964286"></circle>
                <circle id="椭圆形-copy-2" stroke="#979797" stroke-width="0.5" cx="96.9910714" cy="32.3303571" r="3.16964286"></circle>
                <circle id="椭圆形" fill="#AFACAF" cx="1.90178571" cy="55.1517857" r="1.90178571"></circle>
            </g>
        </g>
    </g>
</svg>