<?xml version="1.0" encoding="UTF-8"?>
<svg width="60px" height="60px" viewBox="0 0 60 60" version="1.1" xmlns="http://www.w3.org/2000/svg" xmlns:xlink="http://www.w3.org/1999/xlink">
    <!-- Generator: Sketch 52.5 (67469) - http://www.bohemiancoding.com/sketch -->
    <title>contact_icon_tookphoto@2x</title>
    <desc>Created with Sketch.</desc>
    <g id="聊天" stroke="none" stroke-width="1" fill="none" fill-rule="evenodd">
        <g id="聊天-发送" transform="translate(-112.000000, -459.000000)" fill-rule="nonzero">
            <g id="功能" transform="translate(0.000000, 443.000000)">
                <g id="contact_icon_tookphoto" transform="translate(112.000000, 16.000000)">
                    <circle id="椭圆形-copy-8" fill="#00AB9F" cx="30" cy="30" r="30"></circle>
                    <g id="icon_camera" transform="translate(19.000000, 20.000000)" fill="#FFFFFF">
                        <path d="M2,3.47368421 L5.0804209,3.47368421 C5.46899902,3.47368421 5.8223947,3.2485828 5.98666662,2.89643554 L6.67808975,1.41424208 C6.84236167,1.06209481 7.19575735,0.836993408 7.58433548,0.836993408 L14.3529308,0.836993408 C14.7730799,0.836993408 15.1484225,1.09962098 15.2923905,1.49433419 L15.7745811,2.81634343 C15.9185491,3.21105664 16.2938917,3.47368421 16.7140409,3.47368421 L20,3.47368421 C21.1045695,3.47368421 22,4.36911471 22,5.47368421 L22,18.8421053 C22,19.9466748 21.1045695,20.8421053 20,20.8421053 L2,20.8421053 C0.8954305,20.8421053 1.3527075e-16,19.9466748 0,18.8421053 L2.62012634e-14,5.47368421 C2.75375748e-14,4.36911471 0.8954305,3.47368421 2,3.47368421 Z M11,17.3684211 C13.8776942,17.3684211 16.2105263,15.035589 16.2105263,12.1578947 C16.2105263,9.28020051 13.8776942,6.94736842 11,6.94736842 C8.12230578,6.94736842 5.78947368,9.28020051 5.78947368,12.1578947 C5.78947368,15.035589 8.12230578,17.3684211 11,17.3684211 Z" id="合并形状"></path>
                        <circle id="椭圆形" cx="11" cy="12.1578947" r="4.05263158"></circle>
                    </g>
                </g>
            </g>
        </g>
    </g>
</svg>