<?xml version="1.0" encoding="UTF-8"?>
<svg width="60px" height="60px" viewBox="0 0 60 60" version="1.1" xmlns="http://www.w3.org/2000/svg" xmlns:xlink="http://www.w3.org/1999/xlink">
    <!-- Generator: Sketch 52.5 (67469) - http://www.bohemiancoding.com/sketch -->
    <title>icon_video@2x</title>
    <desc>Created with Sketch.</desc>
    <g id="聊天" stroke="none" stroke-width="1" fill="none" fill-rule="evenodd">
        <g id="聊天-发送" transform="translate(-292.000000, -556.000000)">
            <g id="icon_video" transform="translate(292.000000, 556.000000)">
                <circle id="椭圆形-copy-14" fill="#00AB9F" fill-rule="nonzero" cx="30" cy="30" r="30"></circle>
                <g id="视频" transform="translate(18.000000, 21.000000)">
                    <rect id="矩形" fill="#000000" opacity="0" x="3.40909091" y="0" width="18.1818182" height="18.1818182"></rect>
                    <path d="M15.1363152,1.13636364 L2.1714545,1.13636364 C2.1714545,1.13636364 0,1.13636364 0,3.24395182 L0,13.9096254 C0,16.0172136 2.1714545,16.0172136 2.1714545,16.0172136 L15.1363152,16.0172136 C15.1363152,16.0172136 17.3077697,16.0172136 17.3077697,13.9096254 L17.3077697,3.30781814 C17.3077697,1.13636364 15.1363152,1.13636364 15.1363152,1.13636364 Z M24.0137321,2.22209087 C23.8221332,2.15822455 23.6305342,2.15822455 23.5028016,2.28595719 L19.2237589,5.60700525 C19.0960263,5.73473787 19.03216,5.86247048 19.03216,5.99020309 L19.03216,11.2911067 C19.03216,11.4188393 19.0960263,11.6104383 19.2237589,11.6743046 L23.5028016,14.9953526 C23.566668,15.0592189 23.6944006,15.1230852 23.8221332,15.1230853 C23.8859995,15.1230853 23.9498658,15.1230853 24.0775984,15.0592189 C24.2691973,14.9953526 24.3330636,14.8037537 24.3330636,14.6121548 L24.3330636,2.66915504 C24.3330636,2.4775561 24.205331,2.28595719 24.0137321,2.22209087 Z" id="形状" fill="#FFFFFF" fill-rule="nonzero"></path>
                </g>
            </g>
        </g>
    </g>
</svg>