<?xml version="1.0" encoding="UTF-8"?>
<svg width="17px" height="16px" viewBox="0 0 17 16" version="1.1" xmlns="http://www.w3.org/2000/svg" xmlns:xlink="http://www.w3.org/1999/xlink">
    <!-- Generator: Sketch 52.6 (67491) - http://www.bohemiancoding.com/sketch -->
    <title>home_icon_search@2x</title>
    <desc>Created with Sketch.</desc>
    <g id="ATMEX移动端" stroke="none" stroke-width="1" fill="none" fill-rule="evenodd">
        <g id="交易" transform="translate(-342.000000, -34.000000)" fill="#CACFE6" fill-rule="nonzero">
            <path d="M356.494381,46.1606312 L358.699678,48.3009927 C359.090907,48.6807009 359.101806,49.3051595 358.724068,49.6982899 C358.348773,50.0888773 357.727903,50.1012743 357.337315,49.7259793 C357.336131,49.7248416 357.33495,49.7237009 357.333772,49.7225573 L355.232444,47.6831045 C353.827038,49.0022892 351.939932,49.809659 349.8652,49.809659 C345.52137,49.809659 342,46.2705463 342,41.9048295 C342,37.5391127 345.52137,34 349.8652,34 C354.209031,34 357.730401,37.5391127 357.730401,41.9048295 C357.730401,43.4717088 357.276802,44.9321106 356.494381,46.1606312 Z M354.535104,45.5274867 C355.305634,44.5256488 355.764101,43.2690492 355.764101,41.9048295 C355.764101,38.6305419 353.123073,35.9762074 349.8652,35.9762074 C346.607328,35.9762074 343.9663,38.6305419 343.9663,41.9048295 C343.9663,45.1791171 346.607328,47.8334516 349.8652,47.8334516 C351.652465,47.8334516 353.254084,47.0346017 354.335851,45.7727916 C354.375258,45.7042991 354.42355,45.6394584 354.480754,45.5799229 C354.498347,45.5616127 354.51648,45.5441337 354.535104,45.5274867 Z" id="home_icon_search"></path>
        </g>
    </g>
</svg>