<?xml version="1.0" encoding="UTF-8"?>
<svg width="14px" height="14px" viewBox="0 0 14 14" version="1.1" xmlns="http://www.w3.org/2000/svg" xmlns:xlink="http://www.w3.org/1999/xlink">
    <!-- Generator: Sketch 52.6 (67491) - http://www.bohemiancoding.com/sketch -->
    <title>icon_close@2x</title>
    <desc>Created with Sketch.</desc>
    <g id="ATMEX移动端" stroke="none" stroke-width="1" fill="none" fill-rule="evenodd">
        <g id="交易" transform="translate(-344.000000, -74.000000)" fill="#CACFE6" fill-rule="nonzero">
            <g id="icon_close" transform="translate(343.000000, 73.000000)">
                <path d="M8,-1.14285714 L8,-1.14285714 C8.63118257,-1.14285714 9.14285714,-0.631182571 9.14285714,1.7119639e-13 L9.14285714,16 C9.14285714,16.6311826 8.63118257,17.1428571 8,17.1428571 L8,17.1428571 C7.36881743,17.1428571 6.85714286,16.6311826 6.85714286,16 L6.85714286,1.7164048e-13 C6.85714286,-0.631182571 7.36881743,-1.14285714 8,-1.14285714 Z" id="矩形-copy" transform="translate(8.000000, 8.000000) rotate(-315.000000) translate(-8.000000, -8.000000) "></path>
                <path d="M8,-1.14285714 L8,-1.14285714 C8.63118257,-1.14285714 9.14285714,-0.631182571 9.14285714,8.54871729e-14 L9.14285714,16 C9.14285714,16.6311826 8.63118257,17.1428571 8,17.1428571 L8,17.1428571 C7.36881743,17.1428571 6.85714286,16.6311826 6.85714286,16 L6.85714286,8.59312621e-14 C6.85714286,-0.631182571 7.36881743,-1.14285714 8,-1.14285714 Z" id="矩形-copy-2" transform="translate(8.000000, 8.000000) rotate(-45.000000) translate(-8.000000, -8.000000) "></path>
            </g>
        </g>
    </g>
</svg>