<?xml version="1.0" encoding="UTF-8"?>
<svg width="20px" height="20px" viewBox="0 0 20 20" version="1.1" xmlns="http://www.w3.org/2000/svg" xmlns:xlink="http://www.w3.org/1999/xlink">
    <!-- Generator: Sketch 52.6 (67491) - http://www.bohemiancoding.com/sketch -->
    <title>icon_jiaoyi1@2x</title>
    <desc>Created with Sketch.</desc>
    <defs>
        <polygon id="path-1" points="0 0 20 0 20 20 0 20"></polygon>
    </defs>
    <g id="ATMEX移动端" stroke="none" stroke-width="1" fill="none" fill-rule="evenodd">
        <g id="我的-资产" transform="translate(-53.000000, -626.000000)">
            <g id="tab" transform="translate(0.000000, 618.000000)">
                <g id="icon_jiaoyi1" transform="translate(53.000000, 8.000000)">
                    <mask id="mask-2" fill="white">
                        <use xlink:href="#path-1"></use>
                    </mask>
                    <g id="Clip-2"></g>
                    <path d="M10.0000212,0 C4.47707462,0 -3.17460317e-05,4.47719068 -3.17460317e-05,10.0000529 C-3.17460317e-05,15.522915 4.47707462,20 10.0000212,20 C15.5228619,20 19.9999683,15.522915 19.9999683,10.0000529 C19.9999683,4.47719068 15.5228619,0 10.0000212,0 M5.30009157,7.38492275 L7.5750057,4.85002563 C7.7027718,4.70827013 7.88410017,4.62645151 8.07495542,4.62497159 C8.26009454,4.61482355 8.44099949,4.68184293 8.57490514,4.81006771 C8.86124094,5.0741283 8.88347034,5.51873953 8.62497421,5.80996728 L7.40987304,7.15997442 L14.1049439,7.15997442 C14.4903593,7.16821971 14.7976543,7.48439474 14.7950079,7.87002045 C14.796384,8.05437661 14.7242973,8.23165027 14.5948375,8.3628349 C14.4655894,8.49412523 14.2892362,8.56875565 14.1049439,8.57002415 L5.80501644,8.57002415 C5.52958363,8.56188458 5.28400173,8.394019 5.17655964,8.14042358 C5.0690117,7.88661674 5.11918663,7.59348622 5.30496087,7.38999678 M14.6698882,12.5800876 L12.3899989,15.1149848 C12.2617035,15.2554718 12.0801634,15.3353876 11.8899433,15.3349648 C11.7039574,15.3451128 11.5223114,15.276085 11.3899936,15.1450061 C11.1095856,14.8753429 11.096248,14.4310488 11.359931,14.1451065 L12.5699512,12.7949936 L5.86006066,12.7949936 C5.49221708,12.764021 5.20958617,12.456514 5.20958617,12.0875903 C5.20958617,11.7184552 5.49221708,11.4109483 5.86006066,11.3799756 L14.1649633,11.3799756 C14.4402903,11.3906522 14.6847078,11.5596805 14.7918323,11.8134874 C14.8989568,12.0673999 14.8495229,12.3604247 14.664913,12.565077" id="Fill-1" fill="#347DE1" mask="url(#mask-2)"></path>
                </g>
            </g>
        </g>
    </g>
</svg>