<?xml version="1.0" encoding="UTF-8"?>
<svg width="6px" height="11px" viewBox="0 0 6 11" version="1.1" xmlns="http://www.w3.org/2000/svg" xmlns:xlink="http://www.w3.org/1999/xlink">
    <!-- Generator: Sketch 52.6 (67491) - http://www.bohemiancoding.com/sketch -->
    <title>icon_turn@2x</title>
    <desc>Created with Sketch.</desc>
    <g id="ATMEX移动端" stroke="none" stroke-width="1" fill="none" fill-rule="evenodd">
        <g id="退出账号确认" transform="translate(-353.000000, -322.000000)" fill="#7185A4" fill-rule="nonzero">
            <g id="分组-copy-5" transform="translate(16.000000, 320.000000)">
                <g id="分组-2">
                    <path d="M338.664571,7.49357755 L339.237476,8.10453099 L342.825682,11.931045 C343.059325,12.1802045 343.059325,12.5679779 342.825682,12.8171374 C342.610523,13.0465864 342.250097,13.0581704 342.020648,12.843011 C342.011748,12.8346658 342.003119,12.8260368 341.994774,12.8171374 L337.833663,8.37966989 L337.830908,8.38260714 L337,7.4965148 L338.397243,6.00647476 L341.98545,2.17996073 C342.20061,1.95051172 342.561036,1.93892771 342.790485,2.15408712 C342.799384,2.16243232 342.808013,2.1710613 342.816359,2.17996073 C343.050001,2.42912022 343.050001,2.81689359 342.816359,3.06605308 L338.664571,7.49357755 Z" id="icon_turn" transform="translate(340.000457, 7.498549) rotate(-180.000000) translate(-340.000457, -7.498549) "></path>
                </g>
            </g>
        </g>
    </g>
</svg>