<?xml version="1.0" encoding="UTF-8"?>
<svg width="20px" height="20px" viewBox="0 0 20 20" version="1.1" xmlns="http://www.w3.org/2000/svg" xmlns:xlink="http://www.w3.org/1999/xlink">
    <!-- Generator: Sketch 52.6 (67491) - http://www.bohemiancoding.com/sketch -->
    <title>icon_zichan2@2x</title>
    <desc>Created with Sketch.</desc>
    <defs>
        <polygon id="path-1" points="2.80701754e-05 0.0407859649 19.9614316 0.0407859649 19.9614316 19.8596491 2.80701754e-05 19.8596491"></polygon>
    </defs>
    <g id="ATMEX移动端" stroke="none" stroke-width="1" fill="none" fill-rule="evenodd">
        <g id="资产-划转弹窗" transform="translate(-178.000000, -626.000000)">
            <g id="butter" transform="translate(0.000000, 618.000000)">
                <g id="icon_zichan2" transform="translate(178.000000, 8.000000)">
                    <g id="zichan" transform="translate(0.000000, 0.029404)">
                        <mask id="mask-2" fill="white">
                            <use xlink:href="#path-1"></use>
                        </mask>
                        <g id="Clip-2"></g>
                        <path d="M19.9614316,3.17762807 C19.9614316,1.46661053 18.5356772,0.0407859649 16.8246596,0.0407859649 L3.13687018,0.0407859649 C1.42578246,0.0407859649 2.80701754e-05,1.46661053 2.80701754e-05,3.17762807 L2.80701754e-05,16.7228912 C2.80701754e-05,18.4338386 1.42578246,19.8596632 3.13687018,19.8596632 L16.6820632,19.8596632 C18.3930105,19.8596632 19.8188351,18.4338386 19.8188351,16.7228912 L19.8188351,13.3009263 L12.6897825,13.3009263 C12.6897825,13.3009263 9.98065965,13.4435228 9.98065965,10.0214175 C9.98065965,6.3144 12.9749754,6.59959298 12.9749754,6.59959298 L19.9614316,6.59959298 L19.9614316,3.17762807 Z" id="Fill-1" fill="#347DE1" mask="url(#mask-2)"></path>
                    </g>
                    <path d="M13.6878596,9.05283509 C14.1155789,9.05283509 14.5432281,9.48069474 14.5432281,9.90834386 C14.5432281,10.1935368 14.4007719,10.4787298 14.1155789,10.6212561 C13.8304561,10.7638526 13.545193,10.7638526 13.2600702,10.6212561 C12.9750175,10.4787298 12.8324211,10.1935368 12.8324211,9.90834386 C12.8324211,9.48069474 13.2600702,9.05283509 13.6878596,9.05283509 M11.2639298,10.0508702 C11.2639298,12.4748702 13.4027368,12.189607 13.4027368,12.189607 L19.6762105,12.189607 L19.6762105,7.62701053 L13.545193,7.62701053 C13.545193,7.76960702 11.2639298,7.48441404 11.2639298,10.0508702" id="Fill-3" fill="#347DE1"></path>
                </g>
            </g>
        </g>
    </g>
</svg>