<?xml version="1.0" encoding="UTF-8"?>
<svg width="211px" height="55px" viewBox="0 0 211 55" version="1.1" xmlns="http://www.w3.org/2000/svg" xmlns:xlink="http://www.w3.org/1999/xlink">
    <!-- Generator: Sketch 52.6 (67491) - http://www.bohemiancoding.com/sketch -->
    <title>Launcher_12421LOGO@2x</title>
    <desc>Created with Sketch.</desc>
    <defs>
        <polygon id="path-1" points="0.46318488 0.518581443 19.2530612 0.518581443 19.2530612 24.652921 0.46318488 24.652921"></polygon>
        <polygon id="path-3" points="0.0614431641 0.0549041902 35.4025728 0.0549041902 35.4025728 54.2632402 0.0614431641 54.2632402"></polygon>
    </defs>
    <g id="ATMEX移动端" stroke="none" stroke-width="1" fill="none" fill-rule="evenodd">
        <g id="启动页1242-1" transform="translate(-102.000000, -148.000000)">
            <g id="Launcher_12421LOGO" transform="translate(102.000000, 148.000000)">
                <g id="分组" transform="translate(80.484536, 15.226804)">
                    <g transform="translate(0.000000, 0.566292)">
                        <mask id="mask-2" fill="white">
                            <use xlink:href="#path-1"></use>
                        </mask>
                        <g id="Clip-12"></g>
                        <path d="M6.68949759,15.3574646 L13.0267485,15.3574646 L9.92700619,4.77773608 L9.81606804,4.77773608 L6.68949759,15.3574646 Z M8.01785498,0.518581443 L11.6983911,0.518581443 L19.2530612,24.653066 L15.7936763,24.653066 L13.9947381,18.6022241 L5.72078282,18.6022241 L3.92256976,24.653066 L0.46318488,24.653066 L8.01785498,0.518581443 Z" id="Fill-11" fill="#FFFFFF" mask="url(#mask-2)"></path>
                    </g>
                    <polygon id="Fill-13" fill="#FFFFFF" points="27.9690289 1.08465601 44.1572969 1.08465601 44.1572969 4.46500653 37.6822797 4.46500653 37.6822797 25.2191405 34.4447711 25.2191405 34.4447711 4.46500653 27.9690289 4.46500653"></polygon>
                    <polygon id="Fill-15" fill="#FFFFFF" points="54.8110567 1.08465601 58.6025309 1.08465601 65.3262526 20.0137488 65.4371907 20.0137488 72.1340842 1.08465601 75.9248333 1.08465601 75.9248333 25.2191405 72.6873247 25.2191405 72.6873247 8.5885701 72.5763866 8.5885701 66.7655481 25.2191405 63.9703419 25.2191405 58.1595034 8.5885701 58.0485653 8.5885701 58.0485653 25.2191405 54.8110567 25.2191405"></polygon>
                    <polygon id="Fill-17" fill="#FFFFFF" points="88.1012735 1.08465601 102.352112 1.08465601 102.352112 4.46500653 91.3387821 4.46500653 91.3387821 11.1575495 101.687933 11.1575495 101.687933 14.5379 91.3387821 14.5379 91.3387821 21.8395151 102.822693 21.8395151 102.822693 25.2191405 88.1012735 25.2191405"></polygon>
                    <polygon id="Fill-19" fill="#FFFFFF" points="112.812274 1.08465601 116.769068 1.08465601 121.418319 9.60296529 126.066844 1.08465601 130.024363 1.08465601 123.355023 12.7462127 130.467391 25.2191405 126.509872 25.2191405 121.418319 15.8894601 116.326765 25.2191405 112.369246 25.2191405 119.425782 12.7462127"></polygon>
                </g>
                <g id="分组-2">
                    <g id="分组" transform="translate(27.828151, 0.195800)">
                        <mask id="mask-4" fill="white">
                            <use xlink:href="#path-3"></use>
                        </mask>
                        <g id="Clip-2"></g>
                        <path d="M35.4025728,54.2632402 L4.84450507,1.33509943 C4.13927453,0.113669223 2.56284737,-0.308767126 1.34166787,0.396463408 C0.12023767,1.10169394 -0.30219868,2.6781211 0.403031855,3.89955131 L28.5696335,52.6858102 L35.4025728,54.2632402 Z" id="Fill-1" fill="#347DE1" mask="url(#mask-4)"></path>
                    </g>
                    <path d="M6.29482808,52.918589 L11.9502104,42.4371534 C12.6198409,41.1961683 12.1522779,39.632527 10.911042,38.9626458 C9.66980621,38.2930152 8.10641566,38.7605783 7.4365344,40.0020648 L0.303000933,53.2229437 C0.0716010809,53.6516476 -0.0211594231,54.1184586 0.00391098341,54.5739879 L6.29482808,52.918589 Z" id="Fill-3" fill="#347DE1"></path>
                    <path d="M46.412994,50.3493486 L28.476873,12.5787756 C27.8719241,11.3046976 26.3346068,10.7574106 25.0605288,11.3623595 C23.7864507,11.9673084 23.238913,13.5046257 23.8441126,14.7787038 L39.88817,48.5648371 L46.412994,50.3493486 Z" id="Fill-5" fill="#347DE1"></path>
                    <path d="M31.1746243,46.1807919 L24.2353865,21.5032386 C23.8535642,20.1454254 22.4303172,19.346933 21.072504,19.7287553 C19.7149415,20.1105776 18.9161983,21.5338245 19.2980206,22.8916377 L26.2721063,47.692036 L31.1746243,46.1807919 Z" id="Fill-7" fill="#347DE1"></path>
                    <path d="M19.213057,49.3563349 L19.213057,30.3582316 C19.213057,28.9477705 18.0590662,27.7937797 16.6486051,27.7937797 C15.2383948,27.7937797 14.0844039,28.9477705 14.0844039,30.3582316 L14.0844039,50.9646015 L19.213057,49.3563349 Z" id="Fill-9" fill="#347DE1"></path>
                </g>
            </g>
        </g>
    </g>
</svg>