<?xml version="1.0" encoding="UTF-8"?>
<svg width="173px" height="45px" viewBox="0 0 173 45" version="1.1" xmlns="http://www.w3.org/2000/svg" xmlns:xlink="http://www.w3.org/1999/xlink">
    <!-- Generator: Sketch 52.6 (67491) - http://www.bohemiancoding.com/sketch -->
    <title>Launcher_6401LOGO@2x</title>
    <desc>Created with Sketch.</desc>
    <defs>
        <polygon id="path-1" points="0.379767698 0.425187629 15.7856852 0.425187629 15.7856852 20.2130584 0.379767698 20.2130584"></polygon>
        <polygon id="path-3" points="0.0503775705 0.0450162318 29.026754 0.0450162318 29.026754 44.4907135 0.0503775705 44.4907135"></polygon>
    </defs>
    <g id="ATMEX移动端" stroke="none" stroke-width="1" fill="none" fill-rule="evenodd">
        <g id="启动页640-1" transform="translate(-74.000000, -139.000000)">
            <g id="Launcher_6401LOGO" transform="translate(74.000000, 139.000000)">
                <g id="分组" transform="translate(65.989691, 12.484536)">
                    <g transform="translate(0.000000, 0.464306)">
                        <mask id="mask-2" fill="white">
                            <use xlink:href="#path-1"></use>
                        </mask>
                        <g id="Clip-12"></g>
                        <path d="M5.48475395,12.5916653 L10.680699,12.5916653 L8.13920412,3.91729072 L8.04824536,3.91729072 L5.48475395,12.5916653 Z M6.5738811,0.425187629 L9.59157182,0.425187629 L15.7856852,20.2131773 L12.9493175,20.2131773 L11.4743588,15.2520605 L4.69049966,15.2520605 L3.2161354,20.2131773 L0.379767698,20.2131773 L6.5738811,0.425187629 Z" id="Fill-11" fill="#FFFFFF" mask="url(#mask-2)"></path>
                    </g>
                    <polygon id="Fill-13" fill="#FFFFFF" points="22.9319526 0.88931512 36.2047979 0.88931512 36.2047979 3.66088213 30.8958976 3.66088213 30.8958976 20.6773048 28.2414474 20.6773048 28.2414474 3.66088213 22.9319526 3.66088213"></polygon>
                    <polygon id="Fill-15" fill="#FFFFFF" points="44.9398711 0.88931512 48.0485206 0.88931512 53.5613351 16.409377 53.6522938 16.409377 59.1431117 0.88931512 62.2511667 0.88931512 62.2511667 20.6773048 59.5967165 20.6773048 59.5967165 7.0418134 59.5057577 7.0418134 54.741421 20.6773048 52.4496168 20.6773048 47.6852801 7.0418134 47.5943213 7.0418134 47.5943213 20.6773048 44.9398711 20.6773048"></polygon>
                    <polygon id="Fill-17" fill="#FFFFFF" points="72.2346935 0.88931512 83.9190302 0.88931512 83.9190302 3.66088213 74.8891436 3.66088213 74.8891436 9.14813299 83.3744667 9.14813299 83.3744667 11.9197 74.8891436 11.9197 74.8891436 17.9063323 84.3048619 17.9063323 84.3048619 20.6773048 72.2346935 20.6773048"></polygon>
                    <polygon id="Fill-19" fill="#FFFFFF" points="92.4953715 0.88931512 95.7395674 0.88931512 99.5515124 7.87352131 103.362863 0.88931512 106.607653 0.88931512 101.139426 10.4506863 106.970894 20.6773048 103.726103 20.6773048 99.5515124 13.0278512 95.3769213 20.6773048 92.1321309 20.6773048 97.9178216 10.4506863"></polygon>
                </g>
                <g id="分组-2">
                    <g id="分组" transform="translate(22.816446, 0.160537)">
                        <mask id="mask-4" fill="white">
                            <use xlink:href="#path-3"></use>
                        </mask>
                        <g id="Clip-2"></g>
                        <path d="M29.026754,44.4907135 L3.97203496,1.09465498 C3.39381277,0.0931979886 2.10129192,-0.253159777 1.10004048,0.325062415 C0.0985834921,0.903284607 -0.247774273,2.19580545 0.330447919,3.19726245 L23.4243915,43.1973705 L29.026754,44.4907135 Z" id="Fill-1" fill="#347DE1" mask="url(#mask-4)"></path>
                    </g>
                    <path d="M5.16116236,43.388227 L9.79803979,34.7944433 C10.3470734,33.7769531 9.96371597,32.4949155 8.94602024,31.9456764 C7.92832452,31.3966428 6.64649246,31.7800002 6.09725332,32.7979015 L0.248432044,43.637769 C0.0587060995,43.9892656 -0.0173487213,44.3720063 0.00320663569,44.7454972 L5.16116236,43.388227 Z" id="Fill-3" fill="#347DE1"></path>
                    <path d="M38.0542557,41.2816934 L23.3483367,10.3134037 C22.8523359,9.26878046 21.5918814,8.82005702 20.5472582,9.31605778 C19.5026349,9.81205854 19.0537059,11.072513 19.5499122,12.1171363 L32.7045185,39.8185631 L38.0542557,41.2816934 Z" id="Fill-5" fill="#347DE1"></path>
                    <path d="M25.560237,37.863872 L19.8707197,17.6306175 C19.5576616,16.5173393 18.390734,15.8626512 17.2774559,16.1757093 C16.1643833,16.4887674 15.5094896,17.655695 15.8225477,18.7689731 L21.5406369,39.1029489 L25.560237,37.863872 Z" id="Fill-7" fill="#347DE1"></path>
                    <path d="M15.7528856,40.4675163 L15.7528856,24.8908723 C15.7528856,23.7344279 14.8067225,22.7882649 13.6502781,22.7882649 C12.4940393,22.7882649 11.5478762,23.7344279 11.5478762,24.8908723 L11.5478762,41.7861424 L15.7528856,40.4675163 Z" id="Fill-9" fill="#347DE1"></path>
                </g>
            </g>
        </g>
    </g>
</svg>