<?xml version="1.0" encoding="UTF-8"?>
<svg width="300px" height="78px" viewBox="0 0 300 78" version="1.1" xmlns="http://www.w3.org/2000/svg" xmlns:xlink="http://www.w3.org/1999/xlink">
    <!-- Generator: Sketch 52.6 (67491) - http://www.bohemiancoding.com/sketch -->
    <title>Launcher_1882LOGO@2x</title>
    <desc>Created with Sketch.</desc>
    <defs>
        <polygon id="path-1" points="0.658556701 0.737319588 27.3740206 0.737319588 27.3740206 35.0515464 0.658556701 35.0515464"></polygon>
        <polygon id="path-3" points="0.0873599489 0.0780628297 50.3354116 0.0780628297 50.3354116 77.1515264 0.0873599489 77.1515264"></polygon>
    </defs>
    <g id="ATMEX移动端" stroke="none" stroke-width="1" fill="none" fill-rule="evenodd">
        <g id="Android-1882" transform="translate(-120.000000, -242.000000)">
            <g id="Launcher_1882LOGO" transform="translate(120.000000, 242.000000)">
                <g id="分组" transform="translate(114.432990, 21.649485)">
                    <g transform="translate(0.000000, 0.805155)">
                        <mask id="mask-2" fill="white">
                            <use xlink:href="#path-1"></use>
                        </mask>
                        <g id="Clip-12"></g>
                        <path d="M9.51113402,21.8352577 L18.5214433,21.8352577 L14.1142268,6.79298969 L13.9564948,6.79298969 L9.51113402,21.8352577 Z M11.3997938,0.737319588 L16.6327835,0.737319588 L27.3740206,35.0517526 L22.4554639,35.0517526 L19.897732,26.4486598 L8.13381443,26.4486598 L5.5771134,35.0517526 L0.658556701,35.0517526 L11.3997938,0.737319588 Z" id="Fill-11" fill="#FFFFFF" mask="url(#mask-2)"></path>
                    </g>
                    <polygon id="Fill-13" fill="#FFFFFF" points="39.7663918 1.54216495 62.7828866 1.54216495 62.7828866 6.34835052 53.576701 6.34835052 53.576701 35.8565979 48.9736082 35.8565979 48.9736082 6.34835052 39.7663918 6.34835052"></polygon>
                    <polygon id="Fill-15" fill="#FFFFFF" points="77.9304124 1.54216495 83.321134 1.54216495 92.8809278 28.455567 93.0386598 28.455567 102.560309 1.54216495 107.95 1.54216495 107.95 35.8565979 103.346907 35.8565979 103.346907 12.2112371 103.189175 12.2112371 94.9273196 35.8565979 90.9530928 35.8565979 82.6912371 12.2112371 82.5335052 12.2112371 82.5335052 35.8565979 77.9304124 35.8565979"></polygon>
                    <polygon id="Fill-17" fill="#FFFFFF" points="125.262474 1.54216495 145.52433 1.54216495 145.52433 6.34835052 129.865567 6.34835052 129.865567 15.8638144 144.58 15.8638144 144.58 20.67 129.865567 20.67 129.865567 31.0514433 146.193402 31.0514433 146.193402 35.8565979 125.262474 35.8565979"></polygon>
                    <polygon id="Fill-19" fill="#FFFFFF" points="160.396598 1.54216495 166.022371 1.54216495 172.63268 13.6535052 179.241959 1.54216495 184.868763 1.54216495 175.386289 18.1225773 185.49866 35.8565979 179.871856 35.8565979 172.63268 22.5916495 165.393505 35.8565979 159.766701 35.8565979 169.799691 18.1225773"></polygon>
                </g>
                <g id="分组-2">
                    <g id="分组" transform="translate(39.566092, 0.278388)">
                        <mask id="mask-4" fill="white">
                            <use xlink:href="#path-3"></use>
                        </mask>
                        <g id="Clip-2"></g>
                        <path d="M50.3354116,77.1515264 L6.8879219,1.89824563 C5.88522446,0.161615009 3.64385883,-0.439005393 1.90758465,0.56369205 C0.170954033,1.56638949 -0.429666369,3.80775512 0.573031073,5.54438574 L40.6203321,74.9087349 L50.3354116,77.1515264 Z" id="Fill-1" fill="#347DE1" mask="url(#mask-4)"></path>
                    </g>
                    <path d="M8.94999254,75.2396999 L16.9908204,60.3371849 C17.9429018,58.5727511 17.2781202,56.3495645 15.5133299,55.3971267 C13.7485396,54.4450453 11.5257095,55.109827 10.5732717,56.8749737 L0.430807014,75.6724318 C0.101802485,76.2819635 -0.0300844878,76.9456757 0.00556063992,77.5933477 L8.94999254,75.2396999 Z" id="Fill-3" fill="#347DE1"></path>
                    <path d="M65.9900388,71.5867516 L40.4884451,17.8845151 C39.6283282,16.0730297 37.4425689,15.2948966 35.6310835,16.1550135 C33.8195981,17.0151304 33.0411086,19.2008897 33.9015819,21.012375 L56.7130379,69.0495314 L65.9900388,71.5867516 Z" id="Fill-5" fill="#347DE1"></path>
                    <path d="M44.3241103,65.6598936 L34.4578954,30.5733251 C33.9150201,28.642785 31.8914462,27.5074876 29.9609061,28.0503629 C28.0307225,28.5932382 26.8950687,30.6168121 27.437944,32.5473522 L37.3537056,67.8085819 L44.3241103,65.6598936 Z" id="Fill-7" fill="#347DE1"></path>
                    <path d="M27.3171427,70.1748837 L27.3171427,43.1633624 C27.3171427,41.1579675 25.6763974,39.5172223 23.6710025,39.5172223 C21.6659641,39.5172223 20.0252189,41.1579675 20.0252189,43.1633624 L20.0252189,72.4615187 L27.3171427,70.1748837 Z" id="Fill-9" fill="#347DE1"></path>
                </g>
            </g>
        </g>
    </g>
</svg>