<?xml version="1.0" encoding="UTF-8"?>
<svg width="182px" height="48px" viewBox="0 0 182 48" version="1.1" xmlns="http://www.w3.org/2000/svg" xmlns:xlink="http://www.w3.org/1999/xlink">
    <!-- Generator: Sketch 52.6 (67491) - http://www.bohemiancoding.com/sketch -->
    <title>Launcher_1125LOGO@2x</title>
    <desc>Created with Sketch.</desc>
    <defs>
        <polygon id="path-1" points="0.399524399 0.447307216 16.6069058 0.447307216 16.6069058 21.2646048 0.399524399 21.2646048"></polygon>
        <polygon id="path-3" points="0.052998369 0.0473581167 30.5368164 0.0473581167 30.5368164 46.8052593 0.052998369 46.8052593"></polygon>
    </defs>
    <g id="ATMEX移动端" stroke="none" stroke-width="1" fill="none" fill-rule="evenodd">
        <g id="启动页1125" transform="translate(-97.000000, -148.000000)">
            <g id="Launcher_1125LOGO" transform="translate(97.000000, 148.000000)">
                <g id="分组" transform="translate(69.422680, 13.134021)">
                    <g transform="translate(0.000000, 0.488460)">
                        <mask id="mask-2" fill="white">
                            <use xlink:href="#path-1"></use>
                        </mask>
                        <g id="Clip-12"></g>
                        <path d="M5.77008797,13.246723 L11.2363423,13.246723 L8.56263093,4.12108041 L8.46694021,4.12108041 L5.77008797,13.246723 Z M6.91587491,0.447307216 L10.0905553,0.447307216 L16.6069058,21.2647299 L13.6229814,21.2647299 L12.0712907,16.0455203 L4.93451409,16.0455203 L3.3834488,21.2647299 L0.399524399,21.2647299 L6.91587491,0.447307216 Z" id="Fill-11" fill="#FFFFFF" mask="url(#mask-2)"></path>
                    </g>
                    <polygon id="Fill-13" fill="#FFFFFF" points="24.1249443 0.935580069 38.0882845 0.935580069 38.0882845 3.85133265 32.5031986 3.85133265 32.5031986 21.7530027 29.7106557 21.7530027 29.7106557 3.85133265 24.1249443 3.85133265"></polygon>
                    <polygon id="Fill-15" fill="#FFFFFF" points="47.2777835 0.935580069 50.5481546 0.935580069 56.3477629 17.263044 56.4434536 17.263044 62.219921 0.935580069 65.4896667 0.935580069 65.4896667 21.7530027 62.6971237 21.7530027 62.6971237 7.40815052 62.601433 7.40815052 57.5892405 21.7530027 55.1782096 21.7530027 50.1660172 7.40815052 50.0703265 7.40815052 50.0703265 21.7530027 47.2777835 21.7530027"></polygon>
                    <polygon id="Fill-17" fill="#FFFFFF" points="75.9925677 0.935580069 88.2847601 0.935580069 88.2847601 3.85133265 78.7851107 3.85133265 78.7851107 9.62404742 87.7118667 9.62404742 87.7118667 12.5398 78.7851107 12.5398 78.7851107 18.8378756 88.6906639 18.8378756 88.6906639 21.7530027 75.9925677 21.7530027"></polygon>
                    <polygon id="Fill-19" fill="#FFFFFF" points="97.3072694 0.935580069 100.720238 0.935580069 104.730493 8.28312646 108.740122 0.935580069 112.153716 0.935580069 106.401015 10.9943636 112.535854 21.7530027 109.122259 21.7530027 104.730493 13.7056007 100.338726 21.7530027 96.925132 21.7530027 103.011812 10.9943636"></polygon>
                </g>
                <g id="分组-2">
                    <g id="分组" transform="translate(24.003429, 0.168889)">
                        <mask id="mask-4" fill="white">
                            <use xlink:href="#path-3"></use>
                        </mask>
                        <g id="Clip-2"></g>
                        <path d="M30.5368164,46.8052593 L4.17867262,1.15160235 C3.5703695,0.0980464388 2.21060769,-0.266329938 1.15726802,0.341973177 C0.103712113,0.950276292 -0.260664264,2.31003811 0.347638851,3.36359402 L24.6430014,45.4446325 L30.5368164,46.8052593 Z" id="Fill-1" fill="#347DE1" mask="url(#mask-4)"></path>
                    </g>
                    <path d="M5.42966214,45.645418 L10.3077644,36.6045589 C10.8853604,35.5341357 10.4820596,34.1854025 9.41142014,33.6075902 C8.34078071,33.0299942 6.99226374,33.433295 6.41445147,34.5041507 L0.261356255,45.9079419 C0.0617601741,46.2777245 -0.0182512559,46.6803766 0.00337345489,47.0732976 L5.42966214,45.645418 Z" id="Fill-3" fill="#347DE1"></path>
                    <path d="M40.0339569,43.429296 L24.56299,10.8499392 C24.0411857,9.75097135 22.7151585,9.27890391 21.6161907,9.80070819 C20.5172229,10.3225125 20.0449392,11.6485397 20.5669597,12.7475075 L34.4059096,41.8900491 L40.0339569,43.429296 Z" id="Fill-5" fill="#347DE1"></path>
                    <path d="M26.8899603,39.8336688 L20.9044566,18.5478172 C20.5751122,17.3766229 19.3474774,16.6878758 18.1762831,17.0172202 C17.005305,17.3465645 16.3163417,18.5741994 16.645686,19.7453937 L22.6612481,41.1372064 L26.8899603,39.8336688 Z" id="Fill-7" fill="#347DE1"></path>
                    <path d="M16.5723999,42.5727628 L16.5723999,26.1857732 C16.5723999,24.969167 15.5770144,23.9737815 14.3604082,23.9737815 C13.1440182,23.9737815 12.1486328,24.969167 12.1486328,26.1857732 L12.1486328,43.959988 L16.5723999,42.5727628 Z" id="Fill-9" fill="#347DE1"></path>
                </g>
            </g>
        </g>
    </g>
</svg>