<?xml version="1.0" encoding="UTF-8"?>
<svg width="194px" height="51px" viewBox="0 0 194 51" version="1.1" xmlns="http://www.w3.org/2000/svg" xmlns:xlink="http://www.w3.org/1999/xlink">
    <!-- Generator: Sketch 52.6 (67491) - http://www.bohemiancoding.com/sketch -->
    <title>Launcher_828LOGO@2x</title>
    <desc>Created with Sketch.</desc>
    <defs>
        <polygon id="path-1" points="0.425866667 0.4768 17.7018667 0.4768 17.7018667 22.6666667 0.425866667 22.6666667"></polygon>
        <polygon id="path-3" points="0.056492767 0.0504806299 32.5502328 0.0504806299 32.5502328 49.8913204 0.056492767 49.8913204"></polygon>
    </defs>
    <g id="ATMEX移动端" stroke="none" stroke-width="1" fill="none" fill-rule="evenodd">
        <g id="启动页828" transform="translate(-110.000000, -148.000000)">
            <g id="Launcher_828LOGO" transform="translate(110.000000, 148.000000)">
                <g id="分组" transform="translate(74.000000, 14.000000)">
                    <g transform="translate(0.000000, 0.520667)">
                        <mask id="mask-2" fill="white">
                            <use xlink:href="#path-1"></use>
                        </mask>
                        <g id="Clip-12"></g>
                        <path d="M6.15053333,14.1201333 L11.9772,14.1201333 L9.1272,4.3928 L9.0252,4.3928 L6.15053333,14.1201333 Z M7.37186667,0.4768 L10.7558667,0.4768 L17.7018667,22.6668 L14.5212,22.6668 L12.8672,17.1034667 L5.25986667,17.1034667 L3.60653333,22.6668 L0.425866667,22.6668 L7.37186667,0.4768 Z" id="Fill-11" fill="#FFFFFF" mask="url(#mask-2)"></path>
                    </g>
                    <polygon id="Fill-13" fill="#FFFFFF" points="25.7156 0.997266667 40.5996 0.997266667 40.5996 4.10526667 34.6462667 4.10526667 34.6462667 23.1872667 31.6696 23.1872667 31.6696 4.10526667 25.7156 4.10526667"></polygon>
                    <polygon id="Fill-15" fill="#FFFFFF" points="50.395 0.997266667 53.881 0.997266667 60.063 18.4012667 60.165 18.4012667 66.3223333 0.997266667 69.8076667 0.997266667 69.8076667 23.1872667 66.831 23.1872667 66.831 7.8966 66.729 7.8966 61.3863333 23.1872667 58.8163333 23.1872667 53.4736667 7.8966 53.3716667 7.8966 53.3716667 23.1872667 50.395 23.1872667"></polygon>
                    <polygon id="Fill-17" fill="#FFFFFF" points="81.0030667 0.997266667 94.1057333 0.997266667 94.1057333 4.10526667 83.9797333 4.10526667 83.9797333 10.2586 93.4950667 10.2586 93.4950667 13.3666 83.9797333 13.3666 83.9797333 20.0799333 94.5384 20.0799333 94.5384 23.1872667 81.0030667 23.1872667"></polygon>
                    <polygon id="Fill-19" fill="#FFFFFF" points="103.723133 0.997266667 107.361133 0.997266667 111.6358 8.82926667 115.9098 0.997266667 119.548467 0.997266667 113.416467 11.7192667 119.9558 23.1872667 116.317133 23.1872667 111.6358 14.6092667 106.954467 23.1872667 103.3158 23.1872667 109.8038 11.7192667"></polygon>
                </g>
                <g id="分组-2">
                    <g id="分组" transform="translate(25.586073, 0.180025)">
                        <mask id="mask-4" fill="white">
                            <use xlink:href="#path-3"></use>
                        </mask>
                        <g id="Clip-2"></g>
                        <path d="M32.5502328,49.8913204 L4.45418949,1.22753217 C3.80577848,0.104511039 2.35636204,-0.283890154 1.23357141,0.364520859 C0.110550274,1.01293187 -0.277850919,2.46234831 0.370560094,3.58536945 L26.2678147,48.4409819 L32.5502328,49.8913204 Z" id="Fill-1" fill="#347DE1" mask="url(#mask-4)"></path>
                    </g>
                    <path d="M5.78766184,48.655006 L10.9873972,39.0180463 C11.6030765,37.8770457 11.1731844,36.439385 10.0319533,35.8234753 C8.89072229,35.207796 7.45329212,35.6376881 6.83738234,36.7791496 L0.278588535,48.9348392 C0.0658322735,49.329003 -0.0194546354,49.7582036 0.00359588048,50.1770315 L5.78766184,48.655006 Z" id="Fill-3" fill="#347DE1"></path>
                    <path d="M42.6735584,46.292766 L26.1825278,11.5653198 C25.6263189,10.3938925 24.2128612,9.89069978 23.041434,10.4469087 C21.8700068,11.0031177 21.3665835,12.4165753 21.923023,13.5880025 L36.6744312,44.6520303 L42.6735584,46.292766 Z" id="Fill-5" fill="#347DE1"></path>
                    <path d="M28.6629247,42.4600645 L22.2827724,19.7707502 C21.931713,18.5223343 20.6231352,17.7881753 19.3747193,18.1392347 C18.1265339,18.4902941 17.3921444,19.7988718 17.7432038,21.0472878 L24.1553963,43.8495496 L28.6629247,42.4600645 Z" id="Fill-7" fill="#347DE1"></path>
                    <path d="M17.6650856,45.3797581 L17.6650856,27.9123077 C17.6650856,26.6154857 16.6040703,25.5544704 15.3072483,25.5544704 C14.0106568,25.5544704 12.9496415,26.6154857 12.9496415,27.9123077 L12.9496415,46.8584487 L17.6650856,45.3797581 Z" id="Fill-9" fill="#347DE1"></path>
                </g>
            </g>
        </g>
    </g>
</svg>