<?xml version="1.0" encoding="UTF-8"?>
<svg width="180px" height="47px" viewBox="0 0 180 47" version="1.1" xmlns="http://www.w3.org/2000/svg" xmlns:xlink="http://www.w3.org/1999/xlink">
    <!-- Generator: Sketch 52.6 (67491) - http://www.bohemiancoding.com/sketch -->
    <title>Launcher_1242LOGO@2x</title>
    <desc>Created with Sketch.</desc>
    <defs>
        <polygon id="path-1" points="0.395134021 0.442391753 16.4244124 0.442391753 16.4244124 21.0309278 0.395134021 21.0309278"></polygon>
        <polygon id="path-3" points="0.0524159693 0.0468376978 30.201247 0.0468376978 30.201247 46.2909158 0.0524159693 46.2909158"></polygon>
    </defs>
    <g id="ATMEX移动端" stroke="none" stroke-width="1" fill="none" fill-rule="evenodd">
        <g id="Android-1242" transform="translate(-90.000000, -137.000000)">
            <g id="Launcher_1242LOGO" transform="translate(90.000000, 137.000000)">
                <g id="分组" transform="translate(68.659794, 12.989691)">
                    <g transform="translate(0.000000, 0.483093)">
                        <mask id="mask-2" fill="white">
                            <use xlink:href="#path-1"></use>
                        </mask>
                        <g id="Clip-12"></g>
                        <path d="M5.70668041,13.1011546 L11.112866,13.1011546 L8.46853608,4.07579381 L8.37389691,4.07579381 L5.70668041,13.1011546 Z M6.83987629,0.442391753 L9.9796701,0.442391753 L16.4244124,21.0310515 L13.4732784,21.0310515 L11.9386392,15.8691959 L4.88028866,15.8691959 L3.34626804,21.0310515 L0.395134021,21.0310515 L6.83987629,0.442391753 Z" id="Fill-11" fill="#FFFFFF" mask="url(#mask-2)"></path>
                    </g>
                    <polygon id="Fill-13" fill="#FFFFFF" points="23.8598351 0.925298969 37.669732 0.925298969 37.669732 3.80901031 32.1460206 3.80901031 32.1460206 21.5139588 29.3841649 21.5139588 29.3841649 3.80901031 23.8598351 3.80901031"></polygon>
                    <polygon id="Fill-15" fill="#FFFFFF" points="46.7582474 0.925298969 49.9926804 0.925298969 55.7285567 17.0733402 55.8231959 17.0733402 61.5361856 0.925298969 64.77 0.925298969 64.77 21.5139588 62.0081443 21.5139588 62.0081443 7.32674227 61.9135052 7.32674227 56.9563918 21.5139588 54.5718557 21.5139588 49.6147423 7.32674227 49.5201031 7.32674227 49.5201031 21.5139588 46.7582474 21.5139588"></polygon>
                    <polygon id="Fill-17" fill="#FFFFFF" points="75.1574845 0.925298969 87.3145979 0.925298969 87.3145979 3.80901031 77.9193402 3.80901031 77.9193402 9.51828866 86.748 9.51828866 86.748 12.402 77.9193402 12.402 77.9193402 18.630866 87.7160412 18.630866 87.7160412 21.5139588 75.1574845 21.5139588"></polygon>
                    <polygon id="Fill-19" fill="#FFFFFF" points="96.2379588 0.925298969 99.6134227 0.925298969 103.579608 8.19210309 107.545175 0.925298969 110.921258 0.925298969 105.231773 10.8735464 111.299196 21.5139588 107.923113 21.5139588 103.579608 13.5549897 99.2361031 21.5139588 95.8600206 21.5139588 101.879814 10.8735464"></polygon>
                </g>
                <g id="分组-2">
                    <g id="分组" transform="translate(23.739655, 0.167033)">
                        <mask id="mask-4" fill="white">
                            <use xlink:href="#path-3"></use>
                        </mask>
                        <g id="Clip-2"></g>
                        <path d="M30.201247,46.2909158 L4.13275314,1.13894738 C3.53113467,0.0969690054 2.1863153,-0.263403236 1.14455079,0.33821523 C0.10257242,0.939833695 -0.257799822,2.28465307 0.343818644,3.32663145 L24.3721992,44.945241 L30.201247,46.2909158 Z" id="Fill-1" fill="#347DE1" mask="url(#mask-4)"></path>
                    </g>
                    <path d="M5.36999552,45.14382 L10.1944923,36.202311 C10.7657411,35.1436507 10.3668721,33.8097387 9.30799794,33.238276 C8.24912378,32.6670272 6.91542568,33.0658962 6.34396299,34.1249842 L0.258484208,45.4034591 C0.0610814908,45.7691781 -0.0180506927,46.1674054 0.00333638395,46.5560086 L5.36999552,45.14382 Z" id="Fill-3" fill="#347DE1"></path>
                    <path d="M39.5940233,42.952051 L24.2930671,10.7307091 C23.7769969,9.64381782 22.4655414,9.17693794 21.3786501,9.6930081 C20.2917589,10.2090783 19.8246651,11.5205338 20.3409492,12.607425 L34.0278227,41.4297188 L39.5940233,42.952051 Z" id="Fill-5" fill="#347DE1"></path>
                    <path d="M26.5944662,39.3959362 L20.6747373,18.343995 C20.3490121,17.185671 19.1348677,16.5044926 17.9765437,16.8302178 C16.8184335,17.1559429 16.1370412,18.3700873 16.4627664,19.5284113 L22.4122234,40.6851492 L26.5944662,39.3959362 Z" id="Fill-7" fill="#347DE1"></path>
                    <path d="M16.3902856,42.1049302 L16.3902856,25.8980174 C16.3902856,24.6947805 15.4058385,23.7103334 14.2026015,23.7103334 C12.9995785,23.7103334 12.0151313,24.6947805 12.0151313,25.8980174 L12.0151313,43.4769112 L16.3902856,42.1049302 Z" id="Fill-9" fill="#347DE1"></path>
                </g>
            </g>
        </g>
    </g>
</svg>