<?xml version="1.0" encoding="UTF-8"?>
<svg width="140px" height="37px" viewBox="0 0 140 37" version="1.1" xmlns="http://www.w3.org/2000/svg" xmlns:xlink="http://www.w3.org/1999/xlink">
    <!-- Generator: Sketch 52.6 (67491) - http://www.bohemiancoding.com/sketch -->
    <title>Launcher_762LOGO@2x</title>
    <desc>Created with Sketch.</desc>
    <defs>
        <polygon id="path-1" points="0.30732646 0.344082474 12.774543 0.344082474 12.774543 16.3573883 0.30732646 16.3573883"></polygon>
        <polygon id="path-3" points="0.0407679762 0.0364293205 23.4898588 0.0364293205 23.4898588 36.0040456 0.0407679762 36.0040456"></polygon>
    </defs>
    <g id="ATMEX移动端" stroke="none" stroke-width="1" fill="none" fill-rule="evenodd">
        <g id="Android-762" transform="translate(-50.000000, -113.000000)">
            <g id="Launcher_762LOGO" transform="translate(50.000000, 113.000000)">
                <g id="分组" transform="translate(53.402062, 10.103093)">
                    <g transform="translate(0.000000, 0.375739)">
                        <mask id="mask-2" fill="white">
                            <use xlink:href="#path-1"></use>
                        </mask>
                        <g id="Clip-12"></g>
                        <path d="M4.43852921,10.1897869 L8.64334021,10.1897869 L6.58663918,3.17006186 L6.51303093,3.17006186 L4.43852921,10.1897869 Z M5.31990378,0.344082474 L7.76196564,0.344082474 L12.774543,16.3574845 L10.4792165,16.3574845 L9.28560825,12.3427079 L3.79578007,12.3427079 L2.60265292,16.3574845 L0.30732646,16.3574845 L5.31990378,0.344082474 Z" id="Fill-11" fill="#FFFFFF" mask="url(#mask-2)"></path>
                    </g>
                    <polygon id="Fill-13" fill="#FFFFFF" points="18.5576495 0.719676976 29.2986804 0.719676976 29.2986804 2.96256357 25.0024605 2.96256357 25.0024605 16.733079 22.8543505 16.733079 22.8543505 2.96256357 18.5576495 2.96256357"></polygon>
                    <polygon id="Fill-15" fill="#FFFFFF" points="36.3675258 0.719676976 38.8831959 0.719676976 43.344433 13.2792646 43.4180412 13.2792646 47.8614777 0.719676976 50.3766667 0.719676976 50.3766667 16.733079 48.2285567 16.733079 48.2285567 5.69857732 48.1549485 5.69857732 44.2994158 16.733079 42.4447766 16.733079 38.589244 5.69857732 38.5156357 5.69857732 38.5156357 16.733079 36.3675258 16.733079"></polygon>
                    <polygon id="Fill-17" fill="#FFFFFF" points="58.4558213 0.719676976 67.911354 0.719676976 67.911354 2.96256357 60.6039313 2.96256357 60.6039313 7.4031134 67.4706667 7.4031134 67.4706667 9.646 60.6039313 9.646 60.6039313 14.4906735 68.2235876 14.4906735 68.2235876 16.733079 58.4558213 16.733079"></polygon>
                    <polygon id="Fill-19" fill="#FFFFFF" points="74.8517457 0.719676976 77.4771065 0.719676976 80.5619175 6.37163574 83.6462474 0.719676976 86.2720893 0.719676976 81.8469347 8.45720275 86.5660412 16.733079 83.9401993 16.733079 80.5619175 10.5427698 77.1836357 16.733079 74.5577938 16.733079 79.2398557 8.45720275"></polygon>
                </g>
                <g id="分组-2">
                    <g id="分组" transform="translate(18.464176, 0.129915)">
                        <mask id="mask-4" fill="white">
                            <use xlink:href="#path-3"></use>
                        </mask>
                        <g id="Clip-2"></g>
                        <path d="M23.4898588,36.0040456 L3.21436355,0.885847961 C2.74643808,0.0754203376 1.70046745,-0.204869183 0.890206172,0.26305629 C0.0797785485,0.730981763 -0.200510972,1.77695239 0.267414501,2.58738001 L18.956155,34.9574096 L23.4898588,36.0040456 Z" id="Fill-1" fill="#347DE1" mask="url(#mask-4)"></path>
                    </g>
                    <path d="M4.17666318,35.11186 L7.92904954,28.157353 C8.37335418,27.3339505 8.06312275,26.2964634 7.23955395,25.8519925 C6.41598516,25.4076878 5.37866442,25.7179192 4.93419344,26.5416544 L0.201043273,35.3138015 C0.0475078262,35.5982496 -0.0140394276,35.907982 0.0025949653,36.2102289 L4.17666318,35.11186 Z" id="Fill-3" fill="#347DE1"></path>
                    <path d="M30.7953514,33.4071507 L18.8946077,8.34610704 C18.4932198,7.50074719 17.4731988,7.13761839 16.627839,7.5390063 C15.7824791,7.9403942 15.419184,8.96041517 15.8207382,9.80577502 L26.4660843,32.2231147 L30.7953514,33.4071507 Z" id="Fill-5" fill="#347DE1"></path>
                    <path d="M20.6845848,30.6412837 L16.0803512,14.2675517 C15.8270094,13.366633 14.8826749,12.8368276 13.9817562,13.0901694 C13.0810038,13.3435112 12.5510321,14.2878457 12.8043739,15.1887644 L17.4317293,31.6440049 L20.6845848,30.6412837 Z" id="Fill-7" fill="#347DE1"></path>
                    <path d="M12.7479999,32.7482791 L12.7479999,20.1429025 C12.7479999,19.2070515 11.9823188,18.4413704 11.0464679,18.4413704 C10.1107832,18.4413704 9.34510214,19.2070515 9.34510214,20.1429025 L9.34510214,33.8153754 L12.7479999,32.7482791 Z" id="Fill-9" fill="#347DE1"></path>
                </g>
            </g>
        </g>
    </g>
</svg>