<?xml version="1.0" encoding="UTF-8"?>
<svg width="212px" height="55px" viewBox="0 0 212 55" version="1.1" xmlns="http://www.w3.org/2000/svg" xmlns:xlink="http://www.w3.org/1999/xlink">
    <!-- Generator: Sketch 52.6 (67491) - http://www.bohemiancoding.com/sketch -->
    <title>Launcher_12422LOGO@2x</title>
    <desc>Created with Sketch.</desc>
    <defs>
        <polygon id="path-1" points="0.465380069 0.521039175 19.3443079 0.521039175 19.3443079 24.7697595 0.465380069 24.7697595"></polygon>
        <polygon id="path-3" points="0.0617343639 0.0551643996 35.5703575 0.0551643996 35.5703575 54.520412 0.0617343639 54.520412"></polygon>
    </defs>
    <g id="ATMEX移动端" stroke="none" stroke-width="1" fill="none" fill-rule="evenodd">
        <g id="启动页1242-2" transform="translate(-101.000000, -148.000000)">
            <g id="Launcher_12422LOGO" transform="translate(101.000000, 148.000000)">
                <g id="分组" transform="translate(80.865979, 15.298969)">
                    <g transform="translate(0.000000, 0.568976)">
                        <mask id="mask-2" fill="white">
                            <use xlink:href="#path-1"></use>
                        </mask>
                        <g id="Clip-12"></g>
                        <path d="M6.72120137,15.4302488 L13.0884866,15.4302488 L9.97405361,4.80037938 L9.86258969,4.80037938 L6.72120137,15.4302488 Z M8.0558543,0.521039175 L11.7538337,0.521039175 L19.3443079,24.7699052 L15.8685278,24.7699052 L14.0610639,18.6903863 L5.74789553,18.6903863 L3.94116014,24.7699052 L0.465380069,24.7699052 L8.0558543,0.521039175 Z" id="Fill-11" fill="#FFFFFF" mask="url(#mask-2)"></path>
                    </g>
                    <polygon id="Fill-13" fill="#FFFFFF" points="28.1015835 1.08979656 44.3665732 1.08979656 44.3665732 4.4861677 37.8608687 4.4861677 37.8608687 25.3386625 34.6080165 25.3386625 34.6080165 4.4861677 28.1015835 4.4861677"></polygon>
                    <polygon id="Fill-15" fill="#FFFFFF" points="55.0708247 1.08979656 58.880268 1.08979656 65.6358557 20.1086007 65.7473196 20.1086007 72.4759519 1.08979656 76.2846667 1.08979656 76.2846667 25.3386625 73.0318144 25.3386625 73.0318144 8.62927423 72.9203505 8.62927423 67.0819725 25.3386625 64.2735189 25.3386625 58.4351409 8.62927423 58.323677 8.62927423 58.323677 25.3386625 55.0708247 25.3386625"></polygon>
                    <polygon id="Fill-17" fill="#FFFFFF" points="88.5188151 1.08979656 102.837193 1.08979656 102.837193 4.4861677 91.7716674 4.4861677 91.7716674 11.2104289 102.169867 11.2104289 102.169867 14.6068 91.7716674 14.6068 91.7716674 21.9430199 103.310004 21.9430199 103.310004 25.3386625 88.5188151 25.3386625"></polygon>
                    <polygon id="Fill-19" fill="#FFFFFF" points="113.346929 1.08979656 117.322476 1.08979656 121.993761 9.64847698 126.664318 1.08979656 130.640592 1.08979656 123.939644 12.8066213 131.08572 25.3386625 127.109445 25.3386625 121.993761 15.9647656 116.878077 25.3386625 112.901802 25.3386625 119.991781 12.8066213"></polygon>
                </g>
                <g id="分组-2">
                    <g id="分组" transform="translate(27.960038, 0.196728)">
                        <mask id="mask-4" fill="white">
                            <use xlink:href="#path-3"></use>
                        </mask>
                        <g id="Clip-2"></g>
                        <path d="M35.5703575,54.520412 L4.86746481,1.34142691 C4.15889195,0.11420794 2.57499357,-0.310230478 1.34802649,0.398342382 C0.120807516,1.10691524 -0.303630901,2.69081362 0.404941958,3.91803259 L28.7050347,52.935506 L35.5703575,54.520412 Z" id="Fill-1" fill="#347DE1" mask="url(#mask-4)"></path>
                    </g>
                    <path d="M6.32466139,53.169388 L12.0068464,42.6382774 C12.6796506,41.3914108 12.2098716,39.8203589 10.9627531,39.1473029 C9.71563467,38.4744987 8.14483469,38.9442777 7.47177863,40.1916481 L0.304436956,53.4751851 C0.0719404226,53.9059208 -0.0212597047,54.3749442 0.00392951888,54.8326324 L6.32466139,53.169388 Z" id="Fill-3" fill="#347DE1"></path>
                    <path d="M46.6329608,50.5879711 L28.6118345,12.6383907 C28.0040186,11.3582743 26.4594154,10.8083936 25.179299,11.4162095 C23.8991827,12.0240255 23.34905,13.5686287 23.9571179,14.848745 L40.0772134,48.7950022 L46.6329608,50.5879711 Z" id="Fill-5" fill="#347DE1"></path>
                    <path d="M31.3223713,46.3996582 L24.3502461,21.6051497 C23.9666142,20.2409014 22.536622,19.4386246 21.1723737,19.8222565 C19.8083772,20.2058883 19.0058485,21.6358806 19.3894804,23.0001289 L26.3966186,47.9180646 L31.3223713,46.3996582 Z" id="Fill-7" fill="#347DE1"></path>
                    <path d="M19.3041141,49.5902512 L19.3041141,30.5021094 C19.3041141,29.0849637 18.1446542,27.9255038 16.7275085,27.9255038 C15.3106146,27.9255038 14.1511547,29.0849637 14.1511547,30.5021094 L14.1511547,51.2061399 L19.3041141,49.5902512 Z" id="Fill-9" fill="#347DE1"></path>
                </g>
            </g>
        </g>
    </g>
</svg>