<?xml version="1.0" encoding="UTF-8"?>
<svg width="126px" height="26px" viewBox="0 0 126 26" version="1.1" xmlns="http://www.w3.org/2000/svg" xmlns:xlink="http://www.w3.org/1999/xlink">
    <!-- Generator: Sketch 52.6 (67491) - http://www.bohemiancoding.com/sketch -->
    <title>login_logo@2x</title>
    <desc>Created with Sketch.</desc>
    <defs>
        <polygon id="path-1" points="0.3194 0.3576 13.2764 0.3576 13.2764 17 0.3194 17"></polygon>
        <polygon id="path-3" points="0.0290611589 0.0259683794 16.7445771 0.0259683794 16.7445771 25.6652253 0.0290611589 25.6652253"></polygon>
    </defs>
    <g id="ATMEX移动端" stroke="none" stroke-width="1" fill="none" fill-rule="evenodd">
        <g id="登录" transform="translate(-32.000000, -132.000000)">
            <g id="login_logo" transform="translate(32.000000, 132.000000)">
                <g id="分组" transform="translate(36.000000, 4.000000)">
                    <g transform="translate(0.000000, 0.390500)">
                        <mask id="mask-2" fill="white">
                            <use xlink:href="#path-1"></use>
                        </mask>
                        <g id="Clip-12"></g>
                        <path d="M4.6129,10.5901 L8.9829,10.5901 L6.8454,3.2946 L6.7689,3.2946 L4.6129,10.5901 Z M5.5289,0.3576 L8.0669,0.3576 L13.2764,17.0001 L10.8909,17.0001 L9.6504,12.8276 L3.9449,12.8276 L2.7049,17.0001 L0.3194,17.0001 L5.5289,0.3576 Z" id="Fill-11" fill="#FFFFFF" mask="url(#mask-2)"></path>
                    </g>
                    <polygon id="Fill-13" fill="#FFFFFF" points="19.2867 0.74795 30.4497 0.74795 30.4497 3.07895 25.9847 3.07895 25.9847 17.39045 23.7522 17.39045 23.7522 3.07895 19.2867 3.07895"></polygon>
                    <polygon id="Fill-15" fill="#FFFFFF" points="37.79625 0.74795 40.41075 0.74795 45.04725 13.80095 45.12375 13.80095 49.74175 0.74795 52.35575 0.74795 52.35575 17.39045 50.12325 17.39045 50.12325 5.92245 50.04675 5.92245 46.03975 17.39045 44.11225 17.39045 40.10525 5.92245 40.02875 5.92245 40.02875 17.39045 37.79625 17.39045"></polygon>
                    <polygon id="Fill-17" fill="#FFFFFF" points="60.7523 0.74795 70.5793 0.74795 70.5793 3.07895 62.9848 3.07895 62.9848 7.69395 70.1213 7.69395 70.1213 10.02495 62.9848 10.02495 62.9848 15.05995 70.9038 15.05995 70.9038 17.39045 60.7523 17.39045"></polygon>
                    <polygon id="Fill-19" fill="#FFFFFF" points="77.79235 0.74795 80.52085 0.74795 83.72685 6.62195 86.93235 0.74795 89.66135 0.74795 85.06235 8.78945 89.96685 17.39045 87.23785 17.39045 83.72685 10.95695 80.21585 17.39045 77.48685 17.39045 82.35285 8.78945"></polygon>
                </g>
                <g id="分组-2">
                    <g id="分组" transform="translate(13.162055, 0.092609)">
                        <mask id="mask-4" fill="white">
                            <use xlink:href="#path-3"></use>
                        </mask>
                        <g id="Clip-2"></g>
                        <path d="M16.7445771,25.6652253 L2.29133597,0.631470356 C1.95777866,0.0537628458 1.21216601,-0.146039526 0.634577075,0.187517787 C0.0568695652,0.521075099 -0.142932806,1.26668775 0.190624506,1.84439526 L13.5127589,24.9191383 L16.7445771,25.6652253 Z" id="Fill-1" fill="#347DE1" mask="url(#mask-4)"></path>
                    </g>
                    <path d="M2.97730435,25.0292372 L5.65216601,20.0717668 C5.96888538,19.4848103 5.74773913,18.7452451 5.16066403,18.4284071 C4.57358893,18.1116877 3.83414229,18.332834 3.51730435,18.9200277 L0.143312253,25.1731897 C0.0338656126,25.3759565 -0.0100079051,25.596747 0.00184980237,25.8122016 L2.97730435,25.0292372 Z" id="Fill-3" fill="#347DE1"></path>
                    <path d="M21.9522451,23.8140474 L13.4688854,5.94946245 C13.1827589,5.34685375 12.4556443,5.088 11.8530356,5.37412648 C11.2504269,5.66025296 10.9914545,6.38736759 11.2776996,6.98997628 L18.8661581,22.9700158 L21.9522451,23.8140474 Z" id="Fill-5" fill="#347DE1"></path>
                    <path d="M14.7448577,21.842419 L11.4627628,10.1705217 C11.28217,9.5283083 10.6090079,9.15064032 9.96679447,9.3312332 C9.3246996,9.51182609 8.94691304,10.1849881 9.12750593,10.8272016 L12.426083,22.5572016 L14.7448577,21.842419 Z" id="Fill-7" fill="#347DE1"></path>
                    <path d="M9.08732016,23.3443755 L9.08732016,14.3587233 C9.08732016,13.6916087 8.54150988,13.1457984 7.87439526,13.1457984 C7.20739921,13.1457984 6.66158893,13.6916087 6.66158893,14.3587233 L6.66158893,24.1050474 L9.08732016,23.3443755 Z" id="Fill-9" fill="#347DE1"></path>
                </g>
            </g>
        </g>
    </g>
</svg>