<?xml version="1.0" encoding="UTF-8"?>
<svg width="12px" height="12px" viewBox="0 0 12 12" version="1.1" xmlns="http://www.w3.org/2000/svg" xmlns:xlink="http://www.w3.org/1999/xlink">
    <!-- Generator: Sketch 52.6 (67491) - http://www.bohemiancoding.com/sketch -->
    <title>login_icon_delete@2x</title>
    <desc>Created with Sketch.</desc>
    <defs>
        <rect id="path-1" x="0" y="0" width="14" height="14"></rect>
    </defs>
    <g id="ATMEX移动端" stroke="none" stroke-width="1" fill="none" fill-rule="evenodd">
        <g id="登录-填写状态" transform="translate(-292.000000, -313.000000)">
            <g id="分组-4" transform="translate(32.000000, 312.000000)">
                <g id="login_icon_delete" transform="translate(259.000000, 0.000000)">
                    <mask id="mask-2" fill="white">
                        <use xlink:href="#path-1"></use>
                    </mask>
                    <use id="Mask" fill="#CACFE6" fill-rule="nonzero" opacity="0" xlink:href="#path-1"></use>
                    <path d="M7,13 C10.3137085,13 13,10.3137085 13,7 C13,3.6862915 10.3137085,1 7,1 C3.6862915,1 1,3.6862915 1,7 C1,10.3137085 3.6862915,13 7,13 Z M6.39390847,7 L4.87867966,5.48477118 L5.48477118,4.87867966 L7,6.39390847 L8.51522882,4.87867966 L9.12132034,5.48477118 L7.60609153,7 L9.12132034,8.51522882 L8.51522882,9.12132034 L7,7.60609153 L5.48477118,9.12132034 L4.87867966,8.51522882 L6.39390847,7 Z" fill="#7185A4" fill-rule="nonzero" mask="url(#mask-2)"></path>
                </g>
            </g>
        </g>
    </g>
</svg>