<?xml version="1.0" encoding="UTF-8"?>
<svg width="84px" height="18px" viewBox="0 0 84 18" version="1.1" xmlns="http://www.w3.org/2000/svg" xmlns:xlink="http://www.w3.org/1999/xlink">
    <!-- Generator: Sketch 52.6 (67491) - http://www.bohemiancoding.com/sketch -->
    <title>LOGO@2x</title>
    <desc>Created with Sketch.</desc>
    <defs>
        <polygon id="path-1" points="0.212933333 0.2384 8.85093333 0.2384 8.85093333 11.3333333 0.212933333 11.3333333"></polygon>
        <polygon id="path-3" points="0.019374106 0.017312253 11.1630514 0.017312253 11.1630514 17.1101502 0.019374106 17.1101502"></polygon>
    </defs>
    <g id="ATMEX移动端" stroke="none" stroke-width="1" fill="none" fill-rule="evenodd">
        <g id="交易" transform="translate(-16.000000, -33.000000)">
            <g id="LOGO" transform="translate(16.000000, 33.000000)">
                <g id="分组" transform="translate(24.000000, 3.333333)">
                    <g transform="translate(0.000000, 0.260333)">
                        <mask id="mask-2" fill="white">
                            <use xlink:href="#path-1"></use>
                        </mask>
                        <g id="Clip-12"></g>
                        <path d="M3.07526667,7.06006667 L5.9886,7.06006667 L4.5636,2.1964 L4.5126,2.1964 L3.07526667,7.06006667 Z M3.68593333,0.2384 L5.37793333,0.2384 L8.85093333,11.3334 L7.2606,11.3334 L6.4336,8.55173333 L2.62993333,8.55173333 L1.80326667,11.3334 L0.212933333,11.3334 L3.68593333,0.2384 Z" id="Fill-11" fill="#FFFFFF" mask="url(#mask-2)"></path>
                    </g>
                    <polygon id="Fill-13" fill="#FFFFFF" points="12.8578 0.498633333 20.2998 0.498633333 20.2998 2.05263333 17.3231333 2.05263333 17.3231333 11.5936333 15.8348 11.5936333 15.8348 2.05263333 12.8578 2.05263333"></polygon>
                    <polygon id="Fill-15" fill="#FFFFFF" points="25.1975 0.498633333 26.9405 0.498633333 30.0315 9.20063333 30.0825 9.20063333 33.1611667 0.498633333 34.9038333 0.498633333 34.9038333 11.5936333 33.4155 11.5936333 33.4155 3.9483 33.3645 3.9483 30.6931667 11.5936333 29.4081667 11.5936333 26.7368333 3.9483 26.6858333 3.9483 26.6858333 11.5936333 25.1975 11.5936333"></polygon>
                    <polygon id="Fill-17" fill="#FFFFFF" points="40.5015333 0.498633333 47.0528667 0.498633333 47.0528667 2.05263333 41.9898667 2.05263333 41.9898667 5.1293 46.7475333 5.1293 46.7475333 6.6833 41.9898667 6.6833 41.9898667 10.0399667 47.2692 10.0399667 47.2692 11.5936333 40.5015333 11.5936333"></polygon>
                    <polygon id="Fill-19" fill="#FFFFFF" points="51.8615667 0.498633333 53.6805667 0.498633333 55.8179 4.41463333 57.9549 0.498633333 59.7742333 0.498633333 56.7082333 5.85963333 59.9779 11.5936333 58.1585667 11.5936333 55.8179 7.30463333 53.4772333 11.5936333 51.6579 11.5936333 54.9019 5.85963333"></polygon>
                </g>
                <g id="分组-2">
                    <g id="分组" transform="translate(8.774704, 0.061739)">
                        <mask id="mask-4" fill="white">
                            <use xlink:href="#path-3"></use>
                        </mask>
                        <g id="Clip-2"></g>
                        <path d="M11.1630514,17.1101502 L1.52755731,0.420980237 C1.30518577,0.0358418972 0.808110672,-0.0973596838 0.423051383,0.125011858 C0.0379130435,0.347383399 -0.0952885375,0.844458498 0.127083004,1.22959684 L9.00850593,16.6127589 L11.1630514,17.1101502 Z" id="Fill-1" fill="#347DE1" mask="url(#mask-4)"></path>
                    </g>
                    <path d="M1.98486957,16.6861581 L3.76811067,13.3811779 C3.97925692,12.9898735 3.83182609,12.49683 3.44044269,12.2856047 C3.04905929,12.0744585 2.55609486,12.2218893 2.34486957,12.6133518 L0.095541502,16.7821265 C0.0225770751,16.9173043 -0.00667193676,17.064498 0.00123320158,17.2081344 L1.98486957,16.6861581 Z" id="Fill-3" fill="#347DE1"></path>
                    <path d="M14.63483,15.8760316 L8.97925692,3.9663083 C8.78850593,3.56456917 8.30376285,3.392 7.90202372,3.58275099 C7.50028458,3.77350198 7.32763636,4.25824506 7.5184664,4.65998419 L12.5774387,15.3133439 L14.63483,15.8760316 Z" id="Fill-5" fill="#347DE1"></path>
                    <path d="M9.82990514,14.5616126 L7.6418419,6.78034783 C7.52144664,6.35220553 7.07267194,6.10042688 6.64452964,6.22082213 C6.2164664,6.34121739 5.9646087,6.78999209 6.08500395,7.21813439 L8.28405534,15.0381344 L9.82990514,14.5616126 Z" id="Fill-7" fill="#347DE1"></path>
                    <path d="M6.05821344,15.562917 L6.05821344,9.57248221 C6.05821344,9.12773913 5.69433992,8.76386561 5.24959684,8.76386561 C4.80493281,8.76386561 4.44105929,9.12773913 4.44105929,9.57248221 L4.44105929,16.0700316 L6.05821344,15.562917 Z" id="Fill-9" fill="#347DE1"></path>
                </g>
            </g>
        </g>
    </g>
</svg>