<?xml version="1.0" encoding="UTF-8"?>
<svg width="16px" height="17px" viewBox="0 0 16 17" version="1.1" xmlns="http://www.w3.org/2000/svg" xmlns:xlink="http://www.w3.org/1999/xlink">
    <!-- Generator: Sketch 52.6 (67491) - http://www.bohemiancoding.com/sketch -->
    <title>mine_icon_forget@2x</title>
    <desc>Created with Sketch.</desc>
    <g id="ATMEX移动端" stroke="none" stroke-width="1" fill="none" fill-rule="evenodd">
        <g id="我的" transform="translate(-16.000000, -308.000000)" fill-rule="nonzero">
            <g id="mine_icon_forget" transform="translate(16.000000, 308.000000)">
                <rect id="矩形" stroke="#CACFE6" x="0.5" y="5.5" width="15" height="10.2941176" rx="2"></rect>
                <path d="M4.5,4.72155105 L12.0333333,4.83910386 L12.0333333,3.76470588 C12.0333333,1.97655812 10.3599008,0.5 8.26666667,0.5 C6.17343254,0.5 4.5,1.97655812 4.5,3.76470588 L4.5,4.72155105 Z" id="路径" stroke="#CACFE6"></path>
                <path d="M7.50638021,10.6545937 C6.84514349,10.4812161 6.36289062,9.94086347 6.36289062,9.30112592 C6.36289062,8.5214298 7.07923503,7.88936121 7.96289062,7.88936121 C8.84654622,7.88936121 9.56289062,8.5214298 9.56289062,9.30112592 C9.56289062,9.8903369 9.15380635,10.3952419 8.57257593,10.6067779 C8.57288882,10.6140384 8.57304687,10.621339 8.57304687,10.6286765 L8.57304687,12.4522059 C8.57304687,12.7283483 8.34918925,12.9522059 8.07304687,12.9522059 L8.00638021,12.9522059 C7.73023783,12.9522059 7.50638021,12.7283483 7.50638021,12.4522059 L7.50638021,10.6545937 Z" id="合并形状" fill="#CACFE6"></path>
            </g>
        </g>
    </g>
</svg>