<?xml version="1.0" encoding="UTF-8"?>
<svg width="10px" height="18px" viewBox="0 0 10 18" version="1.1" xmlns="http://www.w3.org/2000/svg" xmlns:xlink="http://www.w3.org/1999/xlink">
    <!-- Generator: Sketch 52.6 (67491) - http://www.bohemiancoding.com/sketch -->
    <title>nav_icon_back@2x</title>
    <desc>Created with Sketch.</desc>
    <g id="ATMEX移动端" stroke="none" stroke-width="1" fill="none" fill-rule="evenodd">
        <g id="合约交易-最新交易" transform="translate(-16.000000, -33.000000)" fill="#CACFE6" fill-rule="nonzero">
            <path d="M18.775317,41.9918679 L19.7305131,42.9912276 L25.7453446,49.2841558 C26.1148119,49.6707055 26.1148119,50.2795124 25.7453446,50.6660621 L25.7130821,50.6998164 C25.3474307,51.0823736 24.7408878,51.0960786 24.3583306,50.7304273 C24.3478977,50.7204555 24.3376915,50.7102492 24.3277197,50.6998164 L17.3899546,43.4412827 L17.3853624,43.4460873 L16,41.9966725 L18.3296053,39.5593576 L24.3121743,33.3001836 C24.6778256,32.9176264 25.2843685,32.9039214 25.6669257,33.2695727 C25.6773586,33.2795445 25.6875648,33.2897508 25.6975367,33.3001836 L25.7297992,33.3339379 C26.0992665,33.7204876 26.0992665,34.3292945 25.7297992,34.7158442 L18.775317,41.9918679 Z" id="nav_icon_back"></path>
        </g>
    </g>
</svg>