<?xml version="1.0" encoding="UTF-8"?>
<svg width="15px" height="14px" viewBox="0 0 15 14" version="1.1" xmlns="http://www.w3.org/2000/svg" xmlns:xlink="http://www.w3.org/1999/xlink">
    <!-- Generator: Sketch 52.6 (67491) - http://www.bohemiancoding.com/sketch -->
    <title>search_icon_search@2x</title>
    <desc>Created with Sketch.</desc>
    <g id="ATMEX移动端" stroke="none" stroke-width="1" fill="none" fill-rule="evenodd">
        <g id="搜索无记录" transform="translate(-16.000000, -38.000000)" fill="#3F526D" fill-rule="nonzero">
            <path d="M28.7891979,48.6408601 L30.7352364,50.5139054 C31.0786922,50.8444787 31.0891355,51.3908873 30.7585623,51.7343431 C30.757901,51.7350301 30.7572385,51.7357161 30.756575,51.736401 C30.4234413,52.0802288 29.8749509,52.0898027 29.5300208,51.7578104 L27.675721,49.9730628 C26.4356529,51.1273827 24.7705547,51.8338518 22.9399037,51.8338518 C19.1071007,51.8338518 16,48.7370386 16,44.9169259 C16,41.0968132 19.1071007,38 22.9399037,38 C26.7727066,38 29.8798073,41.0968132 29.8798073,44.9169259 C29.8798073,46.2879849 29.4795721,47.5658735 28.7891979,48.6408601 Z M27.0604849,48.0867579 C27.7403267,47.2101382 28.1448314,46.1106142 28.1448314,44.9169259 C28.1448314,42.0518414 25.8145059,39.7292315 22.9399037,39.7292315 C20.0653015,39.7292315 17.7349759,42.0518414 17.7349759,44.9169259 C17.7349759,47.7820104 20.0653015,50.1046203 22.9399037,50.1046203 C24.5172075,50.1046203 25.930643,49.4053397 26.8851531,48.3008588 C26.9193383,48.2419033 26.9611037,48.1860798 27.010476,48.1347835 C27.0111373,48.1340964 27.0117997,48.1334105 27.0124633,48.1327256 C27.0280153,48.1166743 27.0440368,48.1013515 27.0604849,48.0867579 Z" id="search_icon_search"></path>
        </g>
    </g>
</svg>