<?xml version="1.0" encoding="UTF-8"?>
<svg width="16px" height="16px" viewBox="0 0 16 16" version="1.1" xmlns="http://www.w3.org/2000/svg" xmlns:xlink="http://www.w3.org/1999/xlink">
    <!-- Generator: Sketch 53.2 (72643) - https://sketchapp.com -->
    <title>zichan_icon_transfer@svg</title>
    <desc>Created with Sketch.</desc>
    <g id="ATMEX移动端" stroke="none" stroke-width="1" fill="none" fill-rule="evenodd">
        <g id="资产-划转弹窗" transform="translate(-322.000000, -418.000000)" fill="#347DE1" fill-rule="nonzero">
            <g id="分组-5" transform="translate(16.000000, 346.000000)">
                <g id="切换" transform="translate(306.000000, 72.000000)">
                    <path d="M5.62666667,1.64102564 L7.08717949,3.10153846 L5.92820513,4.2625641 L2.54051282,0.875897436 C2.39359241,0.729347984 2.34947303,0.508699548 2.42874391,0.316922399 C2.50801479,0.125145249 2.69504941,4.40781986e-05 2.9025641,0 L10.0512821,0 C13.3366683,2.8467257e-16 16,2.66333174 16,5.94871795 L16,11.0769231 L14.3589744,11.0769231 L14.3589744,5.94871795 C14.3589744,3.56964518 12.4303548,1.64102564 10.0512821,1.64102564 L5.62666667,1.64102564 Z M10.7548718,14.3589744 L9.39794872,13.0020513 L10.5579487,11.8410256 L13.8410256,15.1241026 C13.987946,15.270652 14.0320654,15.4913005 13.9527946,15.6830776 C13.8735237,15.8748548 13.686489,15.9999559 13.4789744,16 L6.77846154,16 C3.0348206,16 5.69345141e-16,12.9651794 0,9.22153846 L0,4.92307692 L1.64102564,4.92307692 L1.64102564,9.22153846 C1.64102564,10.5840712 2.18228965,11.8907981 3.14574578,12.8542542 C4.1092019,13.8177103 5.41592882,14.3589744 6.77846154,14.3589744 L10.7548718,14.3589744 L10.7548718,14.3589744 Z" id="zichan_icon_transfer"></path>
                </g>
            </g>
        </g>
    </g>
</svg>