<?xml version="1.0" encoding="UTF-8"?>
<svg width="12px" height="12px" viewBox="0 0 12 12" version="1.1" xmlns="http://www.w3.org/2000/svg" xmlns:xlink="http://www.w3.org/1999/xlink">
    <!-- Generator: Sketch 52.6 (67491) - http://www.bohemiancoding.com/sketch -->
    <title>zichan_icon_close@2x</title>
    <desc>Created with Sketch.</desc>
    <g id="ATMEX移动端" stroke="none" stroke-width="1" fill="none" fill-rule="evenodd">
        <g id="资产-划转弹窗" transform="translate(-346.000000, -347.000000)" fill="#CACFE6" fill-rule="nonzero">
            <g id="zichan_icon_close" transform="translate(345.000000, 346.000000)">
                <path d="M7,-1 L7,-1 C7.55228475,-1 8,-0.55228475 8,-2.22044605e-16 L8,14 C8,14.5522847 7.55228475,15 7,15 L7,15 C6.44771525,15 6,14.5522847 6,14 L6,2.22044605e-16 C6,-0.55228475 6.44771525,-1 7,-1 Z" id="矩形-copy" transform="translate(7.000000, 7.000000) rotate(-315.000000) translate(-7.000000, -7.000000) "></path>
                <path d="M7,-1 L7,-1 C7.55228475,-1 8,-0.55228475 8,-2.22044605e-16 L8,14 C8,14.5522847 7.55228475,15 7,15 L7,15 C6.44771525,15 6,14.5522847 6,14 L6,2.22044605e-16 C6,-0.55228475 6.44771525,-1 7,-1 Z" id="矩形-copy-2" transform="translate(7.000000, 7.000000) rotate(-45.000000) translate(-7.000000, -7.000000) "></path>
            </g>
        </g>
    </g>
</svg>