<?xml version="1.0" encoding="UTF-8"?>
<svg width="18px" height="18px" viewBox="0 0 18 18" version="1.1" xmlns="http://www.w3.org/2000/svg" xmlns:xlink="http://www.w3.org/1999/xlink">
    <!-- Generator: Sketch 52.5 (67469) - http://www.bohemiancoding.com/sketch -->
    <title>icon_heart@2x</title>
    <desc>Created with Sketch.</desc>
    <g id="朋友圈" stroke="none" stroke-width="1" fill="none" fill-rule="evenodd">
        <g id="朋友圈移动状态" transform="translate(-211.000000, -365.000000)" fill="#000000" fill-rule="nonzero">
            <g id="大牙动态" transform="translate(16.000000, 71.000000)">
                <g id="icon_heart" transform="translate(195.000000, 294.000000)">
                    <path d="M9.82082814,3.07394172 C9.76703572,3.20527367 9.6861422,3.32529286 9.57912527,3.42299336 C9.40949445,3.57785684 9.20332973,3.65007727 9,3.64398958 C8.79667027,3.65007727 8.59050555,3.57785684 8.42087473,3.42299336 C8.3138578,3.32529286 8.23296428,3.20527367 8.17917186,3.07394172 C7.55046704,2.31214747 6.83755924,1.95227782 5.99519567,1.95227782 C4.00006569,1.95227782 1.75352196,3.86406735 1.75352196,6.4449953 C1.75352196,8.43861093 4.15733638,11.6317087 9,15.7773994 C13.8426636,11.6317087 16.246478,8.43861093 16.246478,6.4449953 C16.246478,3.86406735 13.9999343,1.95227782 12.0048043,1.95227782 C11.1624408,1.95227782 10.449533,2.31214747 9.82082814,3.07394172 Z M9.71044323,17.6299409 C9.53307341,17.8794544 9.26690853,18.0072889 9,17.999679 C8.73309147,18.0072889 8.46692659,17.8794544 8.28955677,17.6299409 C2.77574518,12.9712703 0,9.33146223 0,6.4449953 C0,2.65403275 3.1187537,0 5.99519567,0 C7.12895031,0 8.13970811,0.423815228 9,1.24591774 C9.86029189,0.423815228 10.8710497,8.73044618e-16 12.0048043,7.34199719e-16 C14.8812463,3.81937174e-16 18,2.65403275 18,6.4449953 C18,9.33146223 15.2242548,12.9712703 9.71044323,17.6299409 Z"></path>
                </g>
            </g>
        </g>
    </g>
</svg>