<?xml version="1.0" encoding="UTF-8"?>
<svg width="18px" height="17px" viewBox="0 0 18 17" version="1.1" xmlns="http://www.w3.org/2000/svg" xmlns:xlink="http://www.w3.org/1999/xlink">
    <!-- Generator: Sketch 52.5 (67469) - http://www.bohemiancoding.com/sketch -->
    <title>icon_butianchong@2x</title>
    <desc>Created with Sketch.</desc>
    <g id="朋友圈" stroke="none" stroke-width="1" fill="none" fill-rule="evenodd">
        <g id="朋友圈两张照片" transform="translate(-211.000000, -326.000000)">
            <g id="icon_butianchong" transform="translate(211.000000, 325.000000)">
                <g id="点赞">
                    <rect id="矩形" fill="#000000" opacity="0" x="0" y="0" width="18" height="18"></rect>
                    <path d="M12.1587891,2.36953125 C10.8667969,2.36953125 9.84375,3.02871094 9.05800781,4.10976563 C8.26523438,3.02871094 7.24921875,2.36953125 5.95722656,2.36953125 C3.62460938,2.36953125 1.72265625,4.46660156 1.72265625,7.05410156 C1.72265625,8.59746094 2.4046875,9.67851563 2.94960938,10.5451172 C4.52636719,13.0763672 8.33730469,15.7939453 8.50429688,15.9257812 C8.66953125,16.0576172 8.85410156,16.1138672 9.04921875,16.1138672 C9.24257812,16.1138672 9.42714844,16.0488281 9.59414063,15.9257812 C9.759375,15.7939453 13.5703125,13.0658203 15.1576172,10.5451172 C15.7025391,9.68027344 16.3845703,8.59746094 16.3845703,7.05410156 C16.3828125,4.47539063 14.4826172,2.36953125 12.1587891,2.36953125 Z" id="路径" stroke="#000000" stroke-width="2"></path>
                    <path d="M12.1587891,2.6859375 C12.6808594,2.6859375 13.1871094,2.80019531 13.6652344,3.02519531 C14.1292969,3.24316406 14.5476563,3.5578125 14.9080078,3.95683594 C15.2701172,4.359375 15.5548828,4.82695313 15.7552734,5.34726563 C15.9626953,5.88867188 16.0681641,6.46171875 16.0681641,7.05410156 C16.0681641,7.69570313 15.9433594,8.30917969 15.6849609,8.92792969 C15.4564453,9.47460938 15.1576172,9.95097656 14.8939453,10.3710938 L14.8904297,10.3763672 C14.2857422,11.3361328 13.2767578,12.4453125 11.8916016,13.66875 C10.7947266,14.6390625 9.81914063,15.3650391 9.49746094,15.6023438 C9.44472656,15.6410156 9.42011719,15.6603516 9.40429688,15.6726563 C9.29179688,15.7552734 9.17226563,15.7957031 9.05097656,15.7957031 C8.91914063,15.7957031 8.80488281,15.7570313 8.70292969,15.6761719 C8.68710938,15.6638672 8.6625,15.6445313 8.60097656,15.6005859 C8.27929688,15.3632813 7.30195313,14.6373047 6.20683594,13.66875 C4.82519531,12.4470703 3.81972656,11.3378906 3.21855469,10.3763672 L3.21503906,10.3693359 C2.95136719,9.94921875 2.65078125,9.47285156 2.42402344,8.92617188 C2.165625,8.30742188 2.04082031,7.69394531 2.04082031,7.05234375 C2.04082031,4.64414063 3.79863281,2.68417969 5.95898438,2.68417969 C6.52675781,2.68417969 7.05761719,2.8265625 7.53574219,3.10605469 C7.99277344,3.37324219 8.41992188,3.77226563 8.803125,4.29609375 L9.05976563,4.64589844 L9.31464844,4.29433594 C9.69257813,3.77402344 10.1162109,3.375 10.5767578,3.10605469 C11.0583984,2.8265625 11.5892578,2.6859375 12.1587891,2.6859375 Z M12.1587891,2.36953125 C10.8667969,2.36953125 9.84375,3.02871094 9.05800781,4.10976563 C8.26523438,3.02871094 7.24921875,2.36953125 5.95722656,2.36953125 C3.62460938,2.36953125 1.72265625,4.46660156 1.72265625,7.05410156 C1.72265625,8.59746094 2.4046875,9.67851563 2.94960938,10.5451172 C4.52636719,13.0763672 8.33730469,15.7939453 8.50429688,15.9257812 C8.66953125,16.0576172 8.85410156,16.1138672 9.04921875,16.1138672 C9.24257812,16.1138672 9.42714844,16.0488281 9.59414063,15.9257812 C9.759375,15.7939453 13.5703125,13.0658203 15.1576172,10.5451172 C15.7025391,9.68027344 16.3845703,8.59746094 16.3845703,7.05410156 C16.3828125,4.47539063 14.4826172,2.36953125 12.1587891,2.36953125 Z" id="形状" fill="#000000" fill-rule="nonzero"></path>
                </g>
            </g>
        </g>
    </g>
</svg>