<?xml version="1.0" encoding="UTF-8"?>
<svg width="40px" height="40px" viewBox="0 0 40 40" version="1.1" xmlns="http://www.w3.org/2000/svg" xmlns:xlink="http://www.w3.org/1999/xlink">
    <!-- Generator: Sketch 52.5 (67469) - http://www.bohemiancoding.com/sketch -->
    <title>mdpi/icon_haoyouqingqiu</title>
    <desc>Created with Sketch.</desc>
    <g id="首页" stroke="none" stroke-width="1" fill="none" fill-rule="evenodd">
        <g id="系统通知" transform="translate(-16.000000, -128.000000)" fill-rule="nonzero">
            <g id="系统通知窗口" transform="translate(0.000000, 112.000000)">
                <g id="icon_rings" transform="translate(16.000000, 16.000000)">
                    <g id="icon_haoyouqingqiu">
                        <circle id="椭圆形-copy-2" fill="#00AB9F" cx="20" cy="20" r="20"></circle>
                        <g id="添加" transform="translate(11.000000, 11.000000)">
                            <circle id="椭圆形" stroke="#FFFFFF" cx="7.36363636" cy="4.09090909" r="4.09090909"></circle>
                            <path d="M5.18254583,10.3181818 C2.96725205,10.3181818 1.04876867,11.8558224 0.566403329,14.0179626 C0.520802233,14.2223636 0.497794667,14.4311557 0.497794667,14.6405817 C0.497794667,16.2197948 1.77799985,17.5 3.35721298,17.5 L11.5230902,17.5 C11.7756244,17.5 12.0269159,17.4646552 12.269652,17.3949941 C13.7063752,16.9826794 14.5368223,15.4837381 14.1245076,14.047015 C13.4909403,11.8393301 11.4718478,10.3181818 9.17505001,10.3181818 L5.18254583,10.3181818 Z" id="矩形" stroke="#FFFFFF"></path>
                            <path d="M15.3,6.75 L17.1,6.75 C17.3485281,6.75 17.55,6.95147186 17.55,7.2 C17.55,7.44852814 17.3485281,7.65 17.1,7.65 L15.3,7.65 L15.3,9.45 C15.3,9.69852814 15.0985281,9.9 14.85,9.9 C14.6014719,9.9 14.4,9.69852814 14.4,9.45 L14.4,7.65 L12.6,7.65 C12.3514719,7.65 12.15,7.44852814 12.15,7.2 C12.15,6.95147186 12.3514719,6.75 12.6,6.75 L14.4,6.75 L14.4,4.95 C14.4,4.70147186 14.6014719,4.5 14.85,4.5 C15.0985281,4.5 15.3,4.70147186 15.3,4.95 L15.3,6.75 Z" id="合并形状" fill="#FFFFFF"></path>
                        </g>
                    </g>
                </g>
            </g>
        </g>
    </g>
</svg>