<?xml version="1.0" encoding="UTF-8"?>
<svg width="40px" height="40px" viewBox="0 0 40 40" version="1.1" xmlns="http://www.w3.org/2000/svg" xmlns:xlink="http://www.w3.org/1999/xlink">
    <!-- Generator: Sketch 52.5 (67469) - http://www.bohemiancoding.com/sketch -->
    <title>mdpi/icon_haoyouqingqiu</title>
    <desc>Created with Sketch.</desc>
    <g id="首页" stroke="none" stroke-width="1" fill="none" fill-rule="evenodd">
        <g id="系统通知" transform="translate(-16.000000, -128.000000)" fill-rule="nonzero">
            <g id="系统通知窗口" transform="translate(0.000000, 112.000000)">
                <g id="icon_rings" transform="translate(16.000000, 16.000000)">
                    <g id="icon_haoyouqingqiu">
                        <circle id="椭圆形-copy-2" fill="#00AB9F" cx="20" cy="20" r="20"></circle>
                        <g id="添加" transform="translate(11.000000, 11.000000)">
                            <circle id="椭圆形" stroke="#FFFFFF" stroke-width="1.5" cx="7.36363636" cy="4.09090909" r="4.09090909"></circle>
                            <path d="M5.18254583,10.5681818 C3.08434875,10.5681818 1.26727317,12.0245453 0.810404849,14.0723984 C0.768790673,14.2589285 0.747794667,14.4494659 0.747794667,14.6405817 C0.747794667,16.0817236 1.91607104,17.25 3.35721298,17.25 L11.5230902,17.25 C11.7522971,17.25 11.9803761,17.2179201 12.20069,17.1546938 C13.5046989,16.7804658 14.2584353,15.419986 13.8842073,14.115977 C13.2814002,12.0154771 11.3603364,10.5681818 9.17505001,10.5681818 L5.18254583,10.5681818 Z" id="矩形" stroke="#FFFFFF" stroke-width="1.5"></path>
                            <path d="M15.9,6.525 L17.125,6.525 C17.4977922,6.525 17.8,6.82720779 17.8,7.2 C17.8,7.57279221 17.4977922,7.875 17.125,7.875 L15.9,7.875 L15.9,9.15 C15.9,9.56421356 15.5642136,9.9 15.15,9.9 C14.7357864,9.9 14.4,9.56421356 14.4,9.15 L14.4,7.875 L13.075,7.875 C12.7022078,7.875 12.4,7.57279221 12.4,7.2 C12.4,6.82720779 12.7022078,6.525 13.075,6.525 L14.4,6.525 L14.4,5.25 C14.4,4.83578644 14.7357864,4.5 15.15,4.5 C15.5642136,4.5 15.9,4.83578644 15.9,5.25 L15.9,6.525 Z" id="合并形状" fill="#FFFFFF"></path>
                        </g>
                    </g>
                </g>
            </g>
        </g>
    </g>
</svg>