<?xml version="1.0" encoding="UTF-8"?>
<svg width="14px" height="14px" viewBox="0 0 14 14" version="1.1" xmlns="http://www.w3.org/2000/svg" xmlns:xlink="http://www.w3.org/1999/xlink">
    <!-- Generator: Sketch 53.2 (72643) - https://sketchapp.com -->
    <title>add</title>
    <desc>Created with Sketch.</desc>
    <g id="ATMEX-H5页面" stroke="none" stroke-width="1" fill="none" fill-rule="evenodd">
        <g id="银行卡" transform="translate(-142.000000, -561.000000)" fill="#3F526D" fill-rule="nonzero">
            <g id="添加银行卡" transform="translate(118.000000, 552.000000)">
                <g id="添加" transform="translate(19.000000, 4.000000)">
                    <path d="M12.8275862,11.1724138 L12.8275862,6.20761791 C12.8275862,5.7472807 12.4570635,5.37931034 12,5.37931034 C11.5397503,5.37931034 11.1724138,5.75015627 11.1724138,6.20761791 L11.1724138,11.1724138 L6.20761779,11.1724138 C5.74728082,11.1724138 5.37931034,11.5429368 5.37931034,12 C5.37931034,12.4602498 5.75015627,12.8275862 6.20761779,12.8275862 L11.1724138,12.8275862 L11.1724138,17.7923821 C11.1724138,18.2527193 11.5429365,18.6206897 12,18.6206897 C12.4602497,18.6206897 12.8275862,18.2498437 12.8275862,17.7923821 L12.8275862,12.8275862 L17.7923835,12.8275862 C18.25272,12.8275862 18.6206897,12.4570632 18.6206897,12 C18.6206897,11.5397502 18.2498441,11.1724138 17.7923835,11.1724138 L12.8275862,11.1724138 Z" id="add"></path>
                </g>
            </g>
        </g>
    </g>
</svg>