<?xml version="1.0" encoding="UTF-8"?>
<svg width="16px" height="16px" viewBox="0 0 16 16" version="1.1" xmlns="http://www.w3.org/2000/svg" xmlns:xlink="http://www.w3.org/1999/xlink">
    <!-- Generator: Sketch 53.2 (72643) - https://sketchapp.com -->
    <title>chicang@2x</title>
    <desc>Created with Sketch.</desc>
    <g id="ATMEX-H5页面" stroke="none" stroke-width="1" fill="none" fill-rule="evenodd">
        <g id="H5首页-展开菜单秒合约交易" transform="translate(-16.000000, -470.000000)" fill-rule="nonzero" stroke="#CACFE6">
            <g id="分组" transform="translate(0.000000, -0.000000)">
                <g id="我的持仓" transform="translate(16.000000, 470.000000)">
                    <g id="chicang">
                        <path d="M2,0.5 C1.17157288,0.5 0.5,1.17157288 0.5,2 L0.5,14 C0.5,14.8284271 1.17157288,15.5 2,15.5 L14,15.5 C14.8284271,15.5 15.5,14.8284271 15.5,14 L15.5,5.25272102 C15.5,4.88484793 15.3648143,4.52980161 15.1201459,4.25508725 L12.2231802,1.00236624 C11.9385559,0.682789335 11.5309833,0.5 11.1030343,0.5 L2,0.5 Z" id="合并形状"></path>
                        <rect id="矩形" x="4.76666667" y="7.5" width="6.46666667" height="1" rx="0.5"></rect>
                        <rect id="矩形-copy-4" x="4.76666667" y="10.5" width="6.46666667" height="1" rx="0.5"></rect>
                    </g>
                </g>
            </g>
        </g>
    </g>
</svg>