<?xml version="1.0" encoding="UTF-8"?>
<svg width="14px" height="16px" viewBox="0 0 14 16" version="1.1" xmlns="http://www.w3.org/2000/svg" xmlns:xlink="http://www.w3.org/1999/xlink">
    <!-- Generator: Sketch 53.2 (72643) - https://sketchapp.com -->
    <title>gerenzhongxin</title>
    <desc>Created with Sketch.</desc>
    <g id="ATMEX-H5页面" stroke="none" stroke-width="1" fill="none" fill-rule="evenodd">
        <g id="H5首页-展开菜单秒合约交易" transform="translate(-17.000000, -550.000000)" fill-rule="nonzero">
            <g id="分组" transform="translate(0.000000, -0.000000)">
                <g id="个人中心" transform="translate(16.000000, 550.000000)">
                    <g id="gerenzhongxin">
                        <rect id="矩形" fill="#000000" opacity="0" x="0" y="0" width="16" height="16"></rect>
                        <path d="M8,10.5 C5.24375,10.5 3,8.2578125 3,5.5 C3,2.7421875 5.24375,0.5 8,0.5 C10.75625,0.5 13,2.7421875 13,5.5 C13,8.2578125 10.75625,10.5 8,10.5 Z M8,1.5 C5.79375,1.5 4,3.29375 4,5.5 C4,7.70625 5.79375,9.5 8,9.5 C10.20625,9.5 12,7.70625 12,5.5 C12,3.29375 10.20625,1.5 8,1.5 Z" id="形状" fill="#CACFE6"></path>
                        <path d="M13.2828125,15.5 L2.7171875,15.5 C2.4,15.5 2.109375,15.3546875 1.9171875,15.1015625 C1.7265625,14.85 1.665625,14.53125 1.7515625,14.228125 C2.5390625,11.44375 5.109375,9.5 8,9.5 C10.890625,9.5 13.4609375,11.44375 14.2484375,14.2265625 C14.334375,14.5296875 14.2734375,14.8484375 14.0828125,15.1015625 C13.890625,15.3546875 13.5984375,15.5 13.2828125,15.5 L13.2828125,15.5 Z M8,10.5 C5.5546875,10.5 3.3796875,12.1453125 2.7140625,14.5 L13.2828125,14.5 C12.6203125,12.1453125 10.4453125,10.5 8,10.5 Z M8,8.5 C7.0484375,8.5 6.1734375,8.0625 5.6,7.3 C5.434375,7.0796875 5.478125,6.765625 5.7,6.6 C5.921875,6.434375 6.234375,6.478125 6.4,6.7 C6.78125,7.2078125 7.365625,7.5 8,7.5 C8.634375,7.5 9.21875,7.2078125 9.6,6.7 C9.765625,6.4796875 10.0796875,6.4359375 10.3,6.6 C10.5203125,6.765625 10.565625,7.0796875 10.4,7.3 C9.8265625,8.0625 8.953125,8.5 8,8.5 Z" id="形状" fill="#CACFE6"></path>
                    </g>
                </g>
            </g>
        </g>
    </g>
</svg>