<?xml version="1.0" encoding="UTF-8"?>
<svg width="15px" height="16px" viewBox="0 0 15 16" version="1.1" xmlns="http://www.w3.org/2000/svg" xmlns:xlink="http://www.w3.org/1999/xlink">
    <!-- Generator: Sketch 53.2 (72643) - https://sketchapp.com -->
    <title>heyue</title>
    <desc>Created with Sketch.</desc>
    <g id="ATMEX-H5页面" stroke="none" stroke-width="1" fill="none" fill-rule="evenodd">
        <g id="H5首页-展开菜单秒合约交易" transform="translate(-17.000000, -200.000000)" fill-rule="nonzero">
            <g id="分组" transform="translate(0.000000, -0.000000)">
                <g id="合约交易" transform="translate(16.000000, 200.000000)">
                    <g id="heyue">
                        <rect id="矩形" fill="#000000" opacity="0" x="0" y="0" width="16" height="16"></rect>
                        <path d="M10.1490705,9.39593625 C9.99913537,9.39593625 9.89917861,9.34595786 9.79922184,9.24600111 C9.59930831,9.04608758 9.59930831,8.74621727 9.79922184,8.54630372 L10.8487679,7.49675766 L9.79922184,6.44721158 C9.59930831,6.24729805 9.59930831,5.94742773 9.79922184,5.7475142 C9.99913538,5.54760067 10.2990057,5.54760067 10.4989192,5.7475142 L11.7983572,7.04695219 C12.0482491,7.29684411 12.0482491,7.69667119 11.7983572,7.94656311 L10.4989192,9.24600111 C10.3989625,9.34595787 10.2990057,9.39593627 10.1490705,9.39593625 Z" id="路径" fill="#CACFE6"></path>
                        <path d="M13.9974061,15.993083 C13.7974926,15.993083 13.6475574,15.9431046 13.4476439,15.8431478 L7.95002161,12.3946393 L2.55235611,15.8431478 C2.2524858,16.0430614 1.85265873,16.0430614 1.55278842,15.8931262 C1.25291811,15.6932127 1.05300458,15.3933424 1.05300458,14.9935153 L1.05300458,0.999567688 C1.05300458,0.449805453 1.50281003,0 2.05257227,0 L14.0473845,0 C14.5971467,0 15.0469522,0.449805453 15.0469522,0.999567688 L15.0469522,14.9935153 C15.0469522,15.343364 14.8470387,15.6932127 14.5471683,15.8931262 C14.3472548,15.9431046 14.1473413,15.993083 13.9974061,15.993083 Z M13.9974061,14.9935153 L13.9974061,0.999567687 L2.00259387,0.999567687 L2.00259387,14.9935153 L7.45023777,11.5450068 C7.75010808,11.3450933 8.19991353,11.3450933 8.49978384,11.5450068 L13.9974061,14.9935153 Z" id="形状" fill="#CACFE6"></path>
                        <path d="M11.4984869,4.99783844 L4.50151309,4.99783844 C4.20164278,4.99783844 4.00172925,4.79792491 4.00172925,4.49805459 C4.00172925,4.19818428 4.20164278,3.99827075 4.50151309,3.99827075 L11.4984869,3.99827075 C11.7983572,3.99827075 11.9982707,4.19818428 11.9982707,4.49805459 C11.9982707,4.79792491 11.7983572,4.99783844 11.4984869,4.99783844 L11.4984869,4.99783844 Z M10.9987031,7.9965415 L4.50151309,7.9965415 C4.20164278,7.9965415 4.00172925,7.79662797 4.00172925,7.49675766 C4.00172925,7.19688734 4.20164278,6.99697381 4.50151309,6.99697381 L10.9987031,6.99697381 C11.2985734,6.99697381 11.4984869,7.19688734 11.4984869,7.49675766 C11.4984869,7.79662797 11.2985734,7.9965415 10.9987031,7.9965415 L10.9987031,7.9965415 Z" id="形状" fill="#CACFE6"></path>
                    </g>
                </g>
            </g>
        </g>
    </g>
</svg>