<?xml version="1.0" encoding="UTF-8"?>
<svg width="6px" height="11px" viewBox="0 0 6 11" version="1.1" xmlns="http://www.w3.org/2000/svg" xmlns:xlink="http://www.w3.org/1999/xlink">
    <!-- Generator: Sketch 53.2 (72643) - https://sketchapp.com -->
    <title>icon_turn@2x</title>
    <desc>Created with Sketch.</desc>
    <g id="ATMEX-H5页面" stroke="none" stroke-width="1" fill="none" fill-rule="evenodd">
        <g id="我的-资产互转" transform="translate(-353.000000, -151.000000)" fill="#7185A4" fill-rule="nonzero">
            <g id="合约账户" transform="translate(0.000000, 56.000000)">
                <path d="M354.664571,100.498772 L355.237476,101.109725 L358.825682,104.936239 C359.059325,105.185399 359.059325,105.573172 358.825682,105.822332 C358.610523,106.051781 358.250097,106.063365 358.020648,105.848205 C358.011748,105.83986 358.003119,105.831231 357.994774,105.822332 L353.833663,101.384864 L353.830908,101.387802 L353,100.501709 L354.397243,99.0116692 L357.98545,95.1851552 C358.20061,94.9557062 358.561036,94.9441222 358.790485,95.1592816 C358.799384,95.1676268 358.808013,95.1762558 358.816359,95.1851552 C359.050001,95.4343147 359.050001,95.822088 358.816359,96.0712475 L354.664571,100.498772 Z" id="icon_turn" transform="translate(355.998094, 100.503744) rotate(-180.000000) translate(-355.998094, -100.503744) "></path>
            </g>
        </g>
    </g>
</svg>