<?xml version="1.0" encoding="UTF-8"?>
<svg width="14px" height="12px" viewBox="0 0 14 12" version="1.1" xmlns="http://www.w3.org/2000/svg" xmlns:xlink="http://www.w3.org/1999/xlink">
    <!-- Generator: Sketch 53.2 (72643) - https://sketchapp.com -->
    <title>login_icon_Invisible@2x</title>
    <desc>Created with Sketch.</desc>
    <defs>
        <rect id="path-1" x="0" y="0" width="14" height="14"></rect>
        <polygon id="path-3" points="0 0 14 0 14 12 0 12"></polygon>
    </defs>
    <g id="ATMEX-H5页面" stroke="none" stroke-width="1" fill="none" fill-rule="evenodd">
        <g id="重置密码" transform="translate(-329.000000, -190.000000)">
            <g id="分组-2" transform="translate(32.000000, 116.000000)">
                <g id="分组-4-copy" transform="translate(0.000000, 73.000000)">
                    <g id="login_icon_Invisible" transform="translate(297.000000, 0.000000)">
                        <mask id="mask-2" fill="white">
                            <use xlink:href="#path-1"></use>
                        </mask>
                        <use id="Mask" fill="#CACFE6" fill-rule="nonzero" opacity="0" xlink:href="#path-1"></use>
                        <g id="分组" mask="url(#mask-2)">
                            <g transform="translate(0.000000, 1.000000)">
                                <mask id="mask-4" fill="white">
                                    <use xlink:href="#path-3"></use>
                                </mask>
                                <g id="Clip-2" stroke="none" fill="none"></g>
                                <path d="M6.99269914,8.84762194 C6.62848669,8.84762194 6.26434344,8.7709409 5.94386693,8.63281297 L6.91989817,7.6046893 L7.00730086,7.6046893 C7.96873038,7.6046893 8.75549294,6.77606755 8.75549294,5.76339671 L8.75549294,5.67126283 L9.73159339,4.64321205 C9.83352858,5.01145599 9.90632955,5.39507988 9.90632955,5.77870376 C9.90632955,7.46663427 8.59528929,8.84762194 6.99269914,8.84762194 M11.6983268,2.57158477 L13.3390475,0.874615805 L12.5086874,0 L1.83953931,11.1253842 L2.66989941,12 L4.4578829,10.1979955 C5.26734386,10.5229424 6.12642298,10.6894248 6.99269914,10.6890603 C10.0375374,10.6890603 13.0094362,8.64819292 14,5.77870376 C13.5630558,4.52039118 12.7326265,3.41558647 11.6983268,2.57158477 M5.24450706,5.77870376 L5.24450706,5.87076475 L7.08010183,3.93733827 L6.99269914,3.93733827 C6.03126962,3.93733827 5.24450706,4.76588714 5.24450706,5.77870376 M2.28720991,8.98574986 L4.28300833,6.88350847 C4.1518697,6.54595153 4.07906873,6.1776347 4.07906873,5.77870376 C4.07906873,4.09070036 5.3902474,2.70978558 6.99269914,2.70978558 C7.37151331,2.70978558 7.72112405,2.78646662 8.04166976,2.92459455 L9.5421171,1.34410496 C8.72628951,1.03716212 7.86686439,0.868420094 6.99269914,0.868420094 C3.93339759,0.868420094 0.990632955,2.90928749 0,5.77870376 C0.43701342,7.03694345 1.25284101,8.14174816 2.28720991,8.98574986" id="Fill-1" stroke="none" fill="#7185A4" fill-rule="evenodd" mask="url(#mask-4)"></path>
                            </g>
                        </g>
                    </g>
                </g>
            </g>
        </g>
    </g>
</svg>