<?xml version="1.0" encoding="UTF-8"?>
<svg width="16px" height="16px" viewBox="0 0 16 16" version="1.1" xmlns="http://www.w3.org/2000/svg" xmlns:xlink="http://www.w3.org/1999/xlink">
    <!-- Generator: Sketch 53.2 (72643) - https://sketchapp.com -->
    <title>miaoheyue</title>
    <desc>Created with Sketch.</desc>
    <g id="ATMEX-H5页面" stroke="none" stroke-width="1" fill="none" fill-rule="evenodd">
        <g id="H5首页-展开菜单秒合约交易" transform="translate(-16.000000, -240.000000)" fill-rule="nonzero">
            <g id="分组" transform="translate(0.000000, -0.000000)">
                <g id="秒合约交易" transform="translate(16.000000, 240.000000)">
                    <g id="miaoheyue">
                        <rect id="矩形" fill="#000000" opacity="0" x="0" y="0" width="15.9843902" height="15.9843902"></rect>
                        <path d="M7.87960384,0.258924535 C3.53572783,0.258924535 0.0143383727,3.78031401 0.0143383727,8.12419 C0.0143383727,12.468066 3.53572784,15.9894555 7.87960384,15.9894555 C12.2234798,15.9894555 15.7448693,12.468066 15.7448693,8.12419 C15.7448693,3.78031401 12.2234641,0.258924535 7.87960384,0.258924535 Z M7.87960384,15.3602342 C3.88324672,15.3602342 0.643559602,12.1205471 0.643559602,8.12419 C0.643559602,4.12783288 3.88324672,0.888145764 7.87960384,0.888145764 C11.875961,0.888145764 15.1156481,4.12783288 15.1156481,8.12419 C15.1156481,12.1205471 11.875961,15.3602342 7.87960384,15.3602342 Z M6.27188066,14.0890972 L7.76522716,8.83467517 L4.85375756,8.83318077 L8.26838392,2.12281942 L7.36785822,7.17847049 L10.8469325,7.17523 L6.27188066,14.0890972 Z M7.87960384,0.256926767 C3.54038408,0.256926767 0.022738482,3.77455663 0.022738482,8.11377641 C0.022738482,12.4530276 3.54038408,15.9706418 7.87960384,15.9706418 C12.2188393,15.9706418 15.7364692,12.4530276 15.7364692,8.11377641 C15.7364692,3.77455663 12.2188393,0.256926767 7.87960384,0.256926767 Z M7.87960384,15.1503889 C3.99339191,15.1503889 0.843007017,12.0000198 0.843007017,8.11377639 C0.843007017,4.22758019 3.99339191,1.07717957 7.87960384,1.07717957 C11.7658315,1.07717957 14.9161849,4.22758019 14.9161849,8.11377639 C14.9161849,12.0000198 11.7658315,15.1503889 7.87960384,15.1503889 Z" id="形状" fill="#CACFE6"></path>
                    </g>
                </g>
            </g>
        </g>
    </g>
</svg>