<?xml version="1.0" encoding="UTF-8"?>
<svg width="15px" height="14px" viewBox="0 0 15 14" version="1.1" xmlns="http://www.w3.org/2000/svg" xmlns:xlink="http://www.w3.org/1999/xlink">
    <!-- Generator: Sketch 53.2 (72643) - https://sketchapp.com -->
    <title>search_icon_search@2x</title>
    <desc>Created with Sketch.</desc>
    <g id="ATMEX-H5页面" stroke="none" stroke-width="1" fill="none" fill-rule="evenodd">
        <g id="区号展开" transform="translate(-16.000000, -54.000000)" fill="#3F526D" fill-rule="nonzero">
            <path d="M28.7891979,64.6408601 L30.7352364,66.5139054 C31.0786922,66.8444787 31.0891355,67.3908873 30.7585623,67.7343431 C30.757901,67.7350301 30.7572385,67.7357161 30.756575,67.736401 C30.4234413,68.0802288 29.8749509,68.0898027 29.5300208,67.7578104 L27.675721,65.9730628 C26.4356529,67.1273827 24.7705547,67.8338518 22.9399037,67.8338518 C19.1071007,67.8338518 16,64.7370386 16,60.9169259 C16,57.0968132 19.1071007,54 22.9399037,54 C26.7727066,54 29.8798073,57.0968132 29.8798073,60.9169259 C29.8798073,62.2879849 29.4795721,63.5658735 28.7891979,64.6408601 Z M27.0604849,64.0867579 C27.7403267,63.2101382 28.1448314,62.1106142 28.1448314,60.9169259 C28.1448314,58.0518414 25.8145059,55.7292315 22.9399037,55.7292315 C20.0653015,55.7292315 17.7349759,58.0518414 17.7349759,60.9169259 C17.7349759,63.7820104 20.0653015,66.1046203 22.9399037,66.1046203 C24.5172075,66.1046203 25.930643,65.4053397 26.8851531,64.3008588 C26.9193383,64.2419033 26.9611037,64.1860798 27.010476,64.1347835 C27.0111373,64.1340964 27.0117997,64.1334105 27.0124633,64.1327256 C27.0280153,64.1166743 27.0440368,64.1013515 27.0604849,64.0867579 Z" id="search_icon_search"></path>
        </g>
    </g>
</svg>