<?xml version="1.0" encoding="UTF-8"?>
<svg width="14px" height="14px" viewBox="0 0 14 14" version="1.1" xmlns="http://www.w3.org/2000/svg" xmlns:xlink="http://www.w3.org/1999/xlink">
    <!-- Generator: Sketch 53.2 (72643) - https://sketchapp.com -->
    <title>tuichu</title>
    <desc>Created with Sketch.</desc>
    <g id="ATMEX-H5页面" stroke="none" stroke-width="1" fill="none" fill-rule="evenodd">
        <g id="H5首页-展开菜单秒合约交易" transform="translate(-17.000000, -591.000000)" fill-rule="nonzero">
            <g id="分组" transform="translate(0.000000, -0.000000)">
                <g id="退出登录" transform="translate(16.000000, 590.000000)">
                    <g id="tuichu">
                        <rect id="矩形" fill="#000000" opacity="0" x="0" y="0" width="16" height="16"></rect>
                        <path d="M8.75,2 L2.125,2 C2.05596441,2 2,2.05596441 2,2.125 L2,13.875 C2,13.9440356 2.05596441,14 2.125,14 L8.75,14 C9.02614063,14 9.25,14.2238594 9.25,14.5 C9.25,14.7761406 9.02614063,15 8.75,15 L1.5,15 C1.22385937,15 1,14.7761406 1,14.5 L1,1.5 C1,1.22385937 1.22385937,1 1.5,1 L8.75,1 C9.02614063,1 9.25,1.22385937 9.25,1.5 C9.25,1.77614063 9.02614063,2 8.75,2 Z M13.2303906,7.50198438 L11.2545312,5.52614063 C11.0592813,5.330875 11.0592813,5.01429688 11.2545312,4.81903125 C11.4497969,4.62376562 11.766375,4.62376562 11.9616406,4.81903125 L14.7900781,7.64746875 C14.9853281,7.84271875 14.9853281,8.15929687 14.7900781,8.3545625 L11.9616406,11.183 C11.766375,11.37825 11.4497969,11.37825 11.2545312,11.183 C11.0592813,10.9877344 11.0592813,10.6711406 11.2545312,10.475875 L13.2284375,8.50198438 L4.97271875,8.50198438 C4.69657813,8.50198438 4.47271875,8.27814063 4.47271875,8.00198438 C4.47271875,7.72584375 4.69657813,7.50198438 4.97271875,7.50198438 L13.230375,7.50198438 L13.2303906,7.50198438 Z" id="形状" fill="#CACFE6"></path>
                    </g>
                </g>
            </g>
        </g>
    </g>
</svg>