<?xml version="1.0" encoding="UTF-8"?>
<svg width="16px" height="15px" viewBox="0 0 16 15" version="1.1" xmlns="http://www.w3.org/2000/svg" xmlns:xlink="http://www.w3.org/1999/xlink">
    <!-- Generator: Sketch 53.2 (72643) - https://sketchapp.com -->
    <title>wdezichan</title>
    <desc>Created with Sketch.</desc>
    <g id="ATMEX-H5页面" stroke="none" stroke-width="1" fill="none" fill-rule="evenodd">
        <g id="H5首页-展开菜单秒合约交易" transform="translate(-16.000000, -510.000000)" fill-rule="nonzero">
            <g id="分组" transform="translate(0.000000, -0.000000)">
                <g id="我的资产" transform="translate(16.000000, 510.000000)">
                    <g id="wdezichan">
                        <rect id="矩形" fill="#000000" opacity="0" x="0" y="0" width="16" height="16"></rect>
                        <path d="M13.6403838,14.172567 L1.49875984,14.172567 C0.690156078,14.172567 0.0323140937,13.4937472 0.0323140937,12.6594009 L0.0323140938,1.54514439 C0.0323140938,0.710782094 0.690156078,0.0319783125 1.49875984,0.0319783125 L13.6403838,0.0319783125 C14.4489876,0.0319783125 15.1068456,0.710782078 15.1068456,1.54514439 L15.1068456,3.54383728 C15.1068456,3.83792589 14.8684472,4.07632425 14.5743586,4.07632425 C14.28027,4.07632425 14.0418716,3.83792589 14.0418716,3.54383728 L14.0418716,1.54514439 C14.0418716,1.29799995 13.8617697,1.09695227 13.6403838,1.09695227 L1.49875984,1.09695227 C1.27738994,1.09695227 1.09727205,1.29799995 1.09727205,1.54514439 L1.09727205,12.6594009 C1.09727205,12.9065454 1.27737394,13.107609 1.49875984,13.107609 L13.6403838,13.107609 C13.8617537,13.107609 14.0418716,12.9065613 14.0418716,12.6594009 L14.0418716,10.6730996 C14.0418716,10.379027 14.28027,10.1406127 14.5743586,10.1406127 C14.8684472,10.1406127 15.1068455,10.379027 15.1068455,10.6730996 L15.1068455,12.6593849 C15.1068456,13.4937472 14.4489876,14.172567 13.6403838,14.172567 Z M14.8571429,5.91210359 L14.8571429,8.12690595 L9.04241325,8.12690595 L9.04241325,5.91210359 L14.8571429,5.91210359 L14.8571429,5.91210359 Z M15.9221168,4.84714564 L7.97745528,4.84714564 L7.97745528,9.19187991 L15.9221168,9.19187991 L15.9221168,4.84714564 L15.9221168,4.84714564 Z M11.9497221,6.52296942 L13.9358955,6.52296942 L13.9358955,7.51605611 L11.9497221,7.51605611 L11.9497221,6.52296942 Z" id="形状" fill="#CACFE6"></path>
                    </g>
                </g>
            </g>
        </g>
    </g>
</svg>