<?xml version="1.0" encoding="UTF-8"?>
<svg width="8px" height="14px" viewBox="0 0 8 14" version="1.1" xmlns="http://www.w3.org/2000/svg" xmlns:xlink="http://www.w3.org/1999/xlink">
    <!-- Generator: Sketch 53.2 (72643) - https://sketchapp.com -->
    <title>zhankai copy 5</title>
    <desc>Created with Sketch.</desc>
    <g id="ATMEX-H5页面" stroke="none" stroke-width="1" fill="none" fill-rule="evenodd">
        <g id="H5首页-展开菜单秒合约交易" transform="translate(-272.000000, -318.000000)" fill-rule="nonzero">
            <g id="分组" transform="translate(0.000000, -0.000000)">
                <g id="zhankai-copy-5" transform="translate(276.000000, 325.000000) rotate(-180.000000) translate(-276.000000, -325.000000) translate(268.000000, 317.000000)">
                    <rect id="矩形" fill="#000000" opacity="0" x="0" y="0" width="16" height="16"></rect>
                    <path d="M4.95413211,8.62436295 C4.77825522,8.62436295 4.60077945,8.55720995 4.46647347,8.42290397 C4.1978615,8.154292 4.1978615,7.71779755 4.46647347,7.44918556 L10.668532,1.24712702 C10.937144,0.978515047 11.3736385,0.978515047 11.6422504,1.24712702 C11.9108624,1.51573898 11.9108624,1.95223344 11.6422504,2.22084541 L5.44019186,8.42290397 C5.30588587,8.55720995 5.13000898,8.62436295 4.95413211,8.62436295 L4.95413211,8.62436295 Z M11.1545918,14.8264215 C10.9787149,14.8264215 10.8012391,14.7592685 10.6669331,14.6249625 L4.46647347,8.42290397 C4.1978615,8.154292 4.1978615,7.71779755 4.46647347,7.44918556 C4.73508544,7.18057359 5.17157989,7.18057359 5.44019186,7.44918556 L11.6422504,13.6512441 C11.9108624,13.9198561 11.9108624,14.3563505 11.6422504,14.6249625 C11.5079444,14.7592685 11.3320675,14.8264215 11.1545918,14.8264215 Z" id="形状" fill="#CACFE6"></path>
                </g>
            </g>
        </g>
    </g>
</svg>