<?xml version="1.0" encoding="UTF-8"?>
<svg width="70px" height="77px" viewBox="0 0 70 77" version="1.1" xmlns="http://www.w3.org/2000/svg" xmlns:xlink="http://www.w3.org/1999/xlink">
    <!-- Generator: Sketch 52.5 (67469) - http://www.bohemiancoding.com/sketch -->
    <title>icon_logo@2x</title>
    <desc>Created with Sketch.</desc>
    <defs>
        <linearGradient x1="50%" y1="0%" x2="50%" y2="100%" id="linearGradient-1">
            <stop stop-color="#5FB672" offset="0%"></stop>
            <stop stop-color="#45858A" offset="100%"></stop>
        </linearGradient>
        <linearGradient x1="50%" y1="0%" x2="50%" y2="100%" id="linearGradient-2">
            <stop stop-color="#39AD6D" offset="0%"></stop>
            <stop stop-color="#359C78" offset="100%"></stop>
        </linearGradient>
    </defs>
    <g id="彧讯" stroke="none" stroke-width="1" fill="none" fill-rule="evenodd">
        <g id="登录" transform="translate(-153.000000, -101.000000)" fill-rule="nonzero">
            <g id="icon_logo" transform="translate(156.000000, 104.000000)">
                <path d="M32,64 C36.4582698,64 40.7035974,63.0882863 44.5597087,61.4411329 C46.7555915,60.5031528 61.4523792,71.9567878 63.3632813,70.5743833 C65.8186607,68.7980873 55.38479,54.0516766 57.2468511,51.6644141 C61.478737,46.2389086 64,39.4138905 64,32 C64,14.326888 49.673112,0 32,0 C14.326888,0 -7.10542736e-15,14.326888 -7.10542736e-15,32 C-7.10542736e-15,49.673112 14.326888,64 32,64 Z" id="椭圆形" stroke="url(#linearGradient-1)" stroke-width="5"></path>
                <path d="M36.8705822,29.5034362 L39.4208766,29.5034362 C40.8062491,29.5034362 41.9293155,30.6265025 41.9293155,32.011875 C41.9293155,32.5509992 41.7556207,33.0757785 41.4339723,33.5084415 L29.9713325,48.9273298 C29.0745418,50.1336414 27.3940548,50.4341379 26.1347902,49.6133615 C24.8749345,48.7922 24.4699706,47.1334183 25.2097027,45.8240906 L30.1070525,37.155769 C29.995242,37.1609839 29.8821802,37.1568363 29.7689463,37.1428737 L26.5769612,36.749279 C24.9676623,36.5508408 23.8239336,35.0853804 24.0223718,33.4760815 C24.0686953,33.1004061 24.1872267,32.7372327 24.3714388,32.406561 L32.576402,17.6781566 C33.0938946,16.7492262 34.0644579,16.1636425 35.12752,16.1389547 L41.0754121,16.000825 C42.7318198,15.9623577 44.1057874,17.2739575 44.1442546,18.9303652 C44.1601352,19.6141854 43.9418596,20.2829008 43.5256081,20.8256687 L36.8705822,29.5034362 Z" id="合并形状" fill="url(#linearGradient-2)"></path>
            </g>
        </g>
    </g>
</svg>