<?xml version="1.0" encoding="UTF-8"?>
<svg width="107px" height="85px" viewBox="0 0 107 85" version="1.1" xmlns="http://www.w3.org/2000/svg" xmlns:xlink="http://www.w3.org/1999/xlink">
    <!-- Generator: Sketch 52.5 (67469) - http://www.bohemiancoding.com/sketch -->
    <title>mdpi/chahua</title>
    <desc>Created with Sketch.</desc>
    <g id="彧讯" stroke="none" stroke-width="1" fill="none" fill-rule="evenodd">
        <g id="接收验证码" transform="translate(-134.000000, -212.000000)" fill-rule="nonzero">
            <g id="chahua" transform="translate(135.000000, 212.000000)">
                <rect id="矩形" stroke="#979797" fill="#D8D8D8" x="26.5" y="17.5" width="1" height="1"></rect>
                <path d="M73.987793,18 L74,18 L74,41 L67,41 L67,23.8359375 L28.987793,23.8359375 L28.987793,17.8359375 L73.987793,17.8359375 L73.987793,18 Z" id="合并形状" fill-opacity="0.3" fill="#60D5CC"></path>
                <rect id="矩形-copy-12" stroke="#979797" fill="#D8D8D8" x="58.5" y="17.5" width="1" height="1"></rect>
                <rect id="矩形-copy-8" stroke="#979797" fill="#D8D8D8" x="42.5" y="17.5" width="1" height="1"></rect>
                <rect id="矩形-copy-4" stroke="#979797" fill="#D8D8D8" x="30.5" y="17.5" width="1" height="1"></rect>
                <rect id="矩形-copy-9" stroke="#979797" fill="#D8D8D8" x="46.5" y="17.5" width="1" height="1"></rect>
                <rect id="矩形-copy-13" stroke="#979797" fill="#D8D8D8" x="62.5" y="17.5" width="1" height="1"></rect>
                <rect id="矩形-copy-5" stroke="#979797" fill="#D8D8D8" x="34.5" y="17.5" width="1" height="1"></rect>
                <rect id="矩形-copy-10" stroke="#979797" fill="#D8D8D8" x="50.5" y="17.5" width="1" height="1"></rect>
                <rect id="矩形-copy-6" stroke="#979797" fill="#D8D8D8" x="38.5" y="17.5" width="1" height="1"></rect>
                <rect id="矩形-copy-11" stroke="#979797" fill="#D8D8D8" x="54.5" y="17.5" width="1" height="1"></rect>
                <rect id="矩形-copy-14" stroke="#979797" fill="#D8D8D8" x="66.5" y="17.5" width="1" height="1"></rect>
                <rect id="矩形-copy-15" stroke="#979797" fill="#D8D8D8" x="70.5" y="17.5" width="1" height="1"></rect>
                <path d="M10,19 L12.5,19 C12.7761424,19 13,19.2238576 13,19.5 C13,19.7761424 12.7761424,20 12.5,20 L10,20 L10,22.5 C10,22.7761424 9.77614237,23 9.5,23 C9.22385763,23 9,22.7761424 9,22.5 L9,20 L6.5,20 C6.22385763,20 6,19.7761424 6,19.5 C6,19.2238576 6.22385763,19 6.5,19 L9,19 L9,16.5 C9,16.2238576 9.22385763,16 9.5,16 C9.77614237,16 10,16.2238576 10,16.5 L10,19 Z" id="合并形状" fill-opacity="0.3" fill="#60D5CC"></path>
                <path d="M37.4497475,31.4497475 L39.9497475,31.4497475 C40.2258898,31.4497475 40.4497475,31.6736051 40.4497475,31.9497475 C40.4497475,32.2258898 40.2258898,32.4497475 39.9497475,32.4497475 L37.4497475,32.4497475 L37.4497475,34.9497475 C37.4497475,35.2258898 37.2258898,35.4497475 36.9497475,35.4497475 C36.6736051,35.4497475 36.4497475,35.2258898 36.4497475,34.9497475 L36.4497475,32.4497475 L33.9497475,32.4497475 C33.6736051,32.4497475 33.4497475,32.2258898 33.4497475,31.9497475 C33.4497475,31.6736051 33.6736051,31.4497475 33.9497475,31.4497475 L36.4497475,31.4497475 L36.4497475,28.9497475 C36.4497475,28.6736051 36.6736051,28.4497475 36.9497475,28.4497475 C37.2258898,28.4497475 37.4497475,28.6736051 37.4497475,28.9497475 L37.4497475,31.4497475 Z" id="合并形状-copy-3" fill="#979797" transform="translate(36.949747, 31.949747) rotate(-45.000000) translate(-36.949747, -31.949747) "></path>
                <path d="M45.4497475,31.4497475 L47.9497475,31.4497475 C48.2258898,31.4497475 48.4497475,31.6736051 48.4497475,31.9497475 C48.4497475,32.2258898 48.2258898,32.4497475 47.9497475,32.4497475 L45.4497475,32.4497475 L45.4497475,34.9497475 C45.4497475,35.2258898 45.2258898,35.4497475 44.9497475,35.4497475 C44.6736051,35.4497475 44.4497475,35.2258898 44.4497475,34.9497475 L44.4497475,32.4497475 L41.9497475,32.4497475 C41.6736051,32.4497475 41.4497475,32.2258898 41.4497475,31.9497475 C41.4497475,31.6736051 41.6736051,31.4497475 41.9497475,31.4497475 L44.4497475,31.4497475 L44.4497475,28.9497475 C44.4497475,28.6736051 44.6736051,28.4497475 44.9497475,28.4497475 C45.2258898,28.4497475 45.4497475,28.6736051 45.4497475,28.9497475 L45.4497475,31.4497475 Z" id="合并形状-copy-4" fill="#979797" transform="translate(44.949747, 31.949747) rotate(-45.000000) translate(-44.949747, -31.949747) "></path>
                <path d="M53.4497475,31.4497475 L55.9497475,31.4497475 C56.2258898,31.4497475 56.4497475,31.6736051 56.4497475,31.9497475 C56.4497475,32.2258898 56.2258898,32.4497475 55.9497475,32.4497475 L53.4497475,32.4497475 L53.4497475,34.9497475 C53.4497475,35.2258898 53.2258898,35.4497475 52.9497475,35.4497475 C52.6736051,35.4497475 52.4497475,35.2258898 52.4497475,34.9497475 L52.4497475,32.4497475 L49.9497475,32.4497475 C49.6736051,32.4497475 49.4497475,32.2258898 49.4497475,31.9497475 C49.4497475,31.6736051 49.6736051,31.4497475 49.9497475,31.4497475 L52.4497475,31.4497475 L52.4497475,28.9497475 C52.4497475,28.6736051 52.6736051,28.4497475 52.9497475,28.4497475 C53.2258898,28.4497475 53.4497475,28.6736051 53.4497475,28.9497475 L53.4497475,31.4497475 Z" id="合并形状-copy-5" fill="#979797" transform="translate(52.949747, 31.949747) rotate(-45.000000) translate(-52.949747, -31.949747) "></path>
                <path d="M62.4497475,31.4497475 L64.9497475,31.4497475 C65.2258898,31.4497475 65.4497475,31.6736051 65.4497475,31.9497475 C65.4497475,32.2258898 65.2258898,32.4497475 64.9497475,32.4497475 L62.4497475,32.4497475 L62.4497475,34.9497475 C62.4497475,35.2258898 62.2258898,35.4497475 61.9497475,35.4497475 C61.6736051,35.4497475 61.4497475,35.2258898 61.4497475,34.9497475 L61.4497475,32.4497475 L58.9497475,32.4497475 C58.6736051,32.4497475 58.4497475,32.2258898 58.4497475,31.9497475 C58.4497475,31.6736051 58.6736051,31.4497475 58.9497475,31.4497475 L61.4497475,31.4497475 L61.4497475,28.9497475 C61.4497475,28.6736051 61.6736051,28.4497475 61.9497475,28.4497475 C62.2258898,28.4497475 62.4497475,28.6736051 62.4497475,28.9497475 L62.4497475,31.4497475 Z" id="合并形状-copy-6" fill="#979797" transform="translate(61.949747, 31.949747) rotate(-45.000000) translate(-61.949747, -31.949747) "></path>
                <path d="M86,3 L88.5,3 C88.7761424,3 89,3.22385763 89,3.5 C89,3.77614237 88.7761424,4 88.5,4 L86,4 L86,6.5 C86,6.77614237 85.7761424,7 85.5,7 C85.2238576,7 85,6.77614237 85,6.5 L85,4 L82.5,4 C82.2238576,4 82,3.77614237 82,3.5 C82,3.22385763 82.2238576,3 82.5,3 L85,3 L85,0.5 C85,0.223857625 85.2238576,5.07265313e-17 85.5,0 C85.7761424,-5.07265313e-17 86,0.223857625 86,0.5 L86,3 Z" id="合并形状-copy" fill-opacity="0.3" fill="#60D5CC"></path>
                <path d="M103,44 L105.5,44 C105.776142,44 106,44.2238576 106,44.5 C106,44.7761424 105.776142,45 105.5,45 L103,45 L103,47.5 C103,47.7761424 102.776142,48 102.5,48 C102.223858,48 102,47.7761424 102,47.5 L102,45 L99.5,45 C99.2238576,45 99,44.7761424 99,44.5 C99,44.2238576 99.2238576,44 99.5,44 L102,44 L102,41.5 C102,41.2238576 102.223858,41 102.5,41 C102.776142,41 103,41.2238576 103,41.5 L103,44 Z" id="合并形状-copy-2" fill-opacity="0.3" fill="#60D5CC"></path>
                <circle id="椭圆形" stroke-opacity="0.3" stroke="#60D5CC" cx="2.5" cy="62.5" r="2.5"></circle>
                <circle id="椭圆形-copy" stroke-opacity="0.3" stroke="#60D5CC" cx="93" cy="71" r="2"></circle>
                <path d="M81.9865723,58 L81.9865723,84.2000732 L73.9865723,84.2000732 L73.9865723,58 L25,58 L25,52.5 C25,48.9101491 27.9101491,46 31.5,46 L75.5,46 C79.0898509,46 82,48.9101491 82,52.5 L82,58 L81.9865723,58 Z" id="合并形状" fill-opacity="0.3" fill="#60D5CC"></path>
                <polyline id="路径" stroke="#979797" points="26 41 26 19 26 19 72 19 72 41"></polyline>
                <polyline id="路径-copy" stroke="#979797" points="25.453125 84.0615234 25.453125 58.0615234 25.453125 58.0615234 74.453125 58.0615234 74.453125 84.0615234"></polyline>
                <path d="M21.5,84.5 L77.5,84.5 L77.5,48.5 C77.5,45.1862915 74.8137085,42.5 71.5,42.5 L27.5,42.5 C24.1862915,42.5 21.5,45.1862915 21.5,48.5 L21.5,84.5 Z" id="矩形" stroke="#979797"></path>
                <rect id="矩形" stroke="#979797" fill="#D8D8D8" x="0.5" y="84.5" width="9" height="1" rx="0.5"></rect>
                <rect id="矩形-copy-17" stroke="#979797" fill="#D8D8D8" x="15.5" y="84.5" width="70" height="1" rx="0.5"></rect>
                <rect id="矩形-copy-3" stroke="#979797" fill="#D8D8D8" x="89.5" y="84.5" width="9" height="1" rx="0.5"></rect>
                <rect id="矩形-copy-16" fill="#FFFFFF" x="50.9936523" y="52.5566406" width="10" height="1" rx="0.5"></rect>
                <circle id="椭圆形" fill="#FFFFFF" cx="45" cy="53" r="1"></circle>
            </g>
        </g>
    </g>
</svg>