<?xml version="1.0" encoding="UTF-8"?>
<svg width="60px" height="60px" viewBox="0 0 60 60" version="1.1" xmlns="http://www.w3.org/2000/svg" xmlns:xlink="http://www.w3.org/1999/xlink">
    <!-- Generator: Sketch 52.6 (67491) - http://www.bohemiancoding.com/sketch -->
    <title>ATMEX_120@2x</title>
    <desc>Created with Sketch.</desc>
    <defs>
        <linearGradient x1="41.5023804%" y1="0%" x2="41.5023804%" y2="100%" id="linearGradient-1">
            <stop stop-color="#1E242E" offset="0%"></stop>
            <stop stop-color="#2C2F36" offset="0.0518798828%"></stop>
            <stop stop-color="#141F31" offset="100%"></stop>
        </linearGradient>
        <polygon id="path-2" points="0.037639833 0.0336340842 21.6874725 0.0336340842 21.6874725 33.2414408 0.037639833 33.2414408"></polygon>
    </defs>
    <g id="ATMEX-PC端" stroke="none" stroke-width="1" fill="none" fill-rule="evenodd">
        <g id="首页" transform="translate(-1145.000000, -2325.000000)">
            <g id="ATMEX_120" transform="translate(1145.000000, 2325.000000)">
                <g id="qdicon1024-copy-2" fill="url(#linearGradient-1)">
                    <rect id="Rectangle" x="0" y="0" width="60" height="60" rx="13.5"></rect>
                </g>
                <g id="分组-2-copy-2" transform="translate(10.344828, 12.413793)">
                    <g id="分组" transform="translate(17.047413, 0.119946)">
                        <mask id="mask-3" fill="white">
                            <use xlink:href="#path-2"></use>
                        </mask>
                        <g id="Clip-2"></g>
                        <path d="M21.6874725,33.2414408 L2.96772415,0.817876493 C2.53570279,0.0696333049 1.5699899,-0.189149489 0.821900297,0.242871876 C0.0736571086,0.67489324 -0.185125685,1.64060612 0.246895679,2.38884931 L17.5016416,32.2751136 L21.6874725,33.2414408 Z" id="Fill-1" fill="#FFFFFF" mask="url(#mask-3)"></path>
                    </g>
                    <path d="M3.85618615,32.4177129 L7.3206504,25.996828 C7.73086336,25.2366056 7.44443612,24.2787253 6.68406008,23.8683587 C5.92368405,23.4581458 4.96595735,23.744573 4.5555908,24.5051026 L0.185617142,32.6041594 C0.0438625317,32.8667817 -0.0129621767,33.1527482 0.00239585257,33.4318036 L3.85618615,32.4177129 Z" id="Fill-3" fill="#FFFFFF"></path>
                    <path d="M28.4324118,30.8438067 L17.4448169,7.70570691 C17.0742277,6.92521186 16.1324733,6.58994608 15.3519782,6.96053533 C14.5714832,7.33112458 14.2360638,8.27287893 14.6068067,9.05337398 L24.4353311,29.7506222 L28.4324118,30.8438067 Z" id="Fill-5" fill="#FFFFFF"></path>
                    <path d="M19.0974484,28.2901657 L14.8464994,13.1727968 C14.6125966,12.3410059 13.7407213,11.8518527 12.9089305,12.0857554 C12.0772932,12.3196582 11.5879863,13.1915335 11.8218891,14.0233244 L16.0941857,29.2159477 L19.0974484,28.2901657 Z" id="Fill-7" fill="#FFFFFF"></path>
                    <path d="M11.7698408,30.2354905 L11.7698408,18.5973295 C11.7698408,17.7332868 11.0629107,17.0263567 10.198868,17.0263567 C9.33497881,17.0263567 8.62804872,17.7332868 8.62804872,18.5973295 L8.62804872,31.2207081 L11.7698408,30.2354905 Z" id="Fill-9" fill="#FFFFFF"></path>
                </g>
            </g>
        </g>
    </g>
</svg>