<?xml version="1.0" encoding="UTF-8"?>
<svg width="20px" height="18px" viewBox="0 0 20 18" version="1.1" xmlns="http://www.w3.org/2000/svg" xmlns:xlink="http://www.w3.org/1999/xlink">
    <!-- Generator: Sketch 52.5 (67469) - http://www.bohemiancoding.com/sketch -->
    <title>icon_send@2x</title>
    <desc>Created with Sketch.</desc>
    <g id="朋友圈" stroke="none" stroke-width="1" fill="none" fill-rule="evenodd">
        <g transform="translate(-339.000000, -31.000000)" fill="#FFFFFF" fill-rule="nonzero" id="icon_send">
            <g transform="translate(339.000000, 31.000000)">
                <rect id="矩形" x="1.11111111" y="0" width="2.62222222" height="1" rx="0.5"></rect>
                <path d="M2,2 L18,2 C19.1045695,2 20,2.8954305 20,4 L20,16 C20,17.1045695 19.1045695,18 18,18 L2,18 C0.8954305,18 1.3527075e-16,17.1045695 0,16 L0,4 C-1.3527075e-16,2.8954305 0.8954305,2 2,2 Z M10,15 C12.7614237,15 15,12.7614237 15,10 C15,7.23857625 12.7614237,5 10,5 C7.23857625,5 5,7.23857625 5,10 C5,12.7614237 7.23857625,15 10,15 Z" id="合并形状"></path>
                <path d="M5.55555556,2.34648149 C5.84985958,0.942672892 6.31219005,0.189905965 6.94254695,0.0881807042 C7.57290385,-0.0135445562 9.50440687,-0.0272571213 12.737056,0.0470430089 C13.4700085,0.0470430089 13.9342265,0.382054809 14.1297101,1.05207841 C14.3251937,1.72210201 14.4301052,2.1535697 14.4444444,2.34648149 L5.55555556,2.34648149 Z" id="路径-10"></path>
                <circle id="椭圆形" cx="10" cy="10" r="4"></circle>
            </g>
        </g>
    </g>
</svg>