<?xml version="1.0" encoding="UTF-8"?>
<svg width="359px" height="61px" viewBox="0 0 359 61" version="1.1" xmlns="http://www.w3.org/2000/svg" xmlns:xlink="http://www.w3.org/1999/xlink">
    <!-- Generator: Sketch 53.1 (72631) - https://sketchapp.com -->
    <title>180skuang</title>
    <desc>Created with Sketch.</desc>
    <g id="ATMEX-PC端" stroke="none" stroke-width="1" fill="none" fill-rule="evenodd">
        <g id="秒合约交易-下单记录180秒显示" transform="translate(-1504.000000, -389.000000)" fill="#1D2234">
            <g id="分组-15-copy-3" transform="translate(1504.000000, 355.000000)">
                <g id="分组-13">
                    <path d="M296.480595,43 L303.219131,34.5768302 C303.564141,34.1455683 304.193433,34.0756469 304.624695,34.4206565 C304.68236,34.4667882 304.734737,34.5191655 304.780869,34.5768302 L311.519405,43 L356,43 C357.656854,43 359,44.3431458 359,46 L359,92 C359,93.6568542 357.656854,95 356,95 L3,95 C1.34314575,95 2.02906125e-16,93.6568542 0,92 L0,46 C-2.02906125e-16,44.3431458 1.34314575,43 3,43 L296.480595,43 Z" id="180skuang"></path>
                </g>
            </g>
        </g>
    </g>
</svg>