<?xml version="1.0" encoding="UTF-8"?>
<svg width="24px" height="24px" viewBox="0 0 24 24" version="1.1" xmlns="http://www.w3.org/2000/svg" xmlns:xlink="http://www.w3.org/1999/xlink">
    <!-- Generator: Sketch 53.1 (72631) - https://sketchapp.com -->
    <title>icon_back</title>
    <desc>Created with Sketch.</desc>
    <g id="ATMEX-PC端" stroke="none" stroke-width="1" fill="none" fill-rule="evenodd">
        <g id="提币" transform="translate(-1776.000000, -38.000000)" fill-rule="nonzero">
            <g id="icon_back" transform="translate(1788.000000, 50.000000) scale(-1, 1) translate(-1788.000000, -50.000000) translate(1776.000000, 38.000000)">
                <rect id="矩形" fill="#000000" opacity="0" x="0" y="0" width="24" height="24"></rect>
                <path d="M21.96,0.6 L8.532,0.6 C7.872,0.6 7.332,1.14 7.332,1.8 C7.332,2.46 7.872,3 8.532,3 L20.76,3 L20.76,21 L8.532,21 C7.872,21 7.332,21.54 7.332,22.2 C7.332,22.86 7.872,23.4 8.532,23.4 L21.96,23.4 C22.62,23.4 23.16,22.86 23.16,22.2 L23.16,1.8 C23.16,1.14 22.62,0.6 21.96,0.6 Z" id="路径" fill="#CACFE6"></path>
                <path d="M7.416,15.648 L4.944,13.2 L14.208,13.2 C14.868,13.2 15.408,12.66 15.408,12 C15.408,11.34 14.868,10.8 14.208,10.8 L4.956,10.8 L7.416,8.364 C7.884,7.896 7.896,7.14 7.428,6.672 C6.96,6.192 6.204,6.192 5.724,6.648 L1.2,11.136 C0.972,11.364 0.84,11.664 0.84,11.988 C0.84,12.312 0.972,12.612 1.2,12.84 L5.736,17.34 C6.20431489,17.8046134 6.95968511,17.8046134 7.428,17.34 C7.65109096,17.1141969 7.77519649,16.8089248 7.77294533,16.491511 C7.77069417,16.1740972 7.64227123,15.8706161 7.416,15.648 Z" id="路径" fill="#CACFE6"></path>
            </g>
        </g>
    </g>
</svg>