<?xml version="1.0" encoding="UTF-8"?>
<svg width="124px" height="26px" viewBox="0 0 124 26" version="1.1" xmlns="http://www.w3.org/2000/svg" xmlns:xlink="http://www.w3.org/1999/xlink">
    <!-- Generator: Sketch 52.6 (67491) - http://www.bohemiancoding.com/sketch -->
    <title>LOGO@2x</title>
    <desc>Created with Sketch.</desc>
    <defs>
        <polygon id="path-1" points="0.314330159 0.3576 13.0656635 0.3576 13.0656635 17 0.314330159 17"></polygon>
        <polygon id="path-3" points="0.0285998707 0.0259683794 16.4787901 0.0259683794 16.4787901 25.6652253 0.0285998707 25.6652253"></polygon>
    </defs>
    <g id="ATMEX-PC端" stroke="none" stroke-width="1" fill="none" fill-rule="evenodd">
        <g id="首页" transform="translate(-360.000000, -37.000000)">
            <g id="LOGO" transform="translate(360.000000, 37.000000)">
                <g id="分组" transform="translate(35.428571, 5.000000)">
                    <g transform="translate(0.000000, 0.390500)">
                        <mask id="mask-2" fill="white">
                            <use xlink:href="#path-1"></use>
                        </mask>
                        <g id="Clip-12"></g>
                        <path d="M4.53967937,10.5901 L8.84031429,10.5901 L6.73674286,3.2946 L6.66145714,3.2946 L4.53967937,10.5901 Z M5.44113968,0.3576 L7.93885397,0.3576 L13.0656635,17.0001 L10.7180286,17.0001 L9.49721905,12.8276 L3.88228254,12.8276 L2.66196508,17.0001 L0.314330159,17.0001 L5.44113968,0.3576 Z" id="Fill-11" fill="#FFFFFF" mask="url(#mask-2)"></path>
                    </g>
                    <polygon id="Fill-13" fill="#FFFFFF" points="18.9805619 0.74795 29.9663714 0.74795 29.9663714 3.07895 25.5722444 3.07895 25.5722444 17.39045 23.375181 17.39045 23.375181 3.07895 18.9805619 3.07895"></polygon>
                    <polygon id="Fill-15" fill="#FFFFFF" points="37.1963095 0.74795 39.7693095 0.74795 44.3322143 13.80095 44.4075 13.80095 48.9521984 0.74795 51.5247063 0.74795 51.5247063 17.39045 49.3276429 17.39045 49.3276429 5.92245 49.2523571 5.92245 45.3089603 17.39045 43.4120556 17.39045 39.4686587 5.92245 39.393373 5.92245 39.393373 17.39045 37.1963095 17.39045"></polygon>
                    <polygon id="Fill-17" fill="#FFFFFF" points="59.7879778 0.74795 69.4589937 0.74795 69.4589937 3.07895 61.9850413 3.07895 61.9850413 7.69395 69.0082635 7.69395 69.0082635 10.02495 61.9850413 10.02495 61.9850413 15.05995 69.7783429 15.05995 69.7783429 17.39045 59.7879778 17.39045"></polygon>
                    <polygon id="Fill-19" fill="#FFFFFF" points="76.5575508 0.74795 79.2427413 0.74795 82.3978524 6.62195 85.5524714 0.74795 88.238154 0.74795 83.712154 8.78945 88.5388048 17.39045 85.8531222 17.39045 82.3978524 10.95695 78.9425825 17.39045 76.2569 17.39045 81.0456619 8.78945"></polygon>
                </g>
                <g id="分组-2">
                    <g id="分组" transform="translate(12.953134, 0.092609)">
                        <mask id="mask-4" fill="white">
                            <use xlink:href="#path-3"></use>
                        </mask>
                        <g id="Clip-2"></g>
                        <path d="M16.4787901,25.6652253 L2.25496556,0.631470356 C1.9267028,0.0537628458 1.19292528,-0.146039526 0.624504423,0.187517787 C0.0559668737,0.521075099 -0.140664032,1.26668775 0.18759872,1.84439526 L13.2982707,24.9191383 L16.4787901,25.6652253 Z" id="Fill-1" fill="#347DE1" mask="url(#mask-4)"></path>
                    </g>
                    <path d="M2.93004555,25.0292372 L5.56244909,20.0717668 C5.87414116,19.4848103 5.65650518,18.7452451 5.07874873,18.4284071 C4.50099228,18.1116877 3.77328289,18.332834 3.46147412,18.9200277 L0.141037455,25.1731897 C0.0333280632,25.3759565 -0.0098490495,25.596747 0.00182044043,25.8122016 L2.93004555,25.0292372 Z" id="Fill-3" fill="#347DE1"></path>
                    <path d="M21.6037967,23.8140474 L13.2550935,5.94946245 C12.9735088,5.34685375 12.2579356,5.088 11.6648922,5.37412648 C11.0718487,5.66025296 10.816987,6.38736759 11.0986885,6.98997628 L18.5666953,22.9700158 L21.6037967,23.8140474 Z" id="Fill-5" fill="#347DE1"></path>
                    <path d="M14.5108123,21.842419 L11.2808142,10.1705217 C11.1030879,9.5283083 10.440611,9.15064032 9.80859138,9.3312332 C9.1766885,9.51182609 8.80489855,10.1849881 8.98262488,10.8272016 L12.2288436,22.5572016 L14.5108123,21.842419 Z" id="Fill-7" fill="#347DE1"></path>
                    <path d="M8.94307698,23.3443755 L8.94307698,14.3587233 C8.94307698,13.6916087 8.40593036,13.1457984 7.74940486,13.1457984 C7.09299605,13.1457984 6.55584943,13.6916087 6.55584943,14.3587233 L6.55584943,24.1050474 L8.94307698,23.3443755 Z" id="Fill-9" fill="#347DE1"></path>
                </g>
            </g>
        </g>
    </g>
</svg>