<?xml version="1.0" encoding="UTF-8"?>
<svg width="359px" height="61px" viewBox="0 0 359 61" version="1.1" xmlns="http://www.w3.org/2000/svg" xmlns:xlink="http://www.w3.org/1999/xlink">
    <!-- Generator: Sketch 53.1 (72631) - https://sketchapp.com -->
    <title>合并形状</title>
    <desc>Created with Sketch.</desc>
    <g id="ATMEX-PC端" stroke="none" stroke-width="1" fill="none" fill-rule="evenodd">
        <g id="秒合约交易" transform="translate(-1504.000000, -389.000000)" fill="#1D2234">
            <g id="分组-15-copy-3" transform="translate(1504.000000, 355.000000)">
                <g id="分组-13">
                    <path d="M44.8,43 L51.2191312,34.976086 C51.5641407,34.5448241 52.1934331,34.4749027 52.624695,34.8199122 C52.6823598,34.866044 52.734737,34.9184213 52.7808688,34.976086 L59.2,43 L356,43 C357.656854,43 359,44.3431458 359,46 L359,92 C359,93.6568542 357.656854,95 356,95 L3,95 C1.34314575,95 2.02906125e-16,93.6568542 0,92 L0,46 C-2.02906125e-16,44.3431458 1.34314575,43 3,43 L44.8,43 Z" id="合并形状"></path>
                </g>
            </g>
        </g>
    </g>
</svg>