<?xml version="1.0" encoding="UTF-8"?>
<svg width="14px" height="14px" viewBox="0 0 14 14" version="1.1" xmlns="http://www.w3.org/2000/svg" xmlns:xlink="http://www.w3.org/1999/xlink">
    <!-- Generator: Sketch 52.5 (67469) - http://www.bohemiancoding.com/sketch -->
    <title>home_icon_jingyin@2x</title>
    <desc>Created with Sketch.</desc>
    <g id="首页" stroke="none" stroke-width="1" fill="none" fill-rule="evenodd">
        <g id="首页-新增系统通知-勿扰模式" transform="translate(-344.000000, -370.000000)">
            <g id="home_icon_jingyin" transform="translate(343.000000, 369.000000)">
                <rect id="矩形" fill="#000000" opacity="0" x="0" y="0" width="16" height="16"></rect>
                <path d="M13.646875,11.246875 C13.1953125,10.9578125 12.921875,10.459375 12.9234375,9.921875 L12.9234375,6.8125 C12.9234375,4.5328125 11.271875,2.63125 9.065625,2.1640625 L9.065625,2.0515625 C9.065625,1.471875 8.5953125,1.003125 8.015625,1.003125 C7.434375,1.003125 6.9625,1.4734375 6.9625,2.053125 L6.9625,2.1625 C4.7546875,2.63125 3.1046875,4.53125 3.1046875,6.8125 L3.1046875,9.9234375 C3.1046875,10.48125 2.8140625,10.96875 2.3796875,11.2484375 C2.4890625,11.1765625 2.6203125,11.140625 2.7515625,11.1484375 C2.365625,11.134375 2.040625,11.4359375 2.0265625,11.821875 C2.0125,12.2078125 2.3140625,12.5328125 2.7,12.546875 L13.271875,12.546875 C13.6578125,12.5484375 13.971875,12.234375 13.9734375,11.8484375 C13.975,11.4609375 13.5359375,11.175 13.646875,11.246875 Z M8.015625,14.996875 C8.984375,14.996875 9.76875,14.2125 9.76875,13.2484375 L6.2609375,13.2484375 C6.2609375,14.2125 7.0453125,14.996875 8.015625,14.996875 Z" id="形状" fill="#979797" fill-rule="nonzero"></path>
                <path d="M7.20004979,0.374600051 C7.47619216,0.374600051 7.70004979,0.710386489 7.70004979,1.12460005 L7.70004979,14.6246001 C7.70004979,15.0388136 7.47619216,15.3746001 7.20004979,15.3746001 C6.92390741,15.3746001 6.70004979,15.0388136 6.70004979,14.6246001 L6.70004979,1.12460005 C6.70004979,0.710386489 6.92390741,0.374600051 7.20004979,0.374600051 Z" id="矩形" fill="#FFFFFF" fill-rule="nonzero" transform="translate(7.200050, 7.874600) rotate(-45.000000) translate(-7.200050, -7.874600) "></path>
                <path d="M8.51952901,-1.0306656 C8.76952901,-1.0306656 9.01952901,-0.627721878 9.01952901,-0.130665604 L9.01952901,16.0693344 C9.01952901,16.5663907 8.79567138,16.9693344 8.51952901,16.9693344 C8.24338663,16.9693344 8.01952901,16.5663907 8.01952901,16.0693344 L8.01952901,-0.130665604 C8.01952901,-0.627721878 8.26952901,-1.0306656 8.51952901,-1.0306656 Z" id="矩形-copy-4" fill="#979797" fill-rule="nonzero" transform="translate(8.519529, 7.969334) rotate(-45.000000) translate(-8.519529, -7.969334) "></path>
            </g>
        </g>
    </g>
</svg>