<?xml version="1.0" encoding="UTF-8"?>
<svg width="18px" height="18px" viewBox="0 0 18 18" version="1.1" xmlns="http://www.w3.org/2000/svg" xmlns:xlink="http://www.w3.org/1999/xlink">
    <!-- Generator: Sketch 52.5 (67469) - http://www.bohemiancoding.com/sketch -->
    <title>icon_QR code@2x</title>
    <desc>Created with Sketch.</desc>
    <g id="首页" stroke="none" stroke-width="1" fill="none" fill-rule="evenodd">
        <g id="个人信息" transform="translate(-318.000000, -295.000000)" fill-rule="nonzero">
            <g id="icon_QR-code" transform="translate(318.000000, 295.000000)">
                <rect id="矩形" stroke="#979797" stroke-width="1.5" x="0.75" y="0.75" width="6" height="6" rx="2"></rect>
                <rect id="矩形-copy-5" stroke="#979797" stroke-width="1.5" x="0.75" y="11.25" width="6" height="6" rx="2"></rect>
                <rect id="矩形" fill="#979797" x="10.5" y="10.5" width="1.5" height="2.25" rx="0.75"></rect>
                <rect id="矩形-copy-7" fill="#979797" transform="translate(14.250000, 16.875000) rotate(-180.000000) translate(-14.250000, -16.875000) " x="13.5" y="15.75" width="1.5" height="2.25" rx="0.75"></rect>
                <rect id="矩形-copy-6" stroke="#979797" stroke-width="1.5" fill="#D8D8D8" x="11.25" y="14.25" width="1" height="3" rx="0.5"></rect>
                <rect id="矩形-copy-10" stroke="#979797" stroke-width="1.5" fill="#D8D8D8" transform="translate(14.250000, 12.750000) rotate(-180.000000) translate(-14.250000, -12.750000) " x="14.25" y="11.25" width="1" height="3" rx="0.5"></rect>
                <rect id="矩形-copy-11" stroke="#979797" stroke-width="1.5" fill="#D8D8D8" transform="translate(17.250000, 12.375000) rotate(-180.000000) translate(-17.250000, -12.375000) " x="17.25" y="11.25" width="1" height="2.25" rx="0.5"></rect>
                <rect id="矩形-copy-12" stroke="#979797" stroke-width="1.5" fill="#D8D8D8" transform="translate(17.250000, 16.500000) rotate(-180.000000) translate(-17.250000, -16.500000) " x="17.25" y="15.75" width="1" height="1.5" rx="0.5"></rect>
                <rect id="矩形-copy-4" stroke="#979797" stroke-width="1.5" x="11.25" y="0.75" width="6" height="6" rx="2"></rect>
            </g>
        </g>
    </g>
</svg>