<?xml version="1.0" encoding="UTF-8"?>
<svg width="10px" height="11px" viewBox="0 0 10 11" version="1.1" xmlns="http://www.w3.org/2000/svg" xmlns:xlink="http://www.w3.org/1999/xlink">
    <!-- Generator: Sketch 52.5 (67469) - http://www.bohemiancoding.com/sketch -->
    <title>icon_jia@2x</title>
    <desc>Created with Sketch.</desc>
    <g id="朋友圈" stroke="none" stroke-width="1" fill="none" fill-rule="evenodd">
        <g id="动态" transform="translate(-292.000000, -119.000000)" fill="#000000" fill-rule="nonzero">
            <g id="分组" transform="translate(292.000000, 115.500000)">
                <path d="M4.5,8.5 L4.5,4.5 C4.5,4.22385763 4.72385763,4 5,4 C5.27614237,4 5.5,4.22385763 5.5,4.5 L5.5,8.5 L9.5,8.5 C9.77614237,8.5 10,8.72385763 10,9 C10,9.27614237 9.77614237,9.5 9.5,9.5 L5.5,9.5 L5.5,13.5 C5.5,13.7761424 5.27614237,14 5,14 C4.72385763,14 4.5,13.7761424 4.5,13.5 L4.5,9.5 L0.5,9.5 C0.223857625,9.5 6.44338575e-17,9.27614237 3.061617e-17,9 C-3.20151758e-18,8.72385763 0.223857625,8.5 0.5,8.5 L4.5,8.5 Z" id="icon_jia"></path>
            </g>
        </g>
    </g>
</svg>