<?xml version="1.0" encoding="UTF-8"?>
<svg width="20px" height="20px" viewBox="0 0 20 20" version="1.1" xmlns="http://www.w3.org/2000/svg" xmlns:xlink="http://www.w3.org/1999/xlink">
    <!-- Generator: Sketch 52.5 (67469) - http://www.bohemiancoding.com/sketch -->
    <title>icon_Contacts_add friend@2x</title>
    <desc>Created with Sketch.</desc>
    <g id="首页" stroke="none" stroke-width="1" fill="none" fill-rule="evenodd">
        <g id="通讯录" transform="translate(-339.000000, -36.000000)" fill="#979797" fill-rule="nonzero">
            <g id="icon_Contacts_add-friend" transform="translate(339.000000, 36.000000)">
                <circle id="椭圆形" cx="8.18181818" cy="4.54545455" r="4.54545455"></circle>
                <path d="M5.75838426,10.9090909 L10.1945,10.9090909 C12.9943008,10.9090909 15.4555783,12.7633735 16.227898,15.4545455 L16.227898,15.4545455 C16.7706625,17.3458249 15.6774751,19.3190074 13.7861956,19.8617719 C13.4666616,19.9534727 13.1358656,20 12.8034336,20 L3.73023665,20 C1.66873053,20 -0.00245037023,18.3288191 -0.00245037023,16.267313 C-0.00245037023,15.9939282 0.0275837251,15.7213707 0.0871114341,15.4545455 L0.0871114341,15.4545455 C0.679732967,12.7981962 3.03673184,10.9090909 5.75838426,10.9090909 Z" id="矩形"></path>
                <path d="M16.5,6.57276443 L16.5,4.57276443 C16.5,4.29662205 16.7238576,4.07276443 17,4.07276443 C17.2761424,4.07276443 17.5,4.29662205 17.5,4.57276443 L17.5,6.57276443 L19.5,6.57276443 C19.7761424,6.57276443 20,6.79662205 20,7.07276443 C20,7.3489068 19.7761424,7.57276443 19.5,7.57276443 L17.5,7.57276443 L17.5,9.57276443 C17.5,9.8489068 17.2761424,10.0727644 17,10.0727644 C16.7238576,10.0727644 16.5,9.8489068 16.5,9.57276443 L16.5,7.57276443 L14.5,7.57276443 C14.2238576,7.57276443 14,7.3489068 14,7.07276443 C14,6.79662205 14.2238576,6.57276443 14.5,6.57276443 L16.5,6.57276443 Z" id="添加"></path>
            </g>
        </g>
    </g>
</svg>