<?xml version="1.0" encoding="UTF-8"?>
<svg width="24px" height="22px" viewBox="0 0 24 22" version="1.1" xmlns="http://www.w3.org/2000/svg" xmlns:xlink="http://www.w3.org/1999/xlink">
    <!-- Generator: Sketch 52.5 (67469) - http://www.bohemiancoding.com/sketch -->
    <title>icon_set@2x</title>
    <desc>Created with Sketch.</desc>
    <g id="首页" stroke="none" stroke-width="1" fill="none" fill-rule="evenodd">
        <g id="我的" transform="translate(-16.000000, -421.000000)" fill-rule="nonzero">
            <g id="icon_set" transform="translate(16.000000, 420.000000)">
                <path d="M13,0.577350269 L21.3923048,5.42264973 C22.011107,5.77991532 22.3923048,6.44016936 22.3923048,7.15470054 L22.3923048,16.8452995 C22.3923048,17.5598306 22.011107,18.2200847 21.3923048,18.5773503 L13,23.4226497 C12.3811978,23.7799153 11.6188022,23.7799153 11,23.4226497 L2.60769515,18.5773503 C1.988893,18.2200847 1.60769515,17.5598306 1.60769515,16.8452995 L1.60769515,7.15470054 C1.60769515,6.44016936 1.988893,5.77991532 2.60769515,5.42264973 L11,0.577350269 C11.6188022,0.220084679 12.3811978,0.220084679 13,0.577350269 Z" id="多边形" fill="#556A95" transform="translate(12.000000, 12.000000) rotate(-270.000000) translate(-12.000000, -12.000000) "></path>
                <circle id="椭圆形" stroke="#FFFFFF" cx="12" cy="12" r="3"></circle>
            </g>
        </g>
    </g>
</svg>