<?xml version="1.0" encoding="UTF-8"?>
<svg width="20px" height="20px" viewBox="0 0 20 20" version="1.1" xmlns="http://www.w3.org/2000/svg" xmlns:xlink="http://www.w3.org/1999/xlink">
    <!-- Generator: Sketch 52.5 (67469) - http://www.bohemiancoding.com/sketch -->
    <title>icon_home_create@2x</title>
    <desc>Created with Sketch.</desc>
    <g id="首页" stroke="none" stroke-width="1" fill="none" fill-rule="evenodd">
        <g id="首页“+”" transform="translate(-252.000000, -122.000000)" fill-rule="nonzero">
            <g id="展开栏" transform="translate(228.000000, 59.000000)">
                <g id="icon_home_create" transform="translate(24.000000, 63.000000)">
                    <circle id="椭圆形" fill="#FFFFFF" cx="8.18181818" cy="4.54545455" r="4.54545455"></circle>
                    <path d="M5.75838426,10.9090909 L10.1945,10.9090909 C12.9943008,10.9090909 15.4555783,12.7633735 16.227898,15.4545455 L16.227898,15.4545455 C16.7706625,17.3458249 15.6774751,19.3190074 13.7861956,19.8617719 C13.4666616,19.9534727 13.1358656,20 12.8034336,20 L3.73023665,20 C1.66873053,20 -0.00245037023,18.3288191 -0.00245037023,16.267313 C-0.00245037023,15.9939282 0.0275837251,15.7213707 0.0871114341,15.4545455 L0.0871114341,15.4545455 C0.679732967,12.7981962 3.03673184,10.9090909 5.75838426,10.9090909 Z" id="矩形" fill="#FFFFFF"></path>
                    <g id="icon_add-friend-copy-3" transform="translate(11.000000, 0.760000)" stroke="#FFFFFF">
                        <path d="M3.79393033,6.64777409 C4.17784453,6.47515845 4.52475753,6.23488842 4.81948689,5.94214643 C5.45343097,5.31247708 5.84594604,4.44004486 5.84594604,3.47593583 C5.84594604,1.55622948 4.28971656,0 2.37001021,0 C1.45408114,0 0.620894988,0.354264572 0,0.93324548" id="形状"></path>
                        <path d="M3.78627537,9.5 L6.5636299,15.4304555 C6.66679092,15.4160361 6.76893757,15.3943708 6.86930459,15.3655672 C8.05014875,15.0266854 8.73269407,13.794704 8.39381223,12.6138599 C7.86473519,10.7702747 6.17863911,9.5 4.26063788,9.5 L3.78627537,9.5 Z" id="路径"></path>
                    </g>
                </g>
            </g>
        </g>
    </g>
</svg>