<?xml version="1.0" encoding="UTF-8"?>
<svg width="21px" height="14px" viewBox="0 0 21 14" version="1.1" xmlns="http://www.w3.org/2000/svg" xmlns:xlink="http://www.w3.org/1999/xlink">
    <!-- Generator: Sketch 52.5 (67469) - http://www.bohemiancoding.com/sketch -->
    <title>icon_complete@2x</title>
    <desc>Created with Sketch.</desc>
    <g id="聊天" stroke="none" stroke-width="1" fill="none" fill-rule="evenodd">
        <g id="所在位置" transform="translate(-338.000000, -376.000000)" fill="#00AB9F" fill-rule="nonzero">
            <path d="M344.795677,389.819954 C344.728255,389.78052 344.664393,389.732649 344.605615,389.676343 L338.290639,383.626918 C337.919416,383.271306 337.906761,382.682089 338.262374,382.310866 C338.271592,382.301243 338.281016,382.29182 338.290639,382.282601 C338.682937,381.9068 339.301669,381.9068 339.693967,382.282601 L345.366125,387.71624 L357.306033,376.278417 C357.698331,375.902615 358.317063,375.902615 358.709361,376.278417 C359.080584,376.63403 359.093239,377.223246 358.737626,377.594469 C358.728408,377.604092 358.718984,377.613515 358.709361,377.622734 L346.079409,389.721583 C345.725,390.061089 345.185784,390.093879 344.795677,389.819954 Z" id="icon_complete"></path>
        </g>
    </g>
</svg>