<?xml version="1.0" encoding="UTF-8"?>
<svg width="16px" height="15px" viewBox="0 0 16 15" version="1.1" xmlns="http://www.w3.org/2000/svg" xmlns:xlink="http://www.w3.org/1999/xlink">
    <!-- Generator: Sketch 52.5 (67469) - http://www.bohemiancoding.com/sketch -->
    <title>pengyouquan_icon_Collection@2x</title>
    <desc>Created with Sketch.</desc>
    <g id="朋友圈" stroke="none" stroke-width="1" fill="none" fill-rule="evenodd">
        <g id="朋友圈三张照片&amp;文字" transform="translate(-342.000000, -306.000000)" fill="#FBCC5C" fill-rule="nonzero">
            <path d="M350,318.5 L346.503405,320.338269 C346.01456,320.59527 345.409933,320.407323 345.152932,319.918479 C345.050593,319.723818 345.015279,319.50085 345.052455,319.284092 L345.720246,315.390576 L342.891441,312.633173 C342.495957,312.247672 342.487865,311.614559 342.873366,311.219075 C343.026875,311.061592 343.228017,310.959104 343.445654,310.92748 L347.354966,310.359424 L349.103264,306.816986 C349.347686,306.321732 349.947312,306.118393 350.442566,306.362815 C350.639778,306.460146 350.799406,306.619773 350.896736,306.816986 L352.645034,310.359424 L356.554346,310.92748 C357.100891,311.006897 357.479572,311.51434 357.400155,312.060885 C357.36853,312.278522 357.266043,312.479665 357.108559,312.633173 L354.279754,315.390576 L354.947545,319.284092 C355.040906,319.828429 354.675318,320.345385 354.130981,320.438746 C353.914224,320.475923 353.691256,320.440608 353.496595,320.338269 L350,318.5 Z" id="pengyouquan_icon_Collection"></path>
        </g>
    </g>
</svg>