<?xml version="1.0" encoding="UTF-8"?>
<svg width="12px" height="12px" viewBox="0 0 12 12" version="1.1" xmlns="http://www.w3.org/2000/svg" xmlns:xlink="http://www.w3.org/1999/xlink">
    <!-- Generator: Sketch 52.5 (67469) - http://www.bohemiancoding.com/sketch -->
    <title>quanliao_icon_biaoji@2x</title>
    <desc>Created with Sketch.</desc>
    <g id="首页" stroke="none" stroke-width="1" fill="none" fill-rule="evenodd">
        <g id="群组信息" transform="translate(-248.000000, -180.000000)" fill="#000000">
            <g id="quanliao_icon_biaoji" transform="translate(246.000000, 178.000000)">
                <rect id="矩形" opacity="0" x="0" y="0" width="16" height="16"></rect>
                <path d="M12.8853333,13.8346667 L3.09333333,13.8346667 C2.58133333,13.8346667 2.16533333,13.4186667 2.16533333,12.9066667 L2.16533333,3.104 C2.16533333,2.592 2.58133333,2.176 3.09333333,2.176 L8,2.176 C8.18133333,2.176 8.32,2.31466667 8.32,2.496 C8.32,2.67733333 8.18133333,2.816 8,2.816 L3.09333333,2.816 C2.944,2.816 2.80533333,2.95466667 2.80533333,3.104 L2.80533333,12.9066667 C2.80533333,13.056 2.944,13.1946667 3.09333333,13.1946667 L12.8853333,13.1946667 C13.0346667,13.1946667 13.1733333,13.056 13.1733333,12.9066667 L13.1733333,7.98933333 C13.1733333,7.808 13.312,7.66933333 13.4933333,7.66933333 C13.6746667,7.66933333 13.8133333,7.808 13.8133333,7.98933333 L13.8133333,12.9066667 C13.8133333,13.4186667 13.3973333,13.8346667 12.8853333,13.8346667 Z M7.98933333,8.33066667 C7.904,8.33066667 7.82933333,8.29866667 7.76533333,8.23466667 C7.63733333,8.10666667 7.63733333,7.904 7.76533333,7.78666667 L13.2906667,2.26133333 C13.4186667,2.13333333 13.6213333,2.13333333 13.7386667,2.26133333 C13.8666667,2.38933333 13.8666667,2.592 13.7386667,2.70933333 L8.21333333,8.23466667 C8.14933333,8.29866667 8.07466666,8.33066667 7.98933333,8.33066667 Z" id="形状" fill-rule="nonzero"></path>
            </g>
        </g>
    </g>
</svg>