<?xml version="1.0" encoding="UTF-8"?>
<svg width="24px" height="24px" viewBox="0 0 24 24" version="1.1" xmlns="http://www.w3.org/2000/svg" xmlns:xlink="http://www.w3.org/1999/xlink">
    <!-- Generator: Sketch 52.5 (67469) - http://www.bohemiancoding.com/sketch -->
    <title>tianjia2@2x</title>
    <desc>Created with Sketch.</desc>
    <g id="朋友圈" stroke="none" stroke-width="1" fill="none" fill-rule="evenodd">
        <g id="发朋友圈" transform="translate(-61.000000, -269.000000)" fill="#ADAEB0" fill-rule="nonzero">
            <path d="M73.8,280.2 L84.2,280.2 C84.6418278,280.2 85,280.558172 85,281 C85,281.441828 84.6418278,281.8 84.2,281.8 L73.8,281.8 L73.8,292.2 C73.8,292.641828 73.4418278,293 73,293 C72.5581722,293 72.2,292.641828 72.2,292.2 L72.2,281.8 L61.8,281.8 C61.3581722,281.8 61,281.441828 61,281 C61,280.558172 61.3581722,280.2 61.8,280.2 L72.2,280.2 L72.2,269.8 C72.2,269.358172 72.5581722,269 73,269 C73.4418278,269 73.8,269.358172 73.8,269.8 L73.8,280.2 Z" id="tianjia2"></path>
        </g>
    </g>
</svg>