<?xml version="1.0" encoding="UTF-8"?>
<svg width="165px" height="52px" viewBox="0 0 165 52" version="1.1" xmlns="http://www.w3.org/2000/svg" xmlns:xlink="http://www.w3.org/1999/xlink">
    <!-- Generator: Sketch 53.2 (72643) - https://sketchapp.com -->
    <title>180s@2x</title>
    <desc>Created with Sketch.</desc>
    <g id="ATMEX-H5页面" stroke="none" stroke-width="1" fill="none" fill-rule="evenodd">
        <g id="秒合约交易-买涨买跌180S" transform="translate(-106.000000, -656.000000)" fill="#347DE1" fill-rule="nonzero">
            <g id="分组-14" transform="translate(0.000000, 436.000000)">
                <g id="分组-7-copy" transform="translate(16.000000, 146.000000)">
                    <g id="分组-4" transform="translate(0.000000, 34.000000)">
                        <g id="分组-8" transform="translate(90.000000, 40.000000)">
                            <path d="M143,4 L147,0 L151,4 L161,4 C163.209139,4 165,5.790861 165,8 L165,48 C165,50.209139 163.209139,52 161,52 L4,52 C1.790861,52 4.19476067e-15,50.209139 0,48 L-9.63673585e-14,8 C-9.66379e-14,5.790861 1.790861,4 4,4 L10.6140351,4 L13.9912281,4 L18.8157895,4 L24.122807,4 L31.3596491,4 L41.4912281,4 L82.5,4 L143,4 Z" id="180s"></path>
                        </g>
                    </g>
                </g>
            </g>
        </g>
    </g>
</svg>