<?xml version="1.0" encoding="UTF-8"?>
<svg width="166px" height="52px" viewBox="0 0 166 52" version="1.1" xmlns="http://www.w3.org/2000/svg" xmlns:xlink="http://www.w3.org/1999/xlink">
    <!-- Generator: Sketch 53.2 (72643) - https://sketchapp.com -->
    <title>30s@2x</title>
    <desc>Created with Sketch.</desc>
    <g id="ATMEX-H5页面" stroke="none" stroke-width="1" fill="none" fill-rule="evenodd">
        <g id="秒合约交易-买涨买跌30S" transform="translate(-16.000000, -656.000000)" fill="#347DE1" fill-rule="nonzero">
            <g id="分组-14" transform="translate(0.000000, 436.000000)">
                <g id="分组-7-copy" transform="translate(16.000000, 146.000000)">
                    <g id="分组-4" transform="translate(0.000000, 34.000000)">
                        <g id="分组-8" transform="translate(0.000000, 40.000000)">
                            <path d="M14,4 L18,0 L22,4 L24.2690058,4 L31.5497076,4 L41.7426901,4 L83,4 L162,4 C164.209139,4 166,5.790861 166,8 L166,48 C166,50.209139 164.209139,52 162,52 L4,52 C1.790861,52 -9.56527278e-14,50.209139 -9.59232693e-14,48 L-1.91846539e-13,8 C-1.9211708e-13,5.790861 1.790861,4 4,4 L10.6783626,4 L14,4 Z" id="30s"></path>
                        </g>
                    </g>
                </g>
            </g>
        </g>
    </g>
</svg>