<?xml version="1.0" encoding="UTF-8"?>
<svg width="32px" height="32px" viewBox="0 0 32 32" version="1.1" xmlns="http://www.w3.org/2000/svg" xmlns:xlink="http://www.w3.org/1999/xlink">
    <!-- Generator: Sketch 52.5 (67469) - http://www.bohemiancoding.com/sketch -->
    <title>App_icon_cishan@2x</title>
    <desc>Created with Sketch.</desc>
    <g id="首页" stroke="none" stroke-width="1" fill="none" fill-rule="evenodd">
        <g id="应用" transform="translate(-171.000000, -368.000000)" fill-rule="nonzero">
            <g id="App_icon_cishan" transform="translate(171.000000, 368.000000)">
                <path d="M16.23239,31.3350149 C15.9178734,31.4225908 15.5667604,31.3546143 15.3031881,31.1230584 L15.3032058,31.1230383 C13.6114085,29.6367452 12.0552996,28.175043 10.6348789,26.7379316 C7.82475292,23.8947852 2.66372408,17.4345343 1.31220959,13.9457602 C-0.0393048997,10.4569862 0.32108061,5.90153548 2.66372408,3.47943823 C5.00636754,1.05734098 7.75812703,-0.345777607 11.3248148,0.291616407 C13.1857419,0.624178126 14.741446,1.497109 15.991927,2.91040902 C17.2450358,1.48681073 18.8058889,0.608045349 20.6744864,0.27411288 C24.2411742,-0.363281134 26.9929336,1.03983745 29.3355771,3.4619347 C31.6782206,5.88403195 32.0386061,10.4394827 30.6870916,13.9282567 C29.3355771,17.4170307 24.1745483,23.8772817 21.3644223,26.7204281 C19.9440016,28.1575394 18.3878927,29.6192417 16.6960954,31.1055347 L16.6961131,31.1055548 C16.5593314,31.2257216 16.3989738,31.3018343 16.23239,31.3350149 Z" id="合并形状" fill="#00AB9F"></path>
                <path d="M12.6060606,16 C12.6060606,18.209139 14.3426531,20 16.4848485,20 C18.6270439,20 20.3636364,18.209139 20.3636364,16" id="路径" stroke="#FFFFFF" stroke-linecap="round"></path>
            </g>
        </g>
    </g>
</svg>