<?xml version="1.0" encoding="UTF-8"?>
<svg width="24px" height="23px" viewBox="0 0 24 23" version="1.1" xmlns="http://www.w3.org/2000/svg" xmlns:xlink="http://www.w3.org/1999/xlink">
    <!-- Generator: Sketch 52.5 (67469) - http://www.bohemiancoding.com/sketch -->
    <title>icon_education@2x</title>
    <desc>Created with Sketch.</desc>
    <g id="首页" stroke="none" stroke-width="1" fill="none" fill-rule="evenodd">
        <g id="应用" transform="translate(-16.000000, -254.000000)" fill="#FFA700" fill-rule="nonzero">
            <g id="icon_education" transform="translate(16.000000, 253.000000)">
                <path d="M11.5220182,0.993722064 L0.708291133,6.11734493 C0.508665522,6.21192845 0.423512087,6.45043208 0.518095613,6.65005769 C0.543025316,6.7026737 0.579141639,6.74921266 0.623921825,6.7864238 C5.82628476,11.1094484 9.73586073,13.2709607 12.3526497,13.2709607 C14.9660714,13.2709607 18.5708296,11.2211521 23.1669243,7.12153508 L23.1668434,7.12144434 C23.3316532,6.97443753 23.3460854,6.72166019 23.1990786,6.55685034 C23.164498,6.51808185 23.1226944,6.48642303 23.0760048,6.46364366 L11.8686824,0.995705023 C11.759432,0.942402863 11.6318712,0.941673201 11.5220182,0.993722064 Z" id="路径-4"></path>
                <path d="M5.52890507,14.0880422 L5.67283276,20.3566047 C5.67581721,20.4865479 5.74174593,20.6069412 5.8496232,20.6794439 C9.45411662,23.1019701 11.8936205,24.1077071 13.1681347,23.6966548 C14.4275745,23.2904642 16.0185932,22.376617 17.9411906,20.955113 L17.941183,20.9551027 C18.043191,20.8796814 18.1033723,20.7603409 18.1033723,20.6334788 L18.1033959,13.747474 C18.1033959,13.526547 17.9242993,13.3474504 17.7033723,13.3474504 C17.6123194,13.3474504 17.5239909,13.3785135 17.4529813,13.4355072 C15.3018728,15.1620312 13.6557067,16.0252932 12.514483,16.0252932 C11.3348484,16.0252932 9.19897864,15.2570756 6.10687384,13.7206404 L6.10690974,13.7205682 C5.90903292,13.6222452 5.66891556,13.7029495 5.57059259,13.9008264 C5.5417223,13.9589284 5.52741535,14.0231799 5.52890507,14.0880422 Z" id="路径-9"></path>
                <path d="M22.0416847,12.2553703 L22.4275966,12.6567188 L21.0453788,14.0942252 L19.6631611,12.6567188 L20.7385173,11.5383483 L20.7385173,6.93328125 L22.0416847,6.93328125 L22.0416847,12.2553703 Z" id="合并形状"></path>
            </g>
        </g>
    </g>
</svg>