<?xml version="1.0" encoding="UTF-8"?>
<svg width="16px" height="16px" viewBox="0 0 16 16" version="1.1" xmlns="http://www.w3.org/2000/svg" xmlns:xlink="http://www.w3.org/1999/xlink">
    <!-- Generator: Sketch 52.5 (67469) - http://www.bohemiancoding.com/sketch -->
    <title>icon_close3@2x</title>
    <desc>Created with Sketch.</desc>
    <g id="首页" stroke="none" stroke-width="1" fill="none" fill-rule="evenodd">
        <g id="修改昵称" transform="translate(-343.000000, -100.000000)" fill-rule="nonzero">
            <g id="icon_close3" transform="translate(343.000000, 100.000000)">
                <circle id="椭圆形" fill="#D8D8D8" cx="8" cy="8" r="8"></circle>
                <path d="M9.47759225,8 L11.72567,10.2480777 C12.1161943,10.638602 12.1161943,11.271767 11.72567,11.6622913 L11.6622913,11.72567 C11.271767,12.1161943 10.638602,12.1161943 10.2480777,11.72567 L8,9.47759225 L5.75192228,11.72567 C5.36139799,12.1161943 4.72823301,12.1161943 4.33770872,11.72567 L4.27433003,11.6622913 C3.88380574,11.271767 3.88380574,10.638602 4.27433003,10.2480777 L6.52240775,8 L4.27433003,5.75192228 C3.88380574,5.36139799 3.88380574,4.72823301 4.27433003,4.33770872 L4.33770872,4.27433003 C4.72823301,3.88380574 5.36139799,3.88380574 5.75192228,4.27433003 L8,6.52240775 L10.2480777,4.27433003 C10.638602,3.88380574 11.271767,3.88380574 11.6622913,4.27433003 L11.72567,4.33770872 C12.1161943,4.72823301 12.1161943,5.36139799 11.72567,5.75192228 L9.47759225,8 Z" id="合并形状" fill="#FFFFFF"></path>
            </g>
        </g>
    </g>
</svg>