<?xml version="1.0" encoding="UTF-8"?>
<svg width="21px" height="16px" viewBox="0 0 21 16" version="1.1" xmlns="http://www.w3.org/2000/svg" xmlns:xlink="http://www.w3.org/1999/xlink">
    <!-- Generator: Sketch 52.5 (67469) - http://www.bohemiancoding.com/sketch -->
    <title>icon_payrings copy@2x</title>
    <desc>Created with Sketch.</desc>
    <g id="首页" stroke="none" stroke-width="1" fill="none" fill-rule="evenodd">
        <g id="系统通知" transform="translate(-27.000000, -285.000000)" fill="#FFFFFF" fill-rule="nonzero">
            <g id="唐子凯窗口" transform="translate(0.000000, 256.000000)">
                <g id="icon_payrings-copy" transform="translate(27.000000, 29.000000)">
                    <g id="分组">
                        <g id="icon_notification2">
                            <path d="M6.20798212,14.5769954 L0.508851975,8.8778653 C0.118327683,8.48734101 0.118327683,7.85417603 0.508851975,7.46365174 L0.771522661,7.20098105 C1.16204695,6.81045676 1.79521193,6.81045676 2.18573622,7.20098105 L7.22990346,12.2451483 L18.259093,1.21595876 C18.6496173,0.825434464 19.2827823,0.825434464 19.6733066,1.21595876 L19.9359772,1.47862944 C20.3265015,1.86915373 20.3265015,2.50231871 19.9359772,2.892843 L7.93511682,14.8937034 C7.54459253,15.2842277 6.91142755,15.2842277 6.52090326,14.8937034 L6.25823257,14.6310327 C6.24069483,14.613495 6.22394468,14.5954679 6.20798212,14.5769954 Z" id="合并形状"></path>
                        </g>
                    </g>
                </g>
            </g>
        </g>
    </g>
</svg>