<?xml version="1.0" encoding="UTF-8"?>
<svg width="40px" height="40px" viewBox="0 0 40 40" version="1.1" xmlns="http://www.w3.org/2000/svg" xmlns:xlink="http://www.w3.org/1999/xlink">
    <!-- Generator: Sketch 52.5 (67469) - http://www.bohemiancoding.com/sketch -->
    <title>icon_qunzhu@2x</title>
    <desc>Created with Sketch.</desc>
    <g id="首页" stroke="none" stroke-width="1" fill="none" fill-rule="evenodd">
        <g id="通讯录" transform="translate(-16.000000, -184.000000)" fill-rule="nonzero">
            <g id="分组-2" transform="translate(0.000000, 176.000000)">
                <g id="icon_qunzhu" transform="translate(16.000000, 8.000000)">
                    <circle id="椭圆形-copy" fill="#00AB9F" cx="20" cy="20" r="20"></circle>
                    <g id="icon_add-group" transform="translate(10.900000, 10.684000)">
                        <path d="M13.4145373,6.98299668 C13.7600601,6.8276426 14.0722818,6.61139957 14.3375382,6.34793179 C14.9080879,5.78122938 15.2613514,4.99604037 15.2613514,4.12834225 C15.2613514,2.40060653 13.8607449,1 12.1330092,1 C11.308673,1 10.5588055,1.31883811 10,1.83992093" id="形状" stroke="#FFFFFF"></path>
                        <path d="M13.4862754,9.6 L15.9367422,14.8324557 C16.0149015,14.8200225 16.092327,14.8028342 16.1685817,14.7809504 C17.2047986,14.4835741 17.8037473,13.4024832 17.5063709,12.3662663 C17.0363537,10.7284767 15.5384729,9.6 13.8345741,9.6 L13.4862754,9.6 Z" id="路径" stroke="#FFFFFF"></path>
                        <circle id="椭圆形" fill="#FFFFFF" cx="7.46363636" cy="4.40690909" r="4.09090909"></circle>
                        <path d="M5.28254583,10.1341818 L9.27505001,10.1341818 C11.7948707,10.1341818 14.0100204,11.8030361 14.7051082,14.2250909 L14.7051082,14.2250909 C15.1935963,15.9272424 14.2097276,17.7031067 12.5075761,18.1915947 C12.2199955,18.2741254 11.922279,18.316 11.6230902,18.316 L3.45721298,18.316 C1.60185748,18.316 0.0977946668,16.8119372 0.0977946668,14.9565817 C0.0977946668,14.7105353 0.124825353,14.4652336 0.178400291,14.2250909 L0.178400291,14.2250909 C0.71175967,11.8343765 2.83305866,10.1341818 5.28254583,10.1341818 Z" id="矩形" fill="#FFFFFF"></path>
                    </g>
                </g>
            </g>
        </g>
    </g>
</svg>