<?xml version="1.0" encoding="UTF-8"?>
<svg width="20px" height="21px" viewBox="0 0 20 21" version="1.1" xmlns="http://www.w3.org/2000/svg" xmlns:xlink="http://www.w3.org/1999/xlink">
    <!-- Generator: Sketch 52.5 (67469) - http://www.bohemiancoding.com/sketch -->
    <title>icon_add friend@2x</title>
    <desc>Created with Sketch.</desc>
    <g id="首页" stroke="none" stroke-width="1" fill="none" fill-rule="evenodd">
        <g id="首页“+”" transform="translate(-252.000000, -160.000000)" fill="#FFFFFF" fill-rule="nonzero">
            <g id="展开栏" transform="translate(228.000000, 59.000000)">
                <g id="icon_add-friend" transform="translate(24.000000, 101.000000)">
                    <ellipse id="椭圆形" cx="8.18181818" cy="4.54642624" rx="4.54545455" ry="4.54642624"></ellipse>
                    <path d="M5.75933264,10.911423 L10.193566,10.911423 C12.9938866,10.911423 15.4555874,12.7661339 16.227898,15.4578492 L16.227898,15.4578492 C16.7706945,17.3496445 15.6771149,19.3232712 13.7853196,19.8660676 C13.4657634,19.9577551 13.1349492,20.0042755 12.8024996,20.0042755 L3.73118503,20.0042755 C1.66916316,20.0042755 -0.00243585481,18.3326765 -0.00243585481,16.2706546 C-0.00243585481,15.9972581 0.0275932982,15.7246886 0.0871114341,15.4578492 L0.0871114341,15.4578492 C0.679726908,12.8009592 3.03715383,10.911423 5.75933264,10.911423 Z" id="矩形"></path>
                    <path d="M16.5,6.57416951 L16.5,4.57363508 C16.5,4.2974927 16.7238576,4.07363508 17,4.07363508 C17.2761424,4.07363508 17.5,4.2974927 17.5,4.57363508 L17.5,6.57416951 L19.4998931,6.57416951 C19.7760945,6.57416951 20,6.79807499 20,7.0742764 C20,7.3504778 19.7760945,7.57438328 19.4998931,7.57438328 L17.5,7.57438328 L17.5,9.57491772 C17.5,9.85106009 17.2761424,10.0749177 17,10.0749177 C16.7238576,10.0749177 16.5,9.85106009 16.5,9.57491772 L16.5,7.57438328 L14.5001069,7.57438328 C14.2239055,7.57438328 14,7.3504778 14,7.0742764 C14,6.79807499 14.2239055,6.57416951 14.5001069,6.57416951 L16.5,6.57416951 Z" id="添加"></path>
                </g>
            </g>
        </g>
    </g>
</svg>