<?xml version="1.0" encoding="UTF-8"?>
<svg width="21px" height="23px" viewBox="0 0 21 23" version="1.1" xmlns="http://www.w3.org/2000/svg" xmlns:xlink="http://www.w3.org/1999/xlink">
    <!-- Generator: Sketch 52.5 (67469) - http://www.bohemiancoding.com/sketch -->
    <title>icon_share@2x</title>
    <desc>Created with Sketch.</desc>
    <g id="首页" stroke="none" stroke-width="1" fill="none" fill-rule="evenodd">
        <g id="首页“+”" transform="translate(-251.000000, -197.000000)" fill-rule="nonzero">
            <g id="展开栏" transform="translate(228.000000, 59.000000)">
                <g id="icon_share" transform="translate(24.000000, 139.000000)">
                    <path d="M18.7573029,15.5711991 C18.7573029,16.22976 18.7573029,17.0406429 18.7573029,18.0038479 C18.7573029,19.1086535 17.9194732,20.0042755 16.8859579,20.0042755 L1.91519766,20.0042755 C0.881682339,20.0042755 0.0438526316,19.1086535 0.0438526316,18.0038479 L0.0438526316,2.00042755 C0.0438526316,0.895621919 0.881682339,0 1.91519766,0 L3.79979196,0" id="路径" stroke="#FFFFFF" stroke-width="2" stroke-linecap="round"></path>
                    <path d="M12.0592657,8.693513 C9.1897854,9.61414927 7.08779837,12.59966 7.08779837,16.1405113 C7.08779837,16.1748842 7.08799645,16.2092048 7.0883914,16.2434717 C5.95569142,14.8624543 5.26315789,13.0130021 5.26315789,10.9805838 C5.26315789,6.79953256 8.19395417,3.39279163 11.8584461,3.24564626 L11.7827216,1.19138063 C11.7623771,0.639470729 12.1932959,0.175566843 12.7452058,0.155222306 C12.9828587,0.146461931 13.2158546,0.222683593 13.4023806,0.370208759 L19.5624846,5.24229224 C19.9956608,5.5848953 20.0690848,6.21378861 19.7264817,6.64696478 C19.6575259,6.73415022 19.5745163,6.80922859 19.480867,6.86911187 L13.6380793,10.6052354 C13.1727878,10.9027623 12.5544012,10.7667622 12.2568743,10.3014707 C12.1607609,10.1511623 12.10661,9.97787731 12.1000379,9.79958763 L12.0592657,8.693513 Z" id="合并形状" fill="#FFFFFF"></path>
                </g>
            </g>
        </g>
    </g>
</svg>