<?xml version="1.0" encoding="UTF-8"?>
<svg width="18px" height="18px" viewBox="0 0 18 18" version="1.1" xmlns="http://www.w3.org/2000/svg" xmlns:xlink="http://www.w3.org/1999/xlink">
    <!-- Generator: Sketch 52.5 (67469) - http://www.bohemiancoding.com/sketch -->
    <title>icon_search@2x</title>
    <desc>Created with Sketch.</desc>
    <g id="首页" stroke="none" stroke-width="1" fill="none" fill-rule="evenodd">
        <g id="首页-新增系统通知" transform="translate(-341.000000, -33.000000)" fill="#D8D8D8" fill-rule="nonzero" stroke="#979797" stroke-width="3">
            <path d="M357.679241,42.2142857 L358.5,42.2142857 C358.266424,42.2142857 358.051553,42.1342045 357.881343,42 C358.051553,41.8657955 358.266424,41.7857143 358.5,41.7857143 L357.679241,41.7857143 C357.566259,41.6237381 357.5,41.4267497 357.5,41.2142857 L357.5,41.7857143 L342.5,41.7857143 L342.5,41.2142857 C342.5,41.4267497 342.433741,41.6237381 342.320759,41.7857143 L341.5,41.7857143 C341.733576,41.7857143 341.948447,41.8657955 342.118657,42 C341.948447,42.1342045 341.733576,42.2142857 341.5,42.2142857 L342.320759,42.2142857 C342.433741,42.3762619 342.5,42.5732503 342.5,42.7857143 L342.5,42.2142857 L357.5,42.2142857 L357.5,42.7857143 C357.5,42.5732503 357.566259,42.3762619 357.679241,42.2142857 Z M349.785714,34.5 L349.785714,49.5 L349.214286,49.5 C349.42675,49.5 349.623738,49.5662593 349.785714,49.6792413 L349.785714,50.5 C349.785714,50.2664244 349.865796,50.0515527 350,49.8813431 C350.134204,50.0515527 350.214286,50.2664244 350.214286,50.5 L350.214286,49.6792413 C350.376262,49.5662593 350.57325,49.5 350.785714,49.5 L350.214286,49.5 L350.214286,34.5 L350.785714,34.5 C350.57325,34.5 350.376262,34.4337407 350.214286,34.3207587 L350.214286,33.5 C350.214286,33.7335756 350.134204,33.9484473 350,34.1186569 C349.865796,33.9484473 349.785714,33.7335756 349.785714,33.5 L349.785714,34.3207587 C349.623738,34.4337407 349.42675,34.5 349.214286,34.5 L349.785714,34.5 Z" id="icon_search"></path>
        </g>
    </g>
</svg>