<?xml version="1.0" encoding="UTF-8"?>
<svg width="17px" height="18px" viewBox="0 0 17 18" version="1.1" xmlns="http://www.w3.org/2000/svg" xmlns:xlink="http://www.w3.org/1999/xlink">
    <!-- Generator: Sketch 52.5 (67469) - http://www.bohemiancoding.com/sketch -->
    <title>icon_search@2x</title>
    <desc>Created with Sketch.</desc>
    <g id="聊天" stroke="none" stroke-width="1" fill="none" fill-rule="evenodd">
        <g id="所在位置" transform="translate(-126.000000, -79.000000)" fill="#ADADAD" fill-rule="nonzero">
            <g id="Search" transform="translate(16.000000, 72.000000)">
                <g id="icon_search" transform="translate(110.000000, 7.000000)">
                    <path d="M14.4040449,11.7121722 L14.5744149,11.701443 C15.0774714,11.6697625 15.5109614,12.0518882 15.542642,12.5549447 C15.5452149,12.5958 15.5450361,12.6367821 15.5421069,12.6776135 L15.2466768,16.7957414 C15.2108665,17.2949166 14.8115602,17.6907547 14.3120917,17.7222093 L14.1417217,17.7329385 C13.6386652,17.7646191 13.2051752,17.3824933 13.1734946,16.8794368 C13.1709217,16.8385815 13.1711005,16.7975994 13.1740297,16.756768 L13.4694598,12.6386401 C13.5052701,12.139465 13.9045764,11.7436268 14.4040449,11.7121722 Z" id="矩形" transform="translate(14.358068, 14.717191) rotate(-50.000000) translate(-14.358068, -14.717191) "></path>
                    <path d="M7.83157895,15.65 C3.68944332,15.65 0.331578947,12.2249783 0.331578947,8 C0.331578947,3.77502166 3.68944332,0.35 7.83157895,0.35 C11.9737146,0.35 15.3315789,3.77502166 15.3315789,8 C15.3315789,12.2249783 11.9737146,15.65 7.83157895,15.65 Z M7.83157895,14.35 C11.2698222,14.35 14.0570691,11.5070082 14.0570691,8 C14.0570691,4.49299184 11.2698222,1.65 7.83157895,1.65 C4.39333565,1.65 1.60608875,4.49299184 1.60608875,8 C1.60608875,11.5070082 4.39333565,14.35 7.83157895,14.35 Z" id="椭圆形"></path>
                </g>
            </g>
        </g>
    </g>
</svg>