<?xml version="1.0" encoding="UTF-8"?>
<svg width="39px" height="40px" viewBox="0 0 39 40" version="1.1" xmlns="http://www.w3.org/2000/svg" xmlns:xlink="http://www.w3.org/1999/xlink">
    <!-- Generator: Sketch 52.5 (67469) - http://www.bohemiancoding.com/sketch -->
    <title>App_icon_education@2x</title>
    <desc>Created with Sketch.</desc>
    <g id="首页" stroke="none" stroke-width="1" fill="none" fill-rule="evenodd">
        <g id="应用" transform="translate(-52.000000, -366.000000)" fill="#FFA700" fill-rule="nonzero">
            <g id="App_icon_education" transform="translate(52.000000, 366.000000)">
                <path d="M19.3146985,0.364854222 L0.783052932,9.42855533 C0.58464078,9.52559645 0.50246332,9.76510865 0.599504439,9.9635208 C0.623229035,10.0120286 0.656531364,10.0552294 0.697403518,10.0905186 C9.53908567,17.7244647 16.169201,21.5414377 20.5877495,21.5414377 C25.0031984,21.5414377 31.1165121,17.9174762 38.9276905,10.6695533 L38.9277106,10.6695749 C39.0896617,10.5193019 39.0991287,10.2661942 38.9488557,10.104243 C38.91646,10.0693298 38.8780899,10.0404824 38.8355521,10.0190592 L19.670362,0.366928748 C19.5586523,0.310668562 19.4270569,0.309900989 19.3146985,0.364854222 Z" id="路径-4"></path>
                <path d="M9.20440881,22.4782648 L9.45811085,33.8844627 C9.46095311,34.0122067 9.52464136,34.1309093 9.62950788,34.2039136 C15.702809,38.4319284 19.8086034,40.1899958 21.9468912,39.4781157 C24.0707175,38.7710501 26.7602895,37.1698707 30.0156071,34.6745775 L30.0156223,34.6745974 C30.1143808,34.5988962 30.1722872,34.4815481 30.1722872,34.3571138 L30.1721975,21.7735103 C30.1721975,21.5526459 29.9931515,21.3736 29.7722872,21.3736 C29.6777572,21.3736 29.5862832,21.4070861 29.5140949,21.4681171 C25.7196635,24.6760886 22.8341224,26.2800744 20.8574717,26.2800744 C18.842214,26.2800744 15.1524684,24.8914336 9.78823475,22.1141521 L9.78824205,22.114138 C9.59205462,22.0125638 9.35067114,22.089263 9.24909694,22.2854504 C9.21828449,22.3449637 9.20291808,22.4112647 9.20440881,22.4782648 Z" id="路径-9"></path>
                <path d="M36.7361412,19.7941855 L37.3793277,20.4846774 L35.0756314,22.9578069 L32.7719351,20.4846774 L34.5641955,18.5605992 L34.5641955,10.6379032 L36.7361412,10.6379032 L36.7361412,19.7941855 Z" id="合并形状"></path>
            </g>
        </g>
    </g>
</svg>