<?xml version="1.0" encoding="UTF-8"?>
<svg width="40px" height="40px" viewBox="0 0 40 40" version="1.1" xmlns="http://www.w3.org/2000/svg" xmlns:xlink="http://www.w3.org/1999/xlink">
    <!-- Generator: Sketch 52.5 (67469) - http://www.bohemiancoding.com/sketch -->
    <title>App_icon_cishan@2x</title>
    <desc>Created with Sketch.</desc>
    <g id="首页" stroke="none" stroke-width="1" fill="none" fill-rule="evenodd">
        <g id="应用" transform="translate(-168.000000, -366.000000)" fill-rule="nonzero">
            <g id="App_icon_cishan" transform="translate(168.000000, 366.000000)">
                <path d="M20.6815649,39.394569 C20.3250401,39.5882094 19.870968,39.5517786 19.5471084,39.2696086 L19.5471191,39.2695963 C17.2700338,37.2856346 15.185527,35.336574 13.2935986,33.4224145 C9.78094115,29.8684815 3.3296551,21.7931678 1.64026199,17.4322003 C-0.0491311246,13.0712328 0.401350762,7.37691935 3.3296551,4.34929779 C6.25795943,1.32167622 9.69765879,-0.432222008 14.1560185,0.364520509 C16.5958395,0.800534934 18.6159358,1.97963306 20.2163075,3.9018149 C21.81955,1.9666987 23.8457035,0.78030743 26.2947682,0.3426411 C30.7531279,-0.454101418 34.1928272,1.29979681 37.1211315,4.32741838 C40.0494359,7.35503994 40.4999178,13.0493534 38.8105247,17.4103209 C37.1211315,21.7712884 30.6698455,29.8466021 27.157188,33.4005351 C25.2652596,35.3146946 23.1807528,37.2637552 20.9036675,39.2477169 L20.9036783,39.2477292 C20.8348,39.307741 20.7600318,39.3566373 20.6815649,39.394569 Z" id="合并形状" fill="#00AB9F"></path>
                <path d="M15.7575758,20 C15.7575758,22.7614237 17.9283164,25 20.6060606,25 C23.2838048,25 25.4545455,22.7614237 25.4545455,20" id="路径" stroke="#FFFFFF" stroke-linecap="round"></path>
            </g>
        </g>
    </g>
</svg>