<?xml version="1.0" encoding="UTF-8"?>
<svg width="32px" height="32px" viewBox="0 0 32 32" version="1.1" xmlns="http://www.w3.org/2000/svg" xmlns:xlink="http://www.w3.org/1999/xlink">
    <!-- Generator: Sketch 52.5 (67469) - http://www.bohemiancoding.com/sketch -->
    <title>App_icon_education@2x</title>
    <desc>Created with Sketch.</desc>
    <g id="首页" stroke="none" stroke-width="1" fill="none" fill-rule="evenodd">
        <g id="应用-更新" transform="translate(-56.000000, -368.000000)" fill="#FFA700" fill-rule="nonzero">
            <g id="App_icon_education" transform="translate(56.000000, 368.000000)">
                <path d="M15.4160894,0.309328838 L0.735428226,7.48937864 C0.536936371,7.58645874 0.454725901,7.82606715 0.551806002,8.02455901 C0.575603939,8.07321673 0.60903436,8.11653543 0.650071,8.1518895 C7.67735138,14.2060633 12.9507276,17.2331502 16.4701996,17.2331502 C19.9865606,17.2331502 24.8489378,14.3601823 31.0573312,8.61424656 L31.0573311,8.61424646 C31.2194626,8.46419207 31.2292529,8.21111547 31.0791985,8.04898405 C31.0467331,8.01390565 31.0082435,7.98492982 30.9655552,7.96343079 L15.771753,0.311403364 C15.6600433,0.255143178 15.5284479,0.254375604 15.4160894,0.309328838 Z" id="路径-4"></path>
                <path d="M7.36652448,18.1173298 L7.56567512,27.0670162 C7.5685184,27.1948062 7.63226692,27.3135408 7.73721235,27.3865122 C12.5773961,30.7520225 15.8508297,32.1506826 17.557513,31.5824926 C19.2497045,31.0191271 21.39084,29.746243 23.9809196,27.7638402 L23.9809353,27.7638607 C24.0798293,27.688169 24.1378297,27.570737 24.1378297,27.4462009 L23.8915849,17.2688231 C23.8915849,17.1839065 23.8227464,17.115068 23.7378297,17.115068 C23.701445,17.115068 23.6662392,17.1279712 23.6384717,17.1514833 C20.5895151,19.7332008 18.272017,21.0240595 16.6859774,21.0240595 C15.088748,21.0240595 12.1767012,19.9336909 7.94983694,17.7529538 L7.94984246,17.752943 C7.75351142,17.6516513 7.51224049,17.7286959 7.41094876,17.9250269 C7.38031106,17.9844112 7.36503808,18.0505245 7.36652448,18.1173298 Z" id="路径-9"></path>
                <path d="M29.3889129,15.8353484 L29.9034622,16.3877419 L28.0605051,18.3662455 L26.2175481,16.3877419 L27.6513564,14.8484794 L27.6513564,8.51032258 L29.3889129,8.51032258 L29.3889129,15.8353484 Z" id="合并形状"></path>
            </g>
        </g>
    </g>
</svg>