<?xml version="1.0" encoding="UTF-8"?>
<svg width="14px" height="14px" viewBox="0 0 14 14" version="1.1" xmlns="http://www.w3.org/2000/svg" xmlns:xlink="http://www.w3.org/1999/xlink">
    <!-- Generator: Sketch 52.5 (67469) - http://www.bohemiancoding.com/sketch -->
    <title>icon_close2@2x</title>
    <desc>Created with Sketch.</desc>
    <g id="钱包" stroke="none" stroke-width="1" fill="none" fill-rule="evenodd">
        <g id="提现" transform="translate(-343.000000, -141.000000)" fill="#D8D8D8" fill-rule="nonzero" stroke="#979797">
            <path d="M357.977922,147.477922 L349.977922,147.477922 L349.977922,139.477922 C349.977922,139.339851 349.865993,139.227922 349.727922,139.227922 C349.589851,139.227922 349.477922,139.339851 349.477922,139.477922 L349.477922,147.477922 L341.477922,147.477922 C341.339851,147.477922 341.227922,147.589851 341.227922,147.727922 C341.227922,147.865993 341.339851,147.977922 341.477922,147.977922 L349.477922,147.977922 L349.477922,155.977922 C349.477922,156.115993 349.589851,156.227922 349.727922,156.227922 C349.865993,156.227922 349.977922,156.115993 349.977922,155.977922 L349.977922,147.977922 L357.977922,147.977922 C358.115993,147.977922 358.227922,147.865993 358.227922,147.727922 C358.227922,147.589851 358.115993,147.477922 357.977922,147.477922 Z" id="icon_close2" transform="translate(349.727922, 147.727922) rotate(-45.000000) translate(-349.727922, -147.727922) "></path>
        </g>
    </g>
</svg>