<?xml version="1.0" encoding="UTF-8"?>
<svg width="108px" height="108px" viewBox="0 0 108 108" version="1.1" xmlns="http://www.w3.org/2000/svg" xmlns:xlink="http://www.w3.org/1999/xlink">
    <!-- Generator: Sketch 53 (72520) - https://sketchapp.com -->
    <title>mdpi/icon_white prospect</title>
    <desc>Created with Sketch.</desc>
    <g id="ATMEX移动端" stroke="none" stroke-width="1" fill="none" fill-rule="evenodd">
        <g id="安卓桌面图标" transform="translate(-124.000000, -294.000000)">
            <g id="ATMEX_256" transform="translate(123.000000, 293.000000)">
                <g id="qdicon1024-copy" transform="translate(1.000000, 1.000000)"></g>
                <g id="icon_prospect" transform="translate(0.925641, 0.330170)" fill="#FFFFFF">
                    <g id="icon_white-prospect" transform="translate(29.000000, 33.000000)">
                        <g id="分组" transform="translate(21.631547, 0.152200)">
                            <path d="M27.5193422,42.1802303 L3.76576,1.03780757 C3.21756593,0.0883580484 1.99216803,-0.240012731 1.04291339,0.308181336 C0.093463873,0.856375403 -0.234906907,2.0817733 0.313287161,3.03122282 L22.2079205,40.9540529 L27.5193422,42.1802303 Z" id="Fill-1"></path>
                        </g>
                        <path d="M4.89313386,41.1349978 L9.28920986,32.9875049 C9.80973114,32.0228549 9.44628217,30.8073958 8.48143723,30.2866796 C7.51659228,29.7661583 6.30132808,30.1296073 5.78061192,31.0946471 L0.235530519,41.3715807 C0.0556573856,41.7048235 -0.0164477708,42.0676878 0.0030401093,42.4217826 L4.89313386,41.1349978 Z" id="Fill-3"></path>
                        <path d="M36.0780294,39.1378604 L22.1358153,9.77780999 C21.6655728,8.78743592 20.4705759,8.3620155 19.4802019,8.83225805 C18.4898278,9.30250059 18.0642125,10.4974974 18.5346499,11.4878715 L31.0061137,37.7507131 L36.0780294,39.1378604 Z" id="Fill-5"></path>
                        <path d="M24.2328476,35.8975326 L18.8387973,16.7150276 C18.5419969,15.659564 17.4356699,15.038875 16.3802063,15.3356754 C15.3249376,15.6324759 14.7040538,16.7388028 15.0008542,17.7942664 L20.4219927,37.072262 L24.2328476,35.8975326 Z" id="Fill-7"></path>
                        <path d="M14.9348098,38.365965 L14.9348098,23.5982443 C14.9348098,22.5018562 14.0377826,21.604829 12.9413945,21.604829 C11.8452012,21.604829 10.9481741,22.5018562 10.9481741,23.5982443 L10.9481741,39.6161125 L14.9348098,38.365965 Z" id="Fill-9"></path>
                    </g>
                </g>
            </g>
        </g>
    </g>
</svg>