<?xml version="1.0" encoding="UTF-8"?>
<svg width="107px" height="92px" viewBox="0 0 107 92" version="1.1" xmlns="http://www.w3.org/2000/svg" xmlns:xlink="http://www.w3.org/1999/xlink">
    <!-- Generator: Sketch 53 (72520) - https://sketchapp.com -->
    <title>icon_prospect@2x</title>
    <desc>Created with Sketch.</desc>
    <defs>
        <rect id="path-1" x="0" y="0" width="108" height="108"></rect>
        <polygon id="path-3" points="0.103609464 0.0925830208 59.6981237 0.0925830208 59.6981237 91.5022092 0.103609464 91.5022092"></polygon>
    </defs>
    <g id="ATMEX移动端" stroke="none" stroke-width="1" fill="none" fill-rule="evenodd">
        <g id="安卓桌面图标" transform="translate(-134.000000, -303.000000)">
            <g id="ATMEX_256" transform="translate(133.000000, 295.000000)">
                <g id="icon_prospect" transform="translate(0.925641, 0.330170)">
                    <mask id="mask-2" fill="white">
                        <use xlink:href="#path-1"></use>
                    </mask>
                    <g id="矩形"></g>
                    <g id="icon_white-prospect" mask="url(#mask-2)">
                        <g transform="translate(0.074359, 7.669830)">
                            <g id="分组" stroke-width="1" fill="none" transform="translate(46.925641, 0.330170)">
                                <mask id="mask-4" fill="white">
                                    <use xlink:href="#path-3"></use>
                                </mask>
                                <g id="Clip-2"></g>
                                <path d="M59.6981237,91.5022092 L8.16911991,2.25133159 C6.97991426,0.191676446 4.32164013,-0.520663235 2.26240774,0.668542416 C0.202752588,1.85774807 -0.509587093,4.5160222 0.679618558,6.57567735 L48.1759765,88.842244 L59.6981237,91.5022092 Z" id="Fill-1" fill="#FFFFFF" mask="url(#mask-4)"></path>
                            </g>
                            <path d="M10.614749,89.2347707 L20.1512229,71.5602915 C21.2803976,69.4676616 20.4919623,66.8309479 18.3989096,65.7013505 C16.3058569,64.5721758 13.669566,65.3606111 12.5399686,67.4540866 L0.510939904,89.7479934 C0.120738405,90.470902 -0.0356803971,91.258069 0.00659495491,92.0262122 L10.614749,89.2347707 Z" id="Fill-3" fill="#FFFFFF"></path>
                            <path d="M78.2646128,84.9023503 L48.0195577,21.2111505 C46.9994535,19.0627172 44.4071289,18.1398462 42.2586955,19.1599505 C40.1102621,20.1800547 39.1869684,22.7723793 40.2074954,24.9208127 L67.2620297,81.8931908 L78.2646128,84.9023503 Z" id="Fill-5" fill="#FFFFFF"></path>
                            <path d="M52.5686815,77.8730584 L40.8672868,36.2601612 C40.2234332,33.9705282 37.8234615,32.6240582 35.5338284,33.2679118 C33.2446181,33.9117654 31.8977254,36.3117372 32.541579,38.6013702 L44.3017364,80.4214167 L52.5686815,77.8730584 Z" id="Fill-7" fill="#FFFFFF"></path>
                            <path d="M32.3983078,83.2278659 L32.3983078,51.1920269 C32.3983078,48.8136156 30.4523734,46.8676812 28.0739621,46.8676812 C25.6959735,46.8676812 23.7500391,48.8136156 23.7500391,51.1920269 L23.7500391,85.9398297 L32.3983078,83.2278659 Z" id="Fill-9" fill="#FFFFFF"></path>
                        </g>
                    </g>
                </g>
            </g>
        </g>
    </g>
</svg>