<?xml version="1.0" encoding="UTF-8"?>
<svg width="58px" height="50px" viewBox="0 0 58 50" version="1.1" xmlns="http://www.w3.org/2000/svg" xmlns:xlink="http://www.w3.org/1999/xlink">
    <!-- Generator: Sketch 53 (72520) - https://sketchapp.com -->
    <title>icon_white prospect@2x</title>
    <desc>Created with Sketch.</desc>
    <defs>
        <polygon id="path-1" points="0.056077379 0.0501094488 32.3108929 0.0501094488 32.3108929 49.5244724 0.056077379 49.5244724"></polygon>
    </defs>
    <g id="ATMEX移动端" stroke="none" stroke-width="1" fill="none" fill-rule="evenodd">
        <g id="安卓桌面图标" transform="translate(-159.000000, -324.000000)">
            <g id="ATMEX_256" transform="translate(134.000000, 295.000000)">
                <g id="icon_white-prospect" transform="translate(25.000000, 29.000000)">
                    <g id="分组" transform="translate(25.397940, 0.178701)">
                        <mask id="mask-2" fill="white">
                            <use xlink:href="#path-1"></use>
                        </mask>
                        <g id="Clip-2"></g>
                        <path d="M32.3108929,49.5244724 L4.4214381,1.2185062 C3.77779482,0.103742576 2.33903585,-0.281802726 1.22450103,0.361840558 C0.109737405,1.00548384 -0.275807897,2.44424281 0.367835387,3.55900644 L26.074669,48.0847982 L32.3108929,49.5244724 Z" id="Fill-1" fill="#FFFFFF" mask="url(#mask-2)"></path>
                    </g>
                    <path d="M5.7451055,48.2972486 L10.9066075,38.7311489 C11.5177598,37.598538 11.0910286,36.1714484 9.95818897,35.5600674 C8.82534934,34.9489151 7.3984885,35.3756463 6.78710747,36.5087147 L0.27654009,48.5750242 C0.0653482126,48.9662898 -0.0193115866,49.3923345 0.00356944019,49.8080828 L5.7451055,48.2972486 Z" id="Fill-3" fill="#FFFFFF"></path>
                    <path d="M42.3597823,45.952378 L25.9900092,11.4802806 C25.4378901,10.3174669 24.0348255,9.81797404 22.8720117,10.3700932 C21.7091979,10.9222124 21.2094763,12.325277 21.7618243,13.4880907 L36.4047662,44.3237066 L42.3597823,45.952378 Z" id="Fill-5" fill="#FFFFFF"></path>
                    <path d="M28.4521679,42.1478582 L22.1189285,19.625377 C21.7704504,18.3861406 20.4714945,17.6573799 19.2322581,18.005858 C17.9932505,18.354336 17.264261,19.6532919 17.612739,20.8925283 L23.9777831,43.5271265 L28.4521679,42.1478582 Z" id="Fill-7" fill="#FFFFFF"></path>
                    <path d="M17.5351952,45.0460835 L17.5351952,27.7070701 C17.5351952,26.4197836 16.4819816,25.3665699 15.194695,25.3665699 C13.9076373,25.3665699 12.8544236,26.4197836 12.8544236,27.7070701 L12.8544236,46.5139013 L17.5351952,45.0460835 Z" id="Fill-9" fill="#FFFFFF"></path>
                </g>
            </g>
        </g>
    </g>
</svg>