<?xml version="1.0" encoding="UTF-8"?>
<svg width="108px" height="108px" viewBox="0 0 108 108" version="1.1" xmlns="http://www.w3.org/2000/svg" xmlns:xlink="http://www.w3.org/1999/xlink">
    <!-- Generator: Sketch 53 (72520) - https://sketchapp.com -->
    <title>mdpi/icon_white prospect</title>
    <desc>Created with Sketch.</desc>
    <g id="ATMEX移动端" stroke="none" stroke-width="1" fill="none" fill-rule="evenodd">
        <g id="安卓桌面图标" transform="translate(-124.000000, -294.000000)">
            <g id="ATMEX_256" transform="translate(123.000000, 293.000000)">
                <g id="qdicon1024-copy" transform="translate(1.000000, 1.000000)"></g>
                <g id="icon_prospect" transform="translate(0.925641, 0.330170)" fill="#FFFFFF">
                    <g id="icon_white-prospect" transform="translate(20.000000, 25.000000)">
                        <g id="分组" transform="translate(29.418904, 0.206992)">
                            <path d="M37.4263054,57.3651132 L5.1214336,1.41141829 C4.37588967,0.120166946 2.70934852,-0.326417315 1.41836221,0.419126617 C0.127110867,1.16467055 -0.319473393,2.83121169 0.426070538,4.12246304 L30.2027718,55.6975119 L37.4263054,57.3651132 Z" id="Fill-1"></path>
                        </g>
                        <path d="M6.65466206,55.9435971 L12.6333254,44.8630067 C13.3412343,43.5510826 12.8469438,41.8980583 11.5347546,41.1898843 C10.2225655,40.4819754 8.56980619,40.9762659 7.86163222,42.2887201 L0.320321506,56.2653498 C0.0756940444,56.7185599 -0.0223689683,57.2120554 0.00413454864,57.6936243 L6.65466206,55.9435971 Z" id="Fill-3"></path>
                        <path d="M49.0661199,53.2274901 L30.1047088,13.2978216 C29.465179,11.9509129 27.8399833,11.3723411 26.4930746,12.0118709 C25.1461658,12.6514008 24.567329,14.2765965 25.2071239,15.6235052 L42.1683146,51.3409698 L49.0661199,53.2274901 Z" id="Fill-5"></path>
                        <path d="M32.9566728,48.8206444 L25.6207643,22.7324375 C25.2171157,21.2970071 23.7125111,20.45287 22.2770806,20.8565186 C20.8419152,21.2601672 19.9975131,22.7647718 20.4011617,24.2002023 L27.77391,50.4182764 L32.9566728,48.8206444 Z" id="Fill-7"></path>
                        <path d="M20.3113413,52.1777123 L20.3113413,32.0936122 C20.3113413,30.6025244 19.0913844,29.3825675 17.6002965,29.3825675 C16.1094737,29.3825675 14.8895168,30.6025244 14.8895168,32.0936122 L14.8895168,53.877913 L20.3113413,52.1777123 Z" id="Fill-9"></path>
                    </g>
                </g>
            </g>
        </g>
    </g>
</svg>