<?xml version="1.0" encoding="UTF-8"?>
<svg width="146px" height="28px" viewBox="0 0 146 28" version="1.1" xmlns="http://www.w3.org/2000/svg" xmlns:xlink="http://www.w3.org/1999/xlink">
    <!-- Generator: Sketch 52.5 (67469) - http://www.bohemiancoding.com/sketch -->
    <title>fbook@2x</title>
    <desc>Created with Sketch.</desc>
    <defs>
        <polygon id="path-1" points="0.00256097561 0.0273170732 27.9726402 0.0273170732 27.9726402 27.9999573 0.00256097561 27.9999573"></polygon>
    </defs>
    <g id="Page-1" stroke="none" stroke-width="1" fill="none" fill-rule="evenodd">
        <g id="快捷+邮箱登录" transform="translate(-85.000000, -333.000000)">
            <g id="fb登录" transform="translate(40.000000, 325.000000)">
                <g id="fbook" transform="translate(45.000000, 8.000000)">
                    <g id="Group-3">
                        <mask id="mask-2" fill="white">
                            <use xlink:href="#path-1"></use>
                        </mask>
                        <g id="Clip-2"></g>
                        <path d="M25.1754146,27.9999573 L2.79722561,27.9999573 C1.25880488,27.9999573 0,26.7411524 0,25.2027317 L0,2.82454268 C0,1.28612195 1.25880488,0.0273170732 2.79722561,0.0273170732 L25.1754146,0.0273170732 C26.7138354,0.0273170732 27.9726402,1.28612195 27.9726402,2.82454268 L27.9726402,25.2027317 C27.9726402,26.7411524 26.7138354,27.9999573 25.1754146,27.9999573 Z" id="Fill-1" fill="#FFFFFF" mask="url(#mask-2)"></path>
                        <path d="M18.8116463,4.11839024 C18.059872,4.11839024 17.3430976,4.2057622 16.5039512,4.53787805 C14.7906159,5.23732317 13.9164695,6.86307317 13.9164695,9.41572561 L13.9164695,11.8981646 L11.5212317,11.8981646 L11.5212317,16.0417378 L13.9164695,16.0417378 L13.9164695,27.9999573 L18.8116463,27.9999573 L18.8116463,16.0417378 L22.1509451,16.0417378 L22.6054329,11.8981646 L18.829189,11.8981646 L18.829189,10.027628 C18.829189,9.45055488 18.8815183,9.03106707 19.0389329,8.78632317 C19.2486768,8.41916463 19.6683354,8.24429268 20.3325671,8.24429268 L22.5529329,8.24429268 L22.5529329,4.11839024 L18.8116463,4.11839024 Z" id="Fill-4" fill="#3C5A9A" mask="url(#mask-2)"></path>
                    </g>
                    <path d="M93.9033041,14.0603258 L93.9033041,20.8731542 C94.4308517,20.9242046 94.9608979,20.9452718 95.4908127,20.9362242 C97.6566562,20.9362242 97.9509919,19.9479864 97.9509919,18.5706764 L97.9509919,15.3008964 C97.9509919,14.2495885 97.6146271,13.461055 96.1111506,13.461055 C95.338766,13.4872509 94.5830036,13.6924259 93.9033041,14.0603258 Z M79.9516976,14.9329965 L79.9516976,15.5007322 L83.6314856,15.5007322 L83.6314856,14.9329965 C83.6314856,13.8815834 83.2845214,13.0930499 81.7916442,13.0930499 C80.2986355,13.0930499 79.9516976,13.9131185 79.9516976,14.9329965 Z M55.1921771,21.3882877 C55.9318958,21.3657739 56.6544661,21.1598889 57.2949243,20.7889906 L57.2949243,19.1804149 L55.3183435,19.1804149 C54.3826027,19.1804149 53.9725685,19.3487157 53.9725685,20.1581849 C53.9082623,20.4982582 54.015413,20.8480892 54.2590138,21.0938205 C54.5026936,21.339578 54.8516041,21.4497271 55.1921771,21.3882877 Z M108.044147,15.3008964 L108.044147,19.0227135 C108.044147,20.0741529 108.559281,20.86266 110.062757,20.86266 C111.566128,20.86266 112.081367,20.0426178 112.081367,19.0227135 L112.081367,15.3008964 C112.081367,14.2495885 111.555661,13.461055 110.062757,13.461055 C108.569748,13.461055 108.044147,14.2811236 108.044147,15.3008964 Z M42.2078465,24.3321443 L42.2078465,13.6607856 L40,13.6607856 L40,9.99157076 L42.2078465,9.99157076 L42.2078465,7.7837243 C42.2078465,4.78734435 43.4484171,3 46.9915708,3 L49.9353485,3 L49.9353485,6.67978793 L48.0955071,6.67978793 C46.718197,6.67978793 46.6235657,7.20541556 46.6235657,8.15162419 L46.6235657,9.99157076 L49.9564157,9.99157076 L49.5674486,13.6713587 L46.6130978,13.6713587 L46.6130978,24.3321443 L42.2078465,24.3321443 Z M57.9782534,24.3321443 L57.8731542,23.4279386 C56.5872668,24.1398306 55.137313,24.5022862 53.6677386,24.4792727 C50.9657207,24.4792727 49.5358873,22.6814605 49.5358873,20.1897199 C49.5358873,17.2564363 51.2075594,16.2051022 54.2039393,16.2051022 L57.2528163,16.2051022 L57.2528163,15.6163256 C57.2528163,14.112928 57.0846207,13.6818528 54.771675,13.6818528 L51.0287907,13.6818528 L51.3967958,10.0020649 L55.5180741,10.0020649 C60.58564,10.0020649 61.6895764,11.6001465 61.6895764,15.6478606 L61.6895764,24.3741735 L57.9782534,24.3321443 Z M70.1635564,13.461055 C68.1869756,13.461055 67.5877049,13.9026243 67.5877049,15.5638023 L67.5877049,18.7178836 C67.5877049,20.4000236 68.1869756,20.820552 70.1635564,20.820552 C71.52527,20.790858 72.8809079,20.6288432 74.2112706,20.3369535 L74.2112706,23.9221101 C72.7659458,24.2794369 71.2843518,24.4699358 69.7955513,24.4898458 C65.0539614,24.4898458 63.1719857,21.9981315 63.1719857,18.4024808 L63.1719857,15.8686321 C63.1719857,12.2729814 65.0539614,9.7812671 69.7955513,9.7812671 C71.2843518,9.80151896 72.7658406,9.99199157 74.2112706,10.3490028 L74.2112706,13.9341856 C72.8804871,13.6461885 71.5249544,13.4876717 70.1635564,13.461055 Z M79.9516976,18.4445099 L79.9516976,18.7703807 C79.9516976,20.4526258 80.5509684,20.8731542 82.5275492,20.8731542 C84.2566366,20.8854631 85.9826467,20.7234483 87.6792786,20.3895557 L87.6792786,23.9746334 C85.8722084,24.383826 84.0226093,24.574509 82.1701171,24.5423428 C77.428422,24.5423428 75.5465515,22.0506285 75.5465515,18.4549778 L75.5465515,15.5112 C75.5465515,12.357145 76.9448498,9.79176124 81.802112,9.79176124 C86.6594005,9.79176124 88.0577778,12.3360778 88.0577778,15.5112 L88.0577778,18.4549778 L79.9516976,18.4445099 Z M95.3752456,24.5214071 C93.4105529,24.5085458 91.4509363,24.322071 89.5191199,23.9641392 L89.5191199,4.05133416 L93.9348391,3.31540288 L93.9348391,10.3594706 C95.0007441,9.99588414 96.1204086,9.81466951 97.246622,9.82329627 C101.662341,9.82329627 102.398351,11.7998771 102.398351,14.9750257 L102.398351,18.5601822 C102.356217,21.9875584 101.367979,24.5214071 95.3436843,24.5214071 L95.3752456,24.5214071 Z M110.094292,24.5214071 C104.911028,24.5214071 103.64939,21.6196322 103.64939,18.6126792 L103.64939,15.7004628 C103.64939,12.7040829 104.911028,9.79176124 110.094292,9.79176124 C115.277478,9.79176124 116.518127,12.7040829 116.518127,15.7004628 L116.518127,18.5917172 C116.507554,21.5880972 115.266983,24.4898458 110.083719,24.4898458 L110.094292,24.5214071 Z M124.224562,24.5214071 C119.041403,24.5214071 117.779765,21.6196322 117.779765,18.6126792 L117.779765,15.7004628 C117.779765,12.7040829 119.041403,9.79176124 124.224562,9.79176124 C129.407748,9.79176124 130.648397,12.7040829 130.648397,15.7004628 L130.648397,18.5917172 C130.637824,21.5880972 129.365718,24.4898458 124.214094,24.4898458 L124.224562,24.5214071 Z M140.362974,24.3636793 L136.304687,17.5929064 L136.304687,24.3321443 L131.888968,24.3321443 L131.888968,4.05133416 L136.304687,3.31540288 L136.304687,16.3943649 L140.35248,9.99157076 L145.136099,9.99157076 L140.720406,16.9725685 L145.136099,24.3321443 L140.362974,24.3636793 Z M122.174417,15.3008964 L122.174417,19.0227135 C122.174417,20.0741529 122.68955,20.86266 124.193027,20.86266 C125.696503,20.86266 126.211637,20.0426178 126.211637,19.0122456 L126.211637,15.3008964 C126.211637,14.2495885 125.68593,13.461055 124.182559,13.461055 C122.679083,13.461055 122.174417,14.2811236 122.174417,15.3008964 Z" id="Fill-1" fill="#FFFFFF"></path>
                </g>
            </g>
        </g>
    </g>
</svg>