<?xml version="1.0" encoding="UTF-8"?>
<svg width="112px" height="112px" viewBox="0 0 112 112" version="1.1" xmlns="http://www.w3.org/2000/svg" xmlns:xlink="http://www.w3.org/1999/xlink">
    <!-- Generator: Sketch 52.6 (67491) - http://www.bohemiancoding.com/sketch -->
    <title>qunzu_blank_page@2x</title>
    <desc>Created with Sketch.</desc>
    <g id="首页" stroke="none" stroke-width="1" fill="none" fill-rule="evenodd">
        <g id="群组缺省页" transform="translate(-132.000000, -278.000000)" fill-rule="nonzero">
            <g id="qunzu_blank_page" transform="translate(134.000000, 280.000000)">
                <circle id="椭圆形" stroke="#C6C6C8" stroke-width="3" cx="54" cy="54" r="54"></circle>
                <g id="群组" transform="translate(27.000000, 30.000000)" fill="#C6C6C8">
                    <g id="system-friendsb">
                        <path d="M45.2762426,41.1389077 L45.2760718,40.9003556 C45.2755594,40.1018041 45.2752747,39.456518 45.2752747,39.019666 C45.2752747,38.7085236 45.2478896,38.4029606 45.1942012,38.1024648 L48.9657146,38.1024648 C48.9657146,38.059366 48.9657146,38.012965 48.9656007,37.9628065 L48.9650314,37.1667031 C48.9645759,36.3818157 48.9642912,35.7474609 48.9642912,35.3175548 C48.9642912,33.6216719 45.6503537,31.1326461 40.4880648,28.6694113 C39.1439181,28.0203676 36.1928757,26.8827192 36.0553239,26.8171316 C34.8163906,26.2270142 34.1617673,25.3871289 34.1617673,24.0633643 C34.1617673,23.0452766 34.5353091,22.1796003 35.2292735,21.2549408 C35.4071342,21.0179829 35.5974635,20.7864337 35.861351,20.479789 C35.8130712,20.5359256 36.3414156,19.9263369 36.4802198,19.7616847 C36.756462,19.4340884 36.9693939,19.1606361 37.1559655,18.8883793 C38.6128978,16.7619071 39.0826574,14.398534 39.0826574,11.6687927 C39.0826574,8.31369211 37.9655052,6.14326712 36.0607326,4.81864859 C34.7675415,3.9193245 33.1609305,3.48674255 32.1219482,3.48674255 L31.1791268,3.48674255 C30.5473909,3.48674255 29.7059114,3.6466692 28.8525897,3.97409468 C27.4592522,3.31485983 26.0091519,2.96118793 24.7773922,2.88381509 C25.0112069,2.68674026 25.2540637,2.50065089 25.5051753,2.32614979 C27.3472638,1.04514244 29.5565745,0.45029956 31.17907,0.45029956 L32.1218914,0.45029956 C33.7445007,0.45029956 35.9537544,1.04508551 37.795843,2.32614979 C40.5227376,4.22255307 42.1206377,7.32691782 42.1206377,11.6687926 C42.1206377,14.9564837 41.5438997,17.8581646 39.6625269,20.6040181 C39.4113356,20.9706709 39.1394774,21.3196742 38.803398,21.7183807 C38.6937568,21.848112 38.5832036,21.9770696 38.4717457,22.1052432 L38.4717357,22.1052547 C38.369119,22.2231945 38.2667523,22.3413506 38.1646355,22.4597237 C37.9410571,22.7195119 37.7887595,22.9048879 37.659577,23.0769984 C37.3537864,23.4843587 37.2234083,23.7600315 37.2027983,23.9959077 C37.2404884,24.0158345 37.2929243,24.0428779 37.3623833,24.0759564 C37.3572593,24.0735652 40.3141659,25.213434 41.8001913,25.9305704 C48.2025522,28.9860177 52.0023047,31.8405689 52.0023047,35.3176214 L52.002296,35.0847155 C52.0022961,35.965724 52.0026672,36.8467383 52.0034093,37.7277468 L52.0043772,38.8988722 L52.0047757,39.3864521 L52.0061421,40.9060114 L45.2762419,40.9060114 L45.2762426,41.1389077 Z M41.9859894,40.1758748 L41.9859808,39.9430167 C41.9859809,40.8240252 41.986352,41.7050395 41.9870941,42.586048 L41.9880051,43.7571734 L41.9884605,44.2447532 L41.9898269,45.7643696 L1.27844549,45.7643696 L1.2798119,44.2448102 L1.28021044,43.7572303 L1.28117831,42.586048 L1.28174764,41.7902293 C1.28220311,41.0059112 1.28248778,40.3721257 1.28248778,39.9430167 C1.28248778,36.4655657 5.08280959,33.6113105 11.4815836,30.5576736 C12.9666412,29.8406511 15.9279317,28.6991882 15.9229785,28.7015225 C15.9767463,28.6759971 16.029954,28.6493079 16.0825635,28.6214737 C16.0619535,28.3855976 15.9315755,28.1099817 15.6258417,27.7026214 C15.4966023,27.530454 15.344077,27.3449641 15.1203277,27.085005 L15.1203298,27.0850074 C15.0181185,26.9665587 14.9156567,26.8483262 14.812945,26.7303107 L14.8129439,26.7303094 C14.7013932,26.601985 14.5907494,26.4728754 14.4810206,26.3429897 C14.145112,25.9447388 13.8735385,25.5960771 13.6221764,25.2294243 C11.7412021,22.4835139 11.1641225,19.5805804 11.1641225,16.2942557 C11.1641225,11.9523809 12.7620226,8.84801617 15.4889172,6.95161289 C17.3310058,5.67060554 19.5403164,5.07576266 21.1628119,5.07576266 L22.1056333,5.07576266 C23.7282426,5.07576266 25.9374964,5.67060554 27.7795849,6.95161289 C30.5064795,8.8480731 32.1043796,11.9523809 32.1043796,16.2942557 C32.1043796,19.5819468 31.5276416,22.4836847 29.6462688,25.2295382 C29.3950206,25.5961909 29.1232193,25.9451373 28.787083,26.3438438 L28.7870816,26.3438454 C28.6774268,26.4736154 28.5668588,26.6026112 28.4553861,26.7308235 L28.455382,26.7308281 C28.3527654,26.8487867 28.2503987,26.9669622 28.1482819,27.085354 C27.9247034,27.3451423 27.7723489,27.5304614 27.6431664,27.7025718 C27.3374327,28.1099891 27.2070546,28.385605 27.1864446,28.6214811 C27.2241347,28.6414648 27.2765137,28.6684514 27.3459727,28.7015298 C27.3409056,28.6991386 30.2978122,29.8390644 31.7838377,30.5561438 C38.1861985,33.8443417 41.9860079,36.6988872 41.9860079,40.1758827 L41.9859894,40.1758748 Z M38.9493188,42.8211265 L38.9487495,42.0250801 L38.9487407,42.0123956 C38.948315,41.395992 38.9480708,40.779594 38.948008,40.1631904 C38.948008,38.4673074 35.6340705,35.9782817 30.4717817,33.5150469 C29.1275779,32.8660032 26.1765925,31.7283548 26.0389838,31.6628241 C24.8001074,31.0726498 24.1454842,30.2327645 24.1454842,28.908943 C24.1454842,27.8909692 24.518969,27.0252359 25.2129903,26.1005764 C25.390851,25.8636185 25.5811233,25.6321262 25.8450108,25.3254815 C25.7967311,25.3815612 26.3251324,24.7719725 26.4638797,24.6073773 C26.7401218,24.279724 26.9531107,24.0063286 27.1396823,23.7340149 C28.5966146,21.6075996 29.0663743,19.2442265 29.0663743,16.5144283 C29.0663743,13.1593846 27.9491651,10.9889027 26.0444495,9.66428418 C24.7512583,8.76496009 23.1446474,8.33243507 22.105665,8.33243507 L21.1628436,8.33243507 C20.1238043,8.33243507 18.5171364,8.76496009 17.2240022,9.66428418 C15.3192297,10.9889027 14.2020774,13.1593846 14.2020774,16.5144283 C14.2020774,19.2429739 14.6721217,21.6075427 16.1286555,23.7338441 C16.3150563,24.0058162 16.5279313,24.2790408 16.8038887,24.6063524 C16.9428068,24.7710615 17.472176,25.381675 17.4233269,25.3248552 C17.6874991,25.6317277 17.8778853,25.8634477 18.0558599,26.1005194 C18.7498812,27.0251221 19.1234799,27.8909122 19.1234799,28.9089999 C19.1234799,30.2328214 18.4688567,31.0727067 17.2298663,31.6628811 C17.0920869,31.7284117 14.1408737,32.8660032 12.7967269,33.51499 C7.63398262,35.9787941 4.32044361,38.4674782 4.32044361,40.1631904 C4.32044361,40.5930964 4.32015894,41.2274513 4.31964654,42.0123956 C4.31941881,42.4169093 4.31941881,42.4169093 4.3190772,42.8084421 L4.31902027,42.9481004 L38.9494883,42.9481004 L38.9493175,42.8084421 L38.9493188,42.8211265 Z" id="形状"></path>
                    </g>
                </g>
            </g>
        </g>
    </g>
</svg>