<?xml version="1.0" encoding="UTF-8"?>
<svg width="16px" height="16px" viewBox="0 0 16 16" version="1.1" xmlns="http://www.w3.org/2000/svg" xmlns:xlink="http://www.w3.org/1999/xlink">
    <!-- Generator: Sketch 52.6 (67491) - http://www.bohemiancoding.com/sketch -->
    <title>icon_queren@2x</title>
    <desc>Created with Sketch.</desc>
    <g id="聊天" stroke="none" stroke-width="1" fill="none" fill-rule="evenodd">
        <g id="聊天-多消息" transform="translate(-16.000000, -132.000000)" fill-rule="nonzero">
            <g id="icon_queren" transform="translate(16.000000, 132.000000)">
                <circle id="椭圆形" fill="#00AB9F" cx="8" cy="8" r="8"></circle>
                <path d="M6.91060587,10.9238413 C6.88171305,10.9069424 6.85434583,10.8864282 6.82915701,10.8622986 L4.12295242,8.26989272 C3.96386951,8.11749941 3.95844652,7.86499804 4.11083983,7.70591512 C4.11479019,7.70179135 4.11882865,7.69775289 4.12295242,7.69380253 C4.29106694,7.5327574 4.55621671,7.5327574 4.72433122,7.69380253 L7.15506431,10.0223208 L12.2717638,5.12078384 C12.4398783,4.95973872 12.7050281,4.95973872 12.8731426,5.12078384 C13.0322255,5.27317715 13.0376485,5.52567852 12.8852552,5.68476144 C12.8813048,5.68888521 12.8772663,5.69292367 12.8731426,5.69687403 L7.46073341,10.8816857 C7.30885577,11.0271768 7.07778149,11.0412286 6.91060587,10.9238413 Z" id="icon_complete" fill="#FFFFFF"></path>
            </g>
        </g>
    </g>
</svg>