<?xml version="1.0" encoding="UTF-8"?>
<svg width="25px" height="24px" viewBox="0 0 25 24" version="1.1" xmlns="http://www.w3.org/2000/svg" xmlns:xlink="http://www.w3.org/1999/xlink">
    <!-- Generator: Sketch 52.6 (67491) - http://www.bohemiancoding.com/sketch -->
    <title>icon_download@2x</title>
    <desc>Created with Sketch.</desc>
    <g id="聊天" stroke="none" stroke-width="1" fill="none" fill-rule="evenodd">
        <g id="聊天-照片已保存提示" transform="translate(-334.000000, -579.000000)" fill-rule="nonzero">
            <g id="icon_download" transform="translate(334.000000, 579.000000)">
                <rect id="矩形-copy-6" fill="#545658" x="0.5" y="0" width="24" height="24" rx="3"></rect>
                <path d="M19.3265485,15.5448002 L6.32654855,15.5606693 C6.32654855,16.616974 6.32654855,16.8747407 6.32654855,18.9685826 C6.32654855,19.244725 6.55040617,19.4685826 6.82654855,19.4685826 L18.8265485,19.4685826 C19.1026909,19.4685826 19.3265485,19.244725 19.3265485,18.9685826 C19.3265485,16.8649461 19.3265485,16.6065319 19.3265485,15.5448002 Z" id="路径" stroke="#FFFFFF"></path>
                <path d="M13.3780916,16.2179426 L15.9525173,13.6435169 L15.2454105,13.6435169 L15.9525173,14.3506237 L15.9525173,13.6435169 L13.3780916,16.2179426 Z M12.9210634,16.676174 L12.9205487,16.6766917 L12.7751305,16.8229596 L12.7751305,17.0490723 L12.9941116,17.0490723 L12.4941116,16.5490723 L12.3398552,16.5490723 L12.2751305,16.613797 L12.2751305,17.0371979 L12.2870049,17.0490723 L12.546962,17.0490723 L12.773946,16.8220882 L12.5971693,16.6453115 L12.7745476,16.8226898 L12.5481651,17.0490723 L12.7751305,17.0490723 L12.7751305,16.8300911 L12.4169834,16.471944 L12.3398552,16.5490723 L12.2751305,16.5490723 L12.2751305,16.613797 L12.06343,16.8254974 L12.2751305,17.0371979 L12.2751305,17.0490723 L12.2870049,17.0490723 L12.4169834,17.1790508 L12.546962,17.0490723 L12.5481651,17.0490723 L12.4209942,17.1762432 L12.4838004,17.1229919 L12.7705368,17.5326042 L13.1240902,17.1790508 L12.9941116,17.0490723 L13.2751305,17.0490723 L13.2751305,16.5490723 L13.0481651,16.5490723 L12.9210634,16.676174 Z M12.7751305,16.8221069 L12.7745476,16.8226898 L12.7751305,16.8232727 L12.7751305,16.8221069 Z M10.7570721,14.8052143 L9.59256706,13.6407093 L9.59256706,14.3478161 L10.2996738,13.6407093 L9.59256706,13.6407093 L10.7570721,14.8052143 Z M12.7751305,16.2185349 L12.7751305,7.04907227 L12.2751305,7.54907227 L13.2751305,7.54907227 L12.7751305,7.04907227 L12.7751305,16.2185349 Z" id="合并形状" stroke="#FFFFFF"></path>
            </g>
        </g>
    </g>
</svg>