<?xml version="1.0" encoding="UTF-8"?>
<svg width="102px" height="56px" viewBox="0 0 102 56" version="1.1" xmlns="http://www.w3.org/2000/svg" xmlns:xlink="http://www.w3.org/1999/xlink">
    <!-- Generator: Sketch 52.6 (67491) - http://www.bohemiancoding.com/sketch -->
    <title>bg1@2x</title>
    <desc>Created with Sketch.</desc>
    <defs>
        <polygon id="path-1" points="0 0.00186991741 46.9330566 0.00186991741 46.9330566 40.2650863 0 40.2650863"></polygon>
        <polygon id="path-3" points="0.0229528386 0.000261273074 49.2750776 0.000261273074 49.2750776 55.2474111 0.0229528386 55.2474111"></polygon>
    </defs>
    <g id="钱包IM&amp;转账" stroke="none" stroke-width="1" fill="none" fill-rule="evenodd">
        <g id="聊天-new转账" transform="translate(-192.000000, -156.000000)">
            <g id="转账1" transform="translate(131.000000, 129.000000)">
                <g id="分组-2">
                    <g id="bg1" transform="translate(61.000000, 27.000000)">
                        <g id="分组" transform="translate(0.000000, 14.946821)">
                            <mask id="mask-2" fill="white">
                                <use xlink:href="#path-1"></use>
                            </mask>
                            <g id="Clip-2"></g>
                            <path d="M38.2737919,18.2850515 C38.2761884,18.5084377 38.3786106,18.7187689 38.5528039,18.8584641 C38.5599936,18.8643294 39.2742367,19.4716095 39.2147007,20.1811225 C39.1653816,20.7672748 38.5908969,21.3833213 37.5528005,21.96241 C36.149983,22.7450186 34.2533444,22.4421038 32.660945,21.915929 C32.7164447,21.8839536 32.7717552,21.850843 32.8266242,21.8148944 C33.834511,21.1535652 34.4090589,20.3724072 34.5341854,19.4926741 C34.6192639,18.8959895 34.4755323,18.3889242 34.3099163,18.0303206 C34.6561586,17.5708084 35.0973811,16.808823 35.1072196,15.9010879 C35.1157338,15.1268673 34.796926,14.3931363 34.1856096,13.7790449 C34.0611137,13.6537922 33.9298696,13.5444957 33.7932016,13.4486956 C35.3747533,13.1525922 37.1361745,13.1375821 38.4000536,14.0204054 C39.1564891,14.5490399 39.5545101,15.1145691 39.5829537,15.7015413 C39.6341648,16.7578011 38.5484522,17.6978901 38.5395597,17.7055843 C38.3687089,17.8492528 38.271143,18.0618545 38.2737919,18.2850515 M34.1098021,27.3100567 C33.9712421,27.996613 33.4175697,28.4977499 32.6651075,28.6175787 C31.7156214,28.7689415 30.8133732,28.2675523 30.2522588,27.2762523 C30.1179243,27.0389912 29.8651485,26.8940613 29.5928217,26.8978454 C29.3203687,26.9014402 29.0717553,27.0533076 28.9439168,27.2938482 C28.3283749,28.4526564 27.260952,29.2037941 26.3482345,29.1207338 C25.4147677,29.0359706 24.9227757,28.0828267 24.6744776,27.298263 C23.6168303,23.9581281 24.0854873,21.4003496 24.0900912,21.3767622 C24.1692413,20.9724344 23.9060593,20.580531 23.5013531,20.5010024 C23.0968361,20.4217893 22.7048065,20.6853497 22.6254672,21.0896775 C22.6117815,21.1597458 22.4192354,22.1811292 22.5121343,23.7791416 C22.4877902,23.7703752 22.4636352,23.7610412 22.4382189,23.7546713 C22.1449535,23.680882 21.8364257,23.7916291 21.6567455,24.0346294 C21.2280104,24.6141596 20.8185111,25.268236 20.4286258,25.993642 C20.3566024,25.0235328 20.206564,23.9239454 19.9483644,22.675644 C19.9385258,22.628217 19.9267952,22.5821144 19.9157583,22.5354442 C19.489609,22.7039614 19.0148345,22.8693883 18.4954079,23.0199312 C19.3922954,27.3868102 18.8639762,29.688155 18.4201049,30.7281433 C17.5972591,29.834157 16.061873,28.2804812 13.9572367,26.6418531 C10.1302183,23.6622139 6.61916962,22.1225392 3.82185949,21.3411289 C4.84437807,21.0730276 6.06978583,20.783294 7.37169486,20.5431948 C9.03529783,20.2362437 10.5378256,20.0614197 11.8635743,20.0157586 C11.8115433,20.7647521 11.9561578,21.4791843 12.3089592,22.0689946 C12.535688,22.4480953 12.9593146,22.9539623 13.7050285,23.2693014 C14.2998211,23.5208789 15.0998364,23.6510509 16.1683314,23.498616 C20.0376053,22.9465833 22.3584381,21.2276699 22.4552472,21.1547004 C22.7840197,20.9073484 22.8497364,20.4412141 22.6032043,20.1118109 C22.3566722,19.7824077 21.8893396,19.7153666 21.5594949,19.9610158 C21.5384933,19.9767196 19.4251537,21.5264852 15.9575588,22.0211892 C15.1429117,22.1374863 14.0707588,22.1069614 13.5896144,21.3027836 C13.1190654,20.5162018 13.3333068,19.2287984 14.1108069,18.1716555 C14.2721974,17.9523057 14.3011455,17.6623198 14.186299,17.4152201 C14.0715787,17.1682465 13.831038,17.0035134 13.559468,16.9852237 C12.4227336,16.9091008 11.5799583,16.3136145 11.3046672,15.3921305 C11.0865156,14.6621836 11.2981082,13.9460485 11.8568891,13.5236202 C12.973694,12.6788268 15.7288749,13.5765341 16.7719536,14.0236219 C17.9499343,15.1490672 19.0381696,15.8588955 19.1392673,15.9239815 C19.1760989,15.947758 19.2141919,15.9677505 19.2532308,15.9842112 C19.2691239,15.9909595 19.2853324,15.9965725 19.3014146,16.0021225 C19.9896738,16.5510648 20.6021885,16.8660255 20.6648779,16.8977486 C20.6801403,16.9056321 20.695718,16.9126326 20.711485,16.9193809 C21.0697733,17.0709329 21.4892374,16.9207053 21.6672778,16.5682823 C21.8532648,16.2005339 21.7056861,15.7516802 21.3378115,15.5658824 C21.308548,15.5510615 18.4260333,14.0382536 18.7899346,12.2032323 C18.8902755,11.6977437 19.1077334,11.0364146 19.5745614,10.7561412 C19.9669694,10.5205829 20.4122912,10.6326544 20.462304,10.646277 C20.8368638,10.7803592 21.2333712,10.5861734 21.3852385,10.217542 C21.4943458,9.95246793 21.9131162,9.20870911 22.532316,8.95347364 C22.8769817,8.81144491 23.2541903,8.83055446 23.6850697,9.01193751 C23.6859526,9.01231592 23.6865202,9.01263126 23.687277,9.0127574 C25.0929326,9.60717161 25.0391989,12.3305662 24.899819,13.3301912 C24.8423642,13.7377355 25.1259171,14.1150072 25.5339659,14.1729034 C25.8105183,14.2121947 26.0727543,14.0941948 26.2313699,13.8870801 C26.0238767,14.2132038 26.0990536,14.6488132 26.4135097,14.8841823 C26.463081,14.9213293 26.5158057,14.9512865 26.5704225,14.9744324 C26.8790133,15.1049197 27.2481493,15.0142282 27.458039,14.7337656 C27.4891945,14.6920147 27.5217375,14.6508944 27.5533345,14.6093328 C27.5385766,14.7595603 27.5684077,14.9154009 27.6499544,15.0560421 C27.8568168,15.4125645 28.3133648,15.533907 28.6698241,15.3268553 C29.4837143,14.8544143 32.0502593,13.7499076 33.1273946,14.831773 C33.4574916,15.1632574 33.6168009,15.5057157 33.6145305,15.8784465 C33.6104311,16.5481006 33.0783278,17.2156104 32.8761955,17.4138326 C32.5867142,17.6920878 32.555874,18.1336887 32.8225878,18.4326302 C32.8541217,18.4738135 33.1252503,18.8444631 33.0541098,19.2968485 C32.9697251,19.8346278 32.4382525,20.2844275 32.0075624,20.5671606 C30.4524361,21.5872826 27.9582299,19.4887639 27.9342641,19.4680777 C27.6240335,19.1970752 27.1525385,19.2287353 26.8814099,19.539092 C26.6102183,19.8493226 26.6420045,20.3207546 26.9523612,20.5918201 C27.0148614,20.6464368 27.7317533,21.2631771 28.7337749,21.749493 C28.7518123,21.7629265 28.7701019,21.7757923 28.789653,21.7877121 C28.8768758,21.8413828 29.6966944,22.3381681 30.8811711,22.8389266 C31.0863938,22.9256448 31.3029687,23.0123631 31.5281208,23.0971893 C32.3821222,23.8416418 34.3878681,25.9321509 34.1098021,27.3100567 M19.129681,33.9203842 C19.7558183,31.4098434 20.6864471,28.5154088 22.0075287,26.2265515 C22.2278246,26.7526002 22.5407041,27.3487803 22.9807282,27.9271122 C22.2464927,28.9973731 20.5827636,31.4643971 19.129681,33.9203842 M15.1837797,8.10313022 C15.2552986,6.92149152 15.5592855,6.13787385 16.0626298,5.83685114 C16.684037,5.46544474 17.5433361,5.85463627 17.5474985,5.8565283 C17.7485588,5.95270673 17.9810898,5.95245446 18.1829699,5.85924022 C18.3846608,5.76596291 18.5346361,5.58621962 18.5915233,5.37128449 C18.5951812,5.35747263 18.9716961,3.97136807 19.9459678,3.55985054 C20.4870897,3.33091435 21.1693574,3.44468869 21.9735352,3.89688497 C23.2934816,4.6396347 24.0405199,6.19759908 24.4632635,7.72964258 C24.4003218,7.69747799 24.3359296,7.66657476 24.2690146,7.63832038 C24.2675641,7.63762663 24.2658612,7.63693288 24.2642215,7.63630221 C23.4655937,7.30033992 22.6658306,7.28034742 21.9513983,7.57878435 C21.1136054,7.92881076 20.5730511,8.62388121 20.2771369,9.11732384 C19.8826477,9.09834043 19.3587433,9.15547987 18.837677,9.45826848 C18.0693848,9.90459945 17.5609951,10.7303464 17.3264458,11.9128681 C17.2934614,12.0791779 17.2749194,12.2420821 17.267982,12.4018329 C16.1043807,11.1590184 15.0924575,9.60906364 15.1837797,8.10313022 M26.2364784,2.51569969 C26.8114046,1.88653511 27.700787,1.61774006 28.5580049,1.81451166 C29.4914717,2.02856384 30.2013631,2.73681547 30.5047193,3.75700054 C30.5970506,4.06748343 30.8793421,4.2829231 31.2030062,4.29023897 C31.5269225,4.2976179 31.8184851,4.09523327 31.9248174,3.78935434 C32.1508525,3.13880976 33.1886965,2.46877723 34.2389019,2.54559384 C35.3178662,2.62417634 36.0817436,3.47950213 36.4011821,4.95882094 C33.0063675,7.10899215 29.0453299,10.1278595 26.2727424,13.8276071 C26.3257824,13.7422133 26.3628663,13.6449627 26.3778134,13.5388826 C26.3875889,13.4698864 26.4720997,12.8437491 26.450972,12.0148487 C26.48629,11.9292026 26.5065348,11.83561 26.5073547,11.7372873 C26.5079223,11.6453974 26.5091206,10.883412 26.3824804,9.82191754 C26.2606964,8.51691819 26.0897195,7.41171769 25.951601,6.51924496 C25.603782,4.2739044 25.4924673,3.33009446 26.2364784,2.51569969 M36.4705567,6.68940194 C35.9467154,10.3377492 31.2742728,12.5233015 30.7466474,12.7587337 C29.9587412,13.048278 29.4403237,13.2985942 29.3693724,13.3334707 C29.3165846,13.3592655 29.2688423,13.3911147 29.2252624,13.426748 C28.6947359,13.6312139 28.2797496,13.8409775 28.0687878,13.9543104 C30.4633468,11.0237379 33.6172424,8.56087646 36.4705567,6.68940194 M41.073877,15.6404286 C41.0256932,14.5636086 40.41362,13.6069328 39.2547487,12.7970789 C38.0143308,11.9304009 36.4796385,11.7127539 34.9921839,11.8037607 C37.0863509,9.98829045 38.114861,7.90150239 38.0044923,5.71948193 C38.4427506,5.4523897 38.8687737,5.2005599 39.276381,4.96613681 C43.2145249,2.70282192 46.4231634,1.45679098 46.4551388,1.44449276 C46.8395372,1.29622031 47.0310741,0.864458007 46.8829909,0.479933503 C46.7347184,0.0954720672 46.3030192,-0.0961279726 45.9186208,0.051892203 C45.7844756,0.10348168 42.5893336,1.3430797 38.5553897,3.65930849 C38.2884236,3.81256329 38.013511,3.97370158 37.7331114,4.14070517 C36.9756038,1.54155413 35.1450603,1.115531 34.34782,1.05725634 C33.2547285,0.977286339 32.1270759,1.39656121 31.356261,2.08601863 C30.7745234,1.21070034 29.9103051,0.593581716 28.8916967,0.360041576 C27.5113313,0.0433149794 26.0716191,0.483528369 25.1346835,1.50920034 C24.4855895,2.21978548 24.2360932,2.97376128 24.1954775,3.85715224 C23.778347,3.35702442 23.286481,2.92343315 22.705248,2.5964265 C21.4733443,1.90286968 20.3456286,1.76620171 19.3543916,2.18963906 C18.3191333,2.63168142 17.7228902,3.58924014 17.4166328,4.26349821 C16.8473196,4.14625513 16.0484395,4.11352293 15.3113659,4.54736647 C14.3429595,5.11756264 13.7988103,6.28349745 13.6939286,8.0128171 C13.60967,9.40403016 14.1551435,10.7260578 14.9299317,11.877487 C13.5885422,11.5951955 12.0182166,11.5302356 10.956659,12.333152 C9.90449854,13.1289418 9.47973677,14.4973874 9.8747936,15.8192889 C10.1605539,16.7756493 10.9439824,17.8162684 12.3290778,18.263167 C12.2895974,18.3481193 12.2526396,18.4335131 12.2178262,18.5192223 C6.94409503,18.5968588 0.859248605,20.6384272 0.505942673,20.7586345 C0.177674665,20.8702645 -0.0304491439,21.1932979 0.00360747935,21.538405 C0.0376010348,21.8834491 0.304945527,22.15956 0.648665151,22.2048427 C5.78995391,22.8824434 10.209053,25.6195237 13.0109041,27.7963096 C16.074928,30.1768045 17.9305725,32.4278842 17.9488622,32.4500841 C17.9534661,32.4556971 17.9593314,32.4604272 17.9641246,32.4659141 C17.8507286,32.8800174 17.7404861,33.3040223 17.6335231,33.7386858 C16.8646633,36.868048 16.5688121,39.3279453 16.55664,39.4311242 C16.5088346,39.8351997 16.7933966,40.2029482 17.1963369,40.2581956 C17.2121039,40.2603399 17.2278078,40.2619166 17.2435117,40.2630518 C17.6280992,40.2914324 17.9749092,40.0199254 18.0349497,39.6336981 C18.3291611,37.7438708 21.962246,32.085489 23.9285745,29.1861982 C24.3709322,29.8328956 24.8827276,30.1930129 25.3490511,30.3900998 C25.6713276,30.5264525 25.9720981,30.5850425 26.212891,30.606927 C27.4248653,30.7173587 28.7064665,30.0702198 29.6338788,28.9391615 C30.6362788,29.9934032 31.9142851,30.2485126 32.899972,30.0915998 C34.2625523,29.8743943 35.3115594,28.8984828 35.5725971,27.6053402 C35.8359052,26.3005931 35.0966242,24.9136687 34.2604711,23.8270732 C35.6341513,24.0263044 37.062259,23.9449469 38.279468,23.2658326 C39.7924019,22.421796 40.6072382,21.4259551 40.7012092,20.3061229 C40.7732957,19.4536982 40.3972854,18.7480324 40.0449885,18.2858083 C40.5198262,17.7176303 41.1242051,16.7651801 41.073877,15.6404286" id="Fill-1" fill="#4DC4BC" mask="url(#mask-2)"></path>
                        </g>
                        <path d="M47.7418485,15.5387948 C47.9225378,15.615233 48.1306616,15.6174403 48.3119185,15.5433356 C48.4947521,15.4691679 48.6430246,15.3236074 48.7193997,15.142855 C48.7960902,14.9614089 48.7972885,14.7537265 48.7230576,14.5708929 C48.649899,14.3893207 48.5035185,14.2413636 48.3227662,14.1650515 C48.1413831,14.0882979 47.93389,14.086469 47.7518763,14.1603214 C47.569421,14.2337323 47.4215901,14.3802389 47.3449627,14.5616219 C47.2683983,14.7425005 47.2666324,14.9498675 47.3408002,15.1327011 C47.4146526,15.3145887 47.5603393,15.4621674 47.7418485,15.5387948" id="Fill-3" fill="#4DC4BC"></path>
                        <path d="M48.6766586,16.975896 C48.6029323,16.7940084 48.456615,16.6455467 48.2759257,16.5691716 C48.0944796,16.4924181 47.8867972,16.4911567 47.7041528,16.5646938 C47.5223283,16.6386093 47.3745604,16.7849266 47.2981222,16.965742 C47.221684,17.1465575 47.2196028,17.3546813 47.293329,17.5365058 C47.3678121,17.7186457 47.5134357,17.8669181 47.6946927,17.9436717 C47.8755712,18.0200468 48.0840103,18.0215604 48.2658348,17.947645 C48.4476594,17.8738556 48.5962472,17.7276644 48.6726223,17.5469751 C48.7490605,17.3661596 48.750511,17.1578466 48.6766586,16.975896" id="Fill-5" fill="#4DC4BC"></path>
                        <path d="M46.3800376,17.3569202 C46.1993483,17.280482 45.9909092,17.2791576 45.8090216,17.3529469 C45.627134,17.4266732 45.4787985,17.5721707 45.4021711,17.7535537 C45.3257329,17.9343061 45.3243454,18.1427453 45.3981978,18.3246329 C45.4719871,18.5065204 45.6181153,18.6549821 45.7988046,18.7314203 C45.9794939,18.8077954 46.187933,18.8093091 46.3698837,18.7355197 C46.5520866,18.6610366 46.7003591,18.5155391 46.7767342,18.3347237 C46.8531094,18.1540344 46.8545599,17.9455952 46.7807706,17.7637707 C46.7069181,17.5819462 46.5607269,17.4332953 46.3800376,17.3569202" id="Fill-7" fill="#4DC4BC"></path>
                        <path d="M44.2324711,18.2805169 C44.0509619,18.2038895 43.8428381,18.2017452 43.6607613,18.2761652 C43.4788107,18.3498915 43.331232,18.4958305 43.2545415,18.6772135 C43.1782294,18.8579028 43.176022,19.0661528 43.2497483,19.2479142 C43.3235377,19.4297387 43.4696658,19.5783265 43.6512381,19.655017 C43.8319904,19.7315183 44.0396097,19.7325274 44.2221911,19.6590533 C44.4040787,19.5853271 44.5526034,19.4391989 44.6291046,19.2583835 C44.7055428,19.0776311 44.7068673,18.869192 44.633141,18.6873674 C44.5589102,18.5045338 44.4131604,18.3569551 44.2324711,18.2805169" id="Fill-9" fill="#4DC4BC"></path>
                        <path d="M45.874631,14.1570923 C46.0553203,14.2335305 46.2636964,14.234918 46.4456471,14.1610656 C46.6274085,14.0873393 46.7760594,13.9412112 46.8524976,13.7604588 C46.9288727,13.5797695 46.9303233,13.3712673 46.8564709,13.1893797 C46.7827446,13.0074921 46.6364903,12.8590304 46.455801,12.7825922 C46.2751117,12.7062171 46.0666725,12.7047035 45.8847849,12.7784928 C45.7028343,12.8524083 45.5543726,12.9985365 45.4779344,13.1792888 C45.4015593,13.3599781 45.4001087,13.5684173 45.4738981,13.7502418 C45.5476244,13.9321925 45.6938787,14.0807172 45.874631,14.1570923" id="Fill-11" fill="#4DC4BC"></path>
                        <path d="M43.9787177,14.9450112 C44.1601639,15.0217017 44.3678462,15.0228369 44.5497338,14.9489214 C44.7323151,14.8755736 44.8802092,14.7291301 44.9566474,14.5483146 C45.0332748,14.3668054 45.0351037,14.1593754 44.9606206,13.9772355 C44.8868944,13.7953479 44.7413969,13.6471385 44.5599508,13.5705111 C44.3792615,13.4940729 44.1708223,13.4925593 43.9889347,13.5664117 C43.8069841,13.6402642 43.6587747,13.7856985 43.5820211,13.9672077 C43.5057091,14.147897 43.5042585,14.3563362 43.5779848,14.5380976 C43.6517741,14.7200483 43.7980284,14.868573 43.9787177,14.9450112" id="Fill-13" fill="#4DC4BC"></path>
                        <path d="M41.8310251,15.8685133 C42.0117144,15.9449515 42.2201535,15.9464021 42.4021042,15.8726127 C42.5839287,15.7988865 42.7325796,15.6526322 42.8088916,15.4718167 C42.8852668,15.2911274 42.8867173,15.0826883 42.812928,14.9009268 C42.7393909,14.7183455 42.5929474,14.5703884 42.4122581,14.4940132 C42.2315688,14.417512 42.0233189,14.4155569 41.8412421,14.49004 C41.6593545,14.5637032 41.5111451,14.7092637 41.4343916,14.8907098 C41.3579534,15.0713991 41.3566289,15.2799014 41.4302921,15.4617259 C41.5040184,15.6436765 41.6503358,15.7920751 41.8310251,15.8685133" id="Fill-15" fill="#4DC4BC"></path>
                        <path d="M42.1720454,19.1067117 C41.9913561,19.0302735 41.7832323,19.0280661 41.6010294,19.1026123 C41.4191418,19.1763385 41.2709954,19.3219621 41.1942419,19.5034083 C41.1178037,19.6840976 41.1163531,19.8924737 41.1900794,20.0743612 C41.2639949,20.2562488 41.4101861,20.4047736 41.5908754,20.4812118 C41.7716909,20.55765 41.98013,20.5590375 42.1618284,20.485185 C42.3438421,20.4115218 42.4923669,20.2652675 42.568742,20.0845782 C42.6454955,19.903069 42.6466308,19.6953236 42.5727783,19.5134991 C42.4993674,19.3309178 42.3527347,19.1831499 42.1720454,19.1067117" id="Fill-17" fill="#4DC4BC"></path>
                        <path d="M39.7707886,16.6947081 C39.9523608,16.7713986 40.159917,16.7725338 40.3418046,16.6986814 C40.524386,16.6253335 40.6722169,16.4788269 40.7486551,16.2980115 C40.8250303,16.1171961 40.8271746,15.9091984 40.7530068,15.7262386 C40.6790913,15.5444772 40.5333416,15.3968985 40.3519585,15.320208 C40.1712062,15.2437067 39.9630824,15.2416886 39.7812578,15.3153518 C39.5990549,15.3898979 39.4508455,15.5353954 39.374092,15.7168415 C39.2977169,15.8975939 39.2962663,16.106033 39.3700556,16.2878576 C39.4444757,16.4699974 39.5900993,16.6182699 39.7707886,16.6947081" id="Fill-19" fill="#4DC4BC"></path>
                        <g id="分组" transform="translate(52.409359, 0.062816)">
                            <mask id="mask-4" fill="white">
                                <use xlink:href="#path-3"></use>
                            </mask>
                            <g id="Clip-22"></g>
                            <path d="M3.33889873,53.9860547 C5.57566207,52.834184 8.88886697,51.0216148 11.1991674,49.2890787 C11.8335666,50.2957673 13.4656987,51.8331715 17.5158511,51.8330454 C17.6387703,51.8330454 17.7645906,51.8315948 17.8920507,51.8286937 C20.3863199,51.7720588 23.2864306,50.9142103 26.5120343,49.2790509 C28.5133654,48.2644789 29.991549,47.2725482 30.4544668,46.9514699 L46.5376441,52.7768553 L47.4109442,53.9860547 L3.33889873,53.9860547 Z M8.91031003,33.6469978 L8.9107515,33.6342581 C8.91125604,33.6175451 8.91182366,33.6008952 8.91194979,33.5841822 C8.91201286,33.56728 8.91144525,33.550504 8.91031003,33.533791 L8.91031003,25.2696991 L24.6628227,25.2696991 C26.1483852,25.4250352 27.4420954,25.6132295 28.5392863,25.8339669 L28.5544226,25.8421027 L28.5544226,33.5339802 C28.5532243,33.5506301 28.5527198,33.5673431 28.5527828,33.5841822 C28.552972,33.600706 28.5534766,33.6172298 28.5540442,33.6337535 L28.5544226,33.6454211 C28.5544226,39.0613071 24.1483154,43.4675404 18.7323663,43.4675404 C16.2917047,43.4675404 14.0563919,42.5724188 12.3366586,41.0937307 C12.2841862,41.0229056 12.2169559,40.963811 12.1393825,40.9199158 C10.1570978,39.1217892 8.91031003,36.5271159 8.91031003,33.6469978 Z M7.44265877,23.2931536 C7.20968624,22.419349 7.46750749,20.4757879 7.80624476,18.6900856 L7.80611862,18.6900226 L7.9309929,17.9828431 C8.216564,20.7255365 10.1751352,22.9780037 12.7652044,23.6995627 C12.1647988,23.7795957 11.421103,23.8601964 10.6714159,23.8944422 C8.27830739,24.0032973 7.51588051,23.567877 7.44265877,23.2931536 Z M2.5103137,8.98451563 C3.07489683,8.26604701 4.36507525,6.66330448 5.83051913,5.10187137 C6.97021772,3.88731127 7.98718633,2.939465 8.85310751,2.28488408 C10.1364746,1.31445952 10.7599631,1.23114693 11.0172167,1.26791547 C13.6040065,1.63755597 25.8251627,6.03268934 27.0832395,6.74731082 C27.3836316,7.35692437 28.1043706,10.4821872 28.7315801,13.6053057 C22.020281,10.5360471 10.3348229,3.15774272 10.1946231,3.0690063 C9.90034868,2.88283009 9.51071568,2.97049436 9.32441334,3.26470575 C9.13817406,3.55904327 9.22583834,3.9486132 9.52017586,4.13491554 C9.74867057,4.27946699 11.6834652,5.50121681 14.3576669,7.11474394 C14.3496573,7.1308893 14.3422784,7.14753921 14.335467,7.16456752 L13.410136,9.51497907 L11.7352439,7.62426886 C11.5427609,7.40700022 11.228557,7.34582444 10.9687176,7.47473506 C10.7086889,7.60370876 10.567417,7.89091961 10.6240519,8.17554469 L11.1162332,10.653101 L8.68503177,9.96818443 C8.40564132,9.88941272 8.10821348,10.0078541 7.95937342,10.2567828 C7.81034416,10.5058376 7.84686043,10.8238256 8.04829905,11.0327062 L9.80189981,12.8506992 L7.38621307,13.588908 C7.27634892,13.6225232 7.18111651,13.6839512 7.10625501,13.7634798 C4.73673391,11.5876399 3.14282088,9.74769933 2.5103137,8.98451563 Z M19.3823433,21.8569732 C21.0014834,22.5548186 23.0991822,23.4862042 24.282713,23.9633123 C22.2900852,23.7706401 19.8457656,23.6197188 16.8402686,23.5360278 C17.8144142,23.1775503 18.6821643,22.5973264 19.3823433,21.8569732 Z M14.5488886,21.5600499 C16.6186483,21.5600499 18.4805996,20.5636414 19.6582019,19.0153264 C18.9365799,21.1446222 16.9187881,22.6813327 14.5488886,22.6813327 C12.178989,22.6813327 10.1611972,21.1446222 9.43957518,19.0153264 C10.6171145,20.5636414 12.4791288,21.5600499 14.5488886,21.5600499 Z M11.3371598,17.518727 L11.1405143,19.0021452 C10.7826044,18.685734 10.4687789,18.3204451 10.209381,17.9163696 L11.3371598,17.518727 Z M9.45584668,15.9156061 C9.43566498,15.7808301 9.41933041,15.6447298 9.40987024,15.5066743 C9.40438334,15.4276503 9.38420163,15.3527888 9.35241545,15.2843603 L9.88420332,15.4101806 L9.45584668,15.9156061 Z M14.5415727,20.2986304 C13.8589897,20.2975583 13.2048502,20.1613318 12.6052014,19.9153042 L13.6995542,18.5070628 L14.5415727,20.2986304 Z M17.8584986,19.0882328 C17.3304948,19.5319149 16.7135023,19.8715351 16.0405056,20.0765056 L16.221258,18.0612364 L17.8584986,19.0882328 Z M18.9138124,17.8765738 L18.101562,16.3229611 L19.5676996,16.3068788 C19.4372123,16.8717773 19.2133215,17.4003487 18.9138124,17.8765738 Z M15.660585,7.89659572 C16.1798224,8.20638485 16.7184847,8.52550803 17.2703281,8.84980276 L15.955301,9.79771211 L15.660585,7.89659572 Z M11.4543398,12.7128329 L10.6205832,11.8485515 L11.7764902,12.1741707 C11.9915515,12.2347158 12.2228212,12.1792792 12.3869237,12.027538 C12.5510261,11.8757968 12.6245001,11.6496987 12.5809203,11.4304749 L12.3469387,10.2526834 L13.143233,11.1514629 C13.2915054,11.3187187 13.5157115,11.3968598 13.7360074,11.3581992 C13.9561772,11.3192864 14.1402091,11.1687435 14.2220711,10.9608089 L14.6619692,9.84343628 L14.8458749,11.0301204 C14.8801207,11.2509839 15.0266273,11.4381692 15.2329221,11.5243829 C15.4389647,11.6106597 15.6752168,11.5835405 15.8565368,11.4529271 L16.8308084,10.7507299 L16.3439249,11.8485515 C16.2533595,12.0528282 16.2753701,12.2895217 16.4022626,12.4736167 C16.529092,12.6576486 16.7428288,12.7623412 16.9655213,12.7506105 L18.1646929,12.6865967 L17.1617253,13.3468537 C16.9749815,13.4697729 16.8656219,13.6808609 16.8728116,13.9042471 C16.8799383,14.1276333 17.0027313,14.3312163 17.1968541,14.4419003 L18.2402481,15.0362514 L17.0394999,15.0494957 C16.8163659,15.0530275 16.6098819,15.1703336 16.4950984,15.3621229 C16.3803781,15.5539752 16.3736298,15.7916147 16.4771241,15.9897108 L17.0336346,17.0538541 L16.0162875,16.415797 C15.8269579,16.2971033 15.5895707,16.2852466 15.3892042,16.3845153 C15.18909,16.4838471 15.0548817,16.6801142 15.0348261,16.9026805 L14.9276108,18.0987618 L14.4167615,17.0119771 C14.3217813,16.8097816 14.1283523,16.6714108 13.9062275,16.6466883 C13.8759549,16.6433457 13.8458716,16.6421474 13.8158513,16.6430934 C13.6259541,16.6487695 13.446463,16.7385781 13.3279586,16.8910761 L12.5910742,17.8391746 L12.7488699,16.6487695 C12.7782595,16.4272122 12.6903429,16.2062857 12.5168434,16.0654552 C12.3432807,15.9244986 12.1089838,15.8840091 11.8983372,15.958303 L10.7658284,16.3575854 L11.5420671,15.4415253 C11.6865555,15.2709899 11.7321535,15.037702 11.6623375,14.8253527 C11.5924583,14.6130664 11.417382,14.4523065 11.1998611,14.4008431 L10.0311513,14.1244169 L11.1796164,13.7734445 C11.3933532,13.7081062 11.557771,13.5364356 11.6138383,13.3200499 C11.6699056,13.1036642 11.6094866,12.8737189 11.4543398,12.7128329 Z M31.6730002,16.0498144 C32.7286294,16.2935085 33.4325924,17.0141844 33.8248112,18.253341 C34.3772853,19.9986799 34.1193379,22.2162075 33.9164487,23.3826469 C33.6884586,24.6927547 33.355019,25.7295897 33.1198391,26.2633957 C32.6647417,25.8529503 31.7767468,25.2719696 29.4906013,24.7455425 C29.4827809,24.7411908 29.4753389,24.7363976 29.4672032,24.7322982 C29.003907,24.5006501 27.7854367,24.01137 26.0990031,23.3341477 C24.4446081,22.6698543 22.3367553,21.8232319 20.1374543,20.8963872 C20.8112078,19.8563358 21.2029851,18.6173684 21.2029851,17.2885925 C21.2029851,16.883571 21.1662797,16.4811983 21.0938778,16.0855738 C21.1632524,16.0102078 21.2153464,15.9178765 21.2422764,15.8138146 C21.3150566,15.5329105 21.1905608,15.2380685 20.9384156,15.0944 L18.7435924,13.8440174 L20.8534002,12.4551378 C21.0958329,12.2955132 21.2011562,11.9933552 21.1104646,11.7176227 C21.0198362,11.4419533 20.7550775,11.2606333 20.4657854,11.2768417 L17.943514,11.4114915 L18.7077068,9.68835251 C23.5653165,12.5000421 29.0490635,15.4443002 31.6730002,16.0498144 Z M31.4470913,29.6352537 C30.9054018,29.5132805 30.307645,29.6594717 29.815779,29.8566217 L29.815779,26.1284936 C30.54478,26.3223641 31.0670446,26.5136488 31.4470913,26.6902387 L31.4470913,29.6352537 Z M30.0620589,36.489023 C29.8384834,36.7007417 29.5901224,36.8530504 29.3135069,36.947526 C29.6397567,35.9041951 29.815779,34.7949582 29.815779,33.6454211 C29.815779,33.6327444 29.8155267,33.6201939 29.8152114,33.6075804 C29.8155267,33.5983094 29.815779,33.5891015 29.815779,33.5797044 L29.815779,31.2523126 C30.3548828,30.958858 30.9959671,30.7574194 31.2444544,30.8913124 C31.3712838,30.959741 31.4470913,31.2274639 31.4470913,31.6075106 C31.4470913,34.830087 30.4784957,36.0948491 30.0620589,36.489023 Z M22.9125645,43.9096459 C25.0762323,43.0252458 26.8998383,41.4761109 28.1284625,39.5170352 L28.8324886,42.7339986 C27.8159615,42.9797108 25.5792612,43.4896772 22.9125645,43.9096459 Z M12.295223,44.3484087 L12.3886265,42.7285748 C13.6641101,43.6219935 15.1352932,44.2539962 16.7240977,44.5460632 C15.1634845,44.6014999 13.6453159,44.5544513 12.295223,44.3484087 Z M29.5553089,46.0371757 C28.1987201,46.9507762 22.6859619,50.4581669 17.8634809,50.5677157 C15.1434289,50.6287023 13.701194,49.9562732 12.9697965,49.3807793 C12.3581647,48.8993196 12.1383103,48.4173553 12.0730351,48.2364768 L12.2742845,45.6206758 C18.1882172,46.463325 26.7006071,44.5548927 29.1026081,43.9682989 L29.5553089,46.0371757 Z M49.1556524,54.2475338 L47.4463883,51.8808508 C47.3722837,51.7781764 47.2689786,51.7002246 47.1499065,51.6570862 L30.7786985,45.7273866 L29.1494044,38.2819781 C29.8265005,38.1776639 30.4229329,37.8842724 30.9292414,37.4050831 C32.4772411,35.9396392 32.7084477,33.1437166 32.7084477,31.6075106 L32.7084477,27.6081909 C32.8362862,27.6990085 32.9988119,27.7726717 33.207188,27.7726717 C33.2570747,27.7726717 33.3095471,27.7684462 33.3647314,27.7592383 C33.7919529,27.6880347 34.0350793,27.2825717 34.2342475,26.855098 C34.4092607,26.4790246 34.5879318,25.9766263 34.7508991,25.4020785 C34.9734023,24.6178932 35.3550257,23.0280796 35.4115976,21.1912293 C35.5216509,17.6227258 34.2946034,15.3602939 31.9565531,14.8207487 C31.4582543,14.7057761 30.8422709,14.4963909 30.1373618,14.212901 C30.0122353,13.577682 29.7104558,12.0677122 29.3738628,10.5338397 C28.4467658,6.31062922 28.1704657,6.03426603 27.987569,5.85136935 C27.8667941,5.73059448 27.7013673,5.56510451 25.3681732,4.65957674 C23.9928533,4.12577071 22.2182509,3.47465852 20.3711206,2.82613212 C18.6860115,2.23442983 13.0439011,0.283300651 11.1956356,0.0192987532 C10.382313,-0.0964937659 9.36692105,0.315023765 8.09232039,1.27870007 C7.16963817,1.97629323 6.09925112,2.97219719 4.91073803,4.2386621 C2.90631655,6.37451693 1.22000915,8.58914346 1.20329618,8.61128026 C1.03080569,8.83832442 1.03219318,9.15278057 1.20644957,9.3783111 C1.29720417,9.49574338 3.42549085,12.231184 7.20552376,15.5476684 C6.87548985,16.85847 5.71882602,21.7239632 6.22387313,23.618079 C6.38349778,24.2167188 6.85518202,24.6397147 7.64895361,24.8919859 L7.64895361,33.5797044 C7.64895361,33.5891015 7.64914281,33.5983725 7.64958429,33.6076435 C7.64920588,33.6201939 7.64895361,33.6328075 7.64895361,33.6454211 C7.64895361,36.8419505 9.00957878,39.7261681 11.1816345,41.7508343 L10.8216434,47.9889356 C7.30037776,50.7634152 0.454365809,54.0134261 0.384108256,54.0465367 C0.117394442,54.1726723 -0.0262740542,54.4669468 0.0383073944,54.7548514 C0.102951911,55.0428191 0.358565789,55.2474111 0.65372319,55.2474111 L48.6443616,55.2474111 C48.8811813,55.2474111 49.0981346,55.1147164 49.2059175,54.9038807 C49.3137634,54.6929819 49.2944016,54.4394492 49.1556524,54.2475338 Z" id="Fill-21" fill="#4DC4BC" mask="url(#mask-4)"></path>
                        </g>
                    </g>
                </g>
            </g>
        </g>
    </g>
</svg>