<?xml version="1.0" encoding="UTF-8"?>
<svg width="180px" height="144px" viewBox="0 0 180 144" version="1.1" xmlns="http://www.w3.org/2000/svg" xmlns:xlink="http://www.w3.org/1999/xlink">
    <!-- Generator: Sketch 52.6 (67491) - http://www.bohemiancoding.com/sketch -->
    <title>IM_transfer_left@2x</title>
    <desc>Created with Sketch.</desc>
    <defs>
        <polygon id="path-1" points="0 0.0414622182 67.963811 0.0414622182 67.963811 38.6293959 0 38.6293959"></polygon>
    </defs>
    <g id="钱包IM&amp;转账" stroke="none" stroke-width="1" fill="none" fill-rule="evenodd">
        <g id="聊天-new转账" transform="translate(-64.000000, -297.000000)">
            <g id="转账1-copy" transform="translate(64.000000, 297.000000)">
                <g id="IM_transfer_left">
                    <rect id="矩形" fill="#FFFFFF" fill-rule="nonzero" x="0" y="0" width="180" height="144" rx="8"></rect>
                    <path d="M16,8 L48,8 L48,88 L16,88 C11.581722,88 8,84.418278 8,80 L8,16 C8,11.581722 11.581722,8 16,8 Z" id="矩形" fill="#4DC4BC" fill-rule="nonzero"></path>
                    <path d="M48,8 L164,8 C168.418278,8 172,11.581722 172,16 L172,80 C172,84.418278 168.418278,88 164,88 L48,88 L48,8 Z" id="矩形-copy" fill="#00AB9F" fill-rule="nonzero"></path>
                    <g id="money" transform="translate(87.000000, 40.000000)">
                        <g transform="translate(0.000000, 0.019867)">
                            <mask id="mask-2" fill="white">
                                <use xlink:href="#path-1"></use>
                            </mask>
                            <g id="Clip-2"></g>
                            <path d="M65.0420184,10.3797922 C61.2491023,9.75755239 58.2477821,6.7562936 57.6256036,2.96325482 L65.0420184,2.96325482 L65.0420184,10.3797922 Z M65.0420184,25.3419383 C59.6358651,26.00618 55.3403989,30.3013396 54.6762186,35.7074929 L13.2876415,35.7074929 C12.6234611,30.3013396 8.32805627,26.00618 2.92202561,25.3419383 L2.92202561,13.329116 C8.32805627,12.6649356 12.6234611,8.36946943 13.2876415,2.96325482 L54.6762186,2.96325482 C55.3403989,8.36946943 59.6358651,12.6649356 65.0420184,13.329116 L65.0420184,25.3419383 Z M65.0420184,35.7074929 L57.6256036,35.7074929 C58.2477821,31.9145154 61.2491023,28.9133793 65.0420184,28.2910781 L65.0420184,35.7074929 Z M2.92202561,35.7074929 L2.92202561,28.2910781 C6.71488043,28.9133793 9.71607791,31.9145154 10.3383178,35.7074929 L2.92202561,35.7074929 Z M2.92202561,2.96325482 L10.3383178,2.96325482 C9.71607791,6.7562936 6.71488043,9.75755239 2.92202561,10.3797922 L2.92202561,2.96325482 Z M66.5026388,0.0414622182 L1.46066943,0.0414622182 C0.653805591,0.0414622182 -1.22633003e-05,0.695402705 -1.22633003e-05,1.5020826 L-1.22633003e-05,37.1687264 C-1.22633003e-05,37.9755289 0.653805591,38.6294081 1.46066943,38.6294081 L66.5026388,38.6294081 C67.3099931,38.6294081 67.963811,37.9755289 67.963811,37.1687264 L67.963811,1.5020826 C67.963811,0.695402705 67.3099931,0.0414622182 66.5026388,0.0414622182 Z" id="Fill-1" fill="#4DC4BC" mask="url(#mask-2)"></path>
                            <path d="M51.4115502,23.1545825 C49.4048451,23.6441948 47.8213464,25.2272029 47.3324087,27.2339693 L20.6320155,27.2339693 C20.1425872,25.2272029 18.5595791,23.6441948 16.5522608,23.1545825 L16.5522608,15.5162633 C18.5595791,15.0267124 20.1425872,13.4437042 20.6320155,11.4369991 L47.3324087,11.4369991 C47.8213464,13.4437042 49.4048451,15.0267124 51.4115502,15.5162633 L51.4115502,23.1545825 Z M52.7266052,13.0438593 C51.1149623,13.0438593 49.80469,11.7330965 49.80469,10.1219441 C49.80469,9.39607935 49.2161742,8.80713436 48.4897576,8.80713436 L19.474176,8.80713436 C18.7476981,8.80713436 18.1592436,9.39607935 18.1592436,10.1219441 C18.1592436,11.7330965 16.84891,13.0438593 15.2373284,13.0438593 C14.5114023,13.0438593 13.9228866,13.6324364 13.9228866,14.3589757 L13.9228866,24.3124833 C13.9228866,25.0384094 14.5114023,25.6268638 15.2373284,25.6268638 C16.84891,25.6268638 18.1592436,26.9377493 18.1592436,28.5487178 C18.1592436,29.2751344 18.7476981,29.8637728 19.474176,29.8637728 L48.4897576,29.8637728 C49.2156224,29.8637728 49.8041381,29.2751344 49.8041381,28.5487178 C49.8041381,26.9377493 51.1149623,25.6268638 52.7259921,25.6268638 C53.4525313,25.6268638 54.0410471,25.0384094 54.0410471,24.3124833 L54.0410471,14.3589757 C54.0410471,13.6324364 53.4525313,13.0438593 52.7266052,13.0438593 Z" id="Fill-3" fill="#4DC4BC" mask="url(#mask-2)"></path>
                            <path d="M37.374805,20.9225208 C37.3050269,20.6856552 37.2197356,20.4795091 37.1204642,20.3040826 C37.0206409,20.1291466 36.8776509,19.9580736 36.691494,19.7909861 C36.5058276,19.6238373 36.3388014,19.489125 36.1904768,19.3868491 C36.0422135,19.2842052 35.8385201,19.1697273 35.5798258,19.0426795 C35.3210088,18.9161836 35.1165796,18.8216949 34.9653118,18.7596426 C34.8145959,18.6976516 34.5961252,18.6127282 34.3105129,18.5052404 C34.0572144,18.408299 33.8686662,18.334106 33.7441324,18.2827841 C33.6205183,18.2315235 33.4571711,18.1586182 33.2551333,18.0643748 C33.0530954,17.9701926 32.9018889,17.8863729 32.8026175,17.8135903 C32.7027329,17.7408689 32.5960422,17.6523279 32.4831585,17.5472927 C32.3696617,17.4419509 32.2902568,17.3302323 32.2442694,17.2113396 C32.19865,17.0928761 32.1753497,16.9637436 32.1753497,16.8232674 C32.1753497,16.45684 32.3371639,16.1576768 32.6609764,15.9256552 C32.9842983,15.6940014 33.4019863,15.5782359 33.9142857,15.5782359 C34.1405436,15.5782359 34.3710936,15.6091394 34.6056905,15.671253 C34.8397356,15.7333053 35.0410377,15.8029609 35.2076959,15.8815073 C35.3752126,15.9596858 35.5328573,16.0458968 35.6811206,16.1403243 C35.8293226,16.2343838 35.9345417,16.3062467 35.996594,16.3543802 C36.058585,16.4028815 36.0978276,16.4355632 36.1140151,16.4513829 C36.1840999,16.5052188 36.2562694,16.5242882 36.3319953,16.5081619 C36.4128718,16.5028887 36.4749854,16.4597219 36.5178456,16.3787841 L37.1730738,15.1981962 C37.2377014,15.0902179 37.2240278,14.9879419 37.1326662,14.8908779 C37.1001071,14.8585028 37.0598222,14.8207318 37.0113821,14.7776263 C36.9629421,14.7345821 36.8576617,14.6564036 36.6957861,14.5429681 C36.5340945,14.430207 36.3630215,14.3287895 36.1827509,14.2395127 C36.001806,14.151033 35.767393,14.0607751 35.4789601,13.9692296 C35.19065,13.8771935 34.8926518,13.8156317 34.5854561,13.7830727 L34.5854561,12.359794 C34.5854561,12.2843134 34.5611748,12.2220159 34.5126734,12.1735145 C34.4642334,12.1251971 34.4022424,12.1009771 34.3266391,12.1009771 L33.2347149,12.1009771 C33.1650593,12.1009771 33.1044786,12.1266687 33.0530954,12.1781133 C33.0016509,12.2289446 32.9760819,12.2895867 32.9760819,12.359794 L32.9760819,13.8152638 C32.1297302,13.9770781 31.4426175,14.3378644 30.9139466,14.8986651 C30.3861955,15.4594045 30.1216148,16.1118121 30.1216148,16.8555812 C30.1216148,17.0765659 30.1448537,17.2870655 30.1905345,17.4860375 C30.236338,17.6857454 30.2932397,17.8650348 30.3605039,18.0240285 C30.4277068,18.1831448 30.5232992,18.3393793 30.6472812,18.493345 C30.7713858,18.6467589 30.8886842,18.7784667 30.9991766,18.889143 C31.1098528,18.999758 31.2542532,19.1142972 31.4319484,19.2327607 C31.6097663,19.3512855 31.7620151,19.4472458 31.8883885,19.5200285 C32.0154976,19.5927499 32.18375,19.676079 32.3940043,19.7708743 C32.6042586,19.8646272 32.7699971,19.9363675 32.8911585,19.9848076 C33.0128718,20.0332476 33.1786103,20.1006344 33.3889259,20.1869681 C33.6796887,20.300281 33.8952775,20.387473 34.035815,20.449464 C34.1758619,20.5115163 34.3536797,20.59785 34.5692685,20.7083423 C34.7851026,20.8189573 34.9423181,20.9201295 35.0423253,21.011675 C35.1422712,21.1033432 35.2322225,21.2161042 35.313283,21.3512458 C35.3942207,21.4861421 35.4349349,21.6287643 35.4349349,21.7797868 C35.4349349,22.2058752 35.2690124,22.5342864 34.9371675,22.7661241 C34.6056905,22.9981457 34.2218492,23.1140339 33.7851531,23.1140339 C33.5855679,23.1140339 33.3864119,23.0926958 33.186888,23.0489158 C32.4860404,22.9089302 31.8314254,22.5721187 31.222062,22.0386651 L31.2056905,22.022171 C31.1573118,21.9629392 31.0921937,21.9388418 31.0118078,21.9493883 C30.9255354,21.9606092 30.8636058,21.9926777 30.8257122,22.0468202 L29.9926662,23.1381926 C29.9117897,23.2462323 29.9175535,23.3567859 30.0089764,23.469547 C30.0357717,23.5021674 30.0831693,23.5506687 30.1507401,23.6156642 C30.217943,23.6800465 30.3434579,23.7814027 30.5267942,23.9189356 C30.7098853,24.0564072 30.9092252,24.1854171 31.1247528,24.3069464 C31.3404029,24.4282305 31.6141811,24.5480429 31.9457194,24.6666904 C32.2771964,24.7855217 32.6208754,24.8688509 32.9770629,24.9172909 L32.9770629,26.3321692 C32.9770629,26.4026218 33.0022027,26.4633252 33.0535246,26.5146471 C33.1049692,26.5654171 33.1654885,26.5911087 33.2358186,26.5911087 L34.327191,26.5911087 C34.4027329,26.5911087 34.4647239,26.5670114 34.5131639,26.51851 C34.5616653,26.4702539 34.585824,26.408079 34.585824,26.3321692 L34.585824,24.9172909 C35.4431513,24.7771214 36.1400747,24.4094063 36.6764101,23.8133486 C37.2125616,23.2176588 37.4809439,22.5077977 37.4809439,21.6830294 C37.480576,21.4133594 37.4455643,21.1601223 37.374805,20.9225208" id="Fill-5" fill="#4DC4BC" mask="url(#mask-2)"></path>
                        </g>
                    </g>
                </g>
            </g>
        </g>
    </g>
</svg>