<?xml version="1.0" encoding="UTF-8"?>
<svg width="14px" height="14px" viewBox="0 0 14 14" version="1.1" xmlns="http://www.w3.org/2000/svg" xmlns:xlink="http://www.w3.org/1999/xlink">
    <!-- Generator: Sketch 52.5 (67469) - http://www.bohemiancoding.com/sketch -->
    <title>icon_close2@2x</title>
    <desc>Created with Sketch.</desc>
    <g id="钱包IM&amp;转账" stroke="none" stroke-width="1" fill="none" fill-rule="evenodd">
        <g id="提现" transform="translate(-346.000000, -136.000000)" fill="#D8D8D8" fill-rule="nonzero" stroke="#979797">
            <path d="M360.977922,142.477922 L352.977922,142.477922 L352.977922,134.477922 C352.977922,134.339851 352.865993,134.227922 352.727922,134.227922 C352.589851,134.227922 352.477922,134.339851 352.477922,134.477922 L352.477922,142.477922 L344.477922,142.477922 C344.339851,142.477922 344.227922,142.589851 344.227922,142.727922 C344.227922,142.865993 344.339851,142.977922 344.477922,142.977922 L352.477922,142.977922 L352.477922,150.977922 C352.477922,151.115993 352.589851,151.227922 352.727922,151.227922 C352.865993,151.227922 352.977922,151.115993 352.977922,150.977922 L352.977922,142.977922 L360.977922,142.977922 C361.115993,142.977922 361.227922,142.865993 361.227922,142.727922 C361.227922,142.589851 361.115993,142.477922 360.977922,142.477922 Z" id="icon_close2" transform="translate(352.727922, 142.727922) rotate(-45.000000) translate(-352.727922, -142.727922) "></path>
        </g>
    </g>
</svg>