<?xml version="1.0" encoding="UTF-8"?>
<svg width="43px" height="46px" viewBox="0 0 43 46" version="1.1" xmlns="http://www.w3.org/2000/svg" xmlns:xlink="http://www.w3.org/1999/xlink">
    <!-- Generator: Sketch 52.5 (67469) - http://www.bohemiancoding.com/sketch -->
    <title>icon_logo@2x</title>
    <desc>Created with Sketch.</desc>
    <g id="钱包IM&amp;转账" stroke="none" stroke-width="1" fill="none" fill-rule="evenodd">
        <g id="转账-加载中动画" transform="translate(-163.000000, -281.000000)" fill-rule="nonzero">
            <g id="icon_logo" transform="translate(166.000000, 284.000000)">
                <path d="M18.3257576,36.6515152 C20.8789192,36.6515152 23.310133,36.129395 25.5184506,35.1861034 C26.7759886,34.648941 35.1925438,41.2082078 36.2868791,40.4165325 C37.6930256,39.3992834 31.7177573,30.95431 32.7841223,29.5871727 C35.2076385,26.4800947 36.6515152,22.5715439 36.6515152,18.3257576 C36.6515152,8.20472114 28.446794,0 18.3257576,0 C8.20472114,0 0,8.20472114 0,18.3257576 C0,28.446794 8.20472114,36.6515152 18.3257576,36.6515152 Z" id="椭圆形" stroke="#FFFFFF" stroke-width="5"></path>
                <path d="M17.3069619,21.1628573 C17.0677978,21.224554 16.8157496,21.2423304 16.5628433,21.2111452 L15.2200921,21.0455743 C14.2984789,20.9319328 13.6434885,20.092693 13.7571301,19.1710798 C13.7836586,18.9559381 13.8515392,18.747956 13.9570337,18.5585869 L18.2989252,10.7646295 C18.8164178,9.83569907 19.7869811,9.25011544 20.8500432,9.22542762 L23.1216657,9.17267302 C24.1764352,9.14817778 25.0513522,9.98338014 25.0758475,11.0381497 C25.0859599,11.4735937 24.9469661,11.8994193 24.6819048,12.2450437 L21.097426,16.9189962 C21.2195626,16.903797 21.3434062,16.8960256 21.4683677,16.8960256 L22.5755446,16.8960256 C23.3689197,16.8960256 24.0120772,17.5391831 24.0120772,18.3325582 C24.0120772,18.6413038 23.9126057,18.9418343 23.7284041,19.1896117 L17.1639804,28.0196995 C16.6504064,28.71053 15.6880253,28.8826183 14.9668697,28.4125761 C14.2453756,27.9423134 14.0134609,26.9923624 14.4370906,26.2425367 L17.3069619,21.1628573 Z" id="合并形状" fill="#FFFFFF"></path>
            </g>
        </g>
    </g>
</svg>