<?xml version="1.0" encoding="UTF-8"?>
<svg width="60px" height="60px" viewBox="0 0 60 60" version="1.1" xmlns="http://www.w3.org/2000/svg" xmlns:xlink="http://www.w3.org/1999/xlink">
    <!-- Generator: Sketch 52.5 (67469) - http://www.bohemiancoding.com/sketch -->
    <title>mdpi/contact_icon_transfer</title>
    <desc>Created with Sketch.</desc>
    <g id="聊天" stroke="none" stroke-width="1" fill="none" fill-rule="evenodd">
        <g id="聊天-发送" transform="translate(-22.000000, -556.000000)" fill-rule="nonzero">
            <g id="功能" transform="translate(0.000000, 443.000000)">
                <g id="contact_icon_transfer" transform="translate(22.000000, 113.000000)">
                    <circle id="椭圆形-copy-11" fill="#00AB9F" cx="30" cy="30" r="30"></circle>
                    <g id="分组-2" transform="translate(19.000000, 22.000000)" fill="#FFFFFF">
                        <path d="M6.99170939,3.15370557 L20.625,3.15370557 C21.3843915,3.15370557 22,3.76931403 22,4.52870557 C22,5.2880971 21.3843915,5.90370557 20.625,5.90370557 L1.375,5.90370557 C0.615608469,5.90370557 9.29986408e-17,5.2880971 0,4.52870557 C-7.07881562e-17,3.9506764 0.35667493,3.45595314 0.861943362,3.25261719 C0.892812646,3.22985962 0.925312174,3.20863581 0.95939618,3.18911421 L6.39290825,0.0770723254 C6.45343005,0.0424084915 6.52196365,0.0241718898 6.59170939,0.0241718898 C6.81262329,0.0241718898 6.99170939,0.20325799 6.99170939,0.42417189 L6.99170939,3.15370557 Z" id="合并形状"></path>
                        <path d="M6.99170939,13.1537056 L20.625,13.1537056 C21.3843915,13.1537056 22,13.769314 22,14.5287056 C22,15.2880971 21.3843915,15.9037056 20.625,15.9037056 L1.375,15.9037056 C0.615608469,15.9037056 9.29986408e-17,15.2880971 0,14.5287056 C-7.07881562e-17,13.9506764 0.35667493,13.4559531 0.861943362,13.2526172 C0.892812646,13.2298596 0.925312174,13.2086358 0.95939618,13.1891142 L6.39290825,10.0770723 C6.45343005,10.0424085 6.52196365,10.0241719 6.59170939,10.0241719 C6.81262329,10.0241719 6.99170939,10.203258 6.99170939,10.4241719 L6.99170939,13.1537056 Z" id="合并形状-copy-3" transform="translate(11.000000, 12.951853) rotate(-180.000000) translate(-11.000000, -12.951853) "></path>
                    </g>
                </g>
            </g>
        </g>
    </g>
</svg>