<?xml version="1.0" encoding="UTF-8"?>
<svg width="18px" height="18px" viewBox="0 0 18 18" version="1.1" xmlns="http://www.w3.org/2000/svg" xmlns:xlink="http://www.w3.org/1999/xlink">
    <!-- Generator: Sketch 52.5 (67469) - http://www.bohemiancoding.com/sketch -->
    <title>icon_addhuilv@2x</title>
    <desc>Created with Sketch.</desc>
    <g id="钱包" stroke="none" stroke-width="1" fill="none" fill-rule="evenodd">
        <g id="提现及添加新卡" transform="translate(-137.000000, -136.000000)" fill="#979797" fill-rule="nonzero">
            <path d="M145.1,144.1 L145.1,136.9 C145.1,136.402944 145.502944,136 146,136 C146.497056,136 146.9,136.402944 146.9,136.9 L146.9,144.1 L154.1,144.1 C154.597056,144.1 155,144.502944 155,145 C155,145.497056 154.597056,145.9 154.1,145.9 L146.9,145.9 L146.9,153.1 C146.9,153.597056 146.497056,154 146,154 C145.502944,154 145.1,153.597056 145.1,153.1 L145.1,145.9 L137.9,145.9 C137.402944,145.9 137,145.497056 137,145 C137,144.502944 137.402944,144.1 137.9,144.1 L145.1,144.1 Z" id="icon_addhuilv"></path>
        </g>
    </g>
</svg>