<?xml version="1.0" encoding="UTF-8"?>
<svg width="11px" height="12px" viewBox="0 0 11 12" version="1.1" xmlns="http://www.w3.org/2000/svg" xmlns:xlink="http://www.w3.org/1999/xlink">
    <!-- Generator: Sketch 52.5 (67469) - http://www.bohemiancoding.com/sketch -->
    <title>icon_edit@2x</title>
    <desc>Created with Sketch.</desc>
    <g id="彧讯" stroke="none" stroke-width="1" fill="none" fill-rule="evenodd">
        <g id="发朋友圈" transform="translate(-24.000000, -371.000000)" fill-rule="nonzero">
            <g id="icon_edit" transform="translate(24.000000, 371.000000)">
                <path d="M10.5968075,5.69131112 C10.5578567,5.87013997 10.4694034,6.04036396 10.3314477,6.18011132 L5.75341379,10.8176002 C5.36541709,11.2106358 4.73226529,11.2147207 4.33922966,10.826724 C4.33616882,10.8237024 4.3331275,10.820661 4.33010589,10.8176002 L0.350393126,6.78620284 C-0.0340682745,6.39674844 -0.0340682745,5.77059689 0.350393126,5.38114248 L4.92842702,0.743653603 C5.05475353,0.615686482 5.20706811,0.528950716 5.36862194,0.483554362 C5.44292638,0.412796365 5.5416726,0.373231071 5.64446151,0.373231071 L10.27073,0.373231071 C10.4916439,0.373231071 10.67073,0.552317171 10.67073,0.773231071 L10.67073,5.45958098 C10.67073,5.54595258 10.6433548,5.62593036 10.5968075,5.69131112 Z" id="合并形状" fill="#5E6166"></path>
                <ellipse id="椭圆形" fill="#FFFFFF" cx="7.61538462" cy="3.42857143" rx="1" ry="1"></ellipse>
            </g>
        </g>
    </g>
</svg>