<?xml version="1.0" encoding="UTF-8"?>
<svg width="18px" height="17px" viewBox="0 0 18 17" version="1.1" xmlns="http://www.w3.org/2000/svg" xmlns:xlink="http://www.w3.org/1999/xlink">
    <!-- Generator: Sketch 52.5 (67469) - http://www.bohemiancoding.com/sketch -->
    <title>icon_Collection@2x</title>
    <desc>Created with Sketch.</desc>
    <g id="彧讯" stroke="none" stroke-width="1" fill="none" fill-rule="evenodd">
        <g id="朋友圈" transform="translate(-341.000000, -577.000000)" fill-rule="nonzero" stroke="#000000" stroke-width="2">
            <g id="大牙动态" transform="translate(16.000000, 283.000000)">
                <path d="M334,307.5 L330.503405,309.338269 C330.01456,309.59527 329.409933,309.407323 329.152932,308.918479 C329.050593,308.723818 329.015279,308.50085 329.052455,308.284092 L329.720246,304.390576 L326.891441,301.633173 C326.495957,301.247672 326.487865,300.614559 326.873366,300.219075 C327.026875,300.061592 327.228017,299.959104 327.445654,299.92748 L331.354966,299.359424 L333.103264,295.816986 C333.347686,295.321732 333.947312,295.118393 334.442566,295.362815 C334.639778,295.460146 334.799406,295.619773 334.896736,295.816986 L336.645034,299.359424 L340.554346,299.92748 C341.100891,300.006897 341.479572,300.51434 341.400155,301.060885 C341.36853,301.278522 341.266043,301.479665 341.108559,301.633173 L338.279754,304.390576 L338.947545,308.284092 C339.040906,308.828429 338.675318,309.345385 338.130981,309.438746 C337.914224,309.475923 337.691256,309.440608 337.496595,309.338269 L334,307.5 Z" id="icon_Collection"></path>
            </g>
        </g>
    </g>
</svg>