<?xml version="1.0" encoding="UTF-8"?>
<svg width="40px" height="40px" viewBox="0 0 40 40" version="1.1" xmlns="http://www.w3.org/2000/svg" xmlns:xlink="http://www.w3.org/1999/xlink">
    <!-- Generator: Sketch 52.5 (67469) - http://www.bohemiancoding.com/sketch -->
    <title>icon_rings@2x</title>
    <desc>Created with Sketch.</desc>
    <g id="彧讯" stroke="none" stroke-width="1" fill="none" fill-rule="evenodd">
        <g id="首页" transform="translate(-16.000000, -128.000000)" fill-rule="nonzero">
            <g id="系统通知窗口" transform="translate(0.000000, 112.000000)">
                <g id="icon_rings" transform="translate(16.000000, 16.000000)">
                    <circle id="椭圆形-copy-2" fill="#00AB9F" cx="20" cy="20" r="20"></circle>
                    <g transform="translate(11.000000, 10.000000)" fill="#FFFFFF">
                        <path d="M2.94047619,9.74006478 L2.94047619,15.1547619 L16.0595238,15.1547619 L16.0595238,9.73064938 L16.0585837,9.27826843 C16.0585837,6.03535903 13.3364443,3.39952848 9.96783285,3.40171988 L9.03407234,3.40232732 C5.66512445,3.40451895 2.94243866,6.04442098 2.94243866,9.28768383 L2.94243866,9.74006478 L2.94047619,9.74006478 Z M1.58931137,9.04761905 C1.71966077,5.15682127 5.00693778,2.04780398 9.03318947,2.04518475 L9.96694998,2.04457731 C13.9967843,2.04195576 17.2866514,5.15222548 17.4120201,9.04761905 L17.4166667,9.04761905 L17.4166667,16.5119048 L1.58333333,16.5119048 L1.58333333,9.04761905 L1.58931137,9.04761905 Z" id="合并形状"></path>
                        <rect id="矩形" x="-0.000110444568" y="15.1494606" width="19" height="1.35714286" rx="0.678571429"></rect>
                        <rect id="矩形" x="8.5952381" y="0" width="1.35714286" height="2.71428571" rx="0.678571429"></rect>
                        <path d="M6.60511055,18.1022333 C7.5472227,19.6055063 8.58758268,20.3571429 9.72619048,20.3571429 C10.8648187,20.3571429 11.9051955,19.6054794 12.8473211,18.1021524 L12.8473093,18.1021451 C12.9352893,17.9617576 12.8928046,17.7766292 12.7524171,17.6886492 C12.7046709,17.658727 12.6494627,17.6428571 12.5931153,17.6428571 L6.85941765,17.6427357 C6.69366519,17.6427357 6.55929626,17.7771047 6.55929626,17.9428571 C6.55929626,17.999231 6.57517386,18.054465 6.60511055,18.1022333 Z" id="路径"></path>
                    </g>
                </g>
            </g>
        </g>
    </g>
</svg>