<?xml version="1.0" encoding="UTF-8"?>
<svg width="24px" height="24px" viewBox="0 0 24 24" version="1.1" xmlns="http://www.w3.org/2000/svg" xmlns:xlink="http://www.w3.org/1999/xlink">
    <!-- Generator: Sketch 52.5 (67469) - http://www.bohemiancoding.com/sketch -->
    <title>icon_cishan@2x</title>
    <desc>Created with Sketch.</desc>
    <g id="彧讯" stroke="none" stroke-width="1" fill="none" fill-rule="evenodd">
        <g id="应用" transform="translate(-16.000000, -317.000000)" fill-rule="nonzero">
            <g id="icon_cishan" transform="translate(16.000000, 317.000000)">
                <path d="M12.2582357,23.1611816 C11.8946408,23.3986095 11.4040009,23.3784997 11.0586831,23.0807217 C9.89217067,22.0747882 8.81165897,21.0839684 7.81714801,20.1082622 C5.64369121,17.9759024 1.65195796,13.1307142 0.606645975,10.5141337 C-0.438666012,7.89755319 -0.159930345,4.48096512 1.65195796,2.66439218 C3.46384627,0.84781924 5.59216025,-0.204519697 8.35077031,0.273525814 C9.68112558,0.504065959 10.8097982,1.08084663 11.7367881,2.00386783 C12.6755332,1.04356743 13.8252841,0.445512999 15.1860408,0.209704533 C17.9446508,-0.268340978 20.0729648,0.783997959 21.8848531,2.6005709 C23.6967414,4.41714384 23.9754771,7.83373191 22.9301651,10.4503124 C21.8848531,13.0668929 17.8931198,17.9120811 15.719663,20.0444409 C14.7251521,21.0201471 13.6446404,22.0109669 12.4781279,23.0169004 C12.4098148,23.0758088 12.3358145,23.1238506 12.2582357,23.1611816 Z" id="合并形状" fill="#00AB9F"></path>
                <path d="M9,12 C9,13.6568542 10.3431458,15 12,15 C13.6568542,15 15,13.6568542 15,12" id="路径" stroke="#FFFFFF" stroke-linecap="round"></path>
            </g>
        </g>
    </g>
</svg>