<?xml version="1.0" encoding="UTF-8"?>
<svg width="18px" height="18px" viewBox="0 0 18 18" version="1.1" xmlns="http://www.w3.org/2000/svg" xmlns:xlink="http://www.w3.org/1999/xlink">
    <!-- Generator: Sketch 52.5 (67469) - http://www.bohemiancoding.com/sketch -->
    <title>Phone_icon_add friend@2x</title>
    <desc>Created with Sketch.</desc>
    <g id="彧讯" stroke="none" stroke-width="1" fill="none" fill-rule="evenodd">
        <g id="通讯录" transform="translate(-27.000000, -139.000000)" fill="#FFFFFF" fill-rule="nonzero">
            <g id="分组" transform="translate(0.000000, 120.000000)">
                <g id="Phone_icon_add-friend" transform="translate(27.000000, 19.000000)">
                    <circle id="椭圆形" cx="7.36363636" cy="4.09090909" r="4.09090909"></circle>
                    <path d="M5.18254583,9.81818182 L9.17505001,9.81818182 C11.6948707,9.81818182 13.9100204,11.4870361 14.6051082,13.9090909 L14.6051082,13.9090909 C15.0935963,15.6112424 14.1097276,17.3871067 12.4075761,17.8755947 C12.1199955,17.9581254 11.822279,18 11.5230902,18 L3.35721298,18 C1.50185748,18 -0.0022053332,16.4959372 -0.0022053332,14.6405817 C-0.0022053332,14.3945353 0.0248253526,14.1492336 0.0784002907,13.9090909 L0.0784002907,13.9090909 C0.61175967,11.5183765 2.73305866,9.81818182 5.18254583,9.81818182 Z" id="矩形"></path>
                    <path d="M15.3,6.75 L17.1,6.75 C17.3485281,6.75 17.55,6.95147186 17.55,7.2 C17.55,7.44852814 17.3485281,7.65 17.1,7.65 L15.3,7.65 L15.3,9.45 C15.3,9.69852814 15.0985281,9.9 14.85,9.9 C14.6014719,9.9 14.4,9.69852814 14.4,9.45 L14.4,7.65 L12.6,7.65 C12.3514719,7.65 12.15,7.44852814 12.15,7.2 C12.15,6.95147186 12.3514719,6.75 12.6,6.75 L14.4,6.75 L14.4,4.95 C14.4,4.70147186 14.6014719,4.5 14.85,4.5 C15.0985281,4.5 15.3,4.70147186 15.3,4.95 L15.3,6.75 Z" id="合并形状"></path>
                </g>
            </g>
        </g>
    </g>
</svg>