<?xml version="1.0" encoding="UTF-8"?>
<svg width="21px" height="21px" viewBox="0 0 21 21" version="1.1" xmlns="http://www.w3.org/2000/svg" xmlns:xlink="http://www.w3.org/1999/xlink">
    <!-- Generator: Sketch 52.5 (67469) - http://www.bohemiancoding.com/sketch -->
    <title>icon_friend@2x</title>
    <desc>Created with Sketch.</desc>
    <g id="首页" stroke="none" stroke-width="1" fill="none" fill-rule="evenodd">
        <g id="手机联系人" transform="translate(-254.000000, -626.000000)" fill-rule="nonzero" stroke="#979797">
            <g id="标签栏" transform="translate(0.000000, 617.000000)">
                <g id="icon_friend" transform="translate(254.000000, 9.000000)">
                    <circle id="椭圆形" cx="10.5" cy="10.5" r="10"></circle>
                    <path d="M9.71561061,14.4743072 L7.02608132,16.0616359 C6.83583064,16.1739196 6.59057807,16.1107149 6.47829435,15.9204643 C6.43020652,15.8389855 6.41255637,15.743099 6.42847917,15.6498375 L6.97983299,12.4205036 C7.03504416,12.0971263 6.92813339,11.7672351 6.69373913,11.5377127 L4.32107927,9.21436901 C4.16323779,9.05980829 4.1605782,8.80655626 4.31513892,8.64871478 C4.37640507,8.58614818 4.45650993,8.54541488 4.54315943,8.53276641 L7.81664058,8.05492744 C8.14272481,8.00732803 8.42442441,7.80213188 8.56973316,7.50635833 L10.0328366,4.5282356 C10.1302473,4.32995775 10.3699502,4.24818876 10.5682281,4.34559946 C10.6476278,4.38460725 10.7118564,4.44883588 10.7508642,4.5282356 L12.2139676,7.50635833 C12.3592764,7.80213188 12.640976,8.00732803 12.9670602,8.05492744 L16.4772642,8.56732149 C16.6412121,8.59125342 16.7547175,8.74356013 16.7307856,8.90750806 C16.7220633,8.9672612 16.6955115,9.02299128 16.6546029,9.06740976 L14.1650003,11.7706143 C13.959696,11.9935331 13.8665586,12.2975281 13.9117541,12.5971946 L14.3811219,15.7093156 C14.4140674,15.9277591 14.2636916,16.1315501 14.0452481,16.1644956 C13.9597185,16.1773951 13.8723118,16.1622226 13.796133,16.1212529 L10.6975348,14.4547951 C10.3893562,14.2890535 10.0169615,14.2964535 9.71561061,14.4743072 Z" id="星形" stroke-linecap="round"></path>
                </g>
            </g>
        </g>
    </g>
</svg>