<?xml version="1.0" encoding="UTF-8"?>
<svg width="48px" height="48px" viewBox="0 0 48 48" version="1.1" xmlns="http://www.w3.org/2000/svg" xmlns:xlink="http://www.w3.org/1999/xlink">
    <!-- Generator: Sketch 52.6 (67491) - http://www.bohemiancoding.com/sketch -->
    <title>icon_friend@2x</title>
    <desc>Created with Sketch.</desc>
    <g id="推送详情" stroke="none" stroke-width="1" fill="none" fill-rule="evenodd">
        <g id="推送分享2" transform="translate(-90.000000, -503.000000)">
            <g id="分组" transform="translate(0.000000, 471.000000)">
                <g id="icon_friend" transform="translate(90.000000, 32.000000)">
                    <circle id="椭圆形-copy" fill="#52BFC4" fill-rule="nonzero" cx="24" cy="24" r="24"></circle>
                    <g id="朋友圈" transform="translate(9.750000, 9.750000)">
                        <rect id="矩形" fill="#000000" opacity="0" x="0" y="0" width="28.5" height="28.5"></rect>
                        <path d="M14.2963682,1.78497949 C13.8203291,1.78497949 13.352751,1.81370215 12.892771,1.86783545 C11.7654346,1.99538965 10.684856,2.27702197 9.66904248,2.68601367 C9.66904248,2.68601367 18.0450088,10.9749492 18.2680269,11.2830776 L18.2680269,2.44376367 C18.0184014,2.35879248 17.7634043,2.28228223 17.506292,2.21103223 C16.4831587,1.93580127 15.4067271,1.78497949 14.2963682,1.78497949 Z M23.0453115,5.38594336 C22.7095459,5.05017773 22.3577769,4.73982275 21.9944854,4.45201172 C21.1061982,3.74641406 20.1435439,3.17911377 19.137249,2.75189209 C19.137249,2.75189209 19.198897,14.5322168 19.137249,14.9083945 L25.389353,8.65751514 C25.272375,8.42155518 25.1460454,8.18668066 25.0131196,7.95617578 C24.4828916,7.03813623 23.8305923,6.17002734 23.0453115,5.38594336 Z M25.7897446,9.63826025 C25.7897446,9.63826025 17.503147,18.0131968 17.1928477,18.2362427 L26.0331636,18.2362427 C26.1181348,17.9866172 26.1947285,17.7315645 26.2647817,17.4744521 C26.5409868,16.4490645 26.6920034,15.3759448 26.6920034,14.2645283 C26.6920034,13.789519 26.6622231,13.320939 26.6079229,12.8609033 C26.4804521,11.7335391 26.2000166,10.6529883 25.7897446,9.63826025 Z M13.4962251,19.1670293 L19.7481899,25.4179644 C19.9862373,25.30004 20.2189966,25.1757144 20.4505591,25.0418701 C21.3686265,24.5137017 22.2356777,23.8603447 23.0219883,23.074062 C23.3565571,22.7393262 23.6658823,22.3865273 23.9548623,22.0232358 C24.6592632,21.1348096 25.2278438,20.1732964 25.6548984,19.1659438 C25.6548984,19.1659438 13.8735439,19.2276753 13.4962251,19.1670293 Z M10.2884722,17.2034795 L10.2884722,26.0437676 C10.5393223,26.1287666 10.7941802,26.2063345 11.0502905,26.2754971 C12.0746206,26.5517578 13.1489092,26.7025796 14.2603535,26.7025796 C14.7341382,26.7025796 15.2027183,26.6727993 15.6617798,26.6196958 C16.789144,26.4911118 17.8697505,26.2107041 18.8855083,25.8004321 C18.8865381,25.80046 10.5115737,17.5137788 10.2884722,17.2034795 Z M9.408646,13.5164312 L3.15879639,19.7672827 C3.27577441,20.0064155 3.40224316,20.2402046 3.53502979,20.4696519 C4.06317041,21.3898345 4.71652734,22.2568301 5.50283789,23.0421108 C5.8375459,23.3779043 6.19034473,23.6870625 6.55366406,23.9750405 C7.44295313,24.6816958 8.40251807,25.2479663 9.41195801,25.675021 C9.41195801,25.675021 9.34816699,13.8936665 9.408646,13.5164312 Z M2.28965771,11.0184229 C2.01445459,12.0427529 1.86363281,13.1170137 1.86363281,14.228458 C1.86363281,14.7022705 1.89338525,15.1718804 1.94754639,15.6309976 C2.07510059,16.7593638 2.35450635,17.839998 2.76678223,18.8536406 C2.76678223,18.8536406 11.0525449,10.4786763 11.3627886,10.2566045 L2.52135938,10.2566045 C2.43636035,10.5051724 2.3598501,10.7612549 2.28965771,11.0184229 Z M8.04548877,3.49350439 C7.12533398,4.0226748 6.25828271,4.67619873 5.47405957,5.46025488 C5.13620654,5.79713379 4.82807813,6.14990479 4.54012793,6.51108105 C3.83453027,7.39950732 3.26720215,8.36207812 2.83906201,9.37043262 C2.83906201,9.37043262 14.6225039,9.30772705 14.9987373,9.36831738 L8.74774658,3.11743799 C8.50983838,3.23636426 8.27496387,3.36074561 8.04548877,3.49350439 Z" id="形状" fill="#FFFFFF" fill-rule="nonzero"></path>
                    </g>
                </g>
            </g>
        </g>
    </g>
</svg>