<?xml version="1.0" encoding="UTF-8"?>
<svg width="48px" height="48px" viewBox="0 0 48 48" version="1.1" xmlns="http://www.w3.org/2000/svg" xmlns:xlink="http://www.w3.org/1999/xlink">
    <!-- Generator: Sketch 52.6 (67491) - http://www.bohemiancoding.com/sketch -->
    <title>icon_save@2x</title>
    <desc>Created with Sketch.</desc>
    <g id="推送详情" stroke="none" stroke-width="1" fill="none" fill-rule="evenodd">
        <g id="推送分享2" transform="translate(-311.000000, -503.000000)">
            <g id="分组" transform="translate(0.000000, 471.000000)">
                <g id="icon_save" transform="translate(311.000000, 32.000000)">
                    <circle id="椭圆形-copy-2" fill="#FFAE68" fill-rule="nonzero" cx="24" cy="24" r="24"></circle>
                    <rect id="矩形" fill="#FDFEF9" fill-rule="nonzero" x="11.7333333" y="10.6666667" width="25.6" height="25.6" rx="8"></rect>
                    <g id="向下" transform="translate(19.200000, 17.066667)" fill="#F99D30">
                        <path d="M0.406892413,9.57490384 L4.72295696,13.8909684 C5.06004187,14.2280664 5.60661647,14.2280795 5.94370139,13.8909684 L10.2597659,9.57490384 C10.5968508,9.23780583 10.5968508,8.69124433 10.2597659,8.35413322 C9.92268102,8.01699429 9.37610642,8.01699429 9.0390215,8.35413322 L6.19654945,11.1966708 L6.19654945,1.19564573 C6.19654945,0.718935946 5.81010034,0.332432818 5.33333654,0.332432818 C4.85661366,0.332432818 4.47012363,0.718935946 4.47012363,1.19564573 L4.47012363,11.1966708 L1.62765157,8.3541987 C1.45910911,8.18564315 1.23818073,8.10133099 1.01728018,8.10133099 C0.796392717,8.10133099 0.575464335,8.18560206 0.406921877,8.35414468 C0.0698107704,8.69130981 0.0698107704,9.23780419 0.406921877,9.5749153 L0.406892413,9.57490384 Z" id="路径"></path>
                    </g>
                </g>
            </g>
        </g>
    </g>
</svg>