<?xml version="1.0" encoding="UTF-8"?>
<svg width="14px" height="14px" viewBox="0 0 14 14" version="1.1" xmlns="http://www.w3.org/2000/svg" xmlns:xlink="http://www.w3.org/1999/xlink">
    <!-- Generator: Sketch 52.6 (67491) - http://www.bohemiancoding.com/sketch -->
    <title>icon_share@2x</title>
    <desc>Created with Sketch.</desc>
    <g id="推送详情" stroke="none" stroke-width="1" fill="none" fill-rule="evenodd">
        <g id="推送分享2" transform="translate(-345.000000, -35.000000)" fill="#FFFFFF" stroke="#000000">
            <path d="M357.920392,36.0825376 L358.227619,35.7753105 L358.45008,36.615284 C358.48312,36.7400365 358.5,36.8691337 358.5,37 L358.5,47 C358.5,47.8284271 357.828427,48.5 357,48.5 L347,48.5 C346.171573,48.5 345.5,47.8284271 345.5,47 L345.5,37 C345.5,36.1715729 346.171573,35.5 347,35.5 L357,35.5 C357.133308,35.5 357.264772,35.5175156 357.391668,35.5517788 L358.2259,35.7770297 L357.920392,36.0825376 Z M358.5,45.5 L357.5,45.5 L357.5,40.5 L358.5,40.5 L358.5,37 C358.5,36.1715729 357.828427,35.5 357,35.5 L353.5,35.5 L353.5,36.5 L348.5,36.5 L348.5,35.5 L347,35.5 C346.171573,35.5 345.5,36.1715729 345.5,37 L345.5,47 C345.5,47.8284271 346.171573,48.5 347,48.5 L357,48.5 C357.828427,48.5 358.5,47.8284271 358.5,47 L358.5,45.5 Z" id="icon_share"></path>
        </g>
    </g>
</svg>