<?xml version="1.0" encoding="UTF-8"?>
<svg width="48px" height="48px" viewBox="0 0 48 48" version="1.1" xmlns="http://www.w3.org/2000/svg" xmlns:xlink="http://www.w3.org/1999/xlink">
    <!-- Generator: Sketch 52.6 (67491) - http://www.bohemiancoding.com/sketch -->
    <title>icon_wechat@2x</title>
    <desc>Created with Sketch.</desc>
    <g id="推送详情" stroke="none" stroke-width="1" fill="none" fill-rule="evenodd">
        <g id="推送分享2" transform="translate(-16.000000, -503.000000)">
            <g id="分组" transform="translate(0.000000, 471.000000)">
                <g id="icon_wechat" transform="translate(16.000000, 32.000000)">
                    <circle id="椭圆形" fill="#5BE064" fill-rule="nonzero" cx="24" cy="24" r="24"></circle>
                    <g id="web_微信" transform="translate(9.750000, 9.750000)">
                        <rect id="矩形" fill="#000000" opacity="0" x="0" y="0" width="28.5" height="28.5"></rect>
                        <path d="M8.9840127,4.0940918 C1.63663477,5.4063999 -0.812500488,13.707498 5.03183643,17.5070713 C5.35229443,17.7130283 5.35229443,17.6902339 4.87155176,19.1246133 L4.45958203,20.3529243 L5.93977295,19.5594331 L7.41993604,18.7660254 L8.20580127,18.9567583 C9.02974072,19.1627153 10.08271,19.3076924 10.7845781,19.3076924 L11.2042852,19.3076924 L11.0592524,18.7506899 C9.90720117,14.5086152 13.8898535,10.3046147 19.0704243,10.3046147 L19.772376,10.3046147 L19.6273989,9.80107764 C18.4905161,5.82605127 13.6915225,3.25481689 8.9840127,4.09411963 L8.9840127,4.0940918 Z M8.34309668,7.80975146 C9.12130811,8.33627783 9.16711963,9.47307715 8.41935645,9.96139014 C7.20629736,10.7548535 5.78716992,9.35857617 6.60351123,8.16833936 C6.96209912,7.63429834 7.82430762,7.45881738 8.34309668,7.80975146 Z M14.599459,7.80975146 C15.8812354,8.67193213 14.919917,10.6632583 13.4854541,10.1139097 C12.447876,9.71719189 12.325749,8.29046631 13.2947212,7.77927539 C13.676187,7.5732627 14.2713472,7.58851465 14.599459,7.80975146 Z M17.4300601,10.9532124 C13.790688,11.6169507 11.2652651,14.3788901 11.41027,17.552855 C11.6009473,21.8025835 16.5831592,24.7323779 21.3669287,23.4200698 L21.9315015,23.2674668 L23.1217661,23.9084106 C23.7779341,24.2669985 24.3272549,24.5264209 24.342479,24.4958613 C24.3577866,24.4577314 24.2280894,23.999978 24.0602622,23.4735352 C23.6787686,22.2985225 23.6711147,22.382436 24.1823335,22.01625 C29.9350195,17.8885371 24.8842573,9.60277441 17.4300322,10.9532124 L17.4300601,10.9532124 Z M17.2851108,14.3788901 C17.6054575,14.5925288 17.7733403,15.1266255 17.6360449,15.5157729 C17.3461465,16.347394 16.1025,16.408374 15.7667344,15.6072847 C15.3852407,14.6840962 16.43821,13.8295693 17.2851108,14.3788901 Z M22.3817124,14.4704575 C22.8852217,14.9511167 22.8013359,15.7675415 22.2138574,16.0727197 C21.3135747,16.5304731 20.3675083,15.6149385 20.8329155,14.7375059 C21.1380659,14.1729053 21.9239312,14.035582 22.3816846,14.4704575 L22.3817124,14.4704575 Z" id="形状" fill="#FFFFFF" fill-rule="nonzero"></path>
                    </g>
                </g>
            </g>
        </g>
    </g>
</svg>