<?xml version="1.0" encoding="UTF-8"?>
<svg width="22px" height="22px" viewBox="0 0 22 22" version="1.1" xmlns="http://www.w3.org/2000/svg" xmlns:xlink="http://www.w3.org/1999/xlink">
    <!-- Generator: Sketch 52.5 (67469) - http://www.bohemiancoding.com/sketch -->
    <title>icon_transfer@2x</title>
    <desc>Created with Sketch.</desc>
    <g id="钱包IM&amp;转账" stroke="none" stroke-width="1" fill="none" fill-rule="evenodd">
        <g id="彧钱包" transform="translate(-302.000000, -271.000000)">
            <g id="icon_transfer" transform="translate(301.000000, 272.000000)">
                <path d="M2,10.6464301 C2.38581517,15.8168665 6.73270087,20 12.0036876,20 C16.6298469,20 20.5225739,16.8609611 21.6666094,12.5973999 M22,9.61242752 C21.7963,4.26920485 17.3987408,0 12.0036876,0 C7.11678589,0 3.04832258,3.5028598 2.17387984,8.13387298" id="形状" stroke="#00AB9F" stroke-width="1.5" stroke-linecap="round" fill-rule="nonzero"></path>
                <path d="M3.48508982,10.0585638 L4.26719531,12.7782286 C4.34351369,13.0436153 4.19024351,13.320622 3.92485678,13.3969404 C3.83542795,13.4226578 3.7405968,13.4229092 3.65103289,13.3976662 L2.04758778,12.9457464 C1.78180019,12.870836 1.62706363,12.5946458 1.70197401,12.3288582 C1.70526449,12.3171833 1.70897872,12.305632 1.71310932,12.2942273 L2.53444895,10.0264823 C2.62848543,9.76684459 2.91519502,9.63259825 3.17483275,9.72663473 C3.3254539,9.78118721 3.44081597,9.90460752 3.48508982,10.0585638 Z" id="三角形" fill="#00AB9F" fill-rule="nonzero" transform="translate(2.984948, 11.556515) rotate(-37.000000) translate(-2.984948, -11.556515) "></path>
                <path d="M21.6007396,7.07189809 L22.3834571,9.81320653 C22.4592733,10.0787372 22.3054793,10.3554534 22.0399487,10.4312696 C21.9490754,10.4572164 21.8527094,10.4568779 21.7620206,10.4302935 L20.1806954,9.966746 C19.9157038,9.88906672 19.7638571,9.6112771 19.8415364,9.34628551 C19.8439777,9.33795734 19.8466355,9.32969414 19.8495069,9.32150431 L20.6481147,7.04374341 C20.7394802,6.7831538 21.0247963,6.6459706 21.2853859,6.73733615 C21.4385837,6.79104897 21.5561682,6.9157955 21.6007396,7.07189809 Z" id="三角形-copy" fill="#00AB9F" fill-rule="nonzero" transform="translate(21.112008, 8.579761) rotate(-210.000000) translate(-21.112008, -8.579761) "></path>
                <text id="$-copy-3" opacity="0.3" font-family="Chalkboard" font-size="14" font-weight="normal" letter-spacing="-0.3376471" fill="#00AB9F">
                    <tspan x="8.11578488" y="15">$</tspan>
                </text>
            </g>
        </g>
    </g>
</svg>