<?xml version="1.0" encoding="UTF-8"?>
<svg width="40px" height="40px" viewBox="0 0 40 40" version="1.1" xmlns="http://www.w3.org/2000/svg" xmlns:xlink="http://www.w3.org/1999/xlink">
    <!-- Generator: Sketch 52.5 (67469) - http://www.bohemiancoding.com/sketch -->
    <title>mdpi/home_icon_person</title>
    <desc>Created with Sketch.</desc>
    <g id="首页" stroke="none" stroke-width="1" fill="none" fill-rule="evenodd">
        <g id="首页“+”" transform="translate(-16.000000, -488.000000)" fill-rule="nonzero">
            <g id="张永志窗口" transform="translate(0.000000, 472.000000)">
                <g id="home_icon_person" transform="translate(16.000000, 16.000000)">
                    <circle id="椭圆形" fill="#00AB9F" cx="20" cy="20" r="20"></circle>
                    <g id="Phone_icon_add-friend" transform="translate(12.000000, 11.000000)" fill="#FFFFFF">
                        <g id="添加" transform="translate(0.500000, 0.000000)">
                            <circle id="椭圆形" cx="7.36363636" cy="4.09090909" r="4.09090909"></circle>
                            <path d="M5.18254583,9.81818182 L9.17505001,9.81818182 C11.6948707,9.81818182 13.9100204,11.4870361 14.6051082,13.9090909 L14.6051082,13.9090909 C15.0935963,15.6112424 14.1097276,17.3871067 12.4075761,17.8755947 C12.1199955,17.9581254 11.822279,18 11.5230902,18 L3.35721298,18 C1.50185748,18 -0.0022053332,16.4959372 -0.0022053332,14.6405817 C-0.0022053332,14.3945353 0.0248253526,14.1492336 0.0784002907,13.9090909 L0.0784002907,13.9090909 C0.61175967,11.5183765 2.73305866,9.81818182 5.18254583,9.81818182 Z" id="矩形"></path>
                        </g>
                    </g>
                </g>
            </g>
        </g>
    </g>
</svg>