<?xml version="1.0" encoding="UTF-8"?>
<svg width="16px" height="16px" viewBox="0 0 16 16" version="1.1" xmlns="http://www.w3.org/2000/svg" xmlns:xlink="http://www.w3.org/1999/xlink">
    <!-- Generator: Sketch 52.5 (67469) - http://www.bohemiancoding.com/sketch -->
    <title>mdpi/icon_yuyin_r2</title>
    <desc>Created with Sketch.</desc>
    <g id="聊天" stroke="none" stroke-width="1" fill="none" fill-rule="evenodd">
        <g id="聊天-语音" transform="translate(-282.000000, -363.000000)" fill-rule="nonzero">
            <g id="icon_yuyin_r2" transform="translate(282.000000, 363.000000)">
                <g id="分组-4">
                    <rect id="矩形" fill="#FFFFFF" x="0" y="0" width="16" height="16"></rect>
                    <g id="分组-3" transform="translate(2.000000, 1.000000)" fill="#979797">
                        <path d="M5.428125,3.5953125 C5.1375,3.196875 4.5609375,3.15 4.2046875,3.496875 L4.1859375,3.5109375 C3.890625,3.796875 3.853125,4.2515625 4.096875,4.584375 C4.753125,5.475 5.1375,6.571875 5.1375,7.7625 C5.1375,8.8640625 4.8046875,9.8859375 4.2375,10.7390625 C4.0078125,11.08125 4.0734375,11.5453125 4.3875,11.8125 C4.7578125,12.1265625 5.3203125,12.0515625 5.5921875,11.6484375 C6.3421875,10.5328125 6.778125,9.1875 6.778125,7.74375 C6.7828125,6.1875 6.28125,4.7578125 5.428125,3.5953125 Z M0.6046875,7.66875 C0.6046875,8.68125 1.1859375,9.50625 1.903125,9.50625 C2.6203125,9.50625 3.2015625,8.6859375 3.2015625,7.66875 C3.2015625,6.65625 2.6203125,5.83125 1.903125,5.83125 C1.1859375,5.83125 0.6046875,6.6515625 0.6046875,7.66875 Z" id="形状"></path>
                    </g>
                </g>
            </g>
        </g>
    </g>
</svg>