<?xml version="1.0" encoding="UTF-8"?>
<svg width="12px" height="15px" viewBox="0 0 12 15" version="1.1" xmlns="http://www.w3.org/2000/svg" xmlns:xlink="http://www.w3.org/1999/xlink">
    <!-- Generator: Sketch 52.5 (67469) - http://www.bohemiancoding.com/sketch -->
    <title>mdpi/icon_yuyin_3</title>
    <desc>Created with Sketch.</desc>
    <g id="聊天" stroke="none" stroke-width="1" fill="none" fill-rule="evenodd">
        <g id="聊天-语音" transform="translate(-287.000000, -500.000000)" fill="#FFFFFF">
            <g id="icon_yuyin_3" transform="translate(293.000000, 507.500000) rotate(-180.000000) translate(-293.000000, -507.500000) translate(287.000000, 500.000000)">
                <path d="M6.91875,0.6796875 L6.8625,0.7453125 C6.5765625,1.078125 6.6,1.575 6.909375,1.884375 C8.390625,3.375 9.309375,5.4328125 9.309375,7.70625 C9.309375,9.9421875 8.41875,11.971875 6.975,13.4578125 C6.675,13.7671875 6.6515625,14.2546875 6.9328125,14.5875 C7.2515625,14.9671875 7.828125,14.990625 8.175,14.6390625 C9.9421875,12.8390625 11.034375,10.36875 11.034375,7.6453125 C11.034375,4.9125 9.9375,2.4375 8.15625,0.6328125 C7.809375,0.28125 7.2375,0.3046875 6.91875,0.6796875 Z" id="路径"></path>
                <path d="M5.428125,3.5953125 C5.1375,3.196875 4.5609375,3.15 4.2046875,3.496875 L4.1859375,3.5109375 C3.890625,3.796875 3.853125,4.2515625 4.096875,4.584375 C4.753125,5.475 5.1375,6.571875 5.1375,7.7625 C5.1375,8.8640625 4.8046875,9.8859375 4.2375,10.7390625 C4.0078125,11.08125 4.0734375,11.5453125 4.3875,11.8125 C4.7578125,12.1265625 5.3203125,12.0515625 5.5921875,11.6484375 C6.3421875,10.5328125 6.778125,9.1875 6.778125,7.74375 C6.7828125,6.1875 6.28125,4.7578125 5.428125,3.5953125 Z M0.6046875,7.66875 C0.6046875,8.68125 1.1859375,9.50625 1.903125,9.50625 C2.6203125,9.50625 3.2015625,8.6859375 3.2015625,7.66875 C3.2015625,6.65625 2.6203125,5.83125 1.903125,5.83125 C1.1859375,5.83125 0.6046875,6.6515625 0.6046875,7.66875 Z" id="形状" fill-rule="nonzero"></path>
            </g>
        </g>
    </g>
</svg>