<?xml version="1.0" encoding="UTF-8"?>
<svg width="30px" height="30px" viewBox="0 0 30 30" version="1.1" xmlns="http://www.w3.org/2000/svg" xmlns:xlink="http://www.w3.org/1999/xlink">
    <!-- Generator: Sketch 52.5 (67469) - http://www.bohemiancoding.com/sketch -->
    <title>mdpi/im_zhuanzhang</title>
    <desc>Created with Sketch.</desc>
    <g id="聊天" stroke="none" stroke-width="1" fill="none" fill-rule="evenodd">
        <g id="聊天-转账" transform="translate(-99.000000, -315.000000)" fill-rule="nonzero">
            <g id="转账" transform="translate(91.000000, 306.000000)">
                <g id="im_zhuanzhang" transform="translate(8.000000, 9.000000)">
                    <g id="transfer" transform="translate(6.964286, 8.860714)" fill="#FFFFFF">
                        <path d="M3.74508266,2.25429833 L14.8986006,2.25429833 C15.3554538,2.25429833 15.7258065,2.62465102 15.7258065,3.08150422 C15.7258065,3.53835741 15.3554538,3.9087101 14.8986006,3.9087101 L0.827205882,3.9087101 C0.642197789,3.9087101 0.471375264,3.84797446 0.33358931,3.74535417 C0.19460061,3.65927506 0.0764746098,3.5390147 -0.00760469819,3.39221528 C-0.28209179,2.91297079 -0.116103121,2.30195062 0.363141369,2.02746353 L3.14628152,0.433421112 C3.20680332,0.398757278 3.27533691,0.380520676 3.34508266,0.380520676 C3.56599656,0.380520676 3.74508266,0.559606776 3.74508266,0.780520676 L3.74508266,2.25429833 Z" id="合并形状"></path>
                        <path d="M3.75481147,9.97572435 L14.9022838,9.97572435 C15.359137,9.97572435 15.7294897,10.346077 15.7294897,10.8029302 C15.7294897,11.2597834 15.359137,11.6301361 14.9022838,11.6301361 L0.830889088,11.6301361 C0.62521331,11.6301361 0.437069538,11.5550727 0.292358484,11.4308465 C0.17541938,11.3481403 0.0757265415,11.2399704 0.0021241146,11.1114632 C-0.272362977,10.6322187 -0.106374309,10.0211986 0.372870182,9.74671148 L3.15601033,8.15266906 C3.21653213,8.11800523 3.28506573,8.09976862 3.35481147,8.09976862 C3.57572537,8.09976862 3.75481147,8.27885472 3.75481147,8.49976862 L3.75481147,9.97572435 Z" id="合并形状-copy-3" transform="translate(7.864745, 10.204596) rotate(-180.000000) translate(-7.864745, -10.204596) "></path>
                    </g>
                    <circle id="椭圆形" stroke="#FFFFFF" stroke-width="1.5" cx="15" cy="15" r="14.25"></circle>
                </g>
            </g>
        </g>
    </g>
</svg>