<?xml version="1.0" encoding="UTF-8"?>
<svg width="56px" height="56px" viewBox="0 0 56 56" version="1.1" xmlns="http://www.w3.org/2000/svg" xmlns:xlink="http://www.w3.org/1999/xlink">
    <!-- Generator: Sketch 52.5 (67469) - http://www.bohemiancoding.com/sketch -->
    <title>mdpi/jiazha touxiang</title>
    <desc>Created with Sketch.</desc>
    <defs>
        <circle id="path-1" cx="28" cy="28" r="28"></circle>
    </defs>
    <g id="朋友圈" stroke="none" stroke-width="1" fill="none" fill-rule="evenodd">
        <g id="朋友圈-copy" transform="translate(-16.000000, -128.000000)">
            <g id="jiazha-touxiang" transform="translate(16.000000, 128.000000)">
                <mask id="mask-2" fill="white">
                    <use xlink:href="#path-1"></use>
                </mask>
                <use id="Mask" fill="#E1E2E4" fill-rule="nonzero" xlink:href="#path-1"></use>
                <g id="无头像" mask="url(#mask-2)" fill="#FFFFFF">
                    <g transform="translate(7.000000, 14.000000)" id="路径">
                        <path d="M39.3951221,33.4671245 L29.903617,29.7681469 C29.903617,29.7681469 28.093479,29.0654229 27.3903249,28.3743106 C26.938328,27.9300548 26.9710128,26.8819897 27.3709721,25.5432015 C27.7709313,24.2044133 32.6366716,18.7636778 32.6366716,13.8213861 C32.6366716,6.18861618 27.6186887,0 21.4292124,0 C15.2401662,0 10.2226134,6.18861618 10.2226134,13.8218162 C10.2226134,18.555527 14.5585153,24.1988224 15.0935145,25.2245243 C15.6289437,26.2502261 15.4986344,27.8135076 15.0758819,28.2870077 C14.4411079,28.998333 12.1217745,29.7113785 12.1217745,29.7113785 L3.5652278,33.5247531 C1.56629188,34.2429594 0,36.1283585 0,38.2554534 L0,39.2643828 C0,41.5858665 1.88539912,43.0063667 4.20258216,43.0063667 L18.5538067,43.0063667 L23.472875,43.0063667 L38.7577678,43.0063667 C41.0753809,43.0063667 42.96078,41.5858665 42.96078,39.2643828 L42.96078,38.2554534 C42.96078,36.1279285 41.3944881,34.1849008 39.3951221,33.4671245 Z"></path>
                    </g>
                </g>
            </g>
        </g>
    </g>
</svg>