<?xml version="1.0" encoding="UTF-8"?>
<svg width="29px" height="29px" viewBox="0 0 29 29" version="1.1" xmlns="http://www.w3.org/2000/svg" xmlns:xlink="http://www.w3.org/1999/xlink">
    <!-- Generator: Sketch 52.6 (67491) - http://www.bohemiancoding.com/sketch -->
    <title>ATMEX_56@2x</title>
    <desc>Created with Sketch.</desc>
    <defs>
        <linearGradient x1="41.5023804%" y1="0%" x2="41.5023804%" y2="100%" id="linearGradient-1">
            <stop stop-color="#1E242E" offset="0%"></stop>
            <stop stop-color="#2C2F36" offset="0.0518798828%"></stop>
            <stop stop-color="#141F31" offset="100%"></stop>
        </linearGradient>
        <polygon id="path-2" points="0.018192586 0.016256474 10.4822784 0.016256474 10.4822784 16.0666964 0.018192586 16.0666964"></polygon>
    </defs>
    <g id="ATMEX移动端" stroke="none" stroke-width="1" fill="none" fill-rule="evenodd">
        <g id="启动图标" transform="translate(-305.000000, -50.000000)">
            <g id="ATMEX_56" transform="translate(305.000000, 50.000000)">
                <g id="qdicon1024-copy-2" fill="url(#linearGradient-1)">
                    <rect id="Rectangle" x="0" y="0" width="29" height="29"></rect>
                </g>
                <g id="分组-2-copy-2" transform="translate(5.000000, 6.000000)">
                    <g id="分组" transform="translate(8.239583, 0.057974)">
                        <mask id="mask-3" fill="white">
                            <use xlink:href="#path-2"></use>
                        </mask>
                        <g id="Clip-2"></g>
                        <path d="M10.4822784,16.0666964 L1.43440001,0.395306972 C1.22558968,0.0336560974 0.758828454,-0.091422253 0.39725181,0.117388073 C0.0356009358,0.326198399 -0.0894774146,0.792959626 0.119332912,1.1546105 L8.45912678,15.5996382 L10.4822784,16.0666964 Z" id="Fill-1" fill="#FFFFFF" mask="url(#mask-3)"></path>
                    </g>
                    <path d="M1.8638233,15.6685612 L3.53831436,12.5651335 C3.73658396,12.1976927 3.59814412,11.7347172 3.23062904,11.5363734 C2.86311396,11.3381038 2.40021272,11.4765436 2.20186889,11.8441329 L0.0897149521,15.758677 C0.0212002237,15.8856111 -0.00626505209,16.0238283 0.00115799541,16.1587051 L1.8638233,15.6685612 Z" id="Fill-3" fill="#FFFFFF"></path>
                    <path d="M13.7423324,14.9078399 L8.4316615,3.72442501 C8.25254337,3.34718573 7.79736209,3.18514061 7.42012282,3.36425874 C7.04288355,3.54337688 6.88076419,3.99855815 7.05995655,4.37579742 L11.81041,14.3794674 L13.7423324,14.9078399 Z" id="Fill-5" fill="#FFFFFF"></path>
                    <path d="M9.23043337,13.6735801 L7.17580806,6.36685176 C7.06275504,5.96481951 6.64134864,5.72839545 6.23931638,5.84144846 C5.83735836,5.95450147 5.60086007,6.37590788 5.71391308,6.77794013 L7.77885644,14.1210414 L9.23043337,13.6735801 Z" id="Fill-7" fill="#FFFFFF"></path>
                    <path d="M5.68875637,14.6138204 L5.68875637,8.98870926 C5.68875637,8.5710886 5.3470735,8.22940573 4.92945285,8.22940573 C4.51190642,8.22940573 4.17022355,8.5710886 4.17022355,8.98870926 L4.17022355,15.0900089 L5.68875637,14.6138204 Z" id="Fill-9" fill="#FFFFFF"></path>
                </g>
            </g>
        </g>
    </g>
</svg>