<?xml version="1.0" encoding="UTF-8"?>
<svg width="48px" height="48px" viewBox="0 0 48 48" version="1.1" xmlns="http://www.w3.org/2000/svg" xmlns:xlink="http://www.w3.org/1999/xlink">
    <!-- Generator: Sketch 52.6 (67491) - http://www.bohemiancoding.com/sketch -->
    <title>ATMEX_96@2x</title>
    <desc>Created with Sketch.</desc>
    <defs>
        <linearGradient x1="41.5023804%" y1="0%" x2="41.5023804%" y2="100%" id="linearGradient-1">
            <stop stop-color="#1E242E" offset="0%"></stop>
            <stop stop-color="#2C2F36" offset="0.0518798828%"></stop>
            <stop stop-color="#141F31" offset="100%"></stop>
        </linearGradient>
        <polygon id="path-2" points="0.0301118664 0.0269072674 17.349978 0.0269072674 17.349978 26.5931526 0.0301118664 26.5931526"></polygon>
    </defs>
    <g id="ATMEX移动端" stroke="none" stroke-width="1" fill="none" fill-rule="evenodd">
        <g id="启动图标" transform="translate(-157.000000, -50.000000)">
            <g id="ATMEX_96" transform="translate(157.000000, 50.000000)">
                <g id="qdicon1024-copy-2" fill="url(#linearGradient-1)">
                    <rect id="Rectangle" x="0" y="0" width="48" height="48" rx="10.8"></rect>
                </g>
                <g id="分组-2-copy-2" transform="translate(8.275862, 9.931034)">
                    <g id="分组" transform="translate(13.637930, 0.095957)">
                        <mask id="mask-3" fill="white">
                            <use xlink:href="#path-2"></use>
                        </mask>
                        <g id="Clip-2"></g>
                        <path d="M17.349978,26.5931526 L2.37417932,0.654301194 C2.02856223,0.0557066439 1.25599192,-0.151319591 0.657520237,0.1942975 C0.0589256869,0.539914592 -0.148100548,1.3124849 0.197516543,1.91107945 L14.0013133,25.8200909 L17.349978,26.5931526 Z" id="Fill-1" fill="#FFFFFF" mask="url(#mask-3)"></path>
                    </g>
                    <path d="M3.08494892,25.9341703 L5.85652032,20.7974624 C6.18469069,20.1892845 5.95554889,19.4229802 5.34724807,19.094687 C4.73894724,18.7665166 3.97276588,18.9956584 3.64447264,19.6040821 L0.148493714,26.0833275 C0.0350900254,26.2934253 -0.0103697414,26.5221986 0.00191668206,26.7454429 L3.08494892,25.9341703 Z" id="Fill-3" fill="#FFFFFF"></path>
                    <path d="M22.7459294,24.6750454 L13.9558535,6.16456553 C13.6593821,5.54016949 12.9059786,5.27195686 12.2815826,5.56842826 C11.6571866,5.86489966 11.3888511,6.61830315 11.6854453,7.24269919 L19.5482649,23.8004977 L22.7459294,24.6750454 Z" id="Fill-5" fill="#FFFFFF"></path>
                    <path d="M15.2779587,22.6321326 L11.8771995,10.5382374 C11.6900773,9.87280471 10.9925771,9.48148212 10.3271444,9.66860435 C9.66183453,9.85572658 9.27038908,10.5532268 9.45751131,11.2186595 L12.8753486,23.3727582 L15.2779587,22.6321326 Z" id="Fill-7" fill="#FFFFFF"></path>
                    <path d="M9.41587262,24.1883924 L9.41587262,14.8778636 C9.41587262,14.1866294 8.85032855,13.6210853 8.15909437,13.6210853 C7.46798305,13.6210853 6.90243897,14.1866294 6.90243897,14.8778636 L6.90243897,24.9765665 L9.41587262,24.1883924 Z" id="Fill-9" fill="#FFFFFF"></path>
                </g>
            </g>
        </g>
    </g>
</svg>