<?xml version="1.0" encoding="UTF-8"?>
<svg width="40px" height="40px" viewBox="0 0 40 40" version="1.1" xmlns="http://www.w3.org/2000/svg" xmlns:xlink="http://www.w3.org/1999/xlink">
    <!-- Generator: Sketch 52.6 (67491) - http://www.bohemiancoding.com/sketch -->
    <title>ATMEX_80@2x</title>
    <desc>Created with Sketch.</desc>
    <defs>
        <linearGradient x1="41.5023804%" y1="0%" x2="41.5023804%" y2="100%" id="linearGradient-1">
            <stop stop-color="#1E242E" offset="0%"></stop>
            <stop stop-color="#2C2F36" offset="0.0518798828%"></stop>
            <stop stop-color="#141F31" offset="100%"></stop>
        </linearGradient>
        <polygon id="path-2" points="0.025093222 0.0224227228 14.458315 0.0224227228 14.458315 22.1609605 0.025093222 22.1609605"></polygon>
    </defs>
    <g id="ATMEX移动端" stroke="none" stroke-width="1" fill="none" fill-rule="evenodd">
        <g id="启动图标" transform="translate(-235.000000, -50.000000)">
            <g id="ATMEX_80" transform="translate(235.000000, 50.000000)">
                <g id="qdicon1024-copy-2" fill="url(#linearGradient-1)">
                    <rect id="Rectangle" x="0" y="0" width="40" height="40" rx="9"></rect>
                </g>
                <g id="分组-2-copy-2" transform="translate(6.896552, 8.275862)">
                    <g id="分组" transform="translate(11.364942, 0.079964)">
                        <mask id="mask-3" fill="white">
                            <use xlink:href="#path-2"></use>
                        </mask>
                        <g id="Clip-2"></g>
                        <path d="M14.458315,22.1609605 L1.97848277,0.545250995 C1.69046852,0.0464222033 1.04665994,-0.126099659 0.547933531,0.161914584 C0.049104739,0.449928827 -0.123417124,1.09373742 0.164597119,1.59256621 L11.6677611,21.5167424 L14.458315,22.1609605 Z" id="Fill-1" fill="#FFFFFF" mask="url(#mask-3)"></path>
                    </g>
                    <path d="M2.57079076,21.6118086 L4.8804336,17.3312187 C5.15390891,16.8244037 4.96295741,16.1858169 4.45604006,15.9122392 C3.9491227,15.6387638 3.31063823,15.8297153 3.03706053,16.3367351 L0.123744761,21.7361063 C0.0292416878,21.9111878 -0.00864145116,22.1018321 0.00159723505,22.2878691 L2.57079076,21.6118086 Z" id="Fill-3" fill="#FFFFFF"></path>
                    <path d="M18.9549412,20.5625378 L11.6298779,5.13713794 C11.3828184,4.61680791 10.7549822,4.39329739 10.2346522,4.64035689 C9.71432213,4.88741638 9.49070922,5.51525262 9.73787111,6.03558265 L16.2902207,19.8337481 L18.9549412,20.5625378 Z" id="Fill-5" fill="#FFFFFF"></path>
                    <path d="M12.7316322,18.8601105 L9.89766629,8.7818645 C9.74173109,8.22733726 9.16048088,7.9012351 8.60595363,8.05717029 C8.05152878,8.21310548 7.72532423,8.7943557 7.88125942,9.34888294 L10.7294572,19.4772985 L12.7316322,18.8601105 Z" id="Fill-7" fill="#FFFFFF"></path>
                    <path d="M7.84656052,20.1569937 L7.84656052,12.3982197 C7.84656052,11.8221912 7.37527379,11.3509045 6.7992453,11.3509045 C6.22331921,11.3509045 5.75203248,11.8221912 5.75203248,12.3982197 L5.75203248,20.8138054 L7.84656052,20.1569937 Z" id="Fill-9" fill="#FFFFFF"></path>
                </g>
            </g>
        </g>
    </g>
</svg>