<?xml version="1.0" encoding="UTF-8"?>
<svg width="256px" height="256px" viewBox="0 0 256 256" version="1.1" xmlns="http://www.w3.org/2000/svg" xmlns:xlink="http://www.w3.org/1999/xlink">
    <!-- Generator: Sketch 52.6 (67491) - http://www.bohemiancoding.com/sketch -->
    <title>ATMEX_512@2x</title>
    <desc>Created with Sketch.</desc>
    <defs>
        <linearGradient x1="41.5023804%" y1="0%" x2="41.5023804%" y2="100%" id="linearGradient-1">
            <stop stop-color="#1E242E" offset="0%"></stop>
            <stop stop-color="#2C2F36" offset="0.0518798828%"></stop>
            <stop stop-color="#141F31" offset="100%"></stop>
        </linearGradient>
        <polygon id="path-2" points="0.135965643 0.121495753 78.3412384 0.121495753 78.3412384 120.077415 0.135965643 120.077415"></polygon>
    </defs>
    <g id="ATMEX移动端" stroke="none" stroke-width="1" fill="none" fill-rule="evenodd">
        <g id="启动图标" transform="translate(-67.000000, -334.000000)">
            <g id="ATMEX_512" transform="translate(67.000000, 334.000000)">
                <g id="qdicon1024" fill="url(#linearGradient-1)">
                    <rect id="Rectangle" x="0" y="0" width="256" height="256"></rect>
                </g>
                <g id="分组-2" transform="translate(57.000000, 67.000000)">
                    <g id="分组" transform="translate(61.580039, 0.433279)">
                        <mask id="mask-3" fill="white">
                            <use xlink:href="#path-2"></use>
                        </mask>
                        <g id="Clip-2"></g>
                        <path d="M78.3412384,120.077415 L10.7202527,2.95439947 C9.15967024,0.251535043 5.67124423,-0.683261049 2.96893458,0.877321389 C0.266070152,2.43790383 -0.66872594,5.92632984 0.891856497,8.62919427 L63.2208422,116.58677 L78.3412384,120.077415 Z" id="Fill-1" fill="#FFFFFF" mask="url(#mask-3)"></path>
                    </g>
                    <path d="M13.9296268,117.101879 L26.4442442,93.9078401 C27.9260485,91.1617033 26.8913929,87.7015708 24.1447013,86.2192116 C21.3980096,84.7374073 17.9384319,85.7720629 16.4560727,88.5193093 L0.670501221,117.775376 C0.158443777,118.724041 -0.0468230209,119.757033 0.00865449201,120.765059 L13.9296268,117.101879 Z" id="Fill-3" fill="#FFFFFF"></path>
                    <path d="M102.705852,111.416488 L63.0155754,27.8351764 C61.6769031,25.0158092 58.275022,23.8047351 55.4556548,25.1434074 C52.6362875,26.4820798 51.4246587,29.8839609 52.7638858,32.7033281 L88.267275,107.467598 L102.705852,111.416488 Z" id="Fill-5" fill="#FFFFFF"></path>
                    <path d="M68.9853442,102.19202 L53.6297234,47.5838395 C52.7848009,44.5791774 49.6353424,42.8122186 46.6306803,43.6571411 C43.626573,44.5020637 41.8590595,47.6515221 42.703982,50.6561842 L58.1367165,105.536204 L68.9853442,102.19202 Z" id="Fill-7" fill="#FFFFFF"></path>
                    <path d="M42.5159687,109.219079 L42.5159687,67.1787744 C42.5159687,64.0576096 39.9623388,61.5039796 36.8411739,61.5039796 C33.7205638,61.5039796 31.1669339,64.0576096 31.1669339,67.1787744 L31.1669339,112.777961 L42.5159687,109.219079 Z" id="Fill-9" fill="#FFFFFF"></path>
                </g>
            </g>
        </g>
    </g>
</svg>