<?xml version="1.0" encoding="UTF-8"?>
<svg width="128px" height="128px" viewBox="0 0 128 128" version="1.1" xmlns="http://www.w3.org/2000/svg" xmlns:xlink="http://www.w3.org/1999/xlink">
    <!-- Generator: Sketch 52.6 (67491) - http://www.bohemiancoding.com/sketch -->
    <title>ATMEX_256@2x</title>
    <desc>Created with Sketch.</desc>
    <defs>
        <linearGradient x1="41.5023804%" y1="0%" x2="41.5023804%" y2="100%" id="linearGradient-1">
            <stop stop-color="#1E242E" offset="0%"></stop>
            <stop stop-color="#2C2F36" offset="0.0518798828%"></stop>
            <stop stop-color="#141F31" offset="100%"></stop>
        </linearGradient>
        <polygon id="path-2" points="0.076600362 0.0684483117 44.1359089 0.0684483117 44.1359089 67.649248 0.076600362 67.649248"></polygon>
    </defs>
    <g id="ATMEX移动端" stroke="none" stroke-width="1" fill="none" fill-rule="evenodd">
        <g id="启动图标" transform="translate(-124.000000, -161.000000)">
            <g id="ATMEX_256" transform="translate(124.000000, 161.000000)">
                <g id="qdicon1024-copy" fill="url(#linearGradient-1)">
                    <rect id="Rectangle" x="0" y="0" width="128" height="128"></rect>
                </g>
                <g id="分组-2-copy" transform="translate(24.000000, 29.000000)">
                    <g id="分组" transform="translate(34.692980, 0.244101)">
                        <mask id="mask-3" fill="white">
                            <use xlink:href="#path-2"></use>
                        </mask>
                        <g id="Clip-2"></g>
                        <path d="M44.1359089,67.649248 L6.03957898,1.66445041 C5.1603776,0.141709884 3.19506717,-0.384935802 1.6726392,0.494265571 C0.149898677,1.37346694 -0.376747009,3.33877737 0.502454365,4.8615179 L35.6173759,65.6826873 L44.1359089,67.649248 Z" id="Fill-1" fill="#FFFFFF" mask="url(#mask-3)"></path>
                    </g>
                    <path d="M7.84767707,65.9728894 L14.8981657,52.9058254 C15.7329851,51.3587061 15.1500805,49.4093357 13.6026486,48.5742037 C12.0552167,47.7393844 10.1061588,48.3222889 9.2710269,49.8700334 L0.377747167,66.3523244 C0.0892640996,66.8867838 -0.0263791667,67.4687507 0.00487577015,68.0366529 L7.84767707,65.9728894 Z" id="Fill-3" fill="#FFFFFF"></path>
                    <path d="M57.8624521,62.7698522 L35.5017326,15.6817895 C34.747551,14.0934136 32.8309983,13.4111183 31.2426224,14.1653 C29.6542465,14.9194816 28.9716387,16.8360343 29.7261329,18.4244102 L49.7280422,60.5451258 L57.8624521,62.7698522 Z" id="Fill-5" fill="#FFFFFF"></path>
                    <path d="M38.8649826,57.5729689 L30.2139287,26.8077969 C29.737916,25.1150295 27.9635732,24.1195598 26.2708058,24.5955725 C24.578351,25.0715852 23.5825687,26.8459279 24.0585814,28.5386953 L32.7530797,59.4570165 L38.8649826,57.5729689 Z" id="Fill-7" fill="#FFFFFF"></path>
                    <path d="M23.9526584,61.5318755 L23.9526584,37.8471969 C23.9526584,36.0887941 22.5139937,34.6501294 20.7555909,34.6501294 C18.9975007,34.6501294 17.558836,36.0887941 17.558836,37.8471969 L17.558836,63.5368797 L23.9526584,61.5318755 Z" id="Fill-9" fill="#FFFFFF"></path>
                </g>
            </g>
        </g>
    </g>
</svg>