<?xml version="1.0" encoding="UTF-8"?>
<svg width="20px" height="20px" viewBox="0 0 20 20" version="1.1" xmlns="http://www.w3.org/2000/svg" xmlns:xlink="http://www.w3.org/1999/xlink">
    <!-- Generator: Sketch 52.6 (67491) - http://www.bohemiancoding.com/sketch -->
    <title>icon_zichan2@2x</title>
    <desc>Created with Sketch.</desc>
    <g id="ATMEX移动端" stroke="none" stroke-width="1" fill="none" fill-rule="evenodd">
        <g id="我的-资产" transform="translate(-178.000000, -626.000000)" fill-rule="nonzero">
            <g id="tab" transform="translate(0.000000, 618.000000)">
                <g id="icon_zichan2" transform="translate(178.000000, 8.000000)">
                    <path d="M20,7 L13,7 C11.3431458,7 10,8.34314575 10,10 C10,11.6568542 11.3431458,13 13,13 L20,13 L20,17 C20,18.6568542 18.6568542,20 17,20 L3,20 C1.34314575,20 2.02906125e-16,18.6568542 0,17 L0,3 C-2.02906125e-16,1.34314575 1.34314575,3.04359188e-16 3,0 L17,0 C18.6568542,-3.04359188e-16 20,1.34314575 20,3 L20,7 Z" id="合并形状" fill="#347DE1"></path>
                    <path d="M13.1420654,7.88238525 L19.9920654,7.88238525 L19.9920654,12.1823853 L13.1420654,12.1823853 C11.9546532,12.1823853 10.9920654,11.2197975 10.9920654,10.0323853 L10.9920654,10.0323853 C10.9920654,8.84497304 11.9546532,7.88238525 13.1420654,7.88238525 Z" id="矩形-copy-3" fill="#347DE1"></path>
                    <circle id="椭圆形" fill="#162840" cx="13.2195557" cy="9.99506836" r="1"></circle>
                </g>
            </g>
        </g>
    </g>
</svg>