<?xml version="1.0" encoding="UTF-8"?>
<svg width="20px" height="20px" viewBox="0 0 20 20" version="1.1" xmlns="http://www.w3.org/2000/svg" xmlns:xlink="http://www.w3.org/1999/xlink">
    <!-- Generator: Sketch 52.6 (67491) - http://www.bohemiancoding.com/sketch -->
    <title>jiaoyi@2x</title>
    <desc>Created with Sketch.</desc>
    <defs>
        <polygon id="path-1" points="0 0 19.9934392 0 19.9934392 20.0210582 0 20.0210582"></polygon>
    </defs>
    <g id="ATMEX移动端" stroke="none" stroke-width="1" fill="none" fill-rule="evenodd">
        <g id="我的-资产" transform="translate(-54.000000, -626.000000)">
            <g id="butter" transform="translate(0.000000, 618.000000)">
                <g id="jiaoyi" transform="translate(54.000000, 8.000000)">
                    <mask id="mask-2" fill="white">
                        <use xlink:href="#path-1"></use>
                    </mask>
                    <g id="Clip-2"></g>
                    <path d="M9.99679365,0 C4.47562963,0 -3.17460317e-05,4.48190476 -3.17460317e-05,10.010582 C-3.17460317e-05,15.5392593 4.47562963,20.0210582 9.99679365,20.0210582 C15.5178519,20.0210582 19.9935132,15.5392593 19.9935132,10.010582 C19.9935132,4.48190476 15.5178519,0 9.99679365,0 M5.29838095,7.39269841 L7.57256085,4.85513228 C7.70028571,4.71322751 7.88155556,4.63132275 8.07234921,4.62984127 C8.25742857,4.61968254 8.43827513,4.68677249 8.57213757,4.81513228 C8.85838095,5.0794709 8.88060317,5.52455026 8.62219048,5.81608466 L7.40748148,7.16751323 L14.1003915,7.16751323 C14.4856825,7.1757672 14.7928783,7.49227513 14.7902328,7.87830688 C14.7916085,8.06285714 14.719545,8.24031746 14.590127,8.37164021 C14.4609206,8.50306878 14.2846243,8.57777778 14.1003915,8.57904762 L5.80314286,8.57904762 C5.52779894,8.57089947 5.2822963,8.40285714 5.17488889,8.14899471 C5.06737566,7.89492063 5.11753439,7.60148148 5.30324868,7.39777778 M14.6651534,12.5933333 L12.386,15.1308995 C12.257746,15.2715344 12.0762646,15.3515344 11.8861058,15.3511111 C11.7001799,15.3612698 11.5185926,15.2921693 11.3863175,15.1609524 C11.106,14.8910053 11.0926667,14.4462434 11.3562646,14.16 L12.5658942,12.8084656 L5.85816931,12.8084656 C5.49044444,12.7774603 5.20790476,12.4696296 5.20790476,12.1003175 C5.20790476,11.7307937 5.49044444,11.422963 5.85816931,11.3919577 L14.1603915,11.3919577 C14.4356296,11.4026455 14.6799683,11.5718519 14.7870582,11.8259259 C14.8941481,12.0801058 14.8447302,12.3734392 14.6601799,12.5783069" id="Fill-1" fill="#3F526D" mask="url(#mask-2)"></path>
                </g>
            </g>
        </g>
    </g>
</svg>