<?xml version="1.0" encoding="UTF-8"?>
<svg width="10px" height="18px" viewBox="0 0 10 18" version="1.1" xmlns="http://www.w3.org/2000/svg" xmlns:xlink="http://www.w3.org/1999/xlink">
    <!-- Generator: Sketch 52.6 (67491) - http://www.bohemiancoding.com/sketch -->
    <title>mine_icon_turn@2x</title>
    <desc>Created with Sketch.</desc>
    <g id="ATMEX移动端" stroke="none" stroke-width="1" fill="none" fill-rule="evenodd">
        <g id="我的" transform="translate(-349.000000, -111.000000)" fill="#CACFE6" fill-rule="nonzero">
            <g id="分组-2" transform="translate(0.000000, 76.000000)">
                <path d="M351.775317,43.9918679 L352.730513,44.9912276 L358.745345,51.2841558 C359.114812,51.6707055 359.114812,52.2795124 358.745345,52.6660621 L358.713082,52.6998164 C358.347431,53.0823736 357.740888,53.0960786 357.358331,52.7304273 C357.347898,52.7204555 357.337691,52.7102492 357.32772,52.6998164 L350.389955,45.4412827 L350.385362,45.4460873 L349,43.9966725 L351.329605,41.5593576 L357.312174,35.3001836 C357.677826,34.9176264 358.284368,34.9039214 358.666926,35.2695727 C358.677359,35.2795445 358.687565,35.2897508 358.697537,35.3001836 L358.729799,35.3339379 C359.099267,35.7204876 359.099267,36.3292945 358.729799,36.7158442 L351.775317,43.9918679 Z" id="mine_icon_turn" transform="translate(354.000000, 44.000000) rotate(-180.000000) translate(-354.000000, -44.000000) "></path>
            </g>
        </g>
    </g>
</svg>