<?xml version="1.0" encoding="UTF-8"?>
<svg width="14px" height="18px" viewBox="0 0 14 18" version="1.1" xmlns="http://www.w3.org/2000/svg" xmlns:xlink="http://www.w3.org/1999/xlink">
    <!-- Generator: Sketch 52.6 (67491) - http://www.bohemiancoding.com/sketch -->
    <title>mine_icon_rings@2x</title>
    <desc>Created with Sketch.</desc>
    <g id="ATMEX移动端" stroke="none" stroke-width="1" fill="none" fill-rule="evenodd">
        <g id="我的" transform="translate(-18.000000, -373.000000)" fill="#CACFE6" fill-rule="nonzero">
            <g id="mine_icon_rings" transform="translate(16.000000, 372.000000)">
                <path d="M15.0234375,13.3203125 L15.0234375,8.36914062 C15.0234375,5.83984375 13.1308594,3.71679688 10.5859375,3.12109375 L10.5859375,2.76367188 C10.5859375,1.93554688 9.875,1.26171875 9,1.26171875 C8.125,1.26171875 7.4140625,1.93554688 7.4140625,2.76367188 L7.4140625,3.12109375 C4.8671875,3.71679688 2.9765625,5.83984375 2.9765625,8.36914062 L2.9765625,13.359375 L2.38867188,15.1035156 L2.38867188,15.2070312 C2.38867188,15.7265625 2.82617188,16.1503906 3.36132813,16.1503906 L14.6269531,16.1503906 C15.1699219,16.1503906 15.6113281,15.7226563 15.6113281,15.1972656 L15.6113281,15.0957031 L15.0234375,13.3203125 Z M8.671875,2.76367188 C8.671875,2.6484375 8.80664062,2.51953125 9,2.51953125 C9.19335938,2.51953125 9.32617188,2.6484375 9.32617188,2.76367188 L9.32617188,2.95703125 C9.26367188,2.95507812 9.20507812,2.94921875 9.14257813,2.94921875 L8.85546875,2.94921875 C8.79296875,2.94921875 8.73242188,2.95703125 8.671875,2.95703125 L8.671875,2.76367188 Z M3.7890625,14.890625 L4.234375,13.5664062 L4.234375,8.37109375 C4.234375,6.07617188 6.30664062,4.2109375 8.85546875,4.2109375 L9.14257812,4.2109375 C11.6914062,4.2109375 13.7636719,6.078125 13.7636719,8.37109375 L13.7636719,13.5253906 L14.2148438,14.8925781 L3.7890625,14.8925781 L3.7890625,14.890625 Z M9.17578125,17.4785156 C8.57617188,17.4785156 8.08789063,17.171875 8.08789063,16.5410156 L6.828125,16.5410156 C6.828125,17.8007812 7.88085938,18.7363281 9.17578125,18.7363281 C10.46875,18.7363281 11.5214844,17.7988281 11.5214844,16.5410156 L10.2617188,16.5410156 C10.2636719,17.171875 9.77539063,17.4785156 9.17578125,17.4785156 Z" id="形状"></path>
            </g>
        </g>
    </g>
</svg>