<?xml version="1.0" encoding="UTF-8"?>
<svg width="14px" height="14px" viewBox="0 0 14 14" version="1.1" xmlns="http://www.w3.org/2000/svg" xmlns:xlink="http://www.w3.org/1999/xlink">
    <!-- Generator: Sketch 52.6 (67491) - http://www.bohemiancoding.com/sketch -->
    <title>mine_icon_code@2x</title>
    <desc>Created with Sketch.</desc>
    <g id="ATMEX移动端" stroke="none" stroke-width="1" fill="none" fill-rule="evenodd">
        <g id="我的" transform="translate(-17.000000, -429.000000)">
            <g id="mine_icon_code" transform="translate(16.000000, 428.000000)">
                <rect id="矩形" fill="#000000" opacity="0" x="0" y="0" width="16" height="16"></rect>
                <path d="M5.75,8.75 L2.75,8.75 C1.925,8.75 1.25,9.425 1.25,10.25 L1.25,13.25 C1.25,14.075 1.925,14.75 2.75,14.75 L5.75,14.75 C6.575,14.75 7.25,14.075 7.25,13.25 L7.25,10.25 C7.25,9.425 6.575,8.75 5.75,8.75 Z M6.25,13.25 C6.25,13.525 6.025,13.75 5.75,13.75 L2.75,13.75 C2.475,13.75 2.25,13.525 2.25,13.25 L2.25,10.25 C2.25,9.975 2.475,9.75 2.75,9.75 L5.75,9.75 C6.025,9.75 6.25,9.975 6.25,10.25 L6.25,13.25 Z M5.75,1.25 L2.75,1.25 C1.925,1.25 1.25,1.925 1.25,2.75 L1.25,5.75 C1.25,6.575 1.925,7.25 2.75,7.25 L5.75,7.25 C6.575,7.25 7.25,6.575 7.25,5.75 L7.25,2.75 C7.25,1.925 6.575,1.25 5.75,1.25 Z M6.25,5.75 C6.25,6.025 6.025,6.25 5.75,6.25 L2.75,6.25 C2.475,6.25 2.25,6.025 2.25,5.75 L2.25,2.75 C2.25,2.475 2.475,2.25 2.75,2.25 L5.75,2.25 C6.025,2.25 6.25,2.475 6.25,2.75 L6.25,5.75 Z M14,8.75 C13.725,8.75 13.5,8.975 13.5,9.25 L13.5,14.25 C13.5,14.525 13.725,14.75 14,14.75 C14.275,14.75 14.5,14.525 14.5,14.25 L14.5,9.25 C14.5,8.975 14.275,8.75 14,8.75 Z M13.25,1.25 L10.25,1.25 C9.425,1.25 8.75,1.925 8.75,2.75 L8.75,5.75 C8.75,6.575 9.425,7.25 10.25,7.25 L13.25,7.25 C14.075,7.25 14.75,6.575 14.75,5.75 L14.75,2.75 C14.75,1.925 14.075,1.25 13.25,1.25 Z M13.75,5.75 C13.75,6.025 13.525,6.25 13.25,6.25 L10.25,6.25 C9.975,6.25 9.75,6.025 9.75,5.75 L9.75,2.75 C9.75,2.475 9.975,2.25 10.25,2.25 L13.25,2.25 C13.525,2.25 13.75,2.475 13.75,2.75 L13.75,5.75 Z M9.5,9.5 C9.225,9.5 9,9.725 9,10 L9,14.25 C9,14.525 9.225,14.75 9.5,14.75 C9.775,14.75 10,14.525 10,14.25 L10,10 C10,9.725 9.775,9.5 9.5,9.5 Z M11.75,11 C11.475,11 11.25,11.225 11.25,11.5 L11.25,14.25 C11.25,14.525 11.475,14.75 11.75,14.75 C12.025,14.75 12.25,14.525 12.25,14.25 L12.25,11.5 C12.25,11.225 12.025,11 11.75,11 Z" id="形状" fill="#CACFE6" fill-rule="nonzero"></path>
            </g>
        </g>
    </g>
</svg>