<?xml version="1.0" encoding="UTF-8"?>
<svg width="272px" height="228px" viewBox="0 0 272 228" version="1.1" xmlns="http://www.w3.org/2000/svg" xmlns:xlink="http://www.w3.org/1999/xlink">
    <!-- Generator: Sketch 52.6 (67491) - http://www.bohemiancoding.com/sketch -->
    <title>yindao1@2x</title>
    <desc>Created with Sketch.</desc>
    <defs>
        <polygon id="path-1" points="0.0698978303 0.0624590844 40.2740169 0.0624590844 40.2740169 61.7299388 0.0698978303 61.7299388"></polygon>
        <linearGradient x1="48.58958%" y1="17.1377841%" x2="48.58958%" y2="57.8426847%" id="linearGradient-3">
            <stop stop-color="#010101" offset="0%"></stop>
            <stop stop-color="#FFFFFF" offset="100%"></stop>
        </linearGradient>
        <linearGradient x1="50%" y1="34.764005%" x2="50%" y2="100%" id="linearGradient-4">
            <stop stop-color="#F7F7F7" offset="0%"></stop>
            <stop stop-color="#010101" offset="100%"></stop>
        </linearGradient>
        <linearGradient x1="50%" y1="0%" x2="50%" y2="100%" id="linearGradient-5">
            <stop stop-color="#FFFFFF" offset="0%"></stop>
            <stop stop-color="#010101" offset="100%"></stop>
        </linearGradient>
        <linearGradient x1="50%" y1="24.90625%" x2="50%" y2="100%" id="linearGradient-6">
            <stop stop-color="#011629" offset="0%"></stop>
            <stop stop-color="#010101" offset="100%"></stop>
        </linearGradient>
        <linearGradient x1="50%" y1="0%" x2="50%" y2="100%" id="linearGradient-7">
            <stop stop-color="#050507" offset="0%"></stop>
            <stop stop-color="#6B6B6D" offset="100%"></stop>
        </linearGradient>
        <linearGradient x1="50%" y1="0%" x2="50%" y2="100%" id="linearGradient-8">
            <stop stop-color="#F2F2F2" offset="0%"></stop>
            <stop stop-color="#010101" offset="100%"></stop>
        </linearGradient>
        <linearGradient x1="50%" y1="0%" x2="50%" y2="100%" id="linearGradient-9">
            <stop stop-color="#F7F7F7" offset="0%"></stop>
            <stop stop-color="#010101" offset="100%"></stop>
        </linearGradient>
        <linearGradient x1="50%" y1="32.7838542%" x2="50%" y2="100%" id="linearGradient-10">
            <stop stop-color="#FFFFFF" offset="0%"></stop>
            <stop stop-color="#010101" offset="100%"></stop>
        </linearGradient>
        <linearGradient x1="50%" y1="43.7226563%" x2="50%" y2="100%" id="linearGradient-11">
            <stop stop-color="#F2F2F2" offset="0%"></stop>
            <stop stop-color="#010101" offset="100%"></stop>
        </linearGradient>
        <linearGradient x1="50%" y1="-17.5575769%" x2="50%" y2="146.75296%" id="linearGradient-12">
            <stop stop-color="#010101" offset="0%"></stop>
            <stop stop-color="#E9E9E9" offset="100%"></stop>
        </linearGradient>
        <linearGradient x1="50%" y1="0%" x2="50%" y2="100%" id="linearGradient-13">
            <stop stop-color="#EEEEEE" offset="0%"></stop>
            <stop stop-color="#444444" offset="100%"></stop>
        </linearGradient>
        <linearGradient x1="50%" y1="0%" x2="50%" y2="136.046152%" id="linearGradient-14">
            <stop stop-color="#010101" offset="0%"></stop>
            <stop stop-color="#E9E9E9" offset="100%"></stop>
        </linearGradient>
        <linearGradient x1="50%" y1="0%" x2="50%" y2="100%" id="linearGradient-15">
            <stop stop-color="#171717" offset="0%"></stop>
            <stop stop-color="#E9E9E9" offset="100%"></stop>
        </linearGradient>
    </defs>
    <g id="ATMEX移动端" stroke="none" stroke-width="1" fill="none" fill-rule="evenodd">
        <g id="引导页1" transform="translate(-51.000000, -145.000000)">
            <g id="yindao1" transform="translate(49.000000, 147.000000)">
                <g id="logo" transform="translate(131.000000, 11.344322)">
                    <g id="分组" transform="translate(31.657344, 0.222742)">
                        <mask id="mask-2" fill="white">
                            <use xlink:href="#path-1"></use>
                        </mask>
                        <g id="Clip-2"></g>
                        <path d="M40.2740169,61.7299388 L5.51111582,1.518811 C4.70884456,0.129310269 2.9154988,-0.351253919 1.52628327,0.451017334 C0.136782543,1.25328859 -0.343781645,3.04663435 0.458489608,4.43613508 L32.5008555,59.9354522 L40.2740169,61.7299388 Z" id="Fill-1" fill="#FFFFFF" mask="url(#mask-2)"></path>
                    </g>
                    <path d="M7.16100533,60.2002616 L13.5945762,48.2765657 C14.3563489,46.8648193 13.8244485,45.0860188 12.4124168,44.3239609 C11.0003852,43.5621882 9.22186991,44.0940887 8.45981204,45.5064055 L0.34469429,60.546496 C0.0814534909,61.0341902 -0.0240709896,61.565235 0.00444914026,62.0834458 L7.16100533,60.2002616 Z" id="Fill-3" fill="#FFFFFF"></path>
                    <path d="M52.7994875,57.2774902 L32.395331,14.3096329 C31.7071403,12.8602399 29.9582859,12.2376455 28.5088929,12.9258362 C27.0594999,13.614027 26.4366203,15.3628813 27.1250962,16.8122743 L45.3768385,55.2474273 L52.7994875,57.2774902 Z" id="Fill-5" fill="#FFFFFF"></path>
                    <path d="M35.4642966,52.5353341 L27.5702099,24.4621147 C27.1358483,22.9174644 25.5167606,22.0090983 23.9721103,22.4434599 C22.4277453,22.8778215 21.5190939,24.4969092 21.9534555,26.0415595 L29.8871853,54.2545275 L35.4642966,52.5353341 Z" id="Fill-7" fill="#FFFFFF"></path>
                    <path d="M21.8568008,56.1478364 L21.8568008,34.5355671 C21.8568008,32.9310246 20.5440192,31.6182431 18.9394767,31.6182431 C17.3352194,31.6182431 16.0224378,32.9310246 16.0224378,34.5355671 L16.0224378,57.9774027 L21.8568008,56.1478364 Z" id="Fill-9" fill="#FFFFFF"></path>
                </g>
                <circle id="椭圆形" stroke="#FFFFFF" stroke-width="3" cx="145" cy="63" r="63"></circle>
                <g id="中间直立图-copy" transform="translate(0.000000, 135.000000)">
                    <path d="M41.2093331,21.1160714 L3.79411618,12.0529779 C3.25735434,11.922958 2.92762485,11.3824246 3.05764475,10.8456628 C3.14361164,10.4907652 3.41618928,10.2109433 3.76871042,10.1156992 L40.9584454,0.0677847856 C41.1229713,0.0233332243 41.2961279,0.021667322 41.4614786,0.062945213 L81.710377,10.1106207 C82.2462174,10.2443871 82.5721628,10.7872107 82.4383964,11.3230512 C82.3467583,11.6901343 82.0557958,11.9740675 81.6865817,12.0567027 L41.2093331,21.1160714 Z" id="路径-8" stroke="url(#linearGradient-3)"></path>
                    <path d="M3.01705061,11.1245946 L3.01705061,39.9192374" id="路径-9" stroke="url(#linearGradient-4)"></path>
                    <path d="M41.3746774,20.8356236 L41.3746774,49.6302665" id="路径-9-copy" stroke="url(#linearGradient-5)"></path>
                    <polygon id="路径-14" fill="url(#linearGradient-6)" points="3.58862305 12.4921875 3.58862305 40 40.888622 49.5267857 40.888622 21.4118914"></polygon>
                    <polygon id="路径-14-copy" fill="url(#linearGradient-6)" transform="translate(62.305065, 30.955272) scale(-1, 1) translate(-62.305065, -30.955272) " points="41.7209255 12.2857143 42.1895883 39.5446429 82.8892038 49.62483 82.8892038 21.3918326"></polygon>
                    <polygon id="路径-16" stroke="url(#linearGradient-7)" points="21 11.4208295 42.1160714 16.7958295 60.8093436 11.4208295 42.1160714 7"></polygon>
                    <path d="M82.4186663,11.1019636 L82.4186663,39.8966064" id="路径-9-copy-2" stroke="url(#linearGradient-8)"></path>
                </g>
                <g id="中间直立图-copy-2" transform="translate(191.000000, 135.000000)">
                    <path d="M41.2093331,21.1160714 L3.79411618,12.0529779 C3.25735434,11.922958 2.92762485,11.3824246 3.05764475,10.8456628 C3.14361164,10.4907652 3.41618928,10.2109433 3.76871042,10.1156992 L40.9584454,0.0677847856 C41.1229713,0.0233332243 41.2961279,0.021667322 41.4614786,0.062945213 L81.710377,10.1106207 C82.2462174,10.2443871 82.5721628,10.7872107 82.4383964,11.3230512 C82.3467583,11.6901343 82.0557958,11.9740675 81.6865817,12.0567027 L41.2093331,21.1160714 Z" id="路径-8" stroke="url(#linearGradient-3)"></path>
                    <path d="M3.01705061,11.1245946 L3.01705061,39.9192374" id="路径-9" stroke="url(#linearGradient-4)"></path>
                    <path d="M41.3746774,20.8356236 L41.3746774,49.6302665" id="路径-9-copy" stroke="url(#linearGradient-5)"></path>
                    <polygon id="路径-14" fill="url(#linearGradient-6)" points="3.58862305 12.4921875 3.58862305 40 40.888622 49.5267857 40.888622 21.4118914"></polygon>
                    <polygon id="路径-14-copy" fill="url(#linearGradient-6)" transform="translate(62.305065, 30.955272) scale(-1, 1) translate(-62.305065, -30.955272) " points="41.7209255 12.2857143 42.1895883 39.5446429 82.8892038 49.62483 82.8892038 21.3918326"></polygon>
                    <polygon id="路径-16" stroke="url(#linearGradient-7)" points="21 11.4208295 42.1160714 16.7958295 60.8093436 11.4208295 42.1160714 7"></polygon>
                    <path d="M82.4186663,11.1019636 L82.4186663,39.8966064" id="路径-9-copy-2" stroke="url(#linearGradient-8)"></path>
                </g>
                <g id="中间直立图" transform="translate(82.000000, 147.712013)">
                    <path d="M53.6679688,40.5 L3.79411618,28.4190493 C3.25735434,28.2890294 2.92762485,27.748496 3.05764475,27.2117342 C3.14361164,26.8568366 3.41618928,26.5770147 3.76871042,26.4817706 L53.417081,13.0677848 C53.5816069,13.0233332 53.7547635,13.0216673 53.9201142,13.0629452 L107.652795,26.4766921 C108.188635,26.6104586 108.514581,27.1532822 108.380814,27.6891226 C108.289176,28.0562058 107.998213,28.3401389 107.628999,28.4227741 L53.6679688,40.5 Z" id="路径-8" stroke="url(#linearGradient-3)"></path>
                    <path d="M3.0637207,27.3225098 L3.0637207,64.8225098" id="路径-9" stroke="url(#linearGradient-9)"></path>
                    <path d="M53.8833008,40.1347656 L53.8833008,77.6347656" id="路径-9-copy" stroke="url(#linearGradient-10)"></path>
                    <polygon id="路径-14" fill="url(#linearGradient-6)" points="3.39306641 29 3.73461914 64.8891602 53.2502984 77.5 53.2502984 40.8852539"></polygon>
                    <polygon id="路径-14-copy" fill="url(#linearGradient-6)" transform="translate(81.141479, 53.313843) scale(-1, 1) translate(-81.141479, -53.313843) " points="54.3342285 29 54.9445801 64.5 107.94873 77.6276855 107.94873 40.8591309"></polygon>
                    <polygon id="路径-16" stroke="url(#linearGradient-7)" points="28 26.7573593 55.5 33.7573593 79.8447266 26.7573593 55.5 21"></polygon>
                    <path d="M108.402344,27.4189453 L108.402344,64.9189453" id="路径-9-copy-2" stroke="url(#linearGradient-11)"></path>
                    <polygon id="路径-17" stroke="url(#linearGradient-12)" stroke-width="8" points="55.0851586 0 22 8.36909357 55.0851586 16.6527998 90.935547 8.36909357"></polygon>
                </g>
                <path d="M107.431919,53.0616611 C103.81064,59.8965333 102,64.4531147 102,66.7314054 C102,70.1488415 109.431756,66.7314054 114.674478,70.1488415 C118.169625,72.4271323 121.390112,71.2879869 124.335938,66.7314054 C123.793689,59.0337907 121.296397,54.4772092 116.844062,53.0616611 C112.391728,51.646113 109.254347,51.646113 107.431919,53.0616611 Z" id="路径-10" stroke="#FFFFFF"></path>
                <path d="M160.482422,100.575328 C152.827474,103.603984 149,106.784978 149,110.118312 C149,115.118312 152.064941,117.405421 154.916504,121.118312 C157.768066,124.831202 161.626953,123.118312 166.536133,121.118312 C169.808919,119.784978 171.907878,119.118312 172.833008,119.118312 C173.301758,113.642777 173.918945,110.273893 174.68457,109.011661 C175.833008,107.118312 176.99707,102.032345 172.833008,100.575328 C168.668945,99.1183117 167.286262,98.7857922 164.833008,99.1183117 C163.197505,99.3399914 161.74731,99.8256635 160.482422,100.575328 Z" id="路径-11" stroke="#FFFFFF"></path>
                <path d="M127.876149,3.06640625 C128.724341,11.7330729 127.527995,17.3997396 124.287109,20.0664063 C119.425781,24.0664062 122.287109,26.7072062 115.287109,26.7072062 C108.287109,26.7072062 107.973633,24.8791396 105.451172,30.0664062 C102.928711,35.2536729 106.711914,38.0664062 100.112305,38.0664062 C95.7125651,38.0664062 91.6998698,37.3997396 88.0742188,36.0664062" id="路径-12" stroke="#FFFFFF"></path>
                <path d="M92,96.3181766 C97.9036458,92.3363647 103.688477,91.9381835 109.354492,95.1236331 C117.853516,99.9018074 117.853516,94.096351 121.897461,103.596351 C124.593424,109.929684 125.079102,116.429684 123.354492,123.096351" id="路径-13" stroke="#FFFFFF"></path>
                <polygon id="路径-15" fill="url(#linearGradient-13)" points="44.2739258 101 36 112.552261 41.7553711 112.552261 41.7553711 120.409194 49.0258789 109.436333 43.6298828 109.436333"></polygon>
                <polygon id="路径-15-copy" fill="url(#linearGradient-13)" points="235.273926 99 227 110.552261 232.755371 110.552261 232.755371 118.409194 240.025879 107.436333 234.629883 107.436333"></polygon>
                <polygon id="路径-17-copy" stroke="url(#linearGradient-14)" stroke-width="4" points="41.7656683 126 13 133.363966 41.7656683 140.6528 72.935547 133.363966"></polygon>
                <polygon id="路径-17-copy-2" stroke="url(#linearGradient-15)" stroke-width="4" points="232.765668 126 204 133.363966 232.765668 140.6528 263.935547 133.363966"></polygon>
            </g>
        </g>
    </g>
</svg>