<?xml version="1.0" encoding="UTF-8"?>
<svg width="21px" height="21px" viewBox="0 0 21 21" version="1.1" xmlns="http://www.w3.org/2000/svg" xmlns:xlink="http://www.w3.org/1999/xlink">
    <!-- Generator: Sketch 52.5 (67469) - http://www.bohemiancoding.com/sketch -->
    <title>icon_cash@2x</title>
    <desc>Created with Sketch.</desc>
    <g id="钱包" stroke="none" stroke-width="1" fill="none" fill-rule="evenodd">
        <g id="彧钱包" transform="translate(-177.000000, -271.000000)">
            <g id="icon_cash" transform="translate(177.000000, 271.000000)">
                <g transform="translate(2.625000, 3.150000)">
                    <text id="$-copy-2" font-family="Chalkboard" font-size="11" font-weight="normal" letter-spacing="-0.2652941" fill="#00AB9F" fill-opacity="0.3">
                        <tspan x="4.85094869" y="12.0183105">$</tspan>
                    </text>
                    <path d="M14.03125,1.75 L1.75,1.75 L1.75,14.9932692 C1.75,16.0201467 2.34378526,16.7875 2.96875,16.7875 L12.8125,16.7875 C13.4374647,16.7875 14.03125,16.0201467 14.03125,14.9932692 L14.03125,1.75 Z" id="路径" stroke="#00AB9F" stroke-width="1.5" fill-rule="nonzero"></path>
                    <rect id="矩形" fill="#00AB9F" fill-rule="nonzero" x="0.502161026" y="0.0928619385" width="14.765625" height="1.18125" rx="0.590625"></rect>
                </g>
                <path d="M2.1,6.8 L18.9,6.8 C19.765952,6.8 20.5,5.94943641 20.5,4.86666667 L20.5,2.43333333 C20.5,1.35056359 19.765952,0.5 18.9,0.5 L2.1,0.5 C1.23404803,0.5 0.5,1.35056359 0.5,2.43333333 L0.5,4.86666667 C0.5,5.94943641 1.23404803,6.8 2.1,6.8 Z" id="路径" stroke="#00AB9F" fill-rule="nonzero"></path>
            </g>
        </g>
    </g>
</svg>