<?xml version="1.0" encoding="UTF-8"?>
<svg width="24px" height="24px" viewBox="0 0 24 24" version="1.1" xmlns="http://www.w3.org/2000/svg" xmlns:xlink="http://www.w3.org/1999/xlink">
    <!-- Generator: Sketch 52.5 (67469) - http://www.bohemiancoding.com/sketch -->
    <title>icon_tianjia@2x</title>
    <desc>Created with Sketch.</desc>
    <g id="钱包" stroke="none" stroke-width="1" fill="none" fill-rule="evenodd">
        <g id="聊天-转账" transform="translate(-335.000000, -631.000000)" fill-rule="nonzero">
            <g id="聊天控件" transform="translate(0.000000, 618.000000)">
                <g id="icon_tianjia" transform="translate(335.000000, 13.000000)">
                    <circle id="椭圆形" fill="#00AB9F" cx="12" cy="12" r="12"></circle>
                    <path d="M18.3,11.85 L12.15,11.85 L12.15,5.7 C12.15,5.61715729 12.0828427,5.55 12,5.55 C11.9171573,5.55 11.85,5.61715729 11.85,5.7 L11.85,11.85 L5.7,11.85 C5.61715729,11.85 5.55,11.9171573 5.55,12 C5.55,12.0828427 5.61715729,12.15 5.7,12.15 L11.85,12.15 L11.85,18.3 C11.85,18.3828427 11.9171573,18.45 12,18.45 C12.0828427,18.45 12.15,18.3828427 12.15,18.3 L12.15,12.15 L18.3,12.15 C18.3828427,12.15 18.45,12.0828427 18.45,12 C18.45,11.9171573 18.3828427,11.85 18.3,11.85 Z" id="合并形状" stroke="#FFFFFF" stroke-width="1.5"></path>
                </g>
            </g>
        </g>
    </g>
</svg>