<?xml version="1.0" encoding="UTF-8"?>
<svg width="21px" height="21px" viewBox="0 0 21 21" version="1.1" xmlns="http://www.w3.org/2000/svg" xmlns:xlink="http://www.w3.org/1999/xlink">
    <!-- Generator: Sketch 52.5 (67469) - http://www.bohemiancoding.com/sketch -->
    <title>icon_more@2x</title>
    <desc>Created with Sketch.</desc>
    <g id="钱包" stroke="none" stroke-width="1" fill="none" fill-rule="evenodd">
        <g id="彧钱包" transform="translate(-338.000000, -32.000000)" fill-rule="nonzero" stroke="#FFFFFF">
            <g id="icon_more" transform="translate(338.000000, 32.000000)">
                <rect id="矩形" x="0.5" y="2.25" width="6.875" height="6.875" rx="2"></rect>
                <path d="M13.375,2.25 C12.5465729,2.25 11.875,2.92157288 11.875,3.75 L11.875,7.625 C11.875,8.45342712 12.5465729,9.125 13.375,9.125 L17.25,9.125 C18.0784271,9.125 18.75,8.45342712 18.75,7.625 L18.75,3.75 C18.75,2.92157288 18.0784271,2.25 17.25,2.25 L13.375,2.25 Z" id="矩形-copy-6" transform="translate(15.312500, 5.687500) rotate(-45.000000) translate(-15.312500, -5.687500) "></path>
                <rect id="矩形-copy-7" x="11.875" y="13.625" width="6.875" height="6.875" rx="2"></rect>
                <rect id="矩形-copy-8" x="0.5" y="13.625" width="6.875" height="6.875" rx="2"></rect>
            </g>
        </g>
    </g>
</svg>